<?xml version="1.0" encoding="utf-8"?>
<svg version="1.1" xmlns:xlink="http://www.w3.org/1999/xlink" width="48px" height="48px" xmlns="http://www.w3.org/2000/svg">
  <g transform="matrix(1 0 0 1 -41 -991 )">
    <path d="M 65 991  C 78.44 991  89 1001.56  89 1015  C 89 1028.44  78.44 1039  65 1039  C 51.56 1039  41 1028.44  41 1015  C 41 1001.56  51.56 991  65 991  Z " fill-rule="nonzero" fill="#ffffff" stroke="none" />
    <path d="M 65 991.5  C 78.16 991.5  88.5 1001.84  88.5 1015  C 88.5 1028.16  78.16 1038.5  65 1038.5  C 51.84 1038.5  41.5 1028.16  41.5 1015  C 41.5 1001.84  51.84 991.5  65 991.5  Z " stroke-width="1" stroke="#797979" fill="none" />
  </g>
</svg>