<?xml version="1.0" encoding="utf-8"?>
<svg version="1.1" xmlns:xlink="http://www.w3.org/1999/xlink" width="41px" height="41px" xmlns="http://www.w3.org/2000/svg">
  <g transform="matrix(1 0 0 1 -165 -886 )">
    <path d="M 185.5 886  C 196.98 886  206 895.02  206 906.5  C 206 917.98  196.98 927  185.5 927  C 174.02 927  165 917.98  165 906.5  C 165 895.02  174.02 886  185.5 886  Z " fill-rule="nonzero" fill="#70b603" stroke="none" />
    <path d="M 185.5 886.5  C 196.7 886.5  205.5 895.3  205.5 906.5  C 205.5 917.7  196.7 926.5  185.5 926.5  C 174.3 926.5  165.5 917.7  165.5 906.5  C 165.5 895.3  174.3 886.5  185.5 886.5  Z " stroke-width="1" stroke="#797979" fill="none" />
  </g>
</svg>