<?xml version="1.0" encoding="utf-8"?>
<svg version="1.1" xmlns:xlink="http://www.w3.org/1999/xlink" width="41px" height="41px" xmlns="http://www.w3.org/2000/svg">
  <g transform="matrix(1 0 0 1 -369 -886 )">
    <path d="M 389.5 886  C 400.98 886  410 895.02  410 906.5  C 410 917.98  400.98 927  389.5 927  C 378.02 927  369 917.98  369 906.5  C 369 895.02  378.02 886  389.5 886  Z " fill-rule="nonzero" fill="#f59a23" stroke="none" />
    <path d="M 389.5 886.5  C 400.7 886.5  409.5 895.3  409.5 906.5  C 409.5 917.7  400.7 926.5  389.5 926.5  C 378.3 926.5  369.5 917.7  369.5 906.5  C 369.5 895.3  378.3 886.5  389.5 886.5  Z " stroke-width="1" stroke="#797979" fill="none" />
  </g>
</svg>