<?xml version="1.0" encoding="utf-8"?>
<svg version="1.1" xmlns:xlink="http://www.w3.org/1999/xlink" width="48px" height="48px" xmlns="http://www.w3.org/2000/svg">
  <g transform="matrix(1 0 0 1 -242 -1198 )">
    <path d="M 266 1198  C 279.44 1198  290 1208.56  290 1222  C 290 1235.44  279.44 1246  266 1246  C 252.56 1246  242 1235.44  242 1222  C 242 1208.56  252.56 1198  266 1198  Z " fill-rule="nonzero" fill="#ffffff" stroke="none" />
    <path d="M 266 1198.5  C 279.16 1198.5  289.5 1208.84  289.5 1222  C 289.5 1235.16  279.16 1245.5  266 1245.5  C 252.84 1245.5  242.5 1235.16  242.5 1222  C 242.5 1208.84  252.84 1198.5  266 1198.5  Z " stroke-width="1" stroke="#797979" fill="none" />
  </g>
</svg>