<?xml version="1.0" encoding="utf-8"?>
<svg version="1.1" xmlns:xlink="http://www.w3.org/1999/xlink" width="48px" height="48px" xmlns="http://www.w3.org/2000/svg">
  <g transform="matrix(1 0 0 1 -38 -988 )">
    <path d="M 62 988  C 75.44 988  86 998.56  86 1012  C 86 1025.44  75.44 1036  62 1036  C 48.56 1036  38 1025.44  38 1012  C 38 998.56  48.56 988  62 988  Z " fill-rule="nonzero" fill="#ffffff" stroke="none" />
    <path d="M 62 988.5  C 75.16 988.5  85.5 998.84  85.5 1012  C 85.5 1025.16  75.16 1035.5  62 1035.5  C 48.84 1035.5  38.5 1025.16  38.5 1012  C 38.5 998.84  48.84 988.5  62 988.5  Z " stroke-width="1" stroke="#797979" fill="none" />
  </g>
</svg>