<?xml version="1.0" encoding="utf-8"?>
<svg version="1.1" xmlns:xlink="http://www.w3.org/1999/xlink" width="188px" height="188px" xmlns="http://www.w3.org/2000/svg">
  <g transform="matrix(1 0 0 1 -116 -2951 )">
    <path d="M 210 2951  C 262.64 2951  304 2992.36  304 3045  C 304 3097.64  262.64 3139  210 3139  C 157.36 3139  116 3097.64  116 3045  C 116 2992.36  157.36 2951  210 2951  Z " fill-rule="nonzero" fill="#ffffff" stroke="none" />
    <path d="M 210 2951.5  C 262.36 2951.5  303.5 2992.64  303.5 3045  C 303.5 3097.36  262.36 3138.5  210 3138.5  C 157.64 3138.5  116.5 3097.36  116.5 3045  C 116.5 2992.64  157.64 2951.5  210 2951.5  Z " stroke-width="1" stroke="#797979" fill="none" />
  </g>
</svg>