<?xml version="1.0" encoding="utf-8"?>
<svg version="1.1" xmlns:xlink="http://www.w3.org/1999/xlink" width="246px" height="246px" xmlns="http://www.w3.org/2000/svg">
  <g transform="matrix(1 0 0 1 -87 -2923 )">
    <path d="M 182.748050704358 3008.49090969188  L 210 2924.61803398875  L 237.251949295642 3008.49090969188  L 325.441109735716 3008.49090969188  L 254.094580220037 3060.32719761061  L 281.346529515679 3144.20007331374  L 210 3092.36378539501  L 138.653470484321 3144.20007331374  L 165.905419779963 3060.32719761061  L 94.5588902642837 3008.49090969188  L 182.748050704358 3008.49090969188  Z " fill-rule="nonzero" fill="#ffffff" stroke="none" />
    <path d="M 182.384779440355 3007.99090969188  L 210 2923  L 237.615220559644 3007.99090969188  L 326.979951504304 3007.99090969188  L 254.68236547233 3060.51818061624  L 282.297586031974 3145.50909030812  L 210 3092.98181938376  L 137.702413968026 3145.50909030812  L 165.31763452767 3060.51818061624  L 93.0200484956961 3007.99090969188  L 182.384779440355 3007.99090969188  Z M 210 2926.2360679775  L 183.111321968361 3008.99090969188  L 96.0977320328713 3008.99090969188  L 166.493205032255 3060.13621460499  L 139.604527000616 3142.89105631937  L 210 3091.74575140626  L 280.395472999384 3142.89105631937  L 253.506794967745 3060.13621460499  L 323.902267967129 3008.99090969188  L 236.888678031639 3008.99090969188  L 210 2926.2360679775  Z " fill-rule="nonzero" fill="#797979" stroke="none" />
  </g>
</svg>