<?xml version="1.0" encoding="utf-8"?>
<svg version="1.1" xmlns:xlink="http://www.w3.org/1999/xlink" width="128px" height="128px" xmlns="http://www.w3.org/2000/svg">
  <g transform="matrix(1 0 0 1 -146 -2981 )">
    <path d="M 210 2981  C 245.84 2981  274 3009.16  274 3045  C 274 3080.84  245.84 3109  210 3109  C 174.16 3109  146 3080.84  146 3045  C 146 3009.16  174.16 2981  210 2981  Z " fill-rule="nonzero" fill="#ffffff" stroke="none" />
    <path d="M 210 2981.5  C 245.56 2981.5  273.5 3009.44  273.5 3045  C 273.5 3080.56  245.56 3108.5  210 3108.5  C 174.44 3108.5  146.5 3080.56  146.5 3045  C 146.5 3009.44  174.44 2981.5  210 2981.5  Z " stroke-width="1" stroke="#797979" fill="none" />
  </g>
</svg>