<?xml version="1.0" encoding="utf-8"?>
<svg version="1.1" xmlns:xlink="http://www.w3.org/1999/xlink" width="76px" height="76px" xmlns="http://www.w3.org/2000/svg">
  <g transform="matrix(1 0 0 1 -172 -3008 )">
    <path d="M 210 3008  C 231.28 3008  248 3024.72  248 3046  C 248 3067.28  231.28 3084  210 3084  C 188.72 3084  172 3067.28  172 3046  C 172 3024.72  188.72 3008  210 3008  Z " fill-rule="nonzero" fill="#ffffff" stroke="none" />
    <path d="M 210 3008.5  C 231 3008.5  247.5 3025  247.5 3046  C 247.5 3067  231 3083.5  210 3083.5  C 189 3083.5  172.5 3067  172.5 3046  C 172.5 3025  189 3008.5  210 3008.5  Z " stroke-width="1" stroke="#797979" fill="none" />
  </g>
</svg>