<?xml version="1.0" encoding="utf-8"?>
<svg version="1.1" xmlns:xlink="http://www.w3.org/1999/xlink" width="48px" height="48px" xmlns="http://www.w3.org/2000/svg">
  <g transform="matrix(1 0 0 1 -242 -1186 )">
    <path d="M 266 1186  C 279.44 1186  290 1196.56  290 1210  C 290 1223.44  279.44 1234  266 1234  C 252.56 1234  242 1223.44  242 1210  C 242 1196.56  252.56 1186  266 1186  Z " fill-rule="nonzero" fill="#ffffff" stroke="none" />
    <path d="M 266 1186.5  C 279.16 1186.5  289.5 1196.84  289.5 1210  C 289.5 1223.16  279.16 1233.5  266 1233.5  C 252.84 1233.5  242.5 1223.16  242.5 1210  C 242.5 1196.84  252.84 1186.5  266 1186.5  Z " stroke-width="1" stroke="#797979" fill="none" />
  </g>
</svg>