<?xml version="1.0" encoding="utf-8"?>
<svg version="1.1" xmlns:xlink="http://www.w3.org/1999/xlink" width="188px" height="188px" xmlns="http://www.w3.org/2000/svg">
  <g transform="matrix(1 0 0 1 -116 -2915 )">
    <path d="M 210 2915  C 262.64 2915  304 2956.36  304 3009  C 304 3061.64  262.64 3103  210 3103  C 157.36 3103  116 3061.64  116 3009  C 116 2956.36  157.36 2915  210 2915  Z " fill-rule="nonzero" fill="#ffffff" stroke="none" />
    <path d="M 210 2915.5  C 262.36 2915.5  303.5 2956.64  303.5 3009  C 303.5 3061.36  262.36 3102.5  210 3102.5  C 157.64 3102.5  116.5 3061.36  116.5 3009  C 116.5 2956.64  157.64 2915.5  210 2915.5  Z " stroke-width="1" stroke="#797979" fill="none" />
  </g>
</svg>