<?xml version="1.0" encoding="utf-8"?>
<svg version="1.1" xmlns:xlink="http://www.w3.org/1999/xlink" width="128px" height="128px" xmlns="http://www.w3.org/2000/svg">
  <g transform="matrix(1 0 0 1 -146 -2945 )">
    <path d="M 210 2945  C 245.84 2945  274 2973.16  274 3009  C 274 3044.84  245.84 3073  210 3073  C 174.16 3073  146 3044.84  146 3009  C 146 2973.16  174.16 2945  210 2945  Z " fill-rule="nonzero" fill="#ffffff" stroke="none" />
    <path d="M 210 2945.5  C 245.56 2945.5  273.5 2973.44  273.5 3009  C 273.5 3044.56  245.56 3072.5  210 3072.5  C 174.44 3072.5  146.5 3044.56  146.5 3009  C 146.5 2973.44  174.44 2945.5  210 2945.5  Z " stroke-width="1" stroke="#797979" fill="none" />
  </g>
</svg>