<?xml version="1.0" encoding="utf-8"?>
<svg version="1.1" xmlns:xlink="http://www.w3.org/1999/xlink" width="76px" height="76px" xmlns="http://www.w3.org/2000/svg">
  <g transform="matrix(1 0 0 1 -172 -2972 )">
    <path d="M 210 2972  C 231.28 2972  248 2988.72  248 3010  C 248 3031.28  231.28 3048  210 3048  C 188.72 3048  172 3031.28  172 3010  C 172 2988.72  188.72 2972  210 2972  Z " fill-rule="nonzero" fill="#ffffff" stroke="none" />
    <path d="M 210 2972.5  C 231 2972.5  247.5 2989  247.5 3010  C 247.5 3031  231 3047.5  210 3047.5  C 189 3047.5  172.5 3031  172.5 3010  C 172.5 2989  189 2972.5  210 2972.5  Z " stroke-width="1" stroke="#797979" fill="none" />
  </g>
</svg>