<?xml version="1.0" encoding="utf-8"?>
<svg version="1.1" xmlns:xlink="http://www.w3.org/1999/xlink" width="22px" height="32px" xmlns="http://www.w3.org/2000/svg">
  <g transform="matrix(1 0 0 1 -413 -2348 )">
    <path d="M 14.888671875 14.4375  C 15.962890625 13.3958333333333  16.5 12.1388888888889  16.5 10.6666666666667  C 16.5 9.19444444444444  15.962890625 7.9375  14.888671875 6.89583333333333  C 13.814453125 5.85416666666667  12.5182291666667 5.33333333333333  11 5.33333333333333  C 9.48177083333333 5.33333333333333  8.185546875 5.85416666666667  7.111328125 6.89583333333333  C 6.037109375 7.9375  5.5 9.19444444444444  5.5 10.6666666666667  C 5.5 12.1388888888889  6.037109375 13.3958333333333  7.111328125 14.4375  C 8.185546875 15.4791666666667  9.48177083333333 16  11 16  C 12.5182291666667 16  13.814453125 15.4791666666667  14.888671875 14.4375  Z M 18.77734375 3.125  C 20.92578125 5.20833333333333  22 7.72222222222222  22 10.6666666666667  C 22 12.1805555555556  21.763671875 13.4236111111111  21.291015625 14.3958333333333  L 13.470703125 30.5208333333333  C 13.2415364583333 30.9791666666667  12.9013671875 31.3402777777778  12.4501953125 31.6041666666667  C 11.9990234375 31.8680555555556  11.515625 32  11 32  C 10.484375 32  10.0009765625 31.8680555555556  9.5498046875 31.6041666666667  C 9.0986328125 31.3402777777778  8.765625 30.9791666666667  8.55078125 30.5208333333333  L 0.708984375 14.3958333333333  C 0.236328125 13.4236111111111  0 12.1805555555556  0 10.6666666666667  C 0 7.72222222222222  1.07421875 5.20833333333333  3.22265625 3.125  C 5.37109375 1.04166666666667  7.96354166666667 0  11 0  C 14.0364583333333 0  16.62890625 1.04166666666667  18.77734375 3.125  Z " fill-rule="nonzero" fill="#7f7f7f" stroke="none" transform="matrix(1 0 0 1 413 2348 )" />
  </g>
</svg>