<?xml version="1.0" encoding="utf-8"?>
<svg version="1.1" xmlns:xlink="http://www.w3.org/1999/xlink" width="18px" height="55px" xmlns="http://www.w3.org/2000/svg">
  <g transform="matrix(1 0 0 1 -907 -1780 )">
    <path d="M 910.77639320225 1786.55832470661  C 910.77639320225 1786.55832470661  924.483671576105 1807.5  924.483671576105 1807.5  C 924.483671576105 1807.5  910.77639320225 1828.44167529339  910.77639320225 1828.44167529339  C 910.77639320225 1828.44167529339  907.5 1833.44727601905  907.5 1833.44727601905  C 907.5 1833.44727601905  907.5 1781.55272398095  907.5 1781.55272398095  C 907.5 1781.55272398095  910.77639320225 1786.55832470661  910.77639320225 1786.55832470661  Z " fill-rule="nonzero" fill="#ffffff" stroke="none" />
    <path d="M 910.77639320225 1786.55832470661  C 910.77639320225 1786.55832470661  924.483671576105 1807.5  924.483671576105 1807.5  C 924.483671576105 1807.5  910.77639320225 1828.44167529339  910.77639320225 1828.44167529339  C 910.77639320225 1828.44167529339  907.5 1833.44727601905  907.5 1833.44727601905  C 907.5 1833.44727601905  907.5 1781.55272398095  907.5 1781.55272398095  C 907.5 1781.55272398095  910.77639320225 1786.55832470661  910.77639320225 1786.55832470661  Z " stroke-width="1" stroke="#797979" fill="none" />
  </g>
</svg>