<?xml version="1.0" encoding="utf-8"?>
<svg version="1.1" xmlns:xlink="http://www.w3.org/1999/xlink" width="38px" height="38px" xmlns="http://www.w3.org/2000/svg">
  <g transform="matrix(1 0 0 1 -679 -896 )">
    <path d="M 698 896  C 708.64 896  717 904.36  717 915  C 717 925.64  708.64 934  698 934  C 687.36 934  679 925.64  679 915  C 679 904.36  687.36 896  698 896  Z " fill-rule="nonzero" fill="#ffffff" stroke="none" />
    <path d="M 698 896.5  C 708.36 896.5  716.5 904.64  716.5 915  C 716.5 925.36  708.36 933.5  698 933.5  C 687.64 933.5  679.5 925.36  679.5 915  C 679.5 904.64  687.64 896.5  698 896.5  Z " stroke-width="1" stroke="#797979" fill="none" />
  </g>
</svg>