<?xml version="1.0" encoding="utf-8"?>
<svg version="1.1" xmlns:xlink="http://www.w3.org/1999/xlink" width="60px" height="60px" xmlns="http://www.w3.org/2000/svg">
  <g transform="matrix(1 0 0 1 -353 -1510 )">
    <path d="M 383 1510  C 399.8 1510  413 1523.2  413 1540  C 413 1556.8  399.8 1570  383 1570  C 366.2 1570  353 1556.8  353 1540  C 353 1523.2  366.2 1510  383 1510  Z " fill-rule="nonzero" fill="#ffffff" stroke="none" />
    <path d="M 383 1510.5  C 399.52 1510.5  412.5 1523.48  412.5 1540  C 412.5 1556.52  399.52 1569.5  383 1569.5  C 366.48 1569.5  353.5 1556.52  353.5 1540  C 353.5 1523.48  366.48 1510.5  383 1510.5  Z " stroke-width="1" stroke="#797979" fill="none" />
  </g>
</svg>