<?xml version="1.0" encoding="utf-8"?>
<svg version="1.1" xmlns:xlink="http://www.w3.org/1999/xlink" width="50px" height="27px" xmlns="http://www.w3.org/2000/svg">
  <g transform="matrix(1 0 0 1 -358 -1527 )">
    <path d="M 21.4322916666667 15.7939453125  C 21.5885416666667 15.6357421875  21.6666666666667 15.43359375  21.6666666666667 15.1875  L 21.6666666666667 11.8125  C 21.6666666666667 11.56640625  21.5885416666667 11.3642578125  21.4322916666667 11.2060546875  C 21.2760416666667 11.0478515625  21.0763888888889 10.96875  20.8333333333333 10.96875  L 15.8333333333333 10.96875  L 15.8333333333333 5.90625  C 15.8333333333333 5.66015625  15.7552083333333 5.4580078125  15.5989583333333 5.2998046875  C 15.4427083333333 5.1416015625  15.2430555555556 5.0625  15 5.0625  L 11.6666666666667 5.0625  C 11.4236111111111 5.0625  11.2239583333333 5.1416015625  11.0677083333333 5.2998046875  C 10.9114583333333 5.4580078125  10.8333333333333 5.66015625  10.8333333333333 5.90625  L 10.8333333333333 10.96875  L 5.83333333333333 10.96875  C 5.59027777777778 10.96875  5.390625 11.0478515625  5.234375 11.2060546875  C 5.078125 11.3642578125  5 11.56640625  5 11.8125  L 5 15.1875  C 5 15.43359375  5.078125 15.6357421875  5.234375 15.7939453125  C 5.390625 15.9521484375  5.59027777777778 16.03125  5.83333333333333 16.03125  L 10.8333333333333 16.03125  L 10.8333333333333 21.09375  C 10.8333333333333 21.33984375  10.9114583333333 21.5419921875  11.0677083333333 21.7001953125  C 11.2239583333333 21.8583984375  11.4236111111111 21.9375  11.6666666666667 21.9375  L 15 21.9375  C 15.2430555555556 21.9375  15.4427083333333 21.8583984375  15.5989583333333 21.7001953125  C 15.7552083333333 21.5419921875  15.8333333333333 21.33984375  15.8333333333333 21.09375  L 15.8333333333333 16.03125  L 20.8333333333333 16.03125  C 21.0763888888889 16.03125  21.2760416666667 15.9521484375  21.4322916666667 15.7939453125  Z M 35.6901041666667 19.26123046875  C 36.3411458333333 18.60205078125  36.6666666666667 17.806640625  36.6666666666667 16.875  C 36.6666666666667 15.943359375  36.3411458333333 15.14794921875  35.6901041666667 14.48876953125  C 35.0390625 13.82958984375  34.2534722222222 13.5  33.3333333333333 13.5  C 32.4131944444445 13.5  31.6276041666667 13.82958984375  30.9765625 14.48876953125  C 30.3255208333333 15.14794921875  30 15.943359375  30 16.875  C 30 17.806640625  30.3255208333333 18.60205078125  30.9765625 19.26123046875  C 31.6276041666667 19.92041015625  32.4131944444445 20.25  33.3333333333333 20.25  C 34.2534722222222 20.25  35.0390625 19.92041015625  35.6901041666667 19.26123046875  Z M 42.3567708333333 12.51123046875  C 43.0078125 11.85205078125  43.3333333333333 11.056640625  43.3333333333333 10.125  C 43.3333333333333 9.193359375  43.0078125 8.39794921875  42.3567708333333 7.73876953125  C 41.7057291666667 7.07958984375  40.9201388888889 6.75  40 6.75  C 39.0798611111111 6.75  38.2942708333333 7.07958984375  37.6432291666667 7.73876953125  C 36.9921875 8.39794921875  36.6666666666667 9.193359375  36.6666666666667 10.125  C 36.6666666666667 11.056640625  36.9921875 11.85205078125  37.6432291666667 12.51123046875  C 38.2942708333333 13.17041015625  39.0798611111111 13.5  40 13.5  C 40.9201388888889 13.5  41.7057291666667 13.17041015625  42.3567708333333 12.51123046875  Z M 46.09375 3.955078125  C 48.6979166666667 6.591796875  50 9.7734375  50 13.5  C 50 17.2265625  48.6979166666667 20.408203125  46.09375 23.044921875  C 43.4895833333333 25.681640625  40.3472222222222 27  36.6666666666667 27  C 33.3333333333333 27  30.3993055555556 25.875  27.8645833333333 23.625  L 22.1354166666667 23.625  C 19.6006944444444 25.875  16.6666666666667 27  13.3333333333333 27  C 9.65277777777778 27  6.51041666666667 25.681640625  3.90625 23.044921875  C 1.30208333333333 20.408203125  0 17.2265625  0 13.5  C 0 9.7734375  1.30208333333333 6.591796875  3.90625 3.955078125  C 6.51041666666667 1.318359375  9.65277777777778 0  13.3333333333333 0  L 36.6666666666667 0  C 40.3472222222222 0  43.4895833333333 1.318359375  46.09375 3.955078125  Z " fill-rule="nonzero" fill="#7f7f7f" stroke="none" transform="matrix(1 0 0 1 358 1527 )" />
  </g>
</svg>