<?xml version="1.0" encoding="utf-8"?>
<svg version="1.1" xmlns:xlink="http://www.w3.org/1999/xlink" width="60px" height="60px" xmlns="http://www.w3.org/2000/svg">
  <g transform="matrix(1 0 0 1 -353 -2135 )">
    <path d="M 383 2135  C 399.8 2135  413 2148.2  413 2165  C 413 2181.8  399.8 2195  383 2195  C 366.2 2195  353 2181.8  353 2165  C 353 2148.2  366.2 2135  383 2135  Z " fill-rule="nonzero" fill="#ffffff" stroke="none" />
    <path d="M 383 2135.5  C 399.52 2135.5  412.5 2148.48  412.5 2165  C 412.5 2181.52  399.52 2194.5  383 2194.5  C 366.48 2194.5  353.5 2181.52  353.5 2165  C 353.5 2148.48  366.48 2135.5  383 2135.5  Z " stroke-width="1" stroke="#797979" fill="none" />
  </g>
</svg>