<?xml version="1.0" encoding="utf-8"?>
<svg version="1.1" xmlns:xlink="http://www.w3.org/1999/xlink" width="40px" height="37px" xmlns="http://www.w3.org/2000/svg">
  <g transform="matrix(1 0 0 1 -788 -1522 )">
    <path d="M 17.1041666666667 22.2924474730267  C 18.1458333333333 21.2419080068143  18.6666666666667 19.974257050918  18.6666666666667 18.4894946053379  C 18.6666666666667 17.0047321597577  18.1458333333333 15.7370812038614  17.1041666666667 14.6865417376491  C 16.0625 13.6360022714367  14.8055555555556 13.1107325383305  13.3333333333333 13.1107325383305  C 11.8611111111111 13.1107325383305  10.6041666666667 13.6360022714367  9.5625 14.6865417376491  C 8.52083333333333 15.7370812038614  8 17.0047321597577  8 18.4894946053379  C 8 19.974257050918  8.52083333333333 21.2419080068143  9.5625 22.2924474730267  C 10.6041666666667 23.3429869392391  11.8611111111111 23.8682566723453  13.3333333333333 23.8682566723453  C 14.8055555555556 23.8682566723453  16.0625 23.3429869392391  17.1041666666667 22.2924474730267  Z M 33.8854166666667 31.148495173197  C 34.40625 30.6232254400909  34.6666666666667 29.9893999621427  34.6666666666667 29.2470187393526  C 34.6666666666667 28.5186447094454  34.4027777777778 27.888321029718  33.875 27.3560477001704  C 33.3472222222222 26.8237743706228  32.7222222222222 26.557637705849  32 26.557637705849  C 31.2777777777778 26.557637705849  30.6527777777778 26.8237743706228  30.125 27.3560477001704  C 29.5972222222222 27.888321029718  29.3333333333333 28.5186447094454  29.3333333333333 29.2470187393526  C 29.3333333333333 29.9893999621427  29.59375 30.6232254400909  30.1145833333333 31.148495173197  C 30.6354166666667 31.6737649063032  31.2638888888889 31.9363997728563  32 31.9363997728563  C 32.7361111111111 31.9363997728563  33.3645833333333 31.6737649063032  33.8854166666667 31.148495173197  Z M 33.8854166666667 9.63344690516752  C 34.40625 9.10817717206133  34.6666666666667 8.47435169411319  34.6666666666667 7.73197047132311  C 34.6666666666667 7.00359644141586  34.4027777777778 6.37327276168843  33.875 5.84099943214083  C 33.3472222222222 5.30872610259322  32.7222222222222 5.04258943781942  32 5.04258943781942  C 31.2777777777778 5.04258943781942  30.6527777777778 5.30872610259322  30.125 5.84099943214083  C 29.5972222222222 6.37327276168843  29.3333333333333 7.00359644141586  29.3333333333333 7.73197047132311  C 29.3333333333333 8.47435169411319  29.59375 9.10817717206133  30.1145833333333 9.63344690516752  C 30.6354166666667 10.1587166382737  31.2638888888889 10.4213515048268  32 10.4213515048268  C 32.7361111111111 10.4213515048268  33.3645833333333 10.1587166382737  33.8854166666667 9.63344690516752  Z M 26.5208333333333 16.1678023850085  C 26.6180555555556 16.2868635245126  26.6666666666667 16.4234336551202  26.6666666666667 16.5775127768313  L 26.6666666666667 20.4645088018172  C 26.6666666666667 20.6045807306455  26.6180555555556 20.7411508612531  26.5208333333333 20.87421919364  C 26.4236111111111 21.0072875260269  26.3125 21.0808252886617  26.1875 21.0948324815446  L 22.9583333333333 21.5990914253265  C 22.8055555555556 22.0893431762256  22.5833333333333 22.6216165057732  22.2916666666667 23.1959114139693  C 22.7638888888889 23.8682566723453  23.3888888888889 24.6736702631081  24.1666666666667 25.6121521862578  C 24.2638888888889 25.766231307969  24.3125 25.9063032367973  24.3125 26.0323679727428  C 24.3125 26.2004542873367  24.2638888888889 26.3335226197236  24.1666666666667 26.4315729699035  C 23.8472222222222 26.8517887563884  23.2743055555556 27.4786106378951  22.4479166666667 28.3120386144236  C 21.6215277777778 29.1454665909521  21.0763888888889 29.5621805792164  20.8125 29.5621805792164  C 20.6597222222222 29.5621805792164  20.5138888888889 29.5131554041264  20.375 29.4151050539466  L 17.9791666666667 27.5241340147643  C 17.4652777777778 27.7902706795381  16.9305555555556 28.007382169222  16.375 28.175468483816  C 16.2222222222222 29.6882453151618  16.0625 30.7738027635813  15.8958333333333 31.4321408290744  C 15.7986111111111 31.7683134582624  15.5902777777778 31.9363997728563  15.2708333333333 31.9363997728563  L 11.3958333333333 31.9363997728563  C 11.2430555555556 31.9363997728563  11.1041666666667 31.8838727995457  10.9791666666667 31.7788188529245  C 10.8541666666667 31.6737649063032  10.7847222222222 31.5512019685785  10.7708333333333 31.4111300397501  L 10.2916666666667 28.1964792731403  C 9.81944444444444 28.0564073443119  9.29861111111111 27.8392958546281  8.72916666666667 27.5451448040886  L 6.27083333333333 29.4151050539466  C 6.17361111111111 29.5131554041264  6.03472222222222 29.5621805792164  5.85416666666667 29.5621805792164  C 5.70138888888889 29.5621805792164  5.55555555555556 29.506151807685  5.41666666666667 29.3940942646224  C 3.41666666666667 27.5311376112058  2.41666666666667 26.4105621805792  2.41666666666667 26.0323679727428  C 2.41666666666667 25.9063032367973  2.46527777777778 25.7732349044104  2.5625 25.6331629755821  C 2.70138888888889 25.4370622752224  2.98611111111111 25.0658716638274  3.41666666666667 24.5195911413969  C 3.84722222222222 23.9733106189665  4.17361111111111 23.5460912360401  4.39583333333333 23.2379329926178  C 4.07638888888889 22.6216165057732  3.83333333333333 22.0473215975771  3.66666666666667 21.5150482680295  L 0.5 21.0107893242476  C 0.361111111111111 20.9967821313648  0.243055555555556 20.9302479651713  0.145833333333333 20.8111868256672  C 0.0486111111111111 20.6921256861632  0 20.5555555555556  0 20.4014764338444  L 0 16.5144804088586  C 0 16.3744084800303  0.0486111111111111 16.2378383494227  0.145833333333333 16.1047700170358  C 0.243055555555556 15.9717016846489  0.354166666666667 15.898163922014  0.479166666666667 15.8841567291312  L 3.70833333333333 15.3798977853492  C 3.86111111111111 14.8896460344501  4.08333333333333 14.3573727049025  4.375 13.7830777967064  C 3.90277777777778 13.1107325383305  3.27777777777778 12.3053189475677  2.5 11.3668370244179  C 2.40277777777778 11.2127579027068  2.35416666666667 11.0726859738785  2.35416666666667 10.946621237933  C 2.35416666666667 10.778534923339  2.40277777777778 10.6384629945107  2.5 10.526405451448  C 2.80555555555556 10.1061896649631  3.375 9.48286958167707  4.20833333333333 8.65644520159  C 5.04166666666667 7.83002082150293  5.59027777777778 7.4168086314594  5.85416666666667 7.4168086314594  C 6.00694444444445 7.4168086314594  6.15277777777778 7.46583380654931  6.29166666666667 7.56388415672913  L 8.6875 9.45485519591141  C 9.15972222222222 9.20272572402044  9.69444444444445 8.97861063789514  10.2916666666667 8.78250993753549  C 10.4444444444444 7.26973310618967  10.6041666666667 6.19117925421162  10.7708333333333 5.54684838160136  C 10.8680555555556 5.2106757524134  11.0763888888889 5.04258943781942  11.3958333333333 5.04258943781942  L 15.2708333333333 5.04258943781942  C 15.4236111111111 5.04258943781942  15.5625 5.09511641113004  15.6875 5.20017035775128  C 15.8125 5.30522430437251  15.8819444444444 5.42778724209729  15.8958333333333 5.56785917092561  L 16.375 8.78250993753549  C 16.8472222222222 8.92258186636381  17.3680555555556 9.1396933560477  17.9375 9.43384440658717  L 20.3958333333333 7.56388415672913  C 20.5069444444445 7.46583380654931  20.6458333333333 7.4168086314594  20.8125 7.4168086314594  C 20.9652777777778 7.4168086314594  21.1111111111111 7.47283740299072  21.25 7.58489494605338  C 23.25 9.44785159947  24.25 10.5684270300965  24.25 10.946621237933  C 24.25 11.0586787809956  24.2013888888889 11.1917471133825  24.1041666666667 11.3458262350937  C 23.9375 11.569941321219  23.6458333333333 11.9481355290555  23.2291666666667 12.4804088586031  C 22.8125 13.0126821881507  22.5 13.4328979746356  22.2916666666667 13.7410562180579  C 22.6111111111111 14.4134014764338  22.8472222222222 14.9876963846299  23 15.4639409426462  L 26.1666666666667 15.9471890971039  C 26.3055555555556 15.9752034828696  26.4236111111111 16.0487412455044  26.5208333333333 16.1678023850085  Z M 36.8958333333333 27.1249290176036  C 38.9652777777778 27.3350369108461  40 27.55214840053  40 27.7762634866553  L 40 30.71777399205  C 40 30.9418890781753  38.9652777777778 31.1590005678592  36.8958333333333 31.3691084611016  C 36.7291666666667 31.7473026689381  36.5208333333333 32.1114896838917  36.2708333333333 32.4616695059625  C 36.9791666666667 34.0444823017225  37.3333333333333 35.0109786106379  37.3333333333333 35.3611584327087  C 37.3333333333333 35.41718720424  37.3055555555556 35.4662123793299  37.25 35.5082339579784  C 35.5555555555556 36.5027446526595  34.6944444444444 37  34.6666666666667 37  C 34.5555555555556 37  34.2361111111111 36.6708309672535  33.7083333333333 36.0124929017604  C 33.1805555555556 35.3541548362673  32.8194444444444 34.877910278251  32.625 34.5837592277115  C 32.3472222222222 34.6117736134772  32.1388888888889 34.62578080636  32 34.62578080636  C 31.8611111111111 34.62578080636  31.6527777777778 34.6117736134772  31.375 34.5837592277115  C 31.1805555555556 34.877910278251  30.8194444444445 35.3541548362673  30.2916666666667 36.0124929017604  C 29.7638888888889 36.6708309672535  29.4444444444444 37  29.3333333333333 37  C 29.3055555555556 37  28.4444444444444 36.5027446526595  26.75 35.5082339579784  C 26.6944444444444 35.4662123793299  26.6666666666667 35.41718720424  26.6666666666667 35.3611584327087  C 26.6666666666667 35.0109786106379  27.0208333333333 34.0444823017225  27.7291666666667 32.4616695059625  C 27.4791666666667 32.1114896838917  27.2708333333333 31.7473026689381  27.1041666666667 31.3691084611016  C 25.0347222222222 31.1590005678592  24 30.9418890781753  24 30.71777399205  L 24 27.7762634866553  C 24 27.55214840053  25.0347222222222 27.3350369108461  27.1041666666667 27.1249290176036  C 27.2847222222222 26.7187204240015  27.4930555555556 26.3545334090479  27.7291666666667 26.0323679727428  C 27.0208333333333 24.4495551769828  26.6666666666667 23.4830588680674  26.6666666666667 23.1328790459966  C 26.6666666666667 23.0768502744653  26.6944444444444 23.0278250993754  26.75 22.9858035207269  C 26.8055555555556 22.9577891349612  27.0486111111111 22.8177172061329  27.4791666666667 22.5655877342419  C 27.9097222222222 22.3134582623509  28.3194444444445 22.0753359833428  28.7083333333333 21.8512208972175  C 29.0972222222222 21.6271058110922  29.3055555555556 21.5150482680295  29.3333333333333 21.5150482680295  C 29.4444444444444 21.5150482680295  29.7638888888889 21.8407155025554  30.2916666666667 22.492049971607  C 30.8194444444445 23.1433844406587  31.1805555555556 23.6161272004543  31.375 23.9102782509938  C 31.6527777777778 23.8822638652281  31.8611111111111 23.8682566723453  32 23.8682566723453  C 32.1388888888889 23.8682566723453  32.3472222222222 23.8822638652281  32.625 23.9102782509938  C 33.3333333333333 22.9157675563127  33.9722222222222 22.1313647548741  34.5416666666667 21.557069846678  L 34.6666666666667 21.5150482680295  C 34.7222222222222 21.5150482680295  35.5833333333333 22.0053000189286  37.25 22.9858035207269  C 37.3055555555556 23.0278250993754  37.3333333333333 23.0768502744653  37.3333333333333 23.1328790459966  C 37.3333333333333 23.4830588680674  36.9791666666667 24.4495551769828  36.2708333333333 26.0323679727428  C 36.5069444444445 26.3545334090479  36.7152777777778 26.7187204240015  36.8958333333333 27.1249290176036  Z M 36.8958333333333 5.60988074957411  C 38.9652777777778 5.81998864281658  40 6.03710013250047  40 6.26121521862578  L 40 9.20272572402044  C 40 9.42684081014575  38.9652777777778 9.64395229982964  36.8958333333333 9.85406019307212  C 36.7291666666667 10.2322544009086  36.5208333333333 10.5964414158622  36.2708333333333 10.946621237933  C 36.9791666666667 12.529434033693  37.3333333333333 13.4959303426084  37.3333333333333 13.8461101646792  C 37.3333333333333 13.9021389362105  37.3055555555556 13.9511641113004  37.25 13.9931856899489  C 35.5555555555556 14.9876963846299  34.6944444444444 15.4849517319705  34.6666666666667 15.4849517319705  C 34.5555555555556 15.4849517319705  34.2361111111111 15.1557826992239  33.7083333333333 14.4974446337308  C 33.1805555555556 13.8391065682377  32.8194444444444 13.3628620102215  32.625 13.068710959682  C 32.3472222222222 13.0967253454477  32.1388888888889 13.1107325383305  32 13.1107325383305  C 31.8611111111111 13.1107325383305  31.6527777777778 13.0967253454477  31.375 13.068710959682  C 31.1805555555556 13.3628620102215  30.8194444444445 13.8391065682377  30.2916666666667 14.4974446337308  C 29.7638888888889 15.1557826992239  29.4444444444444 15.4849517319705  29.3333333333333 15.4849517319705  C 29.3055555555556 15.4849517319705  28.4444444444444 14.9876963846299  26.75 13.9931856899489  C 26.6944444444444 13.9511641113004  26.6666666666667 13.9021389362105  26.6666666666667 13.8461101646792  C 26.6666666666667 13.4959303426084  27.0208333333333 12.529434033693  27.7291666666667 10.946621237933  C 27.4791666666667 10.5964414158622  27.2708333333333 10.2322544009086  27.1041666666667 9.85406019307212  C 25.0347222222222 9.64395229982964  24 9.42684081014575  24 9.20272572402044  L 24 6.26121521862578  C 24 6.03710013250047  25.0347222222222 5.81998864281658  27.1041666666667 5.60988074957411  C 27.2847222222222 5.20367215597198  27.4930555555556 4.83948514101836  27.7291666666667 4.51731970471323  C 27.0208333333333 2.93450690895324  26.6666666666667 1.96801060003785  26.6666666666667 1.61783077796707  C 26.6666666666667 1.56180200643574  26.6944444444444 1.51277683134583  26.75 1.47075525269733  C 26.8055555555556 1.44274086693166  27.0486111111111 1.30266893810335  27.4791666666667 1.05053946621238  C 27.9097222222222 0.798409994321409  28.3194444444445 0.560287715313264  28.7083333333333 0.336172629187962  C 29.0972222222222 0.112057543062651  29.3055555555556 0  29.3333333333333 0  C 29.4444444444444 0  29.7638888888889 0.325667234525836  30.2916666666667 0.977001703577511  C 30.8194444444445 1.62833617262919  31.1805555555556 2.10107893242476  31.375 2.39522998296423  C 31.6527777777778 2.36721559719856  31.8611111111111 2.35320840431573  32 2.35320840431573  C 32.1388888888889 2.35320840431573  32.3472222222222 2.36721559719856  32.625 2.39522998296423  C 33.3333333333333 1.40071928828317  33.9722222222222 0.616316486844594  34.5416666666667 0.0420215786484952  L 34.6666666666667 0  C 34.7222222222222 0  35.5833333333333 0.490251750899108  37.25 1.47075525269733  C 37.3055555555556 1.51277683134583  37.3333333333333 1.56180200643574  37.3333333333333 1.61783077796707  C 37.3333333333333 1.96801060003785  36.9791666666667 2.93450690895324  36.2708333333333 4.51731970471323  C 36.5069444444445 4.83948514101836  36.7152777777778 5.20367215597198  36.8958333333333 5.60988074957411  Z " fill-rule="nonzero" fill="#7f7f7f" stroke="none" transform="matrix(1 0 0 1 788 1522 )" />
  </g>
</svg>