<?xml version="1.0" encoding="utf-8"?>
<svg version="1.1" xmlns:xlink="http://www.w3.org/1999/xlink" width="20px" height="37px" xmlns="http://www.w3.org/2000/svg">
  <g transform="matrix(1 0 0 1 -1223 -1993 )">
    <path d="M 18.9755011135857 9.40564903846154  C 19.2576095025984 9.40564903846154  19.5100222717149 9.51682692307692  19.7327394209354 9.73918269230769  C 20 10.0356570512821  20.0519673348181 10.3617788461538  19.8886414253898 10.7175480769231  L 7.8619153674833 36.4441105769231  C 7.66889383815887 36.814703525641  7.35708982925019 37  6.92650334075724 37  C 6.86711210096511 37  6.76317743132888 36.9851762820513  6.61469933184855 36.9555288461538  C 6.362286562732 36.8814102564103  6.17297698589458 36.7405849358974  6.0467706013363 36.5330528846154  C 5.92056421677803 36.3255208333333  5.88715664439495 36.1031650641026  5.94654788418708 35.8659855769231  L 10.3340757238307 17.8996394230769  L 1.29175946547884 20.1454326923077  C 1.23236822568671 20.1602564102564  1.14328136599852 20.1676682692308  1.02449888641425 20.1676682692308  C 0.757238307349666 20.1676682692308  0.52709725315516 20.0861378205128  0.334075723830735 19.9230769230769  C 0.066815144766147 19.7007211538462  -0.0296956198960653 19.4116586538462  0.044543429844098 19.0558894230769  L 4.52115812917595 0.711538461538463  C 4.58054936896808 0.504006410256408  4.69933184855234 0.333533653846156  4.87750556792873 0.200120192307693  C 5.05567928730512 0.0667067307692295  5.26354862657758 0  5.5011135857461 0  L 12.8062360801782 0  C 13.0883444691908 0  13.3259094283593 0.0926482371794822  13.5189309576837 0.277944711538463  C 13.7119524870082 0.463241185897436  13.8084632516704 0.681891025641023  13.8084632516704 0.93389423076923  C 13.8084632516704 1.05248397435897  13.7713437268003 1.18589743589744  13.6971046770601 1.33413461538461  L 9.88864142538976 11.6292067307692  L 18.7082405345212 9.45012019230769  C 18.8270230141054 9.42047275641025  18.9161098737936 9.40564903846154  18.9755011135857 9.40564903846154  Z " fill-rule="nonzero" fill="#7f7f7f" stroke="none" transform="matrix(1 0 0 1 1223 1993 )" />
  </g>
</svg>