<?xml version="1.0" encoding="utf-8"?>
<svg version="1.1" xmlns:xlink="http://www.w3.org/1999/xlink" width="81px" height="75px" xmlns="http://www.w3.org/2000/svg">
  <g transform="matrix(1 0 0 1 -664 -1605 )">
    <path d="M 10.8308293269231 31.34765625  C 13.8975360576923 34.08203125  17.71875 35.9212239583333  22.2944711538462 36.865234375  C 19.8930288461538 31.591796875  18.6923076923077 25.5533854166667  18.6923076923077 19  L 6.23076923076923 19  L 6.23076923076923 23.4375  C 6.23076923076923 25.9765625  7.76412259615385 28.61328125  10.8308293269231 31.34765625  Z M 70.1691706730769 31.34765625  C 73.2358774038461 28.61328125  74.7692307692308 25.9765625  74.7692307692308 23.4375  L 74.7692307692308 19  L 62.3076923076923 19  C 62.3076923076923 25.5533854166667  61.1069711538462 31.591796875  58.7055288461538 36.865234375  C 63.28125 35.9212239583333  67.1024639423077 34.08203125  70.1691706730769 31.34765625  Z M 79.6370192307692 13.8671875  C 80.5456730769231 14.7786458333333  81 15.8854166666667  81 17.1875  L 81 23.4375  C 81 25.7486979166667  80.3266225961539 28.076171875  78.9798677884615 30.419921875  C 77.6331129807692 32.763671875  75.8158052884615 34.8795572916667  73.5279447115385 36.767578125  C 71.2400841346154 38.6555989583333  68.4329927884615 40.2425130208333  65.1066706730769 41.5283203125  C 61.7803485576923 42.8141276041667  58.2836538461539 43.5384114583333  54.6165865384615 43.701171875  C 53.2536057692308 45.458984375  51.7121394230769 47.0052083333333  49.9921875 48.33984375  C 48.7590144230769 49.4466145833333  47.9071514423077 50.6266276041667  47.4365985576923 51.8798828125  C 46.9660456730769 53.1331380208333  46.7307692307692 54.58984375  46.7307692307692 56.25  C 46.7307692307692 58.0078125  47.2256610576923 59.4889322916667  48.2154447115385 60.693359375  C 49.2052283653846 61.8977864583333  50.7872596153846 62.5  52.9615384615385 62.5  C 55.3954326923077 62.5  57.5615985576923 63.2405598958333  59.4600360576923 64.7216796875  C 61.3584735576923 66.2027994791667  62.3076923076923 68.06640625  62.3076923076923 70.3125  L 62.3076923076923 73.4375  C 62.3076923076923 73.8932291666667  62.1616586538462 74.267578125  61.8695913461538 74.560546875  C 61.5775240384615 74.853515625  61.2043269230769 75  60.75 75  L 20.25 75  C 19.7956730769231 75  19.4224759615385 74.853515625  19.1304086538462 74.560546875  C 18.8383413461538 74.267578125  18.6923076923077 73.8932291666667  18.6923076923077 73.4375  L 18.6923076923077 70.3125  C 18.6923076923077 68.06640625  19.6415264423077 66.2027994791667  21.5399639423077 64.7216796875  C 23.4384014423077 63.2405598958333  25.6045673076923 62.5  28.0384615384615 62.5  C 30.2127403846154 62.5  31.7947716346154 61.8977864583333  32.7845552884615 60.693359375  C 33.7743389423077 59.4889322916667  34.2692307692308 58.0078125  34.2692307692308 56.25  C 34.2692307692308 54.58984375  34.0339543269231 53.1331380208333  33.5634014423077 51.8798828125  C 33.0928485576923 50.6266276041667  32.2409855769231 49.4466145833333  31.0078125 48.33984375  C 29.2878605769231 47.0052083333333  27.7463942307692 45.458984375  26.3834134615385 43.701171875  C 22.7163461538462 43.5384114583333  19.2196514423077 42.8141276041667  15.8933293269231 41.5283203125  C 12.5670072115385 40.2425130208333  9.75991586538462 38.6555989583333  7.47205528846154 36.767578125  C 5.18419471153846 34.8795572916667  3.36688701923077 32.763671875  2.02013221153846 30.419921875  C 0.673377403846154 28.076171875  0 25.7486979166667  0 23.4375  L 0 17.1875  C 0 15.8854166666667  0.454326923076923 14.7786458333333  1.36298076923077 13.8671875  C 2.27163461538462 12.9557291666667  3.375 12.5  4.67307692307692 13  L 18.6923076923077 13  L 18.6923076923077 7.8125  C 18.6923076923077 5.6640625  19.4549278846154 3.82486979166666  20.9801682692308 2.294921875  C 22.5054086538462 0.764973958333326  24.3389423076923 0  26.4807692307692 0  L 54.5192307692308 0  C 56.6610576923077 0  58.4945913461539 0.764973958333326  60.0198317307692 2.294921875  C 61.5450721153846 3.82486979166666  62.3076923076923 5.6640625  62.3076923076923 7.8125  L 62.3076923076923 13  L 76.3269230769231 13  C 77.625 12.5  78.7283653846154 12.9557291666667  79.6370192307692 13.8671875  Z " fill-rule="nonzero" fill="#555555" stroke="none" transform="matrix(1 0 0 1 664 1605 )" />
  </g>
</svg>