<?xml version="1.0" encoding="utf-8"?>
<svg version="1.1" xmlns:xlink="http://www.w3.org/1999/xlink" width="80px" height="75px" xmlns="http://www.w3.org/2000/svg">
  <g transform="matrix(1 0 0 1 -514 -1605 )">
    <path d="M 21.3333333333333 26.7857142857143  C 21.3333333333333 30.6640625  22.4583333333333 34.2354910714286  24.7083333333333 37.5  C 20.2083333333333 37.6395089285714  16.5277777777778 39.4252232142857  13.6666666666667 42.8571428571429  L 8.08333333333333 42.8571428571429  C 5.80555555555556 42.8571428571429  3.88888888888889 42.2921316964286  2.33333333333333 41.162109375  C 0.777777777777778 40.0320870535714  0 38.37890625  0 36.2025669642857  C 0 26.3532366071429  1.72222222222222 21.4285714285714  5.16666666666667 21.4285714285714  C 5.33333333333333 21.4285714285714  5.9375 21.7215401785714  6.97916666666667 22.3074776785714  C 8.02083333333333 22.8934151785714  9.375 23.486328125  11.0416666666667 24.0862165178571  C 12.7083333333333 24.6861049107143  14.3611111111111 24.9860491071429  16 24.9860491071429  C 17.8611111111111 24.9860491071429  19.7083333333333 24.6651785714286  21.5416666666667 24.0234375  C 21.4027777777778 25.0558035714286  21.3333333333333 25.9765625  21.3333333333333 26.7857142857143  Z M 69.1875 59.8284040178571  C 69.2847222222222 61.2374441964286  69.3333333333333 62.6813616071429  69.3333333333333 64.16015625  C 69.3333333333333 67.5083705357143  68.3194444444444 70.1520647321429  66.2916666666667 72.0912388392857  C 64.2638888888889 74.0304129464286  61.5694444444445 75  58.2083333333333 75  L 21.7916666666667 75  C 18.4305555555556 75  15.7361111111111 74.0304129464286  13.7083333333333 72.0912388392857  C 11.6805555555556 70.1520647321429  10.6666666666667 67.5083705357143  10.6666666666667 64.16015625  C 10.6666666666667 62.6813616071429  10.7152777777778 61.2374441964286  10.8125 59.8284040178571  C 10.9097222222222 58.4193638392857  11.1041666666667 56.8987165178571  11.3958333333333 55.2664620535714  C 11.6875 53.6342075892857  12.0555555555556 52.1205357142857  12.5 50.7254464285714  C 12.9444444444444 49.3303571428571  13.5416666666667 47.9701450892857  14.2916666666667 46.6448102678571  C 15.0416666666667 45.3194754464286  15.9027777777778 44.189453125  16.875 43.2547433035714  C 17.8472222222222 42.3200334821429  19.0347222222222 41.5736607142857  20.4375 41.015625  C 21.8402777777778 40.4575892857143  23.3888888888889 40.1785714285714  25.0833333333333 40.1785714285714  C 25.3611111111111 40.1785714285714  25.9583333333333 40.478515625  26.875 41.0784040178571  C 27.7916666666667 41.6782924107143  28.8055555555556 42.3479352678571  29.9166666666667 43.0873325892857  C 31.0277777777778 43.8267299107143  32.5138888888889 44.4963727678571  34.375 45.0962611607143  C 36.2361111111111 45.6961495535714  38.1111111111111 45.99609375  40 45.99609375  C 41.8888888888889 45.99609375  43.7638888888889 45.6961495535714  45.625 45.0962611607143  C 47.4861111111111 44.4963727678571  48.9722222222222 43.8267299107143  50.0833333333333 43.0873325892857  C 51.1944444444444 42.3479352678571  52.2083333333333 41.6782924107143  53.125 41.0784040178571  C 54.0416666666667 40.478515625  54.6388888888889 40.1785714285714  54.9166666666667 40.1785714285714  C 56.6111111111111 40.1785714285714  58.1597222222222 40.4575892857143  59.5625 41.015625  C 60.9652777777778 41.5736607142857  62.1527777777778 42.3200334821429  63.125 43.2547433035714  C 64.0972222222222 44.189453125  64.9583333333333 45.3194754464286  65.7083333333333 46.6448102678571  C 66.4583333333333 47.9701450892857  67.0555555555556 49.3303571428571  67.5 50.7254464285714  C 67.9444444444445 52.1205357142857  68.3125 53.6342075892857  68.6041666666667 55.2664620535714  C 68.8958333333333 56.8987165178571  69.0902777777778 58.4193638392857  69.1875 59.8284040178571  Z M 23.5416666666667 3.13895089285715  C 25.625 5.23158482142857  26.6666666666667 7.75669642857142  26.6666666666667 10.7142857142857  C 26.6666666666667 13.671875  25.625 16.1969866071429  23.5416666666667 18.2896205357143  C 21.4583333333333 20.3822544642857  18.9444444444444 21.4285714285714  16 21.4285714285714  C 13.0555555555556 21.4285714285714  10.5416666666667 20.3822544642857  8.45833333333333 18.2896205357143  C 6.375 16.1969866071429  5.33333333333333 13.671875  5.33333333333333 10.7142857142857  C 5.33333333333333 7.75669642857142  6.375 5.23158482142857  8.45833333333333 3.13895089285715  C 10.5416666666667 1.04631696428572  13.0555555555556 0  16 0  C 18.9444444444444 0  21.4583333333333 1.04631696428572  23.5416666666667 3.13895089285715  Z M 51.3125 15.4227120535714  C 54.4375 18.5616629464286  56 22.3493303571429  56 26.7857142857143  C 56 31.2220982142857  54.4375 35.009765625  51.3125 38.1487165178571  C 48.1875 41.2876674107143  44.4166666666667 42.8571428571429  40 42.8571428571429  C 35.5833333333333 42.8571428571429  31.8125 41.2876674107143  28.6875 38.1487165178571  C 25.5625 35.009765625  24 31.2220982142857  24 26.7857142857143  C 24 22.3493303571429  25.5625 18.5616629464286  28.6875 15.4227120535714  C 31.8125 12.2837611607143  35.5833333333333 10.7142857142857  40 10.7142857142857  C 44.4166666666667 10.7142857142857  48.1875 12.2837611607143  51.3125 15.4227120535714  Z M 74.8333333333333 21.4285714285714  C 78.2777777777778 21.4285714285714  80 26.3532366071429  80 36.2025669642857  C 80 38.37890625  79.2222222222222 40.0320870535714  77.6666666666667 41.162109375  C 76.1111111111111 42.2921316964286  74.1944444444445 42.8571428571429  71.9166666666667 42.8571428571429  L 66.3333333333333 42.8571428571429  C 63.4722222222222 39.4252232142857  59.7916666666667 37.6395089285714  55.2916666666667 37.5  C 57.5416666666667 34.2354910714286  58.6666666666667 30.6640625  58.6666666666667 26.7857142857143  C 58.6666666666667 25.9765625  58.5972222222222 25.0558035714286  58.4583333333333 24.0234375  C 60.2916666666667 24.6651785714286  62.1388888888889 24.9860491071429  64 24.9860491071429  C 65.6388888888889 24.9860491071429  67.2916666666667 24.6861049107143  68.9583333333333 24.0862165178571  C 70.625 23.486328125  71.9791666666667 22.8934151785714  73.0208333333333 22.3074776785714  C 74.0625 21.7215401785714  74.6666666666667 21.4285714285714  74.8333333333333 21.4285714285714  Z M 71.5416666666667 3.13895089285715  C 73.625 5.23158482142857  74.6666666666667 7.75669642857142  74.6666666666667 10.7142857142857  C 74.6666666666667 13.671875  73.625 16.1969866071429  71.5416666666667 18.2896205357143  C 69.4583333333333 20.3822544642857  66.9444444444444 21.4285714285714  64 21.4285714285714  C 61.0555555555556 21.4285714285714  58.5416666666667 20.3822544642857  56.4583333333333 18.2896205357143  C 54.375 16.1969866071429  53.3333333333333 13.671875  53.3333333333333 10.7142857142857  C 53.3333333333333 7.75669642857142  54.375 5.23158482142857  56.4583333333333 3.13895089285715  C 58.5416666666667 1.04631696428572  61.0555555555556 0  64 0  C 66.9444444444444 0  69.4583333333333 1.04631696428572  71.5416666666667 3.13895089285715  Z " fill-rule="nonzero" fill="#555555" stroke="none" transform="matrix(1 0 0 1 514 1605 )" />
  </g>
</svg>