<?xml version="1.0" encoding="utf-8"?>
<svg version="1.1" xmlns:xlink="http://www.w3.org/1999/xlink" width="50px" height="50px" xmlns="http://www.w3.org/2000/svg">
  <g transform="matrix(1 0 0 1 -480 0 )">
    <path d="M 505 0  C 519 0  530 11  530 25  C 530 39  519 50  505 50  C 491 50  480 39  480 25  C 480 11  491 0  505 0  Z " fill-rule="nonzero" fill="#ffffff" stroke="none" />
    <path d="M 505 0.5  C 518.72 0.5  529.5 11.28  529.5 25  C 529.5 38.72  518.72 49.5  505 49.5  C 491.28 49.5  480.5 38.72  480.5 25  C 480.5 11.28  491.28 0.5  505 0.5  Z " stroke-width="1" stroke="#797979" fill="none" />
  </g>
</svg>