<?xml version="1.0" encoding="utf-8"?>
<svg version="1.1" xmlns:xlink="http://www.w3.org/1999/xlink" width="73px" height="53px" xmlns="http://www.w3.org/2000/svg">
  <g transform="matrix(1 0 0 1 -816 -1618 )">
    <path d="M 71.4112723214286 1.53203125  C 72.4704241071429 2.00130208333333  73 2.815625  73 3.975  L 73 49.025  C 73 50.184375  72.4704241071429 50.9986979166667  71.4112723214286 51.46796875  C 71.0582217261905 51.6059895833333  70.71875 51.675  70.3928571428571 51.675  C 69.6595982142857 51.675  69.0485491071429 51.4127604166667  68.5597098214286 50.88828125  L 52.1428571428571 34.2015625  L 52.1428571428571 41.075  C 52.1428571428571 44.3598958333333  50.9954427083333 47.1686197916667  48.7006138392857 49.501171875  C 46.4057849702381 51.8337239583333  43.6424851190476 53  40.4107142857143 53  L 11.7321428571429 53  C 8.50037202380953 53  5.73707217261905 51.8337239583333  3.44224330357143 49.501171875  C 1.14741443452381 47.1686197916667  0 44.3598958333333  0 41.075  L 0 11.925  C 0 8.64010416666666  1.14741443452381 5.83138020833333  3.44224330357143 3.498828125  C 5.73707217261905 1.16627604166666  8.50037202380953 0  11.7321428571429 0  L 40.4107142857143 0  C 43.6424851190476 0  46.4057849702381 1.16627604166666  48.7006138392857 3.498828125  C 50.9954427083333 5.83138020833333  52.1428571428571 8.64010416666666  52.1428571428571 11.925  L 52.1428571428571 18.75703125  L 68.5597098214286 2.11171875  C 69.0485491071429 1.58723958333333  69.6595982142857 1.325  70.3928571428571 1.325  C 70.71875 1.325  71.0582217261905 1.39401041666666  71.4112723214286 1.53203125  Z " fill-rule="nonzero" fill="#555555" stroke="none" transform="matrix(1 0 0 1 816 1618 )" />
  </g>
</svg>