<?xml version="1.0" encoding="utf-8"?>
<svg version="1.1" xmlns:xlink="http://www.w3.org/1999/xlink" width="38px" height="22px" xmlns="http://www.w3.org/2000/svg">
  <defs>
    <mask fill="white" id="clip4">
      <path d="M 11.4 22  L 0 11  L 11.4 0  L 11.4 6  L 38 6  L 38 16  L 11.4 16  L 11.4 22  Z " fill-rule="evenodd" />
    </mask>
  </defs>
  <g transform="matrix(1 0 0 1 -1216 -1648 )">
    <path d="M 11.4 22  L 0 11  L 11.4 0  L 11.4 6  L 38 6  L 38 16  L 11.4 16  L 11.4 22  Z " fill-rule="nonzero" fill="#ffffff" stroke="none" transform="matrix(1 0 0 1 1216 1648 )" />
    <path d="M 11.4 22  L 0 11  L 11.4 0  L 11.4 6  L 38 6  L 38 16  L 11.4 16  L 11.4 22  Z " stroke-width="2" stroke="#797979" fill="none" transform="matrix(1 0 0 1 1216 1648 )" mask="url(#clip4)" />
  </g>
</svg>