<?xml version="1.0" encoding="utf-8"?>
<svg version="1.1" xmlns:xlink="http://www.w3.org/1999/xlink" width="60px" height="60px" xmlns="http://www.w3.org/2000/svg">
  <g transform="matrix(1 0 0 1 -142 -1901 )">
    <path d="M 172 1901  C 188.8 1901  202 1914.2  202 1931  C 202 1947.8  188.8 1961  172 1961  C 155.2 1961  142 1947.8  142 1931  C 142 1914.2  155.2 1901  172 1901  Z " fill-rule="nonzero" fill="#ffffff" stroke="none" />
    <path d="M 172 1901.5  C 188.52 1901.5  201.5 1914.48  201.5 1931  C 201.5 1947.52  188.52 1960.5  172 1960.5  C 155.48 1960.5  142.5 1947.52  142.5 1931  C 142.5 1914.48  155.48 1901.5  172 1901.5  Z " stroke-width="1" stroke="#797979" fill="none" />
  </g>
</svg>