<?xml version="1.0" encoding="utf-8"?>
<svg version="1.1" xmlns:xlink="http://www.w3.org/1999/xlink" width="1083px" height="170px" xmlns="http://www.w3.org/2000/svg">
  <g transform="matrix(1 0 0 1 0 -415 )">
    <path d="M 1015.44895409723 415.5  C 1015.44895409723 415.5  1018.79823742894 415.762870806274  1018.79823742894 415.762870806274  C 1018.79823742894 415.762870806274  1082.4589679384 500  1082.4589679384 500  C 1082.4589679384 500  1018.79823742894 584.237129193726  1018.79823742894 584.237129193726  C 1018.79823742894 584.237129193726  1015.44895409723 584.5  1015.44895409723 584.5  C 1015.44895409723 584.5  0.499999999999875 584.5  0.499999999999875 584.5  C 0.499999999999875 584.5  0.5 415.5  0.5 415.5  C 0.5 415.5  1015.44895409723 415.5  1015.44895409723 415.5  Z " fill-rule="nonzero" fill="#ffffff" stroke="none" />
    <path d="M 1015.44895409723 415.5  C 1015.44895409723 415.5  1018.79823742894 415.762870806274  1018.79823742894 415.762870806274  C 1018.79823742894 415.762870806274  1082.4589679384 500  1082.4589679384 500  C 1082.4589679384 500  1018.79823742894 584.237129193726  1018.79823742894 584.237129193726  C 1018.79823742894 584.237129193726  1015.44895409723 584.5  1015.44895409723 584.5  C 1015.44895409723 584.5  0.499999999999875 584.5  0.499999999999875 584.5  C 0.499999999999875 584.5  0.5 415.5  0.5 415.5  C 0.5 415.5  1015.44895409723 415.5  1015.44895409723 415.5  Z " stroke-width="1" stroke="#797979" fill="none" />
  </g>
</svg>