<?xml version="1.0" encoding="utf-8"?>
<svg version="1.1" xmlns:xlink="http://www.w3.org/1999/xlink" width="124px" height="40px" xmlns="http://www.w3.org/2000/svg">
  <g transform="matrix(1 0 0 1 -479 -361 )">
    <path d="M 587 361  C 587 361  591 361.645161290323  591 361.645161290323  C 591 361.645161290323  603 381  603 381  C 603 381  591 400.354838709677  591 400.354838709677  C 591 400.354838709677  587 401  587 401  C 587 401  484 401  484 401  C 481.2 401  479 398.8  479 396  C 479 396  479 366  479 366  C 479 363.2  481.2 361  484 361  C 484 361  587 361  587 361  Z " fill-rule="nonzero" fill="#169bd5" stroke="none" />
  </g>
</svg>