<?xml version="1.0" encoding="utf-8"?>
<svg version="1.1" xmlns:xlink="http://www.w3.org/1999/xlink" width="121px" height="38px" xmlns="http://www.w3.org/2000/svg">
  <g transform="matrix(1 0 0 1 -185 -209 )">
    <path d="M 245.5 246.53438277189  C 221.5 237.213466321163  185.5 231.620916450727  185.5 222.3  C 185.5 217.545714285714  197.5 209.5  245.5 209.5  C 293.5 209.5  305.5 217.545714285714  305.5 222.3  C 305.5 231.620916450727  269.5 237.213466321163  245.5 246.53438277189  Z " fill-rule="nonzero" fill="#ffffff" stroke="none" />
    <path d="M 245.5 247  C 221.3 237.5  185 231.8  185 222.3  C 185 217.36  197.1 209  245.5 209  C 293.9 209  306 217.36  306 222.3  C 306 231.8  269.7 237.5  245.5 247  Z M 245.5 246.06876554378  C 269.3 236.926932642326  305 231.441832901454  305 222.3  C 305 217.731428571429  293.1 210  245.5 210  C 197.9 210  186 217.731428571429  186 222.3  C 186 231.441832901454  221.7 236.926932642326  245.5 246.06876554378  Z " fill-rule="nonzero" fill="#797979" stroke="none" />
  </g>
</svg>