<?xml version="1.0" encoding="utf-8"?>
<svg version="1.1" xmlns:xlink="http://www.w3.org/1999/xlink" width="121px" height="121px" xmlns="http://www.w3.org/2000/svg">
  <g transform="matrix(1 0 0 1 -185 -103 )">
    <path d="M 245.5 103  C 279.38 103  306 129.62  306 163.5  C 306 197.38  279.38 224  245.5 224  C 211.62 224  185 197.38  185 163.5  C 185 129.62  211.62 103  245.5 103  Z " fill-rule="nonzero" fill="#ffffff" stroke="none" />
    <path d="M 245.5 103.5  C 279.1 103.5  305.5 129.9  305.5 163.5  C 305.5 197.1  279.1 223.5  245.5 223.5  C 211.9 223.5  185.5 197.1  185.5 163.5  C 185.5 129.9  211.9 103.5  245.5 103.5  Z " stroke-width="1" stroke="#797979" fill="none" />
  </g>
</svg>