<?xml version="1.0" encoding="utf-8"?>
<svg version="1.1" xmlns:xlink="http://www.w3.org/1999/xlink" width="59px" height="59px" xmlns="http://www.w3.org/2000/svg">
  <g transform="matrix(1 0 0 1 -588 -424 )">
    <path d="M 617.5 424  C 634.02 424  647 436.98  647 453.5  C 647 470.02  634.02 483  617.5 483  C 600.98 483  588 470.02  588 453.5  C 588 436.98  600.98 424  617.5 424  Z " fill-rule="nonzero" fill="#d9001b" stroke="none" />
    <path d="M 617.5 424.5  C 633.74 424.5  646.5 437.26  646.5 453.5  C 646.5 469.74  633.74 482.5  617.5 482.5  C 601.26 482.5  588.5 469.74  588.5 453.5  C 588.5 437.26  601.26 424.5  617.5 424.5  Z " stroke-width="1" stroke="#797979" fill="none" />
  </g>
</svg>