<?xml version="1.0" encoding="utf-8"?>
<svg version="1.1" xmlns:xlink="http://www.w3.org/1999/xlink" width="66px" height="40px" xmlns="http://www.w3.org/2000/svg">
  <g transform="matrix(1 0 0 1 -506 -532 )">
    <path d="M 539 532  C 557.48 532  572 540.8  572 552  C 572 563.2  557.48 572  539 572  C 520.52 572  506 563.2  506 552  C 506 540.8  520.52 532  539 532  Z " fill-rule="nonzero" fill="#ffffff" stroke="none" />
    <path d="M 539 532.5  C 557.2 532.5  571.5 541.08  571.5 552  C 571.5 562.92  557.2 571.5  539 571.5  C 520.8 571.5  506.5 562.92  506.5 552  C 506.5 541.08  520.8 532.5  539 532.5  Z " stroke-width="1" stroke="#797979" fill="none" />
  </g>
</svg>