<?xml version="1.0" encoding="utf-8"?>
<svg version="1.1" xmlns:xlink="http://www.w3.org/1999/xlink" width="216px" height="40px" xmlns="http://www.w3.org/2000/svg">
  <g transform="matrix(1 0 0 1 -535 -59 )">
    <path d="M 735 59  C 735 59  739 59.3703703703704  739 59.3703703703704  C 739 59.3703703703704  751 79  751 79  C 751 79  739 98.6296296296296  739 98.6296296296296  C 739 98.6296296296296  735 99  735 99  C 735 99  540 99  540 99  C 537.2 99  535 96.8  535 94  C 535 94  535 64  535 64  C 535 61.2  537.2 59  540 59  C 540 59  735 59  735 59  Z " fill-rule="nonzero" fill="#169bd5" stroke="none" />
  </g>
</svg>