<?xml version="1.0" encoding="utf-8"?>
<svg version="1.1" xmlns:xlink="http://www.w3.org/1999/xlink" width="170px" height="424px" xmlns="http://www.w3.org/2000/svg">
  <g transform="matrix(1 0 0 1 0 -161 )">
    <path d="M 85 161  C 132.6 161  170 254.28  170 373  C 170 491.72  132.6 585  85 585  C 37.4 585  0 491.72  0 373  C 0 254.28  37.4 161  85 161  Z " fill-rule="nonzero" fill="#ffffff" stroke="none" />
    <path d="M 85 161.5  C 132.32 161.5  169.5 254.56  169.5 373  C 169.5 491.44  132.32 584.5  85 584.5  C 37.68 584.5  0.5 491.44  0.5 373  C 0.5 254.56  37.68 161.5  85 161.5  Z " stroke-width="1" stroke="#797979" fill="none" />
  </g>
</svg>