<?xml version="1.0" encoding="utf-8"?>
<svg version="1.1" xmlns:xlink="http://www.w3.org/1999/xlink" width="76px" height="40px" xmlns="http://www.w3.org/2000/svg">
  <g transform="matrix(1 0 0 1 -1007 -415 )">
    <path d="M 1067 415  C 1067 415  1071 416.052631578947  1071 416.052631578947  C 1071 416.052631578947  1083 435  1083 435  C 1083 435  1071 453.947368421053  1071 453.947368421053  C 1071 453.947368421053  1067 455  1067 455  C 1067 455  1012 455  1012 455  C 1009.2 455  1007 452.8  1007 450  C 1007 450  1007 420  1007 420  C 1007 417.2  1009.2 415  1012 415  C 1012 415  1067 415  1067 415  Z " fill-rule="nonzero" fill="#169bd5" stroke="none" />
  </g>
</svg>