<?xml version="1.0" encoding="utf-8"?>
<svg version="1.1" xmlns:xlink="http://www.w3.org/1999/xlink" width="121px" height="38px" xmlns="http://www.w3.org/2000/svg">
  <g transform="matrix(1 0 0 1 -185 -267 )">
    <path d="M 245.5 304.53438277189  C 221.5 295.213466321163  185.5 289.620916450727  185.5 280.3  C 185.5 275.545714285714  197.5 267.5  245.5 267.5  C 293.5 267.5  305.5 275.545714285714  305.5 280.3  C 305.5 289.620916450727  269.5 295.213466321163  245.5 304.53438277189  Z " fill-rule="nonzero" fill="#ffffff" stroke="none" />
    <path d="M 245.5 305  C 221.3 295.5  185 289.8  185 280.3  C 185 275.36  197.1 267  245.5 267  C 293.9 267  306 275.36  306 280.3  C 306 289.8  269.7 295.5  245.5 305  Z M 245.5 304.06876554378  C 269.3 294.926932642326  305 289.441832901454  305 280.3  C 305 275.731428571429  293.1 268  245.5 268  C 197.9 268  186 275.731428571429  186 280.3  C 186 289.441832901454  221.7 294.926932642326  245.5 304.06876554378  Z " fill-rule="nonzero" fill="#797979" stroke="none" />
  </g>
</svg>