<?xml version="1.0" encoding="utf-8"?>
<svg version="1.1" xmlns:xlink="http://www.w3.org/1999/xlink" width="121px" height="121px" xmlns="http://www.w3.org/2000/svg">
  <g transform="matrix(1 0 0 1 -185 -161 )">
    <path d="M 245.5 161  C 279.38 161  306 187.62  306 221.5  C 306 255.38  279.38 282  245.5 282  C 211.62 282  185 255.38  185 221.5  C 185 187.62  211.62 161  245.5 161  Z " fill-rule="nonzero" fill="#ffffff" stroke="none" />
    <path d="M 245.5 161.5  C 279.1 161.5  305.5 187.9  305.5 221.5  C 305.5 255.1  279.1 281.5  245.5 281.5  C 211.9 281.5  185.5 255.1  185.5 221.5  C 185.5 187.9  211.9 161.5  245.5 161.5  Z " stroke-width="1" stroke="#797979" fill="none" />
  </g>
</svg>