<?xml version="1.0" encoding="utf-8"?>
<svg version="1.1" xmlns:xlink="http://www.w3.org/1999/xlink" width="283px" height="40px" xmlns="http://www.w3.org/2000/svg">
  <g transform="matrix(1 0 0 1 -253 -362 )">
    <path d="M 520.523320825926 362.5  C 520.523320825926 362.5  523.746655723825 362.727797519286  523.746655723825 362.727797519286  C 523.746655723825 362.727797519286  535.475759599185 382  535.475759599185 382  C 535.475759599185 382  523.746655723825 401.272202480714  523.746655723825 401.272202480714  C 523.746655723825 401.272202480714  520.523320825926 401.5  520.523320825926 401.5  C 520.523320825926 401.5  258 401.5  258 401.5  C 255.48 401.5  253.5 399.52  253.5 397  C 253.5 397  253.5 367  253.5 367  C 253.5 364.48  255.48 362.5  258 362.5  C 258 362.5  520.523320825926 362.5  520.523320825926 362.5  Z " fill-rule="nonzero" fill="#ffff80" stroke="none" />
    <path d="M 520.523320825926 362.5  C 520.523320825926 362.5  523.746655723825 362.727797519286  523.746655723825 362.727797519286  C 523.746655723825 362.727797519286  535.475759599185 382  535.475759599185 382  C 535.475759599185 382  523.746655723825 401.272202480714  523.746655723825 401.272202480714  C 523.746655723825 401.272202480714  520.523320825926 401.5  520.523320825926 401.5  C 520.523320825926 401.5  258 401.5  258 401.5  C 255.48 401.5  253.5 399.52  253.5 397  C 253.5 397  253.5 367  253.5 367  C 253.5 364.48  255.48 362.5  258 362.5  C 258 362.5  520.523320825926 362.5  520.523320825926 362.5  Z " stroke-width="1" stroke="#797979" fill="none" />
  </g>
</svg>