<?xml version="1.0" encoding="utf-8"?>
<svg version="1.1" xmlns:xlink="http://www.w3.org/1999/xlink" width="176px" height="40px" xmlns="http://www.w3.org/2000/svg">
  <g transform="matrix(1 0 0 1 -253 -262 )">
    <path d="M 413.24091356185 262.5  C 413.24091356185 262.5  416.733984161071 262.896939840821  416.733984161071 262.896939840821  C 416.733984161071 262.896939840821  428.462374584382 282  428.462374584382 282  C 428.462374584382 282  416.733984161071 301.103060159179  416.733984161071 301.103060159179  C 416.733984161071 301.103060159179  413.24091356185 301.5  413.24091356185 301.5  C 413.24091356185 301.5  258 301.5  258 301.5  C 255.48 301.5  253.5 299.52  253.5 297  C 253.5 297  253.5 267  253.5 267  C 253.5 264.48  255.48 262.5  258 262.5  C 258 262.5  413.24091356185 262.5  413.24091356185 262.5  Z " fill-rule="nonzero" fill="#ffff80" stroke="none" />
    <path d="M 413.24091356185 262.5  C 413.24091356185 262.5  416.733984161071 262.896939840821  416.733984161071 262.896939840821  C 416.733984161071 262.896939840821  428.462374584382 282  428.462374584382 282  C 428.462374584382 282  416.733984161071 301.103060159179  416.733984161071 301.103060159179  C 416.733984161071 301.103060159179  413.24091356185 301.5  413.24091356185 301.5  C 413.24091356185 301.5  258 301.5  258 301.5  C 255.48 301.5  253.5 299.52  253.5 297  C 253.5 297  253.5 267  253.5 267  C 253.5 264.48  255.48 262.5  258 262.5  C 258 262.5  413.24091356185 262.5  413.24091356185 262.5  Z " stroke-width="1" stroke="#797979" fill="none" />
  </g>
</svg>