<?xml version="1.0" encoding="utf-8"?>
<svg version="1.1" xmlns:xlink="http://www.w3.org/1999/xlink" width="194px" height="40px" xmlns="http://www.w3.org/2000/svg">
  <g transform="matrix(1 0 0 1 -253 -162 )">
    <path d="M 431.2884213259 162.5  C 431.2884213259 162.5  434.737046440111 162.85552836229  434.737046440111 162.85552836229  C 434.737046440111 162.85552836229  446.465554327635 182  446.465554327635 182  C 446.465554327635 182  434.737046440111 201.14447163771  434.737046440111 201.14447163771  C 434.737046440111 201.14447163771  431.2884213259 201.5  431.2884213259 201.5  C 431.2884213259 201.5  258 201.5  258 201.5  C 255.48 201.5  253.5 199.52  253.5 197  C 253.5 197  253.5 167  253.5 167  C 253.5 164.48  255.48 162.5  258 162.5  C 258 162.5  431.2884213259 162.5  431.2884213259 162.5  Z " fill-rule="nonzero" fill="#ffff80" stroke="none" />
    <path d="M 431.2884213259 162.5  C 431.2884213259 162.5  434.737046440111 162.85552836229  434.737046440111 162.85552836229  C 434.737046440111 162.85552836229  446.465554327635 182  446.465554327635 182  C 446.465554327635 182  434.737046440111 201.14447163771  434.737046440111 201.14447163771  C 434.737046440111 201.14447163771  431.2884213259 201.5  431.2884213259 201.5  C 431.2884213259 201.5  258 201.5  258 201.5  C 255.48 201.5  253.5 199.52  253.5 197  C 253.5 197  253.5 167  253.5 167  C 253.5 164.48  255.48 162.5  258 162.5  C 258 162.5  431.2884213259 162.5  431.2884213259 162.5  Z " stroke-width="1" stroke="#797979" fill="none" />
  </g>
</svg>