<?xml version="1.0" encoding="utf-8"?>
<svg version="1.1" xmlns:xlink="http://www.w3.org/1999/xlink" width="243px" height="40px" xmlns="http://www.w3.org/2000/svg">
  <g transform="matrix(1 0 0 1 -253 -212 )">
    <path d="M 480.417748016926 212.5  C 480.417748016926 212.5  483.743176854761 212.773697846735  483.743176854761 212.773697846735  C 483.743176854761 212.773697846735  495.472025616041 232  495.472025616041 232  C 495.472025616041 232  483.743176854761 251.226302153265  483.743176854761 251.226302153265  C 483.743176854761 251.226302153265  480.417748016925 251.5  480.417748016925 251.5  C 480.417748016925 251.5  258 251.5  258 251.5  C 255.48 251.5  253.5 249.52  253.5 247  C 253.5 247  253.5 217  253.5 217  C 253.5 214.48  255.48 212.5  258 212.5  C 258 212.5  480.417748016926 212.5  480.417748016926 212.5  Z " fill-rule="nonzero" fill="#ffff80" stroke="none" />
    <path d="M 480.417748016926 212.5  C 480.417748016926 212.5  483.743176854761 212.773697846735  483.743176854761 212.773697846735  C 483.743176854761 212.773697846735  495.472025616041 232  495.472025616041 232  C 495.472025616041 232  483.743176854761 251.226302153265  483.743176854761 251.226302153265  C 483.743176854761 251.226302153265  480.417748016925 251.5  480.417748016925 251.5  C 480.417748016925 251.5  258 251.5  258 251.5  C 255.48 251.5  253.5 249.52  253.5 247  C 253.5 247  253.5 217  253.5 217  C 253.5 214.48  255.48 212.5  258 212.5  C 258 212.5  480.417748016926 212.5  480.417748016926 212.5  Z " stroke-width="1" stroke="#797979" fill="none" />
  </g>
</svg>