<?xml version="1.0" encoding="utf-8"?>
<svg version="1.1" xmlns:xlink="http://www.w3.org/1999/xlink" width="282px" height="40px" xmlns="http://www.w3.org/2000/svg">
  <g transform="matrix(1 0 0 1 -253 -59 )">
    <path d="M 519 59  C 519 59  523 59.2836879432624  523 59.2836879432624  C 523 59.2836879432624  535 79  535 79  C 535 79  523 98.7163120567376  523 98.7163120567376  C 523 98.7163120567376  519 99  519 99  C 519 99  258 99  258 99  C 255.2 99  253 96.8  253 94  C 253 94  253 64  253 64  C 253 61.2  255.2 59  258 59  C 258 59  519 59  519 59  Z " fill-rule="nonzero" fill="#169bd5" stroke="none" />
  </g>
</svg>