<?xml version="1.0" encoding="utf-8"?>
<svg version="1.1" xmlns:xlink="http://www.w3.org/1999/xlink" width="40px" height="40px" xmlns="http://www.w3.org/2000/svg">
  <g transform="matrix(1 0 0 1 -253 -59 )">
    <path d="M 273 59  C 284.2 59  293 67.8  293 79  C 293 90.2  284.2 99  273 99  C 261.8 99  253 90.2  253 79  C 253 67.8  261.8 59  273 59  Z " fill-rule="nonzero" fill="#ffffff" stroke="none" />
    <path d="M 273 59.5  C 283.92 59.5  292.5 68.08  292.5 79  C 292.5 89.92  283.92 98.5  273 98.5  C 262.08 98.5  253.5 89.92  253.5 79  C 253.5 68.08  262.08 59.5  273 59.5  Z " stroke-width="1" stroke="#797979" fill="none" />
  </g>
</svg>