<?xml version="1.0" encoding="utf-8"?>
<svg version="1.1" xmlns:xlink="http://www.w3.org/1999/xlink" width="62px" height="40px" xmlns="http://www.w3.org/2000/svg">
  <g transform="matrix(1 0 0 1 -521 -362 )">
    <path d="M 567 362  C 567 362  571 363.290322580645  571 363.290322580645  C 571 363.290322580645  583 382  583 382  C 583 382  571 400.709677419355  571 400.709677419355  C 571 400.709677419355  567 402  567 402  C 567 402  526 402  526 402  C 523.2 402  521 399.8  521 397  C 521 397  521 367  521 367  C 521 364.2  523.2 362  526 362  C 526 362  567 362  567 362  Z " fill-rule="nonzero" fill="#169bd5" stroke="none" />
  </g>
</svg>