<?xml version="1.0" encoding="utf-8"?>
<svg version="1.1" xmlns:xlink="http://www.w3.org/1999/xlink" width="59px" height="59px" xmlns="http://www.w3.org/2000/svg">
  <g transform="matrix(1 0 0 1 -377 -482 )">
    <path d="M 406.5 482  C 423.02 482  436 494.98  436 511.5  C 436 528.02  423.02 541  406.5 541  C 389.98 541  377 528.02  377 511.5  C 377 494.98  389.98 482  406.5 482  Z " fill-rule="nonzero" fill="#d9001b" stroke="none" />
    <path d="M 406.5 482.5  C 422.74 482.5  435.5 495.26  435.5 511.5  C 435.5 527.74  422.74 540.5  406.5 540.5  C 390.26 540.5  377.5 527.74  377.5 511.5  C 377.5 495.26  390.26 482.5  406.5 482.5  Z " stroke-width="1" stroke="#797979" fill="none" />
  </g>
</svg>