<?xml version="1.0" encoding="utf-8"?>
<svg version="1.1" xmlns:xlink="http://www.w3.org/1999/xlink" width="48px" height="48px" xmlns="http://www.w3.org/2000/svg">
  <g transform="matrix(1 0 0 1 -580 -201 )">
    <path d="M 604 201  C 617.44 201  628 211.56  628 225  C 628 238.44  617.44 249  604 249  C 590.56 249  580 238.44  580 225  C 580 211.56  590.56 201  604 201  Z " fill-rule="nonzero" fill="#ffffff" stroke="none" />
    <path d="M 604 201.5  C 617.16 201.5  627.5 211.84  627.5 225  C 627.5 238.16  617.16 248.5  604 248.5  C 590.84 248.5  580.5 238.16  580.5 225  C 580.5 211.84  590.84 201.5  604 201.5  Z " stroke-width="1" stroke="#797979" fill="none" />
  </g>
</svg>