<?xml version="1.0" encoding="utf-8"?>
<svg version="1.1" xmlns:xlink="http://www.w3.org/1999/xlink" width="324px" height="324px" xmlns="http://www.w3.org/2000/svg">
  <g transform="matrix(1 0 0 1 -537 -2321 )">
    <path d="M 699 2321  C 789.72 2321  861 2392.28  861 2483  C 861 2573.72  789.72 2645  699 2645  C 608.28 2645  537 2573.72  537 2483  C 537 2392.28  608.28 2321  699 2321  Z " fill-rule="nonzero" fill="#ffffff" stroke="none" />
    <path d="M 699 2321.5  C 789.44 2321.5  860.5 2392.56  860.5 2483  C 860.5 2573.44  789.44 2644.5  699 2644.5  C 608.56 2644.5  537.5 2573.44  537.5 2483  C 537.5 2392.56  608.56 2321.5  699 2321.5  Z " stroke-width="1" stroke="#797979" fill="none" />
  </g>
</svg>