<?xml version="1.0" encoding="utf-8"?>
<svg version="1.1" xmlns:xlink="http://www.w3.org/1999/xlink" width="62px" height="40px" xmlns="http://www.w3.org/2000/svg">
  <g transform="matrix(1 0 0 1 -480 -316 )">
    <path d="M 526 316  C 526 316  530 317.290322580645  530 317.290322580645  C 530 317.290322580645  542 336  542 336  C 542 336  530 354.709677419355  530 354.709677419355  C 530 354.709677419355  526 356  526 356  C 526 356  485 356  485 356  C 482.2 356  480 353.8  480 351  C 480 351  480 321  480 321  C 480 318.2  482.2 316  485 316  C 485 316  526 316  526 316  Z " fill-rule="nonzero" fill="#169bd5" stroke="none" />
  </g>
</svg>