<?xml version="1.0" encoding="utf-8"?>
<svg version="1.1" xmlns:xlink="http://www.w3.org/1999/xlink" width="80px" height="80px" xmlns="http://www.w3.org/2000/svg">
  <g transform="matrix(1 0 0 1 -360 -1074 )">
    <path d="M 400 1074  C 422.4 1074  440 1091.6  440 1114  C 440 1136.4  422.4 1154  400 1154  C 377.6 1154  360 1136.4  360 1114  C 360 1091.6  377.6 1074  400 1074  Z " fill-rule="nonzero" fill="#ffffff" stroke="none" />
    <path d="M 400 1074.5  C 422.12 1074.5  439.5 1091.88  439.5 1114  C 439.5 1136.12  422.12 1153.5  400 1153.5  C 377.88 1153.5  360.5 1136.12  360.5 1114  C 360.5 1091.88  377.88 1074.5  400 1074.5  Z " stroke-width="1" stroke="#797979" fill="none" />
  </g>
</svg>