<?xml version="1.0" encoding="utf-8"?>
<svg version="1.1" xmlns:xlink="http://www.w3.org/1999/xlink" width="80px" height="80px" xmlns="http://www.w3.org/2000/svg">
  <g transform="matrix(1 0 0 1 -361 -1074 )">
    <path d="M 401 1074  C 423.4 1074  441 1091.6  441 1114  C 441 1136.4  423.4 1154  401 1154  C 378.6 1154  361 1136.4  361 1114  C 361 1091.6  378.6 1074  401 1074  Z " fill-rule="nonzero" fill="#ffffff" stroke="none" />
    <path d="M 401 1074.5  C 423.12 1074.5  440.5 1091.88  440.5 1114  C 440.5 1136.12  423.12 1153.5  401 1153.5  C 378.88 1153.5  361.5 1136.12  361.5 1114  C 361.5 1091.88  378.88 1074.5  401 1074.5  Z " stroke-width="1" stroke="#797979" fill="none" />
  </g>
</svg>