<?xml version="1.0" encoding="utf-8"?>
<svg version="1.1" xmlns:xlink="http://www.w3.org/1999/xlink" width="119px" height="119px" xmlns="http://www.w3.org/2000/svg">
  <g transform="matrix(1 0 0 1 -20 -1974 )">
    <path d="M 79.5 1974  C 112.82 1974  139 2000.18  139 2033.5  C 139 2066.82  112.82 2093  79.5 2093  C 46.18 2093  20 2066.82  20 2033.5  C 20 2000.18  46.18 1974  79.5 1974  Z " fill-rule="nonzero" fill="#ffffff" stroke="none" />
    <path d="M 79.5 1974.5  C 112.54 1974.5  138.5 2000.46  138.5 2033.5  C 138.5 2066.54  112.54 2092.5  79.5 2092.5  C 46.46 2092.5  20.5 2066.54  20.5 2033.5  C 20.5 2000.46  46.46 1974.5  79.5 1974.5  Z " stroke-width="1" stroke="#797979" fill="none" />
  </g>
</svg>