<?xml version="1.0" encoding="utf-8"?>
<svg version="1.1" xmlns:xlink="http://www.w3.org/1999/xlink" width="104px" height="31px" xmlns="http://www.w3.org/2000/svg">
  <g transform="matrix(1 0 0 1 -280 -6359 )">
    <path d="M 332 6389.54217811869  C 311.4 6381.96826345766  280.5 6377.42391466104  280.5 6369.85  C 280.5 6366.00571428571  290.8 6359.5  332 6359.5  C 373.2 6359.5  383.5 6366.00571428571  383.5 6369.85  C 383.5 6377.42391466104  352.6 6381.96826345766  332 6389.54217811869  Z " fill-rule="nonzero" fill="#ffffff" stroke="none" />
    <path d="M 332 6390  C 311.2 6382.25  280 6377.6  280 6369.85  C 280 6365.82  290.4 6359  332 6359  C 373.6 6359  384 6365.82  384 6369.85  C 384 6377.6  352.8 6382.25  332 6390  Z M 332 6389.08435623739  C 352.4 6381.68652691532  383 6377.24782932207  383 6369.85  C 383 6366.19142857143  372.8 6360  332 6360  C 291.2 6360  281 6366.19142857143  281 6369.85  C 281 6377.24782932207  311.6 6381.68652691532  332 6389.08435623739  Z " fill-rule="nonzero" fill="#797979" stroke="none" />
  </g>
</svg>