<?xml version="1.0" encoding="utf-8"?>
<svg version="1.1" xmlns:xlink="http://www.w3.org/1999/xlink" width="104px" height="104px" xmlns="http://www.w3.org/2000/svg">
  <g transform="matrix(1 0 0 1 -280 -6262 )">
    <path d="M 332 6262  C 361.12 6262  384 6284.88  384 6314  C 384 6343.12  361.12 6366  332 6366  C 302.88 6366  280 6343.12  280 6314  C 280 6284.88  302.88 6262  332 6262  Z " fill-rule="nonzero" fill="#ffffff" stroke="none" />
    <path d="M 332 6262.5  C 360.84 6262.5  383.5 6285.16  383.5 6314  C 383.5 6342.84  360.84 6365.5  332 6365.5  C 303.16 6365.5  280.5 6342.84  280.5 6314  C 280.5 6285.16  303.16 6262.5  332 6262.5  Z " stroke-width="1" stroke="#797979" fill="none" />
  </g>
</svg>