<?xml version="1.0" encoding="utf-8"?>
<svg version="1.1" xmlns:xlink="http://www.w3.org/1999/xlink" width="104px" height="31px" xmlns="http://www.w3.org/2000/svg">
  <g transform="matrix(1 0 0 1 -280 -5617 )">
    <path d="M 332 5647.54217811869  C 311.4 5639.96826345766  280.5 5635.42391466104  280.5 5627.85  C 280.5 5624.00571428571  290.8 5617.5  332 5617.5  C 373.2 5617.5  383.5 5624.00571428571  383.5 5627.85  C 383.5 5635.42391466104  352.6 5639.96826345766  332 5647.54217811869  Z " fill-rule="nonzero" fill="#ffffff" stroke="none" />
    <path d="M 332 5648  C 311.2 5640.25  280 5635.6  280 5627.85  C 280 5623.82  290.4 5617  332 5617  C 373.6 5617  384 5623.82  384 5627.85  C 384 5635.6  352.8 5640.25  332 5648  Z M 332 5647.08435623739  C 352.4 5639.68652691532  383 5635.24782932207  383 5627.85  C 383 5624.19142857143  372.8 5618  332 5618  C 291.2 5618  281 5624.19142857143  281 5627.85  C 281 5635.24782932207  311.6 5639.68652691532  332 5647.08435623739  Z " fill-rule="nonzero" fill="#797979" stroke="none" />
  </g>
</svg>