<?xml version="1.0" encoding="utf-8"?>
<svg version="1.1" xmlns:xlink="http://www.w3.org/1999/xlink" width="104px" height="104px" xmlns="http://www.w3.org/2000/svg">
  <g transform="matrix(1 0 0 1 -280 -5520 )">
    <path d="M 332 5520  C 361.12 5520  384 5542.88  384 5572  C 384 5601.12  361.12 5624  332 5624  C 302.88 5624  280 5601.12  280 5572  C 280 5542.88  302.88 5520  332 5520  Z " fill-rule="nonzero" fill="#ffffff" stroke="none" />
    <path d="M 332 5520.5  C 360.84 5520.5  383.5 5543.16  383.5 5572  C 383.5 5600.84  360.84 5623.5  332 5623.5  C 303.16 5623.5  280.5 5600.84  280.5 5572  C 280.5 5543.16  303.16 5520.5  332 5520.5  Z " stroke-width="1" stroke="#797979" fill="none" />
  </g>
</svg>