<?xml version="1.0" encoding="utf-8"?>
<svg version="1.1" xmlns:xlink="http://www.w3.org/1999/xlink" width="243px" height="20px" xmlns="http://www.w3.org/2000/svg">
  <defs>
    <mask fill="white" id="clip1">
      <path d="M 0 20  L 0 0  L 106 0  L 117 0  L 243 0  L 243 20  L 0 20  Z " fill-rule="evenodd" />
    </mask>
  </defs>
  <g transform="matrix(1 0 0 1 -158 -5480 )">
    <path d="M 0 20  L 0 0  L 106 0  L 117 0  L 243 0  L 243 20  L 0 20  Z " fill-rule="nonzero" fill="#ffffff" stroke="none" transform="matrix(1 0 0 1 158 5480 )" />
    <path d="M 0 20  L 0 0  L 106 0  L 117 0  L 243 0  L 243 20  L 0 20  Z " stroke-width="2" stroke="#797979" fill="none" transform="matrix(1 0 0 1 158 5480 )" mask="url(#clip1)" />
  </g>
</svg>