<?xml version="1.0" encoding="utf-8"?>
<svg version="1.1" xmlns:xlink="http://www.w3.org/1999/xlink" width="50px" height="44px" xmlns="http://www.w3.org/2000/svg">
  <g transform="matrix(1 0 0 1 -38 -5903 )">
    <path d="M 29.6223958333333 39.3675595238095  C 30.0130208333333 39.0729166666667  30.2083333333333 38.6527777777778  30.2083333333333 38.1071428571429  L 30 36.2738095238095  L 30 20.952380952381  L 30.2083333333333 15  L 19.7916666666667 15  L 20 20.952380952381  L 20 36.2738095238095  L 19.7916666666667 38.1071428571429  C 19.7916666666667 38.6527777777778  19.9869791666667 39.0729166666667  20.3776041666667 39.3675595238095  C 20.7682291666667 39.6622023809524  21.2673611111111 39.8095238095238  21.875 39.8095238095238  L 28.125 39.8095238095238  C 28.7326388888889 39.8095238095238  29.2317708333333 39.6622023809524  29.6223958333333 39.3675595238095  Z M 13.1510416666667 9.55952380952381  C 13.7586805555556 10.1706349206349  14.4965277777778 10.4761904761905  15.3645833333333 10.4761904761905  L 21.7122395833333 10.4761904761905  L 17.6106770833333 5.20535714285714  C 17.0464409722222 4.52876984126984  16.2977430555556 4.19047619047619  15.3645833333333 4.19047619047619  C 14.4965277777778 4.19047619047619  13.7586805555556 4.49603174603175  13.1510416666667 5.10714285714286  C 12.5434027777778 5.71825396825396  12.2395833333333 6.46031746031746  12.2395833333333 7.33333333333333  C 12.2395833333333 8.2063492063492  12.5434027777778 8.9484126984127  13.1510416666667 9.55952380952381  Z M 36.8489583333333 9.55952380952381  C 37.4565972222222 8.9484126984127  37.7604166666667 8.2063492063492  37.7604166666667 7.33333333333333  C 37.7604166666667 6.46031746031746  37.4565972222222 5.71825396825396  36.8489583333333 5.10714285714286  C 36.2413194444445 4.49603174603175  35.5034722222222 4.19047619047619  34.6354166666667 4.19047619047619  C 33.7022569444445 4.19047619047619  32.9535590277778 4.52876984126984  32.3893229166667 5.20535714285714  L 28.3203125 10.4761904761905  L 34.6354166666667 10.4761904761905  C 35.5034722222222 10.4761904761905  36.2413194444445 10.1706349206349  36.8489583333333 9.55952380952381  Z M 49.70703125 14.9613095238095  C 49.90234375 15.1577380952381  50 15.4087301587302  50 15.7142857142857  L 50 26.1904761904762  C 50 26.4960317460317  49.90234375 26.7470238095238  49.70703125 26.9434523809524  C 49.51171875 27.139880952381  49.2621527777778 27.2380952380952  48.9583333333333 27.2380952380952  L 45 27.2380952380952  L 45 40.8571428571429  C 45.8333333333333 41.7301587301587  45.5295138888889 42.4722222222222  44.921875 43.0833333333333  C 44.3142361111111 43.6944444444444  43.5763888888889 44  42.7083333333333 44  L 7.29166666666667 44  C 6.42361111111111 44  5.68576388888889 43.6944444444444  5.078125 43.0833333333333  C 4.47048611111111 42.4722222222222  4.16666666666667 41.7301587301587  5 40.8571428571429  L 5 27.2380952380952  L 1.04166666666667 27.2380952380952  C 0.737847222222222 27.2380952380952  0.48828125 27.139880952381  0.29296875 26.9434523809524  C 0.09765625 26.7470238095238  0 26.4960317460317  0 26.1904761904762  L 0 15.7142857142857  C 0 15.4087301587302  0.09765625 15.1577380952381  0.29296875 14.9613095238095  C 0.48828125 14.764880952381  0.737847222222222 14.6666666666667  1.04166666666667 15  L 15.3645833333333 15  C 13.3463541666667 14.6666666666667  11.6265190972222 13.9518849206349  10.205078125 12.5223214285714  C 8.78363715277778 11.0927579365079  8.07291666666667 9.36309523809524  8.07291666666667 7.33333333333333  C 8.07291666666667 5.30357142857143  8.78363715277778 3.57390873015872  10.205078125 2.14434523809524  C 11.6265190972222 0.714781746031745  13.3463541666667 0  15.3645833333333 0  C 17.6866319444444 0  19.5095486111111 0.840277777777772  20.8333333333333 2.52083333333333  L 25 7.92261904761905  L 29.1666666666667 2.52083333333333  C 30.4904513888889 0.840277777777772  32.3133680555556 0  34.6354166666667 0  C 36.6536458333333 0  38.3734809027778 0.714781746031745  39.794921875 2.14434523809524  C 41.2163628472222 3.57390873015872  41.9270833333333 5.30357142857143  41.9270833333333 7.33333333333333  C 41.9270833333333 9.36309523809524  41.2163628472222 11.0927579365079  39.794921875 12.5223214285714  C 38.3734809027778 13.9518849206349  36.6536458333333 14.6666666666667  34.6354166666667 15  L 48.9583333333333 15  C 49.2621527777778 14.6666666666667  49.51171875 14.764880952381  49.70703125 14.9613095238095  Z " fill-rule="nonzero" fill="#000000" stroke="none" transform="matrix(1 0 0 1 38 5903 )" />
  </g>
</svg>