<?xml version="1.0" encoding="utf-8"?>
<svg version="1.1" xmlns:xlink="http://www.w3.org/1999/xlink" width="116px" height="116px" xmlns="http://www.w3.org/2000/svg">
  <g transform="matrix(1 0 0 1 -274 -2041 )">
    <path d="M 332 2041  C 364.48 2041  390 2066.52  390 2099  C 390 2131.48  364.48 2157  332 2157  C 299.52 2157  274 2131.48  274 2099  C 274 2066.52  299.52 2041  332 2041  Z " fill-rule="nonzero" fill="#ffffff" stroke="none" />
    <path d="M 332 2041.5  C 364.2 2041.5  389.5 2066.8  389.5 2099  C 389.5 2131.2  364.2 2156.5  332 2156.5  C 299.8 2156.5  274.5 2131.2  274.5 2099  C 274.5 2066.8  299.8 2041.5  332 2041.5  Z " stroke-width="1" stroke="#797979" fill="none" />
  </g>
</svg>