<?xml version="1.0" encoding="utf-8"?>
<svg version="1.1" xmlns:xlink="http://www.w3.org/1999/xlink" width="291px" height="135px" xmlns="http://www.w3.org/2000/svg">
  <g transform="matrix(1 0 0 1 -36 -2692 )">
    <path d="M 273.003961257206 2692.5  C 273.003961257206 2692.5  276.732521892193 2693.36487231224  276.732521892193 2693.36487231224  C 276.732521892193 2693.36487231224  326.404278653423 2759.5  326.404278653423 2759.5  C 326.404278653423 2759.5  276.732521892193 2825.63512768776  276.732521892193 2825.63512768776  C 276.732521892193 2825.63512768776  273.003961257206 2826.5  273.003961257206 2826.5  C 273.003961257206 2826.5  36.5 2826.5  36.5 2826.5  C 36.5 2826.5  36.5 2692.5  36.5 2692.5  C 36.5 2692.5  273.003961257206 2692.5  273.003961257206 2692.5  Z " fill-rule="nonzero" fill="#ffffff" stroke="none" />
    <path d="M 273.003961257206 2692.5  C 273.003961257206 2692.5  276.732521892193 2693.36487231224  276.732521892193 2693.36487231224  C 276.732521892193 2693.36487231224  326.404278653423 2759.5  326.404278653423 2759.5  C 326.404278653423 2759.5  276.732521892193 2825.63512768776  276.732521892193 2825.63512768776  C 276.732521892193 2825.63512768776  273.003961257206 2826.5  273.003961257206 2826.5  C 273.003961257206 2826.5  36.5 2826.5  36.5 2826.5  C 36.5 2826.5  36.5 2692.5  36.5 2692.5  C 36.5 2692.5  273.003961257206 2692.5  273.003961257206 2692.5  Z " stroke-width="1" stroke="#797979" fill="none" />
  </g>
</svg>