<?xml version="1.0" encoding="utf-8"?>
<svg version="1.1" xmlns:xlink="http://www.w3.org/1999/xlink" width="89px" height="89px" xmlns="http://www.w3.org/2000/svg">
  <g transform="matrix(1 0 0 1 -166 -4992 )">
    <path d="M 210.5 4992  C 235.42 4992  255 5011.58  255 5036.5  C 255 5061.42  235.42 5081  210.5 5081  C 185.58 5081  166 5061.42  166 5036.5  C 166 5011.58  185.58 4992  210.5 4992  Z " fill-rule="nonzero" fill="#ffffff" stroke="none" />
    <path d="M 210.5 4992.5  C 235.14 4992.5  254.5 5011.86  254.5 5036.5  C 254.5 5061.14  235.14 5080.5  210.5 5080.5  C 185.86 5080.5  166.5 5061.14  166.5 5036.5  C 166.5 5011.86  185.86 4992.5  210.5 4992.5  Z " stroke-width="1" stroke="#797979" fill="none" />
  </g>
</svg>