<?xml version="1.0" encoding="utf-8"?>
<svg version="1.1" xmlns:xlink="http://www.w3.org/1999/xlink" width="170px" height="380px" xmlns="http://www.w3.org/2000/svg">
  <g transform="matrix(1 0 0 1 -210 -4172 )">
    <path d="M 295 4172  C 342.6 4172  380 4255.6  380 4362  C 380 4468.4  342.6 4552  295 4552  C 247.4 4552  210 4468.4  210 4362  C 210 4255.6  247.4 4172  295 4172  Z " fill-rule="nonzero" fill="#ffffff" stroke="none" />
    <path d="M 295 4172.5  C 342.32 4172.5  379.5 4255.88  379.5 4362  C 379.5 4468.12  342.32 4551.5  295 4551.5  C 247.68 4551.5  210.5 4468.12  210.5 4362  C 210.5 4255.88  247.68 4172.5  295 4172.5  Z " stroke-width="1" stroke="#797979" fill="none" />
  </g>
</svg>