<?xml version="1.0" encoding="utf-8"?>
<svg version="1.1" xmlns:xlink="http://www.w3.org/1999/xlink" width="170px" height="380px" xmlns="http://www.w3.org/2000/svg">
  <g transform="matrix(1 0 0 1 -210 -3430 )">
    <path d="M 295 3430  C 342.6 3430  380 3513.6  380 3620  C 380 3726.4  342.6 3810  295 3810  C 247.4 3810  210 3726.4  210 3620  C 210 3513.6  247.4 3430  295 3430  Z " fill-rule="nonzero" fill="#ffffff" stroke="none" />
    <path d="M 295 3430.5  C 342.32 3430.5  379.5 3513.88  379.5 3620  C 379.5 3726.12  342.32 3809.5  295 3809.5  C 247.68 3809.5  210.5 3726.12  210.5 3620  C 210.5 3513.88  247.68 3430.5  295 3430.5  Z " stroke-width="1" stroke="#797979" fill="none" />
  </g>
</svg>