<?xml version="1.0" encoding="utf-8"?>
<svg version="1.1" xmlns:xlink="http://www.w3.org/1999/xlink" width="170px" height="170px" xmlns="http://www.w3.org/2000/svg">
  <g transform="matrix(1 0 0 1 -210 -4022 )">
    <path d="M 295 4022  C 342.6 4022  380 4059.4  380 4107  C 380 4154.6  342.6 4192  295 4192  C 247.4 4192  210 4154.6  210 4107  C 210 4059.4  247.4 4022  295 4022  Z " fill-rule="nonzero" fill="#ffffff" stroke="none" />
    <path d="M 295 4022.5  C 342.32 4022.5  379.5 4059.68  379.5 4107  C 379.5 4154.32  342.32 4191.5  295 4191.5  C 247.68 4191.5  210.5 4154.32  210.5 4107  C 210.5 4059.68  247.68 4022.5  295 4022.5  Z " stroke-width="1" stroke="#797979" fill="none" />
  </g>
</svg>