<?xml version="1.0" encoding="utf-8"?>
<svg version="1.1" xmlns:xlink="http://www.w3.org/1999/xlink" width="170px" height="170px" xmlns="http://www.w3.org/2000/svg">
  <g transform="matrix(1 0 0 1 -210 -3280 )">
    <path d="M 295 3280  C 342.6 3280  380 3317.4  380 3365  C 380 3412.6  342.6 3450  295 3450  C 247.4 3450  210 3412.6  210 3365  C 210 3317.4  247.4 3280  295 3280  Z " fill-rule="nonzero" fill="#ffffff" stroke="none" />
    <path d="M 295 3280.5  C 342.32 3280.5  379.5 3317.68  379.5 3365  C 379.5 3412.32  342.32 3449.5  295 3449.5  C 247.68 3449.5  210.5 3412.32  210.5 3365  C 210.5 3317.68  247.68 3280.5  295 3280.5  Z " stroke-width="1" stroke="#797979" fill="none" />
  </g>
</svg>