<?xml version="1.0" encoding="utf-8"?>
<svg version="1.1" xmlns:xlink="http://www.w3.org/1999/xlink" width="40px" height="40px" xmlns="http://www.w3.org/2000/svg">
  <g transform="matrix(1 0 0 1 -370 -752 )">
    <path d="M 25 25.8333333333333  C 25.4513888888889 25.8333333333333  25.8420138888889 25.6684027777778  26.171875 25.3385416666667  L 35.3385416666667 16.171875  C 35.6684027777778 15.8420138888889  35.8333333333333 15.4513888888889  35.8333333333333 15  C 35.8333333333333 14.5486111111111  35.6684027777778 14.1579861111111  35.3385416666667 13.828125  L 26.171875 4.66145833333333  C 25.6510416666667 4.12326388888889  25.0520833333333 4.00173611111111  24.375 4.296875  C 23.6805555555556 4.59201388888889  23.3333333333333 5.10416666666667  23.3333333333333 5.83333333333333  L 23.3333333333333 10  C 21.2673611111111 10  19.3923611111111 10.1692708333333  17.7083333333333 10.5078125  C 16.0243055555556 10.8463541666667  14.6137152777778 11.2890625  13.4765625 11.8359375  C 12.3394097222222 12.3828125  11.3498263888889 13.0685763888889  10.5078125 13.8932291666667  C 9.66579861111111 14.7178819444444  9.00173611111111 15.546875  8.515625 16.3802083333333  C 8.02951388888889 17.2135416666667  7.64322916666667 18.1597222222222  7.35677083333333 19.21875  C 7.0703125 20.2777777777778  6.88368055555556 21.2456597222222  6.796875 22.1223958333333  C 6.71006944444445 22.9991319444444  6.66666666666667 23.9583333333333  6.66666666666667 25  C 6.66666666666667 28.1423611111111  8.11631944444444 31.6493055555556  11.015625 35.5208333333333  C 11.2065972222222 35.7291666666667  11.4236111111111 35.8333333333333  11.6666666666667 35.8333333333333  C 11.7881944444444 35.8333333333333  11.9010416666667 35.8072916666667  12.0052083333333 35.7552083333333  C 12.3871527777778 35.5989583333333  12.5520833333333 35.3125  12.5 34.8958333333333  C 11.7361111111111 28.75  12.2743055555556 24.6440972222222  14.1145833333333 22.578125  C 14.9131944444444 21.6753472222222  16.0416666666667 21.0199652777778  17.5 20.6119791666667  C 18.9583333333333 20.2039930555556  20.9027777777778 20  23.3333333333333 20  L 23.3333333333333 24.1666666666667  C 23.3333333333333 24.8958333333333  23.6805555555556 25.4079861111111  24.375 25.703125  C 24.5833333333333 25.7899305555556  24.7916666666667 25.8333333333333  25 25.8333333333333  Z M 37.7994791666667 2.20052083333333  C 39.2664930555556 3.66753472222222  40 5.43402777777777  40 7.5  L 40 32.5  C 40 34.5659722222222  39.2664930555556 36.3324652777778  37.7994791666667 37.7994791666667  C 36.3324652777778 39.2664930555556  34.5659722222222 40  32.5 40  L 7.5 40  C 5.43402777777778 40  3.66753472222222 39.2664930555556  2.20052083333333 37.7994791666667  C 0.733506944444444 36.3324652777778  0 34.5659722222222  0 32.5  L 0 7.5  C 0 5.43402777777777  0.733506944444444 3.66753472222222  2.20052083333333 2.20052083333333  C 3.66753472222222 0.733506944444442  5.43402777777778 0  7.5 0  L 32.5 0  C 34.5659722222222 0  36.3324652777778 0.733506944444442  37.7994791666667 2.20052083333333  Z " fill-rule="nonzero" fill="#aaaaaa" stroke="none" transform="matrix(1 0 0 1 370 752 )" />
  </g>
</svg>