<?xml version="1.0" encoding="utf-8"?>
<svg version="1.1" xmlns:xlink="http://www.w3.org/1999/xlink" width="92px" height="27px" xmlns="http://www.w3.org/2000/svg">
  <g transform="matrix(1 0 0 1 -36 -5523 )">
    <path d="M 82 5549.54442246362  C 63.8 5542.969644593  36.5 5539.02477787062  36.5 5532.45  C 36.5 5529.12571428571  45.6 5523.5  82 5523.5  C 118.4 5523.5  127.5 5529.12571428571  127.5 5532.45  C 127.5 5539.02477787062  100.2 5542.969644593  82 5549.54442246362  Z " fill-rule="nonzero" fill="#ffffff" stroke="none" />
    <path d="M 82 5550  C 63.6 5543.25  36 5539.2  36 5532.45  C 36 5528.94  45.2 5523  82 5523  C 118.8 5523  128 5528.94  128 5532.45  C 128 5539.2  100.4 5543.25  82 5550  Z M 82 5549.08884492724  C 100 5542.689289186  127 5538.84955574125  127 5532.45  C 127 5529.31142857143  118 5524  82 5524  C 46 5524  37 5529.31142857143  37 5532.45  C 37 5538.84955574125  64 5542.689289186  82 5549.08884492724  Z " fill-rule="nonzero" fill="#797979" stroke="none" />
  </g>
</svg>