<?xml version="1.0" encoding="utf-8"?>
<svg version="1.1" xmlns:xlink="http://www.w3.org/1999/xlink" width="92px" height="92px" xmlns="http://www.w3.org/2000/svg">
  <g transform="matrix(1 0 0 1 -36 -5437 )">
    <path d="M 82 5437  C 107.76 5437  128 5457.24  128 5483  C 128 5508.76  107.76 5529  82 5529  C 56.24 5529  36 5508.76  36 5483  C 36 5457.24  56.24 5437  82 5437  Z " fill-rule="nonzero" fill="#ffffff" stroke="none" />
    <path d="M 82 5437.5  C 107.48 5437.5  127.5 5457.52  127.5 5483  C 127.5 5508.48  107.48 5528.5  82 5528.5  C 56.52 5528.5  36.5 5508.48  36.5 5483  C 36.5 5457.52  56.52 5437.5  82 5437.5  Z " stroke-width="1" stroke="#797979" fill="none" />
  </g>
</svg>