<?xml version="1.0" encoding="utf-8"?>
<svg version="1.1" xmlns:xlink="http://www.w3.org/1999/xlink" width="92px" height="27px" xmlns="http://www.w3.org/2000/svg">
  <g transform="matrix(1 0 0 1 -36 -4781 )">
    <path d="M 82 4807.54442246362  C 63.8 4800.969644593  36.5 4797.02477787062  36.5 4790.45  C 36.5 4787.12571428571  45.6 4781.5  82 4781.5  C 118.4 4781.5  127.5 4787.12571428571  127.5 4790.45  C 127.5 4797.02477787062  100.2 4800.969644593  82 4807.54442246362  Z " fill-rule="nonzero" fill="#ffffff" stroke="none" />
    <path d="M 82 4808  C 63.6 4801.25  36 4797.2  36 4790.45  C 36 4786.94  45.2 4781  82 4781  C 118.8 4781  128 4786.94  128 4790.45  C 128 4797.2  100.4 4801.25  82 4808  Z M 82 4807.08884492724  C 100 4800.689289186  127 4796.84955574125  127 4790.45  C 127 4787.31142857143  118 4782  82 4782  C 46 4782  37 4787.31142857143  37 4790.45  C 37 4796.84955574125  64 4800.689289186  82 4807.08884492724  Z " fill-rule="nonzero" fill="#797979" stroke="none" />
  </g>
</svg>