<?xml version="1.0" encoding="utf-8"?>
<svg version="1.1" xmlns:xlink="http://www.w3.org/1999/xlink" width="92px" height="92px" xmlns="http://www.w3.org/2000/svg">
  <g transform="matrix(1 0 0 1 -36 -4695 )">
    <path d="M 82 4695  C 107.76 4695  128 4715.24  128 4741  C 128 4766.76  107.76 4787  82 4787  C 56.24 4787  36 4766.76  36 4741  C 36 4715.24  56.24 4695  82 4695  Z " fill-rule="nonzero" fill="#ffffff" stroke="none" />
    <path d="M 82 4695.5  C 107.48 4695.5  127.5 4715.52  127.5 4741  C 127.5 4766.48  107.48 4786.5  82 4786.5  C 56.52 4786.5  36.5 4766.48  36.5 4741  C 36.5 4715.52  56.52 4695.5  82 4695.5  Z " stroke-width="1" stroke="#797979" fill="none" />
  </g>
</svg>