<?xml version="1.0" encoding="utf-8"?>
<svg version="1.1" xmlns:xlink="http://www.w3.org/1999/xlink" width="52px" height="52px" xmlns="http://www.w3.org/2000/svg">
  <g transform="matrix(1 0 0 1 -72 -11 )">
    <path d="M 98 11  C 112.56 11  124 22.44  124 37  C 124 51.56  112.56 63  98 63  C 83.44 63  72 51.56  72 37  C 72 22.44  83.44 11  98 11  Z " fill-rule="nonzero" fill="#ffffff" stroke="none" />
    <path d="M 98 11.5  C 112.28 11.5  123.5 22.72  123.5 37  C 123.5 51.28  112.28 62.5  98 62.5  C 83.72 62.5  72.5 51.28  72.5 37  C 72.5 22.72  83.72 11.5  98 11.5  Z " stroke-width="1" stroke="#797979" fill="none" />
  </g>
</svg>