<?xml version="1.0" encoding="utf-8"?>
<svg version="1.1" xmlns:xlink="http://www.w3.org/1999/xlink" width="87px" height="87px" xmlns="http://www.w3.org/2000/svg">
  <g transform="matrix(1 0 0 1 -1128 -533 )">
    <path d="M 1171.5 533  C 1195.86 533  1215 552.14  1215 576.5  C 1215 600.86  1195.86 620  1171.5 620  C 1147.14 620  1128 600.86  1128 576.5  C 1128 552.14  1147.14 533  1171.5 533  Z " fill-rule="nonzero" fill="#95f204" stroke="none" />
    <path d="M 1171.5 533.5  C 1195.58 533.5  1214.5 552.42  1214.5 576.5  C 1214.5 600.58  1195.58 619.5  1171.5 619.5  C 1147.42 619.5  1128.5 600.58  1128.5 576.5  C 1128.5 552.42  1147.42 533.5  1171.5 533.5  Z " stroke-width="1" stroke="#797979" fill="none" />
  </g>
</svg>