<?xml version="1.0" encoding="utf-8"?>
<svg version="1.1" xmlns:xlink="http://www.w3.org/1999/xlink" width="70px" height="70px" xmlns="http://www.w3.org/2000/svg">
  <g transform="matrix(1 0 0 1 -1137 -542 )">
    <path d="M 1172 542  C 1191.6 542  1207 557.4  1207 577  C 1207 596.6  1191.6 612  1172 612  C 1152.4 612  1137 596.6  1137 577  C 1137 557.4  1152.4 542  1172 542  Z " fill-rule="nonzero" fill="#70b603" stroke="none" />
    <path d="M 1172 542.5  C 1191.32 542.5  1206.5 557.68  1206.5 577  C 1206.5 596.32  1191.32 611.5  1172 611.5  C 1152.68 611.5  1137.5 596.32  1137.5 577  C 1137.5 557.68  1152.68 542.5  1172 542.5  Z " stroke-width="1" stroke="#797979" fill="none" />
  </g>
</svg>