<?xml version="1.0" encoding="utf-8"?>
<svg version="1.1" xmlns:xlink="http://www.w3.org/1999/xlink" width="69px" height="25px" xmlns="http://www.w3.org/2000/svg">
  <g transform="matrix(1 0 0 1 -395 -2007 )">
    <path d="M 396 2012  A 4 4 0 0 1 400 2008 L 459 2008  A 4 4 0 0 1 463 2012 L 463 2027  A 4 4 0 0 1 459 2031 L 400 2031  A 4 4 0 0 1 396 2027 L 396 2012  Z " fill-rule="nonzero" fill="#ffffff" stroke="none" />
    <path d="M 395.5 2012  A 4.5 4.5 0 0 1 400 2007.5 L 459 2007.5  A 4.5 4.5 0 0 1 463.5 2012 L 463.5 2027  A 4.5 4.5 0 0 1 459 2031.5 L 400 2031.5  A 4.5 4.5 0 0 1 395.5 2027 L 395.5 2012  Z " stroke-width="1" stroke-dasharray="9,4" stroke="#797979" fill="none" stroke-dashoffset="0.5" />
  </g>
</svg>