<?xml version="1.0" encoding="utf-8"?>
<svg version="1.1" xmlns:xlink="http://www.w3.org/1999/xlink" width="40px" height="40px" xmlns="http://www.w3.org/2000/svg">
  <g transform="matrix(1 0 0 1 0 -50 )">
    <path d="M 20 50  C 31.2 50  40 58.8  40 70  C 40 81.2  31.2 90  20 90  C 8.8 90  0 81.2  0 70  C 0 58.8  8.8 50  20 50  Z " fill-rule="nonzero" fill="#f2f2f2" stroke="none" />
    <path d="M 20 50.5  C 30.92 50.5  39.5 59.08  39.5 70  C 39.5 80.92  30.92 89.5  20 89.5  C 9.08 89.5  0.5 80.92  0.5 70  C 0.5 59.08  9.08 50.5  20 50.5  Z " stroke-width="1" stroke="#797979" fill="none" />
  </g>
</svg>