<?xml version="1.0" encoding="utf-8"?>
<svg version="1.1" xmlns:xlink="http://www.w3.org/1999/xlink" width="170px" height="344px" xmlns="http://www.w3.org/2000/svg">
  <g transform="matrix(1 0 0 1 -296 -204 )">
    <path d="M 381 204  C 428.6 204  466 279.68  466 376  C 466 472.32  428.6 548  381 548  C 333.4 548  296 472.32  296 376  C 296 279.68  333.4 204  381 204  Z " fill-rule="nonzero" fill="#ffffff" stroke="none" />
    <path d="M 381 204.5  C 428.32 204.5  465.5 279.96  465.5 376  C 465.5 472.04  428.32 547.5  381 547.5  C 333.68 547.5  296.5 472.04  296.5 376  C 296.5 279.96  333.68 204.5  381 204.5  Z " stroke-width="1" stroke="#797979" fill="none" />
  </g>
</svg>