<?xml version="1.0" encoding="utf-8"?>
<svg version="1.1" xmlns:xlink="http://www.w3.org/1999/xlink" width="22px" height="22px" xmlns="http://www.w3.org/2000/svg">
  <g transform="matrix(1 0 0 1 -9 -9 )">
    <path d="M 20 9  C 26.16 9  31 13.84  31 20  C 31 26.16  26.16 31  20 31  C 13.84 31  9 26.16  9 20  C 9 13.84  13.84 9  20 9  Z " fill-rule="nonzero" fill="#ffffff" stroke="none" />
    <path d="M 20 9.5  C 25.88 9.5  30.5 14.12  30.5 20  C 30.5 25.88  25.88 30.5  20 30.5  C 14.12 30.5  9.5 25.88  9.5 20  C 9.5 14.12  14.12 9.5  20 9.5  Z " stroke-width="1" stroke="#797979" fill="none" />
  </g>
</svg>