<?xml version="1.0" encoding="utf-8"?>
<svg version="1.1" xmlns:xlink="http://www.w3.org/1999/xlink" width="99px" height="99px" xmlns="http://www.w3.org/2000/svg">
  <g transform="matrix(1 0 0 1 -382 -1883 )">
    <path d="M 431.5 1883  C 459.22 1883  481 1904.78  481 1932.5  C 481 1960.22  459.22 1982  431.5 1982  C 403.78 1982  382 1960.22  382 1932.5  C 382 1904.78  403.78 1883  431.5 1883  Z " fill-rule="nonzero" fill="#ffffff" stroke="none" />
    <path d="M 431.5 1883.5  C 458.94 1883.5  480.5 1905.06  480.5 1932.5  C 480.5 1959.94  458.94 1981.5  431.5 1981.5  C 404.06 1981.5  382.5 1959.94  382.5 1932.5  C 382.5 1905.06  404.06 1883.5  431.5 1883.5  Z " stroke-width="1" stroke="#797979" fill="none" />
  </g>
</svg>