<?xml version="1.0" encoding="utf-8"?>
<svg version="1.1" xmlns:xlink="http://www.w3.org/1999/xlink" width="99px" height="60px" xmlns="http://www.w3.org/2000/svg">
  <defs>
    <mask fill="white" id="clip146">
      <path d="M 99 60  L 0 60  L 0 10.3817466818162  C 0 10.3817466818162  11.7623762376238 -1.15808147927283  27.690594059406 0.095157895302409  C 43.6188118811881 1.34839726987767  52.1955445544554 15.6353261400357  70.8193069306931 16.6379176396959  C 89.4430693069307 17.6405091393561  99 16.6379176396959  99 16.6379176396959  L 99 60  Z " fill-rule="evenodd" />
    </mask>
  </defs>
  <g transform="matrix(1 0 0 1 -525 -1922 )">
    <path d="M 99 60  L 0 60  L 0 10.3817466818162  C 0 10.3817466818162  11.7623762376238 -1.15808147927283  27.690594059406 0.095157895302409  C 43.6188118811881 1.34839726987767  52.1955445544554 15.6353261400357  70.8193069306931 16.6379176396959  C 89.4430693069307 17.6405091393561  99 16.6379176396959  99 16.6379176396959  L 99 60  Z " fill-rule="nonzero" fill="#00ffff" stroke="none" transform="matrix(1 0 0 1 525 1922 )" />
    <path d="M 99 60  L 0 60  L 0 10.3817466818162  C 0 10.3817466818162  11.7623762376238 -1.15808147927283  27.690594059406 0.095157895302409  C 43.6188118811881 1.34839726987767  52.1955445544554 15.6353261400357  70.8193069306931 16.6379176396959  C 89.4430693069307 17.6405091393561  99 16.6379176396959  99 16.6379176396959  L 99 60  Z " stroke-width="2" stroke="#797979" fill="none" transform="matrix(1 0 0 1 525 1922 )" mask="url(#clip146)" />
  </g>
</svg>