<?xml version="1.0" encoding="utf-8"?>
<svg version="1.1" xmlns:xlink="http://www.w3.org/1999/xlink" width="170px" height="170px" xmlns="http://www.w3.org/2000/svg">
  <g transform="matrix(1 0 0 1 -296 -85 )">
    <path d="M 381 85  C 428.6 85  466 122.4  466 170  C 466 217.6  428.6 255  381 255  C 333.4 255  296 217.6  296 170  C 296 122.4  333.4 85  381 85  Z " fill-rule="nonzero" fill="#ffffff" stroke="none" />
    <path d="M 381 85.5  C 428.32 85.5  465.5 122.68  465.5 170  C 465.5 217.32  428.32 254.5  381 254.5  C 333.68 254.5  296.5 217.32  296.5 170  C 296.5 122.68  333.68 85.5  381 85.5  Z " stroke-width="1" stroke="#797979" fill="none" />
  </g>
</svg>