<?xml version="1.0" encoding="utf-8"?>
<svg version="1.1" xmlns:xlink="http://www.w3.org/1999/xlink" width="100px" height="54px" xmlns="http://www.w3.org/2000/svg">
  <defs>
    <mask fill="white" id="clip147">
      <path d="M 100 35.1  C 100 21.6  70 13.5  50 0  C 30 13.5  0 21.6  0 35.1  C 0 42.12  10 54  50 54  C 90 54  100 42.12  100 35.1  Z " fill-rule="evenodd" />
    </mask>
  </defs>
  <g transform="matrix(1 0 0 1 -154 -105 )">
    <path d="M 100 35.1  C 100 21.6  70 13.5  50 0  C 30 13.5  0 21.6  0 35.1  C 0 42.12  10 54  50 54  C 90 54  100 42.12  100 35.1  Z " fill-rule="nonzero" fill="#ffffff" stroke="none" transform="matrix(1 0 0 1 154 105 )" />
    <path d="M 100 35.1  C 100 21.6  70 13.5  50 0  C 30 13.5  0 21.6  0 35.1  C 0 42.12  10 54  50 54  C 90 54  100 42.12  100 35.1  Z " stroke-width="2" stroke="#797979" fill="none" transform="matrix(1 0 0 1 154 105 )" mask="url(#clip147)" />
  </g>
</svg>