<?xml version="1.0" encoding="utf-8"?>
<svg version="1.1" xmlns:xlink="http://www.w3.org/1999/xlink" width="100px" height="100px" xmlns="http://www.w3.org/2000/svg">
  <g transform="matrix(1 0 0 1 -154 -30 )">
    <path d="M 204 30  C 232 30  254 52  254 80  C 254 108  232 130  204 130  C 176 130  154 108  154 80  C 154 52  176 30  204 30  Z " fill-rule="nonzero" fill="#ffffff" stroke="none" />
    <path d="M 204 30.5  C 231.72 30.5  253.5 52.28  253.5 80  C 253.5 107.72  231.72 129.5  204 129.5  C 176.28 129.5  154.5 107.72  154.5 80  C 154.5 52.28  176.28 30.5  204 30.5  Z " stroke-width="1" stroke="#797979" fill="none" />
  </g>
</svg>