<?xml version="1.0" encoding="utf-8"?>
<svg version="1.1" xmlns:xlink="http://www.w3.org/1999/xlink" width="104px" height="104px" xmlns="http://www.w3.org/2000/svg">
  <g transform="matrix(1 0 0 1 -154 -498 )">
    <path d="M 206 498  C 235.12 498  258 520.88  258 550  C 258 579.12  235.12 602  206 602  C 176.88 602  154 579.12  154 550  C 154 520.88  176.88 498  206 498  Z " fill-rule="nonzero" fill="#ffffff" stroke="none" />
    <path d="M 206 498.5  C 234.84 498.5  257.5 521.16  257.5 550  C 257.5 578.84  234.84 601.5  206 601.5  C 177.16 601.5  154.5 578.84  154.5 550  C 154.5 521.16  177.16 498.5  206 498.5  Z " stroke-width="1" stroke="#797979" fill="none" />
  </g>
</svg>