<?xml version="1.0" encoding="utf-8"?>
<svg version="1.1" xmlns:xlink="http://www.w3.org/1999/xlink" width="202px" height="23px" xmlns="http://www.w3.org/2000/svg">
  <g transform="matrix(1 0 0 1 -247 -496 )">
    <path d="M 440.503597872599 496.5  C 440.503597872599 496.5  441.850804011304 496.576697379184  441.850804011304 496.576697379184  C 441.850804011304 496.576697379184  448.480269597899 507.5  448.480269597899 507.5  C 448.480269597899 507.5  441.850804011304 518.423302620816  441.850804011304 518.423302620816  C 441.850804011304 518.423302620816  440.503597872599 518.5  440.503597872599 518.5  C 440.503597872599 518.5  252 518.5  252 518.5  C 249.48 518.5  247.5 516.52  247.5 514  C 247.5 514  247.5 501  247.5 501  C 247.5 498.48  249.48 496.5  252 496.5  C 252 496.5  440.503597872599 496.5  440.503597872599 496.5  Z " fill-rule="nonzero" fill="#ffffff" stroke="none" />
    <path d="M 440.503597872599 496.5  C 440.503597872599 496.5  441.850804011304 496.576697379184  441.850804011304 496.576697379184  C 441.850804011304 496.576697379184  448.480269597899 507.5  448.480269597899 507.5  C 448.480269597899 507.5  441.850804011304 518.423302620816  441.850804011304 518.423302620816  C 441.850804011304 518.423302620816  440.503597872599 518.5  440.503597872599 518.5  C 440.503597872599 518.5  252 518.5  252 518.5  C 249.48 518.5  247.5 516.52  247.5 514  C 247.5 514  247.5 501  247.5 501  C 247.5 498.48  249.48 496.5  252 496.5  C 252 496.5  440.503597872599 496.5  440.503597872599 496.5  Z " stroke-width="1" stroke="#797979" fill="none" />
  </g>
</svg>