<?xml version="1.0" encoding="utf-8"?>
<svg version="1.1" xmlns:xlink="http://www.w3.org/1999/xlink" width="24px" height="203px" xmlns="http://www.w3.org/2000/svg">
  <defs>
    <mask fill="white" id="clip148">
      <path d="M 0.5 197.5  L 0.5 9.69999999999982  L 0.630940594059439 7.40000000000009  L 12 0.5  L 23.3690594059406 7.40000000000009  L 23.5 9.69999999999982  L 23.5 197.5  C 23.5 200.3  21.3 202.5  18.5 202.5  L 5.5 202.5  C 2.70000000000005 202.5  0.5 200.3  0.5 197.5  Z " fill-rule="evenodd" />
    </mask>
  </defs>
  <g transform="matrix(1 0 0 1 -336 -406 )">
    <path d="M 0.5 197.5  L 0.5 9.69999999999982  L 0.630940594059439 7.40000000000009  L 12 0.5  L 23.3690594059406 7.40000000000009  L 23.5 9.69999999999982  L 23.5 197.5  C 23.5 200.3  21.3 202.5  18.5 202.5  L 5.5 202.5  C 2.70000000000005 202.5  0.5 200.3  0.5 197.5  Z " fill-rule="nonzero" fill="#ffffff" stroke="none" transform="matrix(1 0 0 1 336 406 )" />
    <path d="M 0.5 197.5  L 0.5 9.69999999999982  L 0.630940594059439 7.40000000000009  L 12 0.5  L 23.3690594059406 7.40000000000009  L 23.5 9.69999999999982  L 23.5 197.5  C 23.5 200.3  21.3 202.5  18.5 202.5  L 5.5 202.5  C 2.70000000000005 202.5  0.5 200.3  0.5 197.5  Z " stroke-width="2" stroke="#797979" fill="none" transform="matrix(1 0 0 1 336 406 )" mask="url(#clip148)" />
  </g>
</svg>