<?xml version="1.0" encoding="utf-8"?>
<svg version="1.1" xmlns:xlink="http://www.w3.org/1999/xlink" width="24px" height="53px" xmlns="http://www.w3.org/2000/svg">
  <defs>
    <mask fill="white" id="clip170">
      <path d="M 0 48  L 0 9.19999999999982  L 0.520754716981173 6.90000000000009  L 12 0  L 23.4792452830188 6.90000000000009  L 24 9.19999999999982  L 24 48  C 24 50.8000000000002  21.7043478260869 53  18.7826086956522 53  L 5.21739130434783 53  C 2.29565217391309 53  0 50.8000000000002  0 48  Z " fill-rule="evenodd" />
    </mask>
  </defs>
  <g transform="matrix(1 0 0 1 -336 -407 )">
    <path d="M 0 48  L 0 9.19999999999982  L 0.520754716981173 6.90000000000009  L 12 0  L 23.4792452830188 6.90000000000009  L 24 9.19999999999982  L 24 48  C 24 50.8000000000002  21.7043478260869 53  18.7826086956522 53  L 5.21739130434783 53  C 2.29565217391309 53  0 50.8000000000002  0 48  Z " fill-rule="nonzero" fill="#d9001b" stroke="none" transform="matrix(1 0 0 1 336 407 )" />
    <path d="M 0 48  L 0 9.19999999999982  L 0.520754716981173 6.90000000000009  L 12 0  L 23.4792452830188 6.90000000000009  L 24 9.19999999999982  L 24 48  C 24 50.8000000000002  21.7043478260869 53  18.7826086956522 53  L 5.21739130434783 53  C 2.29565217391309 53  0 50.8000000000002  0 48  Z " stroke-width="2" stroke="#797979" fill="none" transform="matrix(1 0 0 1 336 407 )" mask="url(#clip170)" />
  </g>
</svg>