<?xml version="1.0" encoding="utf-8"?>
<svg version="1.1" xmlns:xlink="http://www.w3.org/1999/xlink" width="148px" height="17px" xmlns="http://www.w3.org/2000/svg">
  <g transform="matrix(1 0 0 1 -179 -526 )">
    <path d="M 320.895497657074 526.5  C 320.895497657074 526.5  321.650651847832 526.543370342037  321.650651847832 526.543370342037  C 321.650651847832 526.543370342037  326.480103068796 534.5  326.480103068796 534.5  C 326.480103068796 534.5  321.650651847832 542.456629657963  321.650651847832 542.456629657963  C 321.650651847832 542.456629657963  320.895497657074 542.5  320.895497657074 542.5  C 320.895497657074 542.5  184 542.5  184 542.5  C 181.48 542.5  179.5 540.52  179.5 538  C 179.5 538  179.5 531  179.5 531  C 179.5 528.48  181.48 526.5  184 526.5  C 184 526.5  320.895497657074 526.5  320.895497657074 526.5  Z " fill-rule="nonzero" fill="#ffffff" stroke="none" />
    <path d="M 320.895497657074 526.5  C 320.895497657074 526.5  321.650651847832 526.543370342037  321.650651847832 526.543370342037  C 321.650651847832 526.543370342037  326.480103068796 534.5  326.480103068796 534.5  C 326.480103068796 534.5  321.650651847832 542.456629657963  321.650651847832 542.456629657963  C 321.650651847832 542.456629657963  320.895497657074 542.5  320.895497657074 542.5  C 320.895497657074 542.5  184 542.5  184 542.5  C 181.48 542.5  179.5 540.52  179.5 538  C 179.5 538  179.5 531  179.5 531  C 179.5 528.48  181.48 526.5  184 526.5  C 184 526.5  320.895497657074 526.5  320.895497657074 526.5  Z " stroke-width="1" stroke="#797979" fill="none" />
  </g>
</svg>