<?xml version="1.0" encoding="utf-8"?>
<svg version="1.1" xmlns:xlink="http://www.w3.org/1999/xlink" width="18px" height="149px" xmlns="http://www.w3.org/2000/svg">
  <defs>
    <mask fill="white" id="clip150">
      <path d="M 0.375 144.963054187192  L 0.375 7.1197044334974  L 0.473205445544579 5.43152709359613  L 9 0.366995073891626  L 17.5267945544554 5.43152709359613  L 17.625 7.1197044334974  L 17.625 144.963054187192  C 17.625 147.018226600985  15.975 148.633004926108  13.875 148.633004926108  L 4.125 148.633004926108  C 2.02500000000003 148.633004926108  0.375 147.018226600985  0.375 144.963054187192  Z " fill-rule="evenodd" />
    </mask>
  </defs>
  <g transform="matrix(1 0 0 1 -244 -460 )">
    <path d="M 0.375 144.963054187192  L 0.375 7.1197044334974  L 0.473205445544579 5.43152709359613  L 9 0.366995073891626  L 17.5267945544554 5.43152709359613  L 17.625 7.1197044334974  L 17.625 144.963054187192  C 17.625 147.018226600985  15.975 148.633004926108  13.875 148.633004926108  L 4.125 148.633004926108  C 2.02500000000003 148.633004926108  0.375 147.018226600985  0.375 144.963054187192  Z " fill-rule="nonzero" fill="#ffffff" stroke="none" transform="matrix(1 0 0 1 244 460 )" />
    <path d="M 0.375 144.963054187192  L 0.375 7.1197044334974  L 0.473205445544579 5.43152709359613  L 9 0.366995073891626  L 17.5267945544554 5.43152709359613  L 17.625 7.1197044334974  L 17.625 144.963054187192  C 17.625 147.018226600985  15.975 148.633004926108  13.875 148.633004926108  L 4.125 148.633004926108  C 2.02500000000003 148.633004926108  0.375 147.018226600985  0.375 144.963054187192  Z " stroke-width="2" stroke="#797979" fill="none" transform="matrix(1 0 0 1 244 460 )" mask="url(#clip150)" />
  </g>
</svg>