<?xml version="1.0" encoding="utf-8"?>
<svg version="1.1" xmlns:xlink="http://www.w3.org/1999/xlink" width="18px" height="39px" xmlns="http://www.w3.org/2000/svg">
  <defs>
    <mask fill="white" id="clip172">
      <path d="M 0 35.3207547169811  L 0 6.76981132075458  L 0.39056603773588 5.0773584905661  L 9 0  L 17.6094339622641 5.0773584905661  L 18 6.76981132075458  L 18 35.3207547169811  C 18 37.3811320754718  16.2782608695652 39  14.0869565217391 39  L 3.91304347826087 39  C 1.72173913043482 39  0 37.3811320754718  0 35.3207547169811  Z " fill-rule="evenodd" />
    </mask>
  </defs>
  <g transform="matrix(1 0 0 1 -244 -461 )">
    <path d="M 0 35.3207547169811  L 0 6.76981132075458  L 0.39056603773588 5.0773584905661  L 9 0  L 17.6094339622641 5.0773584905661  L 18 6.76981132075458  L 18 35.3207547169811  C 18 37.3811320754718  16.2782608695652 39  14.0869565217391 39  L 3.91304347826087 39  C 1.72173913043482 39  0 37.3811320754718  0 35.3207547169811  Z " fill-rule="nonzero" fill="#d9001b" stroke="none" transform="matrix(1 0 0 1 244 461 )" />
    <path d="M 0 35.3207547169811  L 0 6.76981132075458  L 0.39056603773588 5.0773584905661  L 9 0  L 17.6094339622641 5.0773584905661  L 18 6.76981132075458  L 18 35.3207547169811  C 18 37.3811320754718  16.2782608695652 39  14.0869565217391 39  L 3.91304347826087 39  C 1.72173913043482 39  0 37.3811320754718  0 35.3207547169811  Z " stroke-width="2" stroke="#797979" fill="none" transform="matrix(1 0 0 1 244 461 )" mask="url(#clip172)" />
  </g>
</svg>