<?xml version="1.0" encoding="utf-8"?>
<svg version="1.1" xmlns:xlink="http://www.w3.org/1999/xlink" width="110px" height="13px" xmlns="http://www.w3.org/2000/svg">
  <g transform="matrix(1 0 0 1 -103 -547 )">
    <path d="M 208.469701586097 547.5  C 208.469701586097 547.5  208.850149235799 547.522480997482  208.850149235799 547.522480997482  C 208.850149235799 547.522480997482  212.479553597953 553.5  212.479553597953 553.5  C 212.479553597953 553.5  208.850149235799 559.477519002518  208.850149235799 559.477519002518  C 208.850149235799 559.477519002518  208.469701586097 559.5  208.469701586097 559.5  C 208.469701586097 559.5  108 559.5  108 559.5  C 105.48 559.5  103.5 557.52  103.5 555  C 103.5 555  103.5 552  103.5 552  C 103.5 549.48  105.48 547.5  108 547.5  C 108 547.5  208.469701586097 547.5  208.469701586097 547.5  Z " fill-rule="nonzero" fill="#ffffff" stroke="none" />
    <path d="M 208.469701586097 547.5  C 208.469701586097 547.5  208.850149235799 547.522480997482  208.850149235799 547.522480997482  C 208.850149235799 547.522480997482  212.479553597953 553.5  212.479553597953 553.5  C 212.479553597953 553.5  208.850149235799 559.477519002518  208.850149235799 559.477519002518  C 208.850149235799 559.477519002518  208.469701586097 559.5  208.469701586097 559.5  C 208.469701586097 559.5  108 559.5  108 559.5  C 105.48 559.5  103.5 557.52  103.5 555  C 103.5 555  103.5 552  103.5 552  C 103.5 549.48  105.48 547.5  108 547.5  C 108 547.5  208.469701586097 547.5  208.469701586097 547.5  Z " stroke-width="1" stroke="#797979" fill="none" />
  </g>
</svg>