<?xml version="1.0" encoding="utf-8"?>
<svg version="1.1" xmlns:xlink="http://www.w3.org/1999/xlink" width="13px" height="111px" xmlns="http://www.w3.org/2000/svg">
  <defs>
    <mask fill="white" id="clip152">
      <path d="M 0.270833333333333 107.992610837438  L 0.270833333333333 5.30394088669941  L 0.341759488448863 4.04630541871926  L 6.5 0.273399014778325  L 12.6582405115511 4.04630541871926  L 12.7291666666667 5.30394088669941  L 12.7291666666667 107.992610837438  C 12.7291666666667 109.523645320197  11.5375 110.726600985222  10.0208333333333 110.726600985222  L 2.97916666666667 110.726600985222  C 1.46250000000002 110.726600985222  0.270833333333333 109.523645320197  0.270833333333333 107.992610837438  Z " fill-rule="evenodd" />
    </mask>
  </defs>
  <g transform="matrix(1 0 0 1 -151 -498 )">
    <path d="M 0.270833333333333 107.992610837438  L 0.270833333333333 5.30394088669941  L 0.341759488448863 4.04630541871926  L 6.5 0.273399014778325  L 12.6582405115511 4.04630541871926  L 12.7291666666667 5.30394088669941  L 12.7291666666667 107.992610837438  C 12.7291666666667 109.523645320197  11.5375 110.726600985222  10.0208333333333 110.726600985222  L 2.97916666666667 110.726600985222  C 1.46250000000002 110.726600985222  0.270833333333333 109.523645320197  0.270833333333333 107.992610837438  Z " fill-rule="nonzero" fill="#ffffff" stroke="none" transform="matrix(1 0 0 1 151 498 )" />
    <path d="M 0.270833333333333 107.992610837438  L 0.270833333333333 5.30394088669941  L 0.341759488448863 4.04630541871926  L 6.5 0.273399014778325  L 12.6582405115511 4.04630541871926  L 12.7291666666667 5.30394088669941  L 12.7291666666667 107.992610837438  C 12.7291666666667 109.523645320197  11.5375 110.726600985222  10.0208333333333 110.726600985222  L 2.97916666666667 110.726600985222  C 1.46250000000002 110.726600985222  0.270833333333333 109.523645320197  0.270833333333333 107.992610837438  Z " stroke-width="2" stroke="#797979" fill="none" transform="matrix(1 0 0 1 151 498 )" mask="url(#clip152)" />
  </g>
</svg>