<?xml version="1.0" encoding="utf-8"?>
<svg version="1.1" xmlns:xlink="http://www.w3.org/1999/xlink" width="13px" height="29px" xmlns="http://www.w3.org/2000/svg">
  <defs>
    <mask fill="white" id="clip153">
      <path d="M 0 26.2641509433962  L 0 5.03396226415084  L 0.282075471698136 3.77547169811326  L 6.5 0  L 12.7179245283019 3.77547169811326  L 13 5.03396226415084  L 13 26.2641509433962  C 13 27.7962264150944  11.7565217391304 29  10.1739130434783 29  L 2.82608695652174 29  C 1.24347826086959 29  0 27.7962264150944  0 26.2641509433962  Z " fill-rule="evenodd" />
    </mask>
  </defs>
  <g transform="matrix(1 0 0 1 -151 -499 )">
    <path d="M 0 26.2641509433962  L 0 5.03396226415084  L 0.282075471698136 3.77547169811326  L 6.5 0  L 12.7179245283019 3.77547169811326  L 13 5.03396226415084  L 13 26.2641509433962  C 13 27.7962264150944  11.7565217391304 29  10.1739130434783 29  L 2.82608695652174 29  C 1.24347826086959 29  0 27.7962264150944  0 26.2641509433962  Z " fill-rule="nonzero" fill="#d9001b" stroke="none" transform="matrix(1 0 0 1 151 499 )" />
    <path d="M 0 26.2641509433962  L 0 5.03396226415084  L 0.282075471698136 3.77547169811326  L 6.5 0  L 12.7179245283019 3.77547169811326  L 13 5.03396226415084  L 13 26.2641509433962  C 13 27.7962264150944  11.7565217391304 29  10.1739130434783 29  L 2.82608695652174 29  C 1.24347826086959 29  0 27.7962264150944  0 26.2641509433962  Z " stroke-width="2" stroke="#797979" fill="none" transform="matrix(1 0 0 1 151 499 )" mask="url(#clip153)" />
  </g>
</svg>