<?xml version="1.0" encoding="utf-8"?>
<svg version="1.1" xmlns:xlink="http://www.w3.org/1999/xlink" width="82px" height="10px" xmlns="http://www.w3.org/2000/svg">
  <g transform="matrix(1 0 0 1 -22 -563 )">
    <path d="M 100.642090236051 563.5  C 100.642090236051 563.5  100.749578740675 563.506554177111  100.749578740675 563.506554177111  C 100.749578740675 563.506554177111  103.478931018282 568  103.478931018282 568  C 103.478931018282 568  100.749578740675 572.493445822889  100.749578740675 572.493445822889  C 100.749578740675 572.493445822889  100.642090236051 572.5  100.642090236051 572.5  C 100.642090236051 572.5  27 572.5  27 572.5  C 24.48 572.5  22.5 570.52  22.5 568  C 22.5 565.48  24.48 563.5  27 563.5  C 27 563.5  100.642090236051 563.5  100.642090236051 563.5  Z " fill-rule="nonzero" fill="#ffffff" stroke="none" />
    <path d="M 100.642090236051 563.5  C 100.642090236051 563.5  100.749578740675 563.506554177111  100.749578740675 563.506554177111  C 100.749578740675 563.506554177111  103.478931018282 568  103.478931018282 568  C 103.478931018282 568  100.749578740675 572.493445822889  100.749578740675 572.493445822889  C 100.749578740675 572.493445822889  100.642090236051 572.5  100.642090236051 572.5  C 100.642090236051 572.5  27 572.5  27 572.5  C 24.48 572.5  22.5 570.52  22.5 568  C 22.5 565.48  24.48 563.5  27 563.5  C 27 563.5  100.642090236051 563.5  100.642090236051 563.5  Z " stroke-width="1" stroke="#797979" fill="none" />
  </g>
</svg>