<?xml version="1.0" encoding="utf-8"?>
<svg version="1.1" xmlns:xlink="http://www.w3.org/1999/xlink" width="10px" height="83px" xmlns="http://www.w3.org/2000/svg">
  <defs>
    <mask fill="white" id="clip154">
      <path d="M 0.208333333333333 80.7512315270936  L 0.208333333333333 3.96600985221667  L 0.262891914191433 3.02561576354684  L 5 0.204433497536946  L 9.73710808580857 3.02561576354684  L 9.79166666666667 3.96600985221667  L 9.79166666666667 80.7512315270936  C 9.79166666666667 81.8960591133006  8.87499999999998 82.795566502463  7.70833333333333 82.795566502463  L 2.29166666666667 82.795566502463  C 1.12500000000002 82.795566502463  0.208333333333333 81.8960591133006  0.208333333333333 80.7512315270936  Z " fill-rule="evenodd" />
    </mask>
  </defs>
  <g transform="matrix(1 0 0 1 -58 -527 )">
    <path d="M 0.208333333333333 80.7512315270936  L 0.208333333333333 3.96600985221667  L 0.262891914191433 3.02561576354684  L 5 0.204433497536946  L 9.73710808580857 3.02561576354684  L 9.79166666666667 3.96600985221667  L 9.79166666666667 80.7512315270936  C 9.79166666666667 81.8960591133006  8.87499999999998 82.795566502463  7.70833333333333 82.795566502463  L 2.29166666666667 82.795566502463  C 1.12500000000002 82.795566502463  0.208333333333333 81.8960591133006  0.208333333333333 80.7512315270936  Z " fill-rule="nonzero" fill="#ffffff" stroke="none" transform="matrix(1 0 0 1 58 527 )" />
    <path d="M 0.208333333333333 80.7512315270936  L 0.208333333333333 3.96600985221667  L 0.262891914191433 3.02561576354684  L 5 0.204433497536946  L 9.73710808580857 3.02561576354684  L 9.79166666666667 3.96600985221667  L 9.79166666666667 80.7512315270936  C 9.79166666666667 81.8960591133006  8.87499999999998 82.795566502463  7.70833333333333 82.795566502463  L 2.29166666666667 82.795566502463  C 1.12500000000002 82.795566502463  0.208333333333333 81.8960591133006  0.208333333333333 80.7512315270936  Z " stroke-width="2" stroke="#797979" fill="none" transform="matrix(1 0 0 1 58 527 )" mask="url(#clip154)" />
  </g>
</svg>