<?xml version="1.0" encoding="utf-8"?>
<svg version="1.1" xmlns:xlink="http://www.w3.org/1999/xlink" width="10px" height="22px" xmlns="http://www.w3.org/2000/svg">
  <defs>
    <mask fill="white" id="clip176">
      <path d="M 0 19.9245283018868  L 0 3.81886792452823  L 0.216981132075489 2.86415094339626  L 5 0  L 9.78301886792451 2.86415094339626  L 10 3.81886792452823  L 10 19.9245283018868  C 10 21.0867924528303  9.04347826086955 22  7.82608695652174 22  L 2.17391304347826 22  C 0.956521739130455 22  0 21.0867924528303  0 19.9245283018868  Z " fill-rule="evenodd" />
    </mask>
  </defs>
  <g transform="matrix(1 0 0 1 -58 -527 )">
    <path d="M 0 19.9245283018868  L 0 3.81886792452823  L 0.216981132075489 2.86415094339626  L 5 0  L 9.78301886792451 2.86415094339626  L 10 3.81886792452823  L 10 19.9245283018868  C 10 21.0867924528303  9.04347826086955 22  7.82608695652174 22  L 2.17391304347826 22  C 0.956521739130455 22  0 21.0867924528303  0 19.9245283018868  Z " fill-rule="nonzero" fill="#d9001b" stroke="none" transform="matrix(1 0 0 1 58 527 )" />
    <path d="M 0 19.9245283018868  L 0 3.81886792452823  L 0.216981132075489 2.86415094339626  L 5 0  L 9.78301886792451 2.86415094339626  L 10 3.81886792452823  L 10 19.9245283018868  C 10 21.0867924528303  9.04347826086955 22  7.82608695652174 22  L 2.17391304347826 22  C 0.956521739130455 22  0 21.0867924528303  0 19.9245283018868  Z " stroke-width="2" stroke="#797979" fill="none" transform="matrix(1 0 0 1 58 527 )" mask="url(#clip176)" />
  </g>
</svg>