<?xml version="1.0" encoding="utf-8"?>
<svg version="1.1" xmlns:xlink="http://www.w3.org/1999/xlink" width="170px" height="170px" xmlns="http://www.w3.org/2000/svg">
  <g transform="matrix(1 0 0 1 -24 -147 )">
    <path d="M 109 149  C 155.48 149  192 185.52  192 232  C 192 278.48  155.48 315  109 315  C 62.52 315  26 278.48  26 232  C 26 185.52  62.52 149  109 149  Z " fill-rule="nonzero" fill="#ffffff" stroke="none" />
    <path d="M 109 148.5  C 155.76 148.5  192.5 185.24  192.5 232  C 192.5 278.76  155.76 315.5  109 315.5  C 62.24 315.5  25.5 278.76  25.5 232  C 25.5 185.24  62.24 148.5  109 148.5  Z " stroke-width="3" stroke="#797979" fill="none" />
  </g>
</svg>