<?xml version="1.0" encoding="utf-8"?>
<svg version="1.1" xmlns:xlink="http://www.w3.org/1999/xlink" width="29px" height="29px" xmlns="http://www.w3.org/2000/svg">
  <g transform="matrix(1 0 0 1 -95 -297 )">
    <path d="M 109.5 299  C 116.5 299  122 304.5  122 311.5  C 122 318.5  116.5 324  109.5 324  C 102.5 324  97 318.5  97 311.5  C 97 304.5  102.5 299  109.5 299  Z " fill-rule="nonzero" fill="#ffffff" stroke="none" />
    <path d="M 109.5 298.5  C 116.78 298.5  122.5 304.22  122.5 311.5  C 122.5 318.78  116.78 324.5  109.5 324.5  C 102.22 324.5  96.5 318.78  96.5 311.5  C 96.5 304.22  102.22 298.5  109.5 298.5  Z " stroke-width="3" stroke="#70b603" fill="none" />
  </g>
</svg>