<?xml version="1.0" encoding="utf-8"?>
<svg version="1.1" xmlns:xlink="http://www.w3.org/1999/xlink" width="235px" height="235px" xmlns="http://www.w3.org/2000/svg">
  <g transform="matrix(1 0 0 1 -85 -1352 )">
    <path d="M 202.5 1352  C 268.3 1352  320 1403.7  320 1469.5  C 320 1535.3  268.3 1587  202.5 1587  C 136.7 1587  85 1535.3  85 1469.5  C 85 1403.7  136.7 1352  202.5 1352  Z " fill-rule="nonzero" fill="#ffffff" stroke="none" />
    <path d="M 202.5 1352.5  C 268.02 1352.5  319.5 1403.98  319.5 1469.5  C 319.5 1535.02  268.02 1586.5  202.5 1586.5  C 136.98 1586.5  85.5 1535.02  85.5 1469.5  C 85.5 1403.98  136.98 1352.5  202.5 1352.5  Z " stroke-width="1" stroke="#797979" fill="none" />
  </g>
</svg>