<?xml version="1.0" encoding="utf-8"?>
<svg version="1.1" xmlns:xlink="http://www.w3.org/1999/xlink" width="94px" height="25px" xmlns="http://www.w3.org/2000/svg">
  <g transform="matrix(1 0 0 1 -152 -1982 )">
    <path d="M 236.17334696409 1982.5  C 236.17334696409 1982.5  238.228458051517 1982.77328604886  238.228458051517 1982.77328604886  C 238.228458051517 1982.77328604886  245.456727634515 1994.5  245.456727634515 1994.5  C 245.456727634515 1994.5  238.228458051517 2006.22671395114  238.228458051517 2006.22671395114  C 238.228458051517 2006.22671395114  236.17334696409 2006.5  236.17334696409 2006.5  C 236.17334696409 2006.5  157 2006.5  157 2006.5  C 154.48 2006.5  152.5 2004.52  152.5 2002  C 152.5 2002  152.5 1987  152.5 1987  C 152.5 1984.48  154.48 1982.5  157 1982.5  C 157 1982.5  236.17334696409 1982.5  236.17334696409 1982.5  Z " fill-rule="nonzero" fill="#ffffff" stroke="none" />
    <path d="M 236.17334696409 1982.5  C 236.17334696409 1982.5  238.228458051517 1982.77328604886  238.228458051517 1982.77328604886  C 238.228458051517 1982.77328604886  245.456727634515 1994.5  245.456727634515 1994.5  C 245.456727634515 1994.5  238.228458051517 2006.22671395114  238.228458051517 2006.22671395114  C 238.228458051517 2006.22671395114  236.17334696409 2006.5  236.17334696409 2006.5  C 236.17334696409 2006.5  157 2006.5  157 2006.5  C 154.48 2006.5  152.5 2004.52  152.5 2002  C 152.5 2002  152.5 1987  152.5 1987  C 152.5 1984.48  154.48 1982.5  157 1982.5  C 157 1982.5  236.17334696409 1982.5  236.17334696409 1982.5  Z " stroke-width="1" stroke="#797979" fill="none" />
  </g>
</svg>