<?xml version="1.0" encoding="utf-8"?>
<svg version="1.1" xmlns:xlink="http://www.w3.org/1999/xlink" width="170px" height="170px" xmlns="http://www.w3.org/2000/svg">
  <defs>
    <mask fill="white" id="clip5">
      <path d="M 170 110.5  C 170 68  119 42.5  85 0  C 51 42.5  0 68  0 110.5  C 0 132.6  17 170  85 170  C 153 170  170 132.6  170 110.5  Z " fill-rule="evenodd" />
    </mask>
  </defs>
  <g transform="matrix(1 0 0 1 -554 -2440 )">
    <path d="M 170 110.5  C 170 68  119 42.5  85 0  C 51 42.5  0 68  0 110.5  C 0 132.6  17 170  85 170  C 153 170  170 132.6  170 110.5  Z " fill-rule="nonzero" fill="#ffffff" stroke="none" transform="matrix(1 0 0 1 554 2440 )" />
    <path d="M 170 110.5  C 170 68  119 42.5  85 0  C 51 42.5  0 68  0 110.5  C 0 132.6  17 170  85 170  C 153 170  170 132.6  170 110.5  Z " stroke-width="2" stroke="#797979" fill="none" transform="matrix(1 0 0 1 554 2440 )" mask="url(#clip5)" />
  </g>
</svg>