<?xml version="1.0" encoding="utf-8"?>
<svg version="1.1" xmlns:xlink="http://www.w3.org/1999/xlink" width="170px" height="170px" xmlns="http://www.w3.org/2000/svg">
  <g transform="matrix(1 0 0 1 -554 -2330 )">
    <path d="M 639 2330  C 686.6 2330  724 2367.4  724 2415  C 724 2462.6  686.6 2500  639 2500  C 591.4 2500  554 2462.6  554 2415  C 554 2367.4  591.4 2330  639 2330  Z " fill-rule="nonzero" fill="#ffffff" stroke="none" />
    <path d="M 639 2330.5  C 686.32 2330.5  723.5 2367.68  723.5 2415  C 723.5 2462.32  686.32 2499.5  639 2499.5  C 591.68 2499.5  554.5 2462.32  554.5 2415  C 554.5 2367.68  591.68 2330.5  639 2330.5  Z " stroke-width="1" stroke="#797979" fill="none" />
  </g>
</svg>