<?xml version="1.0" encoding="utf-8"?>
<svg version="1.1" xmlns:xlink="http://www.w3.org/1999/xlink" width="96px" height="96px" xmlns="http://www.w3.org/2000/svg">
  <g transform="matrix(1 0 0 1 -310 -1680 )">
    <path d="M 358 1680  C 384.88 1680  406 1701.12  406 1728  C 406 1754.88  384.88 1776  358 1776  C 331.12 1776  310 1754.88  310 1728  C 310 1701.12  331.12 1680  358 1680  Z " fill-rule="nonzero" fill="#ffffff" stroke="none" />
    <path d="M 358 1680.5  C 384.6 1680.5  405.5 1701.4  405.5 1728  C 405.5 1754.6  384.6 1775.5  358 1775.5  C 331.4 1775.5  310.5 1754.6  310.5 1728  C 310.5 1701.4  331.4 1680.5  358 1680.5  Z " stroke-width="1" stroke="#797979" fill="none" />
  </g>
</svg>