<?xml version="1.0" encoding="utf-8"?>
<svg version="1.1" xmlns:xlink="http://www.w3.org/1999/xlink" width="40px" height="40px" xmlns="http://www.w3.org/2000/svg">
  <g transform="matrix(1 0 0 1 -1110 -882 )">
    <path d="M 1130 882  C 1141.2 882  1150 890.8  1150 902  C 1150 913.2  1141.2 922  1130 922  C 1118.8 922  1110 913.2  1110 902  C 1110 890.8  1118.8 882  1130 882  Z " fill-rule="nonzero" fill="#ffffff" stroke="none" />
    <path d="M 1130 882.5  C 1140.92 882.5  1149.5 891.08  1149.5 902  C 1149.5 912.92  1140.92 921.5  1130 921.5  C 1119.08 921.5  1110.5 912.92  1110.5 902  C 1110.5 891.08  1119.08 882.5  1130 882.5  Z " stroke-width="1" stroke="#797979" fill="none" />
  </g>
</svg>