<?xml version="1.0" encoding="utf-8"?>
<svg version="1.1" xmlns:xlink="http://www.w3.org/1999/xlink" width="109px" height="37px" xmlns="http://www.w3.org/2000/svg">
  <g transform="matrix(1 0 0 1 -784 -1127 )">
    <path d="M 798.712595009074 1127.5  C 798.712595009074 1127.5  795.38167150468 1128.06534022781  795.38167150468 1128.06534022781  C 795.38167150468 1128.06534022781  784.553307315685 1145.5  784.553307315685 1145.5  C 784.553307315685 1145.5  795.38167150468 1162.93465977219  795.38167150468 1162.93465977219  C 795.38167150468 1162.93465977219  798.712595009074 1163.5  798.712595009074 1163.5  C 798.712595009074 1163.5  892.5 1163.5  892.5 1163.5  C 892.5 1163.5  892.5 1127.5  892.5 1127.5  C 892.5 1127.5  798.712595009074 1127.5  798.712595009074 1127.5  Z " fill-rule="nonzero" fill="#ffffff" stroke="none" />
    <path d="M 798.712595009074 1127.5  C 798.712595009074 1127.5  795.38167150468 1128.06534022781  795.38167150468 1128.06534022781  C 795.38167150468 1128.06534022781  784.553307315685 1145.5  784.553307315685 1145.5  C 784.553307315685 1145.5  795.38167150468 1162.93465977219  795.38167150468 1162.93465977219  C 795.38167150468 1162.93465977219  798.712595009074 1163.5  798.712595009074 1163.5  C 798.712595009074 1163.5  892.5 1163.5  892.5 1163.5  C 892.5 1163.5  892.5 1127.5  892.5 1127.5  C 892.5 1127.5  798.712595009074 1127.5  798.712595009074 1127.5  Z " stroke-width="1" stroke="#797979" fill="none" />
  </g>
</svg>