<?xml version="1.0" encoding="utf-8"?>
<svg version="1.1" xmlns:xlink="http://www.w3.org/1999/xlink" width="864px" height="78px" xmlns="http://www.w3.org/2000/svg">
  <defs>
    <mask fill="white" id="clip20">
      <path d="M 10.1863636363636 77.4032258064516  L 0 47.8273269380347  L 6.59774436090225 29.6266528389941  L 19.7932330827067 13.448275862069  L 32.9887218045112 4.85351309307753  L 45.6766917293233 0  L 864 0  L 856.022727272727 77.4032258064516  L 10.1863636363636 77.4032258064516  Z " fill-rule="evenodd" />
    </mask>
  </defs>
  <g transform="matrix(1 0 0 1 -350 -1316 )">
    <path d="M 10.1863636363636 77.4032258064516  L 0 47.8273269380347  L 6.59774436090225 29.6266528389941  L 19.7932330827067 13.448275862069  L 32.9887218045112 4.85351309307753  L 45.6766917293233 0  L 864 0  L 856.022727272727 77.4032258064516  L 10.1863636363636 77.4032258064516  Z " fill-rule="nonzero" fill="#ffffff" stroke="none" transform="matrix(1 0 0 1 350 1316 )" />
    <path d="M 10.1863636363636 77.4032258064516  L 0 47.8273269380347  L 6.59774436090225 29.6266528389941  L 19.7932330827067 13.448275862069  L 32.9887218045112 4.85351309307753  L 45.6766917293233 0  L 864 0  L 856.022727272727 77.4032258064516  L 10.1863636363636 77.4032258064516  Z " stroke-width="6" stroke="#797979" fill="none" transform="matrix(1 0 0 1 350 1316 )" mask="url(#clip20)" />
  </g>
</svg>