<?xml version="1.0" encoding="utf-8"?>
<svg version="1.1" xmlns:xlink="http://www.w3.org/1999/xlink" width="870px" height="155px" xmlns="http://www.w3.org/2000/svg">
  <defs>
    <mask fill="white" id="clip9">
      <path d="M 86.2029598308668 122.652173913043  C 60.8806697943235 115.437055832251  15.9730956311191 83.9773249822725  10.7906976744187 75.4782608695652  C 1.35571961584815 60.0050216293982  0.0984303599684185 43.5449212251345  1.94495567857093 36.3913043478261  C 4.80573126661921 25.3083842694037  12.2212825933756 6.12648221343883  37.7674418604651 1.34782608695652  C 63.3136011275546 -3.43083003952579  92.0274841437628 14.5061484409317  105.209302325581 16.1739130434783  C 184.30021141649 26.1805006587615  287.350475374015 24.1383399209486  432.820759436386 24.1383399209486  C 528.453284907296 24.1383399209486  704.420014094433 25.5270092226613  739.162790697675 21.4426877470355  C 773.905567300916 17.3583662714097  814.441137049567 -5.39130434782609  839.99859055673 1.34782608695652  C 854.499586202878 5.17152867400084  865.346300495832 23.4366600732646  868.651162790698 37.4782608695653  C 871.170994641647 48.1844476234892  868.117156892292 54.4468816131218  865.965920051441 61.7018633540374  C 860.993248312078 78.4720496894413  821.278365045807 105.66139657444  812.408738548273 111.869565217391  C 803.53911205074 118.077733860343  763.973970556859 140.513398846865  752.651162790698 143.604743083004  C 677.85200845666 164.026350461133  550.451471640665 149.608695652174  432.820759436386 149.608695652174  C 316.211651570564 149.608695652174  232.515831094014 151.257993443299  177.246224364753 149.608695652174  C 146.765433188113 148.699119765274  116.314518365855 131.231905450479  86.2029598308668 122.652173913043  Z " fill-rule="evenodd" />
    </mask>
  </defs>
  <g transform="matrix(1 0 0 1 -353 -1327 )">
    <path d="M 86.2029598308668 122.652173913043  C 60.8806697943235 115.437055832251  15.9730956311191 83.9773249822725  10.7906976744187 75.4782608695652  C 1.35571961584815 60.0050216293982  0.0984303599684185 43.5449212251345  1.94495567857093 36.3913043478261  C 4.80573126661921 25.3083842694037  12.2212825933756 6.12648221343883  37.7674418604651 1.34782608695652  C 63.3136011275546 -3.43083003952579  92.0274841437628 14.5061484409317  105.209302325581 16.1739130434783  C 184.30021141649 26.1805006587615  287.350475374015 24.1383399209486  432.820759436386 24.1383399209486  C 528.453284907296 24.1383399209486  704.420014094433 25.5270092226613  739.162790697675 21.4426877470355  C 773.905567300916 17.3583662714097  814.441137049567 -5.39130434782609  839.99859055673 1.34782608695652  C 854.499586202878 5.17152867400084  865.346300495832 23.4366600732646  868.651162790698 37.4782608695653  C 871.170994641647 48.1844476234892  868.117156892292 54.4468816131218  865.965920051441 61.7018633540374  C 860.993248312078 78.4720496894413  821.278365045807 105.66139657444  812.408738548273 111.869565217391  C 803.53911205074 118.077733860343  763.973970556859 140.513398846865  752.651162790698 143.604743083004  C 677.85200845666 164.026350461133  550.451471640665 149.608695652174  432.820759436386 149.608695652174  C 316.211651570564 149.608695652174  232.515831094014 151.257993443299  177.246224364753 149.608695652174  C 146.765433188113 148.699119765274  116.314518365855 131.231905450479  86.2029598308668 122.652173913043  Z " fill-rule="nonzero" fill="#ffffff" stroke="none" fill-opacity="0" transform="matrix(1 0 0 1 353 1327 )" />
    <path d="M 86.2029598308668 122.652173913043  C 60.8806697943235 115.437055832251  15.9730956311191 83.9773249822725  10.7906976744187 75.4782608695652  C 1.35571961584815 60.0050216293982  0.0984303599684185 43.5449212251345  1.94495567857093 36.3913043478261  C 4.80573126661921 25.3083842694037  12.2212825933756 6.12648221343883  37.7674418604651 1.34782608695652  C 63.3136011275546 -3.43083003952579  92.0274841437628 14.5061484409317  105.209302325581 16.1739130434783  C 184.30021141649 26.1805006587615  287.350475374015 24.1383399209486  432.820759436386 24.1383399209486  C 528.453284907296 24.1383399209486  704.420014094433 25.5270092226613  739.162790697675 21.4426877470355  C 773.905567300916 17.3583662714097  814.441137049567 -5.39130434782609  839.99859055673 1.34782608695652  C 854.499586202878 5.17152867400084  865.346300495832 23.4366600732646  868.651162790698 37.4782608695653  C 871.170994641647 48.1844476234892  868.117156892292 54.4468816131218  865.965920051441 61.7018633540374  C 860.993248312078 78.4720496894413  821.278365045807 105.66139657444  812.408738548273 111.869565217391  C 803.53911205074 118.077733860343  763.973970556859 140.513398846865  752.651162790698 143.604743083004  C 677.85200845666 164.026350461133  550.451471640665 149.608695652174  432.820759436386 149.608695652174  C 316.211651570564 149.608695652174  232.515831094014 151.257993443299  177.246224364753 149.608695652174  C 146.765433188113 148.699119765274  116.314518365855 131.231905450479  86.2029598308668 122.652173913043  Z " stroke-width="12" stroke-dasharray="18,6" stroke="#797979" fill="none" transform="matrix(1 0 0 1 353 1327 )" mask="url(#clip9)" />
  </g>
</svg>