<?xml version="1.0" encoding="utf-8"?>
<svg version="1.1" xmlns:xlink="http://www.w3.org/1999/xlink" width="81px" height="81px" xmlns="http://www.w3.org/2000/svg">
  <g transform="matrix(1 0 0 1 -359 -1334 )">
    <path d="M 399.5 1335  C 421.62 1335  439 1352.38  439 1374.5  C 439 1396.62  421.62 1414  399.5 1414  C 377.38 1414  360 1396.62  360 1374.5  C 360 1352.38  377.38 1335  399.5 1335  Z " fill-rule="nonzero" fill="#ffffff" stroke="none" />
    <path d="M 399.5 1335  C 421.62 1335  439 1352.38  439 1374.5  C 439 1396.62  421.62 1414  399.5 1414  C 377.38 1414  360 1396.62  360 1374.5  C 360 1352.38  377.38 1335  399.5 1335  Z " stroke-width="2" stroke="#797979" fill="none" />
  </g>
</svg>