<?xml version="1.0" encoding="utf-8"?>
<svg version="1.1" xmlns:xlink="http://www.w3.org/1999/xlink" width="42px" height="42px" xmlns="http://www.w3.org/2000/svg">
  <g transform="matrix(1 0 0 1 -380 -1354 )">
    <path d="M 401 1354  C 412.76 1354  422 1363.24  422 1375  C 422 1386.76  412.76 1396  401 1396  C 389.24 1396  380 1386.76  380 1375  C 380 1363.24  389.24 1354  401 1354  Z " fill-rule="nonzero" fill="#ffffff" stroke="none" />
    <path d="M 401 1354.5  C 412.48 1354.5  421.5 1363.52  421.5 1375  C 421.5 1386.48  412.48 1395.5  401 1395.5  C 389.52 1395.5  380.5 1386.48  380.5 1375  C 380.5 1363.52  389.52 1354.5  401 1354.5  Z " stroke-width="1" stroke="#797979" fill="none" />
  </g>
</svg>