<?xml version="1.0" encoding="utf-8"?>
<svg version="1.1" xmlns:xlink="http://www.w3.org/1999/xlink" width="117px" height="117px" xmlns="http://www.w3.org/2000/svg">
  <g transform="matrix(1 0 0 1 -467 -1355 )">
    <path d="M 525.5 1355  C 558.26 1355  584 1380.74  584 1413.5  C 584 1446.26  558.26 1472  525.5 1472  C 492.74 1472  467 1446.26  467 1413.5  C 467 1380.74  492.74 1355  525.5 1355  Z " fill-rule="nonzero" fill="#555555" stroke="none" />
    <path d="M 525.5 1355.5  C 557.98 1355.5  583.5 1381.02  583.5 1413.5  C 583.5 1445.98  557.98 1471.5  525.5 1471.5  C 493.02 1471.5  467.5 1445.98  467.5 1413.5  C 467.5 1381.02  493.02 1355.5  525.5 1355.5  Z " stroke-width="1" stroke="#797979" fill="none" />
  </g>
</svg>