<?xml version="1.0" encoding="utf-8"?>
<svg version="1.1" xmlns:xlink="http://www.w3.org/1999/xlink" width="96px" height="96px" xmlns="http://www.w3.org/2000/svg">
  <g transform="matrix(1 0 0 1 -478 -1366 )">
    <path d="M 526 1366  C 552.88 1366  574 1387.12  574 1414  C 574 1440.88  552.88 1462  526 1462  C 499.12 1462  478 1440.88  478 1414  C 478 1387.12  499.12 1366  526 1366  Z " fill-rule="nonzero" fill="#ffffff" stroke="none" />
    <path d="M 526 1366.5  C 552.6 1366.5  573.5 1387.4  573.5 1414  C 573.5 1440.6  552.6 1461.5  526 1461.5  C 499.4 1461.5  478.5 1440.6  478.5 1414  C 478.5 1387.4  499.4 1366.5  526 1366.5  Z " stroke-width="1" stroke="#797979" fill="none" />
  </g>
</svg>