<?xml version="1.0" encoding="utf-8"?>
<svg version="1.1" xmlns:xlink="http://www.w3.org/1999/xlink" width="54px" height="54px" xmlns="http://www.w3.org/2000/svg">
  <g transform="matrix(1 0 0 1 -1200 -1263 )">
    <path d="M 1227 1264  C 1241.56 1264  1253 1275.44  1253 1290  C 1253 1304.56  1241.56 1316  1227 1316  C 1212.44 1316  1201 1304.56  1201 1290  C 1201 1275.44  1212.44 1264  1227 1264  Z " fill-rule="nonzero" fill="#ffffff" stroke="none" />
    <path d="M 1227 1264  C 1241.56 1264  1253 1275.44  1253 1290  C 1253 1304.56  1241.56 1316  1227 1316  C 1212.44 1316  1201 1304.56  1201 1290  C 1201 1275.44  1212.44 1264  1227 1264  Z " stroke-width="2" stroke="#797979" fill="none" />
  </g>
</svg>