<?xml version="1.0" encoding="utf-8"?>
<svg version="1.1" xmlns:xlink="http://www.w3.org/1999/xlink" width="46px" height="46px" xmlns="http://www.w3.org/2000/svg">
  <g transform="matrix(1 0 0 1 -1204 -1267 )">
    <path d="M 1227 1268  C 1239.32 1268  1249 1277.68  1249 1290  C 1249 1302.32  1239.32 1312  1227 1312  C 1214.68 1312  1205 1302.32  1205 1290  C 1205 1277.68  1214.68 1268  1227 1268  Z " fill-rule="nonzero" fill="#ffffff" stroke="none" />
    <path d="M 1227 1268  C 1239.32 1268  1249 1277.68  1249 1290  C 1249 1302.32  1239.32 1312  1227 1312  C 1214.68 1312  1205 1302.32  1205 1290  C 1205 1277.68  1214.68 1268  1227 1268  Z " stroke-width="2" stroke="#797979" fill="none" />
  </g>
</svg>