<?xml version="1.0" encoding="utf-8"?>
<svg version="1.1" xmlns:xlink="http://www.w3.org/1999/xlink" width="9px" height="9px" xmlns="http://www.w3.org/2000/svg">
  <g transform="matrix(1 0 0 1 -1236 -1294 )">
    <path d="M 1240.5 1295  C 1242.46 1295  1244 1296.54  1244 1298.5  C 1244 1300.46  1242.46 1302  1240.5 1302  C 1238.54 1302  1237 1300.46  1237 1298.5  C 1237 1296.54  1238.54 1295  1240.5 1295  Z " fill-rule="nonzero" fill="#ffffff" stroke="none" />
    <path d="M 1240.5 1295  C 1242.46 1295  1244 1296.54  1244 1298.5  C 1244 1300.46  1242.46 1302  1240.5 1302  C 1238.54 1302  1237 1300.46  1237 1298.5  C 1237 1296.54  1238.54 1295  1240.5 1295  Z " stroke-width="2" stroke="#797979" fill="none" />
  </g>
</svg>