<?xml version="1.0" encoding="utf-8"?>
<svg version="1.1" xmlns:xlink="http://www.w3.org/1999/xlink" width="28px" height="28px" xmlns="http://www.w3.org/2000/svg">
  <g transform="matrix(1 0 0 1 -386 -1361 )">
    <path d="M 400 1361  C 407.84 1361  414 1367.16  414 1375  C 414 1382.84  407.84 1389  400 1389  C 392.16 1389  386 1382.84  386 1375  C 386 1367.16  392.16 1361  400 1361  Z " fill-rule="nonzero" fill="#ffffff" stroke="none" />
    <path d="M 400 1361.5  C 407.56 1361.5  413.5 1367.44  413.5 1375  C 413.5 1382.56  407.56 1388.5  400 1388.5  C 392.44 1388.5  386.5 1382.56  386.5 1375  C 386.5 1367.44  392.44 1361.5  400 1361.5  Z " stroke-width="1" stroke="#797979" fill="none" />
  </g>
</svg>