<?xml version="1.0" encoding="utf-8"?>
<svg version="1.1" xmlns:xlink="http://www.w3.org/1999/xlink" width="85px" height="85px" xmlns="http://www.w3.org/2000/svg">
  <g transform="matrix(1 0 0 1 -1133 -1330 )">
    <path d="M 1167.04796928969 1360.86677773906  L 1175.5 1334.85410196625  L 1183.95203071031 1360.86677773906  L 1211.30337663678 1360.86677773906  L 1189.17567296324 1376.943495505  L 1197.62770367354 1402.95617127781  L 1175.5 1386.87945351188  L 1153.37229632646 1402.95617127781  L 1161.82432703676 1376.943495505  L 1139.69662336322 1360.86677773906  L 1167.04796928969 1360.86677773906  Z " fill-rule="nonzero" fill="#ffffff" stroke="none" />
    <path d="M 1165.95815549768 1359.36677773906  L 1175.5 1330  L 1185.04184450232 1359.36677773906  L 1215.91990194254 1359.36677773906  L 1190.93902872011 1377.51644452187  L 1200.48087322243 1406.88322226094  L 1175.5 1388.73355547813  L 1150.51912677757 1406.88322226094  L 1160.06097127989 1377.51644452187  L 1135.08009805746 1359.36677773906  L 1165.95815549768 1359.36677773906  Z M 1175.5 1336.472135955  L 1167.41124055369 1361.36677773906  L 1141.23546513181 1361.36677773906  L 1162.41211228906 1376.75251249937  L 1154.32335284275 1401.64715428344  L 1175.5 1386.26141952313  L 1196.67664715725 1401.64715428344  L 1188.58788771094 1376.75251249937  L 1209.76453486819 1361.36677773906  L 1183.58875944631 1361.36677773906  L 1175.5 1336.472135955  Z " fill-rule="nonzero" fill="#555555" stroke="none" />
  </g>
</svg>