<?xml version="1.0" encoding="utf-8"?>
<svg version="1.1" xmlns:xlink="http://www.w3.org/1999/xlink" width="54px" height="54px" xmlns="http://www.w3.org/2000/svg">
  <g transform="matrix(1 0 0 1 -1149 -1346 )">
    <path d="M 1176 1346  C 1191.12 1346  1203 1357.88  1203 1373  C 1203 1388.12  1191.12 1400  1176 1400  C 1160.88 1400  1149 1388.12  1149 1373  C 1149 1357.88  1160.88 1346  1176 1346  Z " fill-rule="nonzero" fill="#ffffff" stroke="none" />
    <path d="M 1176 1346.5  C 1190.84 1346.5  1202.5 1358.16  1202.5 1373  C 1202.5 1387.84  1190.84 1399.5  1176 1399.5  C 1161.16 1399.5  1149.5 1387.84  1149.5 1373  C 1149.5 1358.16  1161.16 1346.5  1176 1346.5  Z " stroke-width="1" stroke="#555555" fill="none" />
  </g>
</svg>