<?xml version="1.0" encoding="utf-8"?>
<svg version="1.1" xmlns:xlink="http://www.w3.org/1999/xlink" width="27px" height="27px" xmlns="http://www.w3.org/2000/svg">
  <g transform="matrix(1 0 0 1 -1162 -1359 )">
    <path d="M 1175.5 1360  C 1182.5 1360  1188 1365.5  1188 1372.5  C 1188 1379.5  1182.5 1385  1175.5 1385  C 1168.5 1385  1163 1379.5  1163 1372.5  C 1163 1365.5  1168.5 1360  1175.5 1360  Z " fill-rule="nonzero" fill="#ffffff" stroke="none" />
    <path d="M 1175.5 1360  C 1182.5 1360  1188 1365.5  1188 1372.5  C 1188 1379.5  1182.5 1385  1175.5 1385  C 1168.5 1385  1163 1379.5  1163 1372.5  C 1163 1365.5  1168.5 1360  1175.5 1360  Z " stroke-width="2" stroke="#797979" fill="none" />
  </g>
</svg>