<?xml version="1.0" encoding="utf-8"?>
<svg version="1.1" xmlns:xlink="http://www.w3.org/1999/xlink" width="43px" height="43px" xmlns="http://www.w3.org/2000/svg">
  <g transform="matrix(1 0 0 1 -599 -1204 )">
    <path d="M 620.5 1204  C 632.54 1204  642 1213.46  642 1225.5  C 642 1237.54  632.54 1247  620.5 1247  C 608.46 1247  599 1237.54  599 1225.5  C 599 1213.46  608.46 1204  620.5 1204  Z " fill-rule="nonzero" fill="#ffffff" stroke="none" />
    <path d="M 620.5 1204.5  C 632.26 1204.5  641.5 1213.74  641.5 1225.5  C 641.5 1237.26  632.26 1246.5  620.5 1246.5  C 608.74 1246.5  599.5 1237.26  599.5 1225.5  C 599.5 1213.74  608.74 1204.5  620.5 1204.5  Z " stroke-width="1" stroke="#797979" fill="none" />
  </g>
</svg>