<?xml version="1.0" encoding="utf-8"?>
<svg version="1.1" xmlns:xlink="http://www.w3.org/1999/xlink" width="37px" height="37px" xmlns="http://www.w3.org/2000/svg">
  <g transform="matrix(1 0 0 1 -602 -1207 )">
    <path d="M 620.5 1207  C 630.86 1207  639 1215.14  639 1225.5  C 639 1235.86  630.86 1244  620.5 1244  C 610.14 1244  602 1235.86  602 1225.5  C 602 1215.14  610.14 1207  620.5 1207  Z " fill-rule="nonzero" fill="#ffffff" stroke="none" />
    <path d="M 620.5 1207.5  C 630.58 1207.5  638.5 1215.42  638.5 1225.5  C 638.5 1235.58  630.58 1243.5  620.5 1243.5  C 610.42 1243.5  602.5 1235.58  602.5 1225.5  C 602.5 1215.42  610.42 1207.5  620.5 1207.5  Z " stroke-width="1" stroke="#797979" fill="none" />
  </g>
</svg>