<?xml version="1.0" encoding="utf-8"?>
<svg version="1.1" xmlns:xlink="http://www.w3.org/1999/xlink" width="109px" height="37px" xmlns="http://www.w3.org/2000/svg">
  <g transform="matrix(1 0 0 1 -490 -1207 )">
    <path d="M 584.287404990926 1207.5  C 584.287404990926 1207.5  587.61832849532 1208.06534022781  587.61832849532 1208.06534022781  C 587.61832849532 1208.06534022781  598.446692684315 1225.5  598.446692684315 1225.5  C 598.446692684315 1225.5  587.61832849532 1242.93465977219  587.61832849532 1242.93465977219  C 587.61832849532 1242.93465977219  584.287404990926 1243.5  584.287404990926 1243.5  C 584.287404990926 1243.5  490.5 1243.5  490.5 1243.5  C 490.5 1243.5  490.5 1207.5  490.5 1207.5  C 490.5 1207.5  584.287404990926 1207.5  584.287404990926 1207.5  Z " fill-rule="nonzero" fill="#ffffff" stroke="none" />
    <path d="M 584.287404990926 1207.5  C 584.287404990926 1207.5  587.61832849532 1208.06534022781  587.61832849532 1208.06534022781  C 587.61832849532 1208.06534022781  598.446692684315 1225.5  598.446692684315 1225.5  C 598.446692684315 1225.5  587.61832849532 1242.93465977219  587.61832849532 1242.93465977219  C 587.61832849532 1242.93465977219  584.287404990926 1243.5  584.287404990926 1243.5  C 584.287404990926 1243.5  490.5 1243.5  490.5 1243.5  C 490.5 1243.5  490.5 1207.5  490.5 1207.5  C 490.5 1207.5  584.287404990926 1207.5  584.287404990926 1207.5  Z " stroke-width="1" stroke="#797979" fill="none" />
  </g>
</svg>