<?xml version="1.0" encoding="utf-8"?>
<svg version="1.1" xmlns:xlink="http://www.w3.org/1999/xlink" width="232px" height="305px" xmlns="http://www.w3.org/2000/svg">
  <g transform="matrix(1 0 0 1 -23 -2339 )">
    <path d="M 139 2339  C 203.96 2339  255 2406.1  255 2491.5  C 255 2576.9  203.96 2644  139 2644  C 74.04 2644  23 2576.9  23 2491.5  C 23 2406.1  74.04 2339  139 2339  Z " fill-rule="nonzero" fill="#ffffff" stroke="none" />
    <path d="M 139 2339.5  C 203.68 2339.5  254.5 2406.38  254.5 2491.5  C 254.5 2576.62  203.68 2643.5  139 2643.5  C 74.32 2643.5  23.5 2576.62  23.5 2491.5  C 23.5 2406.38  74.32 2339.5  139 2339.5  Z " stroke-width="1" stroke="#797979" fill="none" />
  </g>
</svg>