<?xml version="1.0" encoding="utf-8"?>
<svg version="1.1" xmlns:xlink="http://www.w3.org/1999/xlink" width="271px" height="192px" xmlns="http://www.w3.org/2000/svg">
  <g transform="matrix(1 0 0 1 -294 -2278 )">
    <path d="M 429.5 2278  C 505.38 2278  565 2320.24  565 2374  C 565 2427.76  505.38 2470  429.5 2470  C 353.62 2470  294 2427.76  294 2374  C 294 2320.24  353.62 2278  429.5 2278  Z " fill-rule="nonzero" fill="#ffffff" stroke="none" />
    <path d="M 429.5 2278.5  C 505.1 2278.5  564.5 2320.52  564.5 2374  C 564.5 2427.48  505.1 2469.5  429.5 2469.5  C 353.9 2469.5  294.5 2427.48  294.5 2374  C 294.5 2320.52  353.9 2278.5  429.5 2278.5  Z " stroke-width="1" stroke="#797979" fill="none" />
  </g>
</svg>