<?xml version="1.0" encoding="utf-8"?>
<svg version="1.1" xmlns:xlink="http://www.w3.org/1999/xlink" width="299px" height="157px" xmlns="http://www.w3.org/2000/svg">
  <g transform="matrix(1 0 0 1 -280 -2498 )">
    <path d="M 429.5 2498  C 513.22 2498  579 2532.54  579 2576.5  C 579 2620.46  513.22 2655  429.5 2655  C 345.78 2655  280 2620.46  280 2576.5  C 280 2532.54  345.78 2498  429.5 2498  Z " fill-rule="nonzero" fill="#ffffff" stroke="none" />
    <path d="M 429.5 2498.5  C 512.94 2498.5  578.5 2532.82  578.5 2576.5  C 578.5 2620.18  512.94 2654.5  429.5 2654.5  C 346.06 2654.5  280.5 2620.18  280.5 2576.5  C 280.5 2532.82  346.06 2498.5  429.5 2498.5  Z " stroke-width="1" stroke="#797979" fill="none" />
  </g>
</svg>