<?xml version="1.0" encoding="utf-8"?>
<svg version="1.1" xmlns:xlink="http://www.w3.org/1999/xlink" width="16px" height="16px" xmlns="http://www.w3.org/2000/svg">
  <g transform="matrix(1 0 0 1 -26 -6 )">
    <path d="M 34 6  C 38.48 6  42 9.52  42 14  C 42 18.48  38.48 22  34 22  C 29.52 22  26 18.48  26 14  C 26 9.52  29.52 6  34 6  Z " fill-rule="nonzero" fill="#ffffff" stroke="none" />
    <path d="M 34 6.5  C 38.2 6.5  41.5 9.8  41.5 14  C 41.5 18.2  38.2 21.5  34 21.5  C 29.8 21.5  26.5 18.2  26.5 14  C 26.5 9.8  29.8 6.5  34 6.5  Z " stroke-width="1" stroke="#797979" fill="none" />
  </g>
</svg>