<?xml version="1.0" encoding="utf-8"?>
<svg version="1.1" xmlns:xlink="http://www.w3.org/1999/xlink" width="25px" height="25px" xmlns="http://www.w3.org/2000/svg">
  <g transform="matrix(1 0 0 1 -42 -9 )">
    <path d="M 54.5 9  C 61.5 9  67 14.5  67 21.5  C 67 28.5  61.5 34  54.5 34  C 47.5 34  42 28.5  42 21.5  C 42 14.5  47.5 9  54.5 9  Z " fill-rule="nonzero" fill="#ffffff" stroke="none" />
    <path d="M 54.5 9.5  C 61.22 9.5  66.5 14.78  66.5 21.5  C 66.5 28.22  61.22 33.5  54.5 33.5  C 47.78 33.5  42.5 28.22  42.5 21.5  C 42.5 14.78  47.78 9.5  54.5 9.5  Z " stroke-width="1" stroke="#797979" fill="none" />
  </g>
</svg>