<?xml version="1.0" encoding="utf-8"?>
<svg version="1.1" xmlns:xlink="http://www.w3.org/1999/xlink" width="29px" height="29px" xmlns="http://www.w3.org/2000/svg">
  <g transform="matrix(1 0 0 1 -9 -900 )">
    <path d="M 23.5 900  C 31.62 900  38 906.38  38 914.5  C 38 922.62  31.62 929  23.5 929  C 15.38 929  9 922.62  9 914.5  C 9 906.38  15.38 900  23.5 900  Z " fill-rule="nonzero" fill="#ffffff" stroke="none" />
    <path d="M 23.5 900.5  C 31.34 900.5  37.5 906.66  37.5 914.5  C 37.5 922.34  31.34 928.5  23.5 928.5  C 15.66 928.5  9.5 922.34  9.5 914.5  C 9.5 906.66  15.66 900.5  23.5 900.5  Z " stroke-width="1" stroke="#797979" fill="none" />
  </g>
</svg>