<?xml version="1.0" encoding="utf-8"?>
<svg version="1.1" xmlns:xlink="http://www.w3.org/1999/xlink" width="69px" height="62px" xmlns="http://www.w3.org/2000/svg">
  <g transform="matrix(1 0 0 1 -85 -1001 )">
    <path d="M 119.5 1001  C 138.82 1001  154 1014.64  154 1032  C 154 1049.36  138.82 1063  119.5 1063  C 100.18 1063  85 1049.36  85 1032  C 85 1014.64  100.18 1001  119.5 1001  Z " fill-rule="nonzero" fill="#ffffff" stroke="none" />
    <path d="M 119.5 1001.5  C 138.54 1001.5  153.5 1014.92  153.5 1032  C 153.5 1049.08  138.54 1062.5  119.5 1062.5  C 100.46 1062.5  85.5 1049.08  85.5 1032  C 85.5 1014.92  100.46 1001.5  119.5 1001.5  Z " stroke-width="1" stroke="#797979" fill="none" />
  </g>
</svg>