<?xml version="1.0" encoding="utf-8"?>
<svg version="1.1" xmlns:xlink="http://www.w3.org/1999/xlink" width="28px" height="28px" xmlns="http://www.w3.org/2000/svg">
  <g transform="matrix(1 0 0 1 -929 -1460 )">
    <path d="M 943 1460  C 950.84 1460  957 1466.16  957 1474  C 957 1481.84  950.84 1488  943 1488  C 935.16 1488  929 1481.84  929 1474  C 929 1466.16  935.16 1460  943 1460  Z " fill-rule="nonzero" fill="#ffffff" stroke="none" />
    <path d="M 943 1460.5  C 950.56 1460.5  956.5 1466.44  956.5 1474  C 956.5 1481.56  950.56 1487.5  943 1487.5  C 935.44 1487.5  929.5 1481.56  929.5 1474  C 929.5 1466.44  935.44 1460.5  943 1460.5  Z " stroke-width="1" stroke="#797979" fill="none" />
  </g>
</svg>