<?xml version="1.0" encoding="utf-8"?>
<svg version="1.1" xmlns:xlink="http://www.w3.org/1999/xlink" width="370px" height="104px" xmlns="http://www.w3.org/2000/svg">
  <defs>
    <mask fill="white" id="clip14">
      <path d="M 370 104  L 0 104  C 0 47.2727272727273  81.4 2.7012987012987  185 2.7012987012987  C 230.508066927591 2.7012987012987  284.062294422711 -6.02176942269176  315.985401459854 8.43132624950808  C 356.735868853158 26.8809841489411  370 72.191149318021  370 104  Z " fill-rule="evenodd" />
    </mask>
  </defs>
  <g transform="matrix(1 0 0 1 -1113 -1281 )">
    <path d="M 370 104  L 0 104  C 0 47.2727272727273  81.4 2.7012987012987  185 2.7012987012987  C 230.508066927591 2.7012987012987  284.062294422711 -6.02176942269176  315.985401459854 8.43132624950808  C 356.735868853158 26.8809841489411  370 72.191149318021  370 104  Z " fill-rule="nonzero" fill="#ffffff" stroke="none" transform="matrix(1 0 0 1 1113 1281 )" />
    <path d="M 370 104  L 0 104  C 0 47.2727272727273  81.4 2.7012987012987  185 2.7012987012987  C 230.508066927591 2.7012987012987  284.062294422711 -6.02176942269176  315.985401459854 8.43132624950808  C 356.735868853158 26.8809841489411  370 72.191149318021  370 104  Z " stroke-width="6" stroke="#797979" fill="none" transform="matrix(1 0 0 1 1113 1281 )" mask="url(#clip14)" />
  </g>
</svg>