<?xml version="1.0" encoding="utf-8"?>
<svg version="1.1" xmlns:xlink="http://www.w3.org/1999/xlink" width="54px" height="54px" xmlns="http://www.w3.org/2000/svg">
  <g transform="matrix(1 0 0 1 -1743 -1362 )">
    <path d="M 1770 1363  C 1784.56 1363  1796 1374.44  1796 1389  C 1796 1403.56  1784.56 1415  1770 1415  C 1755.44 1415  1744 1403.56  1744 1389  C 1744 1374.44  1755.44 1363  1770 1363  Z " fill-rule="nonzero" fill="#ffffff" stroke="none" />
    <path d="M 1770 1363  C 1784.56 1363  1796 1374.44  1796 1389  C 1796 1403.56  1784.56 1415  1770 1415  C 1755.44 1415  1744 1403.56  1744 1389  C 1744 1374.44  1755.44 1363  1770 1363  Z " stroke-width="2" stroke="#797979" fill="none" />
  </g>
</svg>