<?xml version="1.0" encoding="utf-8"?>
<svg version="1.1" xmlns:xlink="http://www.w3.org/1999/xlink" width="54px" height="54px" xmlns="http://www.w3.org/2000/svg">
  <g transform="matrix(1 0 0 1 -1743 -1479 )">
    <path d="M 1770 1480  C 1784.56 1480  1796 1491.44  1796 1506  C 1796 1520.56  1784.56 1532  1770 1532  C 1755.44 1532  1744 1520.56  1744 1506  C 1744 1491.44  1755.44 1480  1770 1480  Z " fill-rule="nonzero" fill="#ffffff" stroke="none" />
    <path d="M 1770 1480  C 1784.56 1480  1796 1491.44  1796 1506  C 1796 1520.56  1784.56 1532  1770 1532  C 1755.44 1532  1744 1520.56  1744 1506  C 1744 1491.44  1755.44 1480  1770 1480  Z " stroke-width="2" stroke="#797979" fill="none" />
  </g>
</svg>