<?xml version="1.0" encoding="utf-8"?>
<svg version="1.1" xmlns:xlink="http://www.w3.org/1999/xlink" width="46px" height="46px" xmlns="http://www.w3.org/2000/svg">
  <g transform="matrix(1 0 0 1 -1747 -1483 )">
    <path d="M 1770 1484  C 1782.32 1484  1792 1493.68  1792 1506  C 1792 1518.32  1782.32 1528  1770 1528  C 1757.68 1528  1748 1518.32  1748 1506  C 1748 1493.68  1757.68 1484  1770 1484  Z " fill-rule="nonzero" fill="#ffffff" stroke="none" />
    <path d="M 1770 1484  C 1782.32 1484  1792 1493.68  1792 1506  C 1792 1518.32  1782.32 1528  1770 1528  C 1757.68 1528  1748 1518.32  1748 1506  C 1748 1493.68  1757.68 1484  1770 1484  Z " stroke-width="2" stroke="#797979" fill="none" />
  </g>
</svg>