<?xml version="1.0" encoding="utf-8"?>
<svg version="1.1" xmlns:xlink="http://www.w3.org/1999/xlink" width="46px" height="46px" xmlns="http://www.w3.org/2000/svg">
  <g transform="matrix(1 0 0 1 -1747 -1366 )">
    <path d="M 1770 1367  C 1782.32 1367  1792 1376.68  1792 1389  C 1792 1401.32  1782.32 1411  1770 1411  C 1757.68 1411  1748 1401.32  1748 1389  C 1748 1376.68  1757.68 1367  1770 1367  Z " fill-rule="nonzero" fill="#ffffff" stroke="none" />
    <path d="M 1770 1367  C 1782.32 1367  1792 1376.68  1792 1389  C 1792 1401.32  1782.32 1411  1770 1411  C 1757.68 1411  1748 1401.32  1748 1389  C 1748 1376.68  1757.68 1367  1770 1367  Z " stroke-width="2" stroke="#797979" fill="none" />
  </g>
</svg>