<?xml version="1.0" encoding="utf-8"?>
<svg version="1.1" xmlns:xlink="http://www.w3.org/1999/xlink" width="9px" height="9px" xmlns="http://www.w3.org/2000/svg">
  <g transform="matrix(1 0 0 1 -1779 -1510 )">
    <path d="M 1783.5 1511  C 1785.46 1511  1787 1512.54  1787 1514.5  C 1787 1516.46  1785.46 1518  1783.5 1518  C 1781.54 1518  1780 1516.46  1780 1514.5  C 1780 1512.54  1781.54 1511  1783.5 1511  Z " fill-rule="nonzero" fill="#ffffff" stroke="none" />
    <path d="M 1783.5 1511  C 1785.46 1511  1787 1512.54  1787 1514.5  C 1787 1516.46  1785.46 1518  1783.5 1518  C 1781.54 1518  1780 1516.46  1780 1514.5  C 1780 1512.54  1781.54 1511  1783.5 1511  Z " stroke-width="2" stroke="#797979" fill="none" />
  </g>
</svg>