<?xml version="1.0" encoding="utf-8"?>
<svg version="1.1" xmlns:xlink="http://www.w3.org/1999/xlink" width="28px" height="28px" xmlns="http://www.w3.org/2000/svg">
  <g transform="matrix(1 0 0 1 -929 -1577 )">
    <path d="M 943 1577  C 950.84 1577  957 1583.16  957 1591  C 957 1598.84  950.84 1605  943 1605  C 935.16 1605  929 1598.84  929 1591  C 929 1583.16  935.16 1577  943 1577  Z " fill-rule="nonzero" fill="#ffffff" stroke="none" />
    <path d="M 943 1577.5  C 950.56 1577.5  956.5 1583.44  956.5 1591  C 956.5 1598.56  950.56 1604.5  943 1604.5  C 935.44 1604.5  929.5 1598.56  929.5 1591  C 929.5 1583.44  935.44 1577.5  943 1577.5  Z " stroke-width="1" stroke="#797979" fill="none" />
  </g>
</svg>