<?xml version="1.0" encoding="utf-8"?>
<svg version="1.1" xmlns:xlink="http://www.w3.org/1999/xlink" width="85px" height="85px" xmlns="http://www.w3.org/2000/svg">
  <g transform="matrix(1 0 0 1 -1676 -1429 )">
    <path d="M 1710.04796928969 1459.86677773906  L 1718.5 1433.85410196625  L 1726.95203071031 1459.86677773906  L 1754.30337663678 1459.86677773906  L 1732.17567296324 1475.943495505  L 1740.62770367354 1501.95617127781  L 1718.5 1485.87945351188  L 1696.37229632646 1501.95617127781  L 1704.82432703676 1475.943495505  L 1682.69662336322 1459.86677773906  L 1710.04796928969 1459.86677773906  Z " fill-rule="nonzero" fill="#ffffff" stroke="none" />
    <path d="M 1708.95815549768 1458.36677773906  L 1718.5 1429  L 1728.04184450232 1458.36677773906  L 1758.91990194254 1458.36677773906  L 1733.93902872011 1476.51644452187  L 1743.48087322243 1505.88322226094  L 1718.5 1487.73355547813  L 1693.51912677757 1505.88322226094  L 1703.06097127989 1476.51644452187  L 1678.08009805746 1458.36677773906  L 1708.95815549768 1458.36677773906  Z M 1718.5 1435.472135955  L 1710.41124055369 1460.36677773906  L 1684.23546513181 1460.36677773906  L 1705.41211228906 1475.75251249937  L 1697.32335284275 1500.64715428344  L 1718.5 1485.26141952313  L 1739.67664715725 1500.64715428344  L 1731.58788771094 1475.75251249937  L 1752.76453486819 1460.36677773906  L 1726.58875944631 1460.36677773906  L 1718.5 1435.472135955  Z " fill-rule="nonzero" fill="#555555" stroke="none" />
  </g>
</svg>