<?xml version="1.0" encoding="utf-8"?>
<svg version="1.1" xmlns:xlink="http://www.w3.org/1999/xlink" width="192px" height="53px" xmlns="http://www.w3.org/2000/svg">
  <g transform="matrix(1 0 0 1 -49 -1110 )">
    <path d="M 219.958845642401 1110.5  C 219.958845642401 1110.5  223.541787841177 1110.99452066806  223.541787841177 1110.99452066806  C 223.541787841177 1110.99452066806  240.44851103383 1136.5  240.44851103383 1136.5  C 240.44851103383 1136.5  223.541787841177 1162.00547933194  223.541787841177 1162.00547933194  C 223.541787841177 1162.00547933194  219.958845642401 1162.5  219.958845642401 1162.5  C 219.958845642401 1162.5  49.5 1162.5  49.5 1162.5  C 49.5 1162.5  49.5 1110.5  49.5 1110.5  C 49.5 1110.5  219.958845642401 1110.5  219.958845642401 1110.5  Z " fill-rule="nonzero" fill="#ffffff" stroke="none" />
    <path d="M 219.958845642401 1110.5  C 219.958845642401 1110.5  223.541787841177 1110.99452066806  223.541787841177 1110.99452066806  C 223.541787841177 1110.99452066806  240.44851103383 1136.5  240.44851103383 1136.5  C 240.44851103383 1136.5  223.541787841177 1162.00547933194  223.541787841177 1162.00547933194  C 223.541787841177 1162.00547933194  219.958845642401 1162.5  219.958845642401 1162.5  C 219.958845642401 1162.5  49.5 1162.5  49.5 1162.5  C 49.5 1162.5  49.5 1110.5  49.5 1110.5  C 49.5 1110.5  219.958845642401 1110.5  219.958845642401 1110.5  Z " stroke-width="1" stroke="#797979" fill="none" />
  </g>
</svg>