<?xml version="1.0" encoding="utf-8"?>
<svg version="1.1" xmlns:xlink="http://www.w3.org/1999/xlink" width="85px" height="85px" xmlns="http://www.w3.org/2000/svg">
  <g transform="matrix(1 0 0 1 -1676 -1546 )">
    <path d="M 1710.04796928969 1576.86677773906  L 1718.5 1550.85410196625  L 1726.95203071031 1576.86677773906  L 1754.30337663678 1576.86677773906  L 1732.17567296324 1592.943495505  L 1740.62770367354 1618.95617127781  L 1718.5 1602.87945351188  L 1696.37229632646 1618.95617127781  L 1704.82432703676 1592.943495505  L 1682.69662336322 1576.86677773906  L 1710.04796928969 1576.86677773906  Z " fill-rule="nonzero" fill="#ffffff" stroke="none" />
    <path d="M 1708.95815549768 1575.36677773906  L 1718.5 1546  L 1728.04184450232 1575.36677773906  L 1758.91990194254 1575.36677773906  L 1733.93902872011 1593.51644452187  L 1743.48087322243 1622.88322226094  L 1718.5 1604.73355547813  L 1693.51912677757 1622.88322226094  L 1703.06097127989 1593.51644452187  L 1678.08009805746 1575.36677773906  L 1708.95815549768 1575.36677773906  Z M 1718.5 1552.472135955  L 1710.41124055369 1577.36677773906  L 1684.23546513181 1577.36677773906  L 1705.41211228906 1592.75251249937  L 1697.32335284275 1617.64715428344  L 1718.5 1602.26141952313  L 1739.67664715725 1617.64715428344  L 1731.58788771094 1592.75251249937  L 1752.76453486819 1577.36677773906  L 1726.58875944631 1577.36677773906  L 1718.5 1552.472135955  Z " fill-rule="nonzero" fill="#555555" stroke="none" />
  </g>
</svg>