<?xml version="1.0" encoding="utf-8"?>
<svg version="1.1" xmlns:xlink="http://www.w3.org/1999/xlink" width="54px" height="54px" xmlns="http://www.w3.org/2000/svg">
  <g transform="matrix(1 0 0 1 -1692 -1445 )">
    <path d="M 1719 1445  C 1734.12 1445  1746 1456.88  1746 1472  C 1746 1487.12  1734.12 1499  1719 1499  C 1703.88 1499  1692 1487.12  1692 1472  C 1692 1456.88  1703.88 1445  1719 1445  Z " fill-rule="nonzero" fill="#ffffff" stroke="none" />
    <path d="M 1719 1445.5  C 1733.84 1445.5  1745.5 1457.16  1745.5 1472  C 1745.5 1486.84  1733.84 1498.5  1719 1498.5  C 1704.16 1498.5  1692.5 1486.84  1692.5 1472  C 1692.5 1457.16  1704.16 1445.5  1719 1445.5  Z " stroke-width="1" stroke="#555555" fill="none" />
  </g>
</svg>