<?xml version="1.0" encoding="utf-8"?>
<svg version="1.1" xmlns:xlink="http://www.w3.org/1999/xlink" width="54px" height="54px" xmlns="http://www.w3.org/2000/svg">
  <g transform="matrix(1 0 0 1 -1692 -1562 )">
    <path d="M 1719 1562  C 1734.12 1562  1746 1573.88  1746 1589  C 1746 1604.12  1734.12 1616  1719 1616  C 1703.88 1616  1692 1604.12  1692 1589  C 1692 1573.88  1703.88 1562  1719 1562  Z " fill-rule="nonzero" fill="#ffffff" stroke="none" />
    <path d="M 1719 1562.5  C 1733.84 1562.5  1745.5 1574.16  1745.5 1589  C 1745.5 1603.84  1733.84 1615.5  1719 1615.5  C 1704.16 1615.5  1692.5 1603.84  1692.5 1589  C 1692.5 1574.16  1704.16 1562.5  1719 1562.5  Z " stroke-width="1" stroke="#555555" fill="none" />
  </g>
</svg>