<?xml version="1.0" encoding="utf-8"?>
<svg version="1.1" xmlns:xlink="http://www.w3.org/1999/xlink" width="27px" height="27px" xmlns="http://www.w3.org/2000/svg">
  <g transform="matrix(1 0 0 1 -1705 -1458 )">
    <path d="M 1718.5 1459  C 1725.5 1459  1731 1464.5  1731 1471.5  C 1731 1478.5  1725.5 1484  1718.5 1484  C 1711.5 1484  1706 1478.5  1706 1471.5  C 1706 1464.5  1711.5 1459  1718.5 1459  Z " fill-rule="nonzero" fill="#ffffff" stroke="none" />
    <path d="M 1718.5 1459  C 1725.5 1459  1731 1464.5  1731 1471.5  C 1731 1478.5  1725.5 1484  1718.5 1484  C 1711.5 1484  1706 1478.5  1706 1471.5  C 1706 1464.5  1711.5 1459  1718.5 1459  Z " stroke-width="2" stroke="#797979" fill="none" />
  </g>
</svg>