<?xml version="1.0" encoding="utf-8"?>
<svg version="1.1" xmlns:xlink="http://www.w3.org/1999/xlink" width="117px" height="117px" xmlns="http://www.w3.org/2000/svg">
  <g transform="matrix(1 0 0 1 -145 -4158 )">
    <path d="M 203.5 4158  C 236.26 4158  262 4183.74  262 4216.5  C 262 4249.26  236.26 4275  203.5 4275  C 170.74 4275  145 4249.26  145 4216.5  C 145 4183.74  170.74 4158  203.5 4158  Z " fill-rule="nonzero" fill="#ffffff" stroke="none" />
    <path d="M 203.5 4158.5  C 235.98 4158.5  261.5 4184.02  261.5 4216.5  C 261.5 4248.98  235.98 4274.5  203.5 4274.5  C 171.02 4274.5  145.5 4248.98  145.5 4216.5  C 145.5 4184.02  171.02 4158.5  203.5 4158.5  Z " stroke-width="1" stroke="#797979" fill="none" />
  </g>
</svg>