<?xml version="1.0" encoding="utf-8"?>
<svg version="1.1" xmlns:xlink="http://www.w3.org/1999/xlink" width="90px" height="90px" xmlns="http://www.w3.org/2000/svg">
  <g transform="matrix(1 0 0 1 -626 -2610 )">
    <path d="M 671 2610  C 696.2 2610  716 2629.8  716 2655  C 716 2680.2  696.2 2700  671 2700  C 645.8 2700  626 2680.2  626 2655  C 626 2629.8  645.8 2610  671 2610  Z " fill-rule="nonzero" fill="#ffffff" stroke="none" />
    <path d="M 671 2610.5  C 695.92 2610.5  715.5 2630.08  715.5 2655  C 715.5 2679.92  695.92 2699.5  671 2699.5  C 646.08 2699.5  626.5 2679.92  626.5 2655  C 626.5 2630.08  646.08 2610.5  671 2610.5  Z " stroke-width="1" stroke="#797979" fill="none" />
  </g>
</svg>