<?xml version="1.0" encoding="utf-8"?>
<svg version="1.1" xmlns:xlink="http://www.w3.org/1999/xlink" width="90px" height="90px" xmlns="http://www.w3.org/2000/svg">
  <g transform="matrix(1 0 0 1 -626 -2533 )">
    <path d="M 671 2533  C 696.2 2533  716 2552.8  716 2578  C 716 2603.2  696.2 2623  671 2623  C 645.8 2623  626 2603.2  626 2578  C 626 2552.8  645.8 2533  671 2533  Z " fill-rule="nonzero" fill="#ffffff" stroke="none" />
    <path d="M 671 2533.5  C 695.92 2533.5  715.5 2553.08  715.5 2578  C 715.5 2602.92  695.92 2622.5  671 2622.5  C 646.08 2622.5  626.5 2602.92  626.5 2578  C 626.5 2553.08  646.08 2533.5  671 2533.5  Z " stroke-width="1" stroke="#797979" fill="none" />
  </g>
</svg>