<?xml version="1.0" encoding="utf-8"?>
<svg version="1.1" xmlns:xlink="http://www.w3.org/1999/xlink" width="96px" height="96px" xmlns="http://www.w3.org/2000/svg">
  <g transform="matrix(1 0 0 1 -1021 -1465 )">
    <path d="M 1069 1465  C 1095.88 1465  1117 1486.12  1117 1513  C 1117 1539.88  1095.88 1561  1069 1561  C 1042.12 1561  1021 1539.88  1021 1513  C 1021 1486.12  1042.12 1465  1069 1465  Z " fill-rule="nonzero" fill="#ffffff" stroke="none" />
    <path d="M 1069 1465.5  C 1095.6 1465.5  1116.5 1486.4  1116.5 1513  C 1116.5 1539.6  1095.6 1560.5  1069 1560.5  C 1042.4 1560.5  1021.5 1539.6  1021.5 1513  C 1021.5 1486.4  1042.4 1465.5  1069 1465.5  Z " stroke-width="1" stroke="#797979" fill="none" />
  </g>
</svg>