<?xml version="1.0" encoding="utf-8"?>
<svg version="1.1" xmlns:xlink="http://www.w3.org/1999/xlink" width="42px" height="42px" xmlns="http://www.w3.org/2000/svg">
  <g transform="matrix(1 0 0 1 -1062 -2194 )">
    <path d="M 1087.5 2194.5  L 1078.5 2194.5  L 1078.5 2210.5  L 1062.5 2210.5  L 1062.5 2219.5  L 1078.5 2219.5  L 1078.5 2235.5  L 1087.5 2235.5  L 1087.5 2219.5  L 1103.5 2219.5  L 1103.5 2210.5  L 1087.5 2210.5  L 1087.5 2194.5  Z " fill-rule="nonzero" fill="#555555" stroke="none" />
    <path d="M 1087.5 2194.5  L 1078.5 2194.5  L 1078.5 2210.5  L 1062.5 2210.5  L 1062.5 2219.5  L 1078.5 2219.5  L 1078.5 2235.5  L 1087.5 2235.5  L 1087.5 2219.5  L 1103.5 2219.5  L 1103.5 2210.5  L 1087.5 2210.5  L 1087.5 2194.5  Z " stroke-width="1" stroke="#797979" fill="none" />
  </g>
</svg>