<?xml version="1.0" encoding="utf-8"?>
<svg version="1.1" xmlns:xlink="http://www.w3.org/1999/xlink" width="81px" height="81px" xmlns="http://www.w3.org/2000/svg">
  <g transform="matrix(1 0 0 1 -902 -1550 )">
    <path d="M 942.5 1551  C 964.62 1551  982 1568.38  982 1590.5  C 982 1612.62  964.62 1630  942.5 1630  C 920.38 1630  903 1612.62  903 1590.5  C 903 1568.38  920.38 1551  942.5 1551  Z " fill-rule="nonzero" fill="#ffffff" stroke="none" />
    <path d="M 942.5 1551  C 964.62 1551  982 1568.38  982 1590.5  C 982 1612.62  964.62 1630  942.5 1630  C 920.38 1630  903 1612.62  903 1590.5  C 903 1568.38  920.38 1551  942.5 1551  Z " stroke-width="2" stroke="#797979" fill="none" />
  </g>
</svg>