<?xml version="1.0" encoding="utf-8"?>
<svg version="1.1" xmlns:xlink="http://www.w3.org/1999/xlink" width="81px" height="81px" xmlns="http://www.w3.org/2000/svg">
  <g transform="matrix(1 0 0 1 -902 -1433 )">
    <path d="M 942.5 1434  C 964.62 1434  982 1451.38  982 1473.5  C 982 1495.62  964.62 1513  942.5 1513  C 920.38 1513  903 1495.62  903 1473.5  C 903 1451.38  920.38 1434  942.5 1434  Z " fill-rule="nonzero" fill="#ffffff" stroke="none" />
    <path d="M 942.5 1434  C 964.62 1434  982 1451.38  982 1473.5  C 982 1495.62  964.62 1513  942.5 1513  C 920.38 1513  903 1495.62  903 1473.5  C 903 1451.38  920.38 1434  942.5 1434  Z " stroke-width="2" stroke="#797979" fill="none" />
  </g>
</svg>