<?xml version="1.0" encoding="utf-8"?>
<svg version="1.1" xmlns:xlink="http://www.w3.org/1999/xlink" width="42px" height="42px" xmlns="http://www.w3.org/2000/svg">
  <g transform="matrix(1 0 0 1 -923 -1570 )">
    <path d="M 944 1570  C 955.76 1570  965 1579.24  965 1591  C 965 1602.76  955.76 1612  944 1612  C 932.24 1612  923 1602.76  923 1591  C 923 1579.24  932.24 1570  944 1570  Z " fill-rule="nonzero" fill="#ffffff" stroke="none" />
    <path d="M 944 1570.5  C 955.48 1570.5  964.5 1579.52  964.5 1591  C 964.5 1602.48  955.48 1611.5  944 1611.5  C 932.52 1611.5  923.5 1602.48  923.5 1591  C 923.5 1579.52  932.52 1570.5  944 1570.5  Z " stroke-width="1" stroke="#797979" fill="none" />
  </g>
</svg>