<?xml version="1.0" encoding="utf-8"?>
<svg version="1.1" xmlns:xlink="http://www.w3.org/1999/xlink" width="42px" height="42px" xmlns="http://www.w3.org/2000/svg">
  <g transform="matrix(1 0 0 1 -923 -1453 )">
    <path d="M 944 1453  C 955.76 1453  965 1462.24  965 1474  C 965 1485.76  955.76 1495  944 1495  C 932.24 1495  923 1485.76  923 1474  C 923 1462.24  932.24 1453  944 1453  Z " fill-rule="nonzero" fill="#ffffff" stroke="none" />
    <path d="M 944 1453.5  C 955.48 1453.5  964.5 1462.52  964.5 1474  C 964.5 1485.48  955.48 1494.5  944 1494.5  C 932.52 1494.5  923.5 1485.48  923.5 1474  C 923.5 1462.52  932.52 1453.5  944 1453.5  Z " stroke-width="1" stroke="#797979" fill="none" />
  </g>
</svg>