<?xml version="1.0" encoding="utf-8"?>
<svg version="1.1" xmlns:xlink="http://www.w3.org/1999/xlink" width="117px" height="117px" xmlns="http://www.w3.org/2000/svg">
  <g transform="matrix(1 0 0 1 -1010 -1571 )">
    <path d="M 1068.5 1571  C 1101.26 1571  1127 1596.74  1127 1629.5  C 1127 1662.26  1101.26 1688  1068.5 1688  C 1035.74 1688  1010 1662.26  1010 1629.5  C 1010 1596.74  1035.74 1571  1068.5 1571  Z " fill-rule="nonzero" fill="#555555" stroke="none" />
    <path d="M 1068.5 1571.5  C 1100.98 1571.5  1126.5 1597.02  1126.5 1629.5  C 1126.5 1661.98  1100.98 1687.5  1068.5 1687.5  C 1036.02 1687.5  1010.5 1661.98  1010.5 1629.5  C 1010.5 1597.02  1036.02 1571.5  1068.5 1571.5  Z " stroke-width="1" stroke="#797979" fill="none" />
  </g>
</svg>