<?xml version="1.0" encoding="utf-8"?>
<svg version="1.1" xmlns:xlink="http://www.w3.org/1999/xlink" width="117px" height="117px" xmlns="http://www.w3.org/2000/svg">
  <g transform="matrix(1 0 0 1 -1010 -1454 )">
    <path d="M 1068.5 1454  C 1101.26 1454  1127 1479.74  1127 1512.5  C 1127 1545.26  1101.26 1571  1068.5 1571  C 1035.74 1571  1010 1545.26  1010 1512.5  C 1010 1479.74  1035.74 1454  1068.5 1454  Z " fill-rule="nonzero" fill="#555555" stroke="none" />
    <path d="M 1068.5 1454.5  C 1100.98 1454.5  1126.5 1480.02  1126.5 1512.5  C 1126.5 1544.98  1100.98 1570.5  1068.5 1570.5  C 1036.02 1570.5  1010.5 1544.98  1010.5 1512.5  C 1010.5 1480.02  1036.02 1454.5  1068.5 1454.5  Z " stroke-width="1" stroke="#797979" fill="none" />
  </g>
</svg>