<?xml version="1.0" encoding="utf-8"?>
<svg version="1.1" xmlns:xlink="http://www.w3.org/1999/xlink" width="9px" height="9px" xmlns="http://www.w3.org/2000/svg">
  <g transform="matrix(1 0 0 1 -1779 -1393 )">
    <path d="M 1783.5 1394  C 1785.46 1394  1787 1395.54  1787 1397.5  C 1787 1399.46  1785.46 1401  1783.5 1401  C 1781.54 1401  1780 1399.46  1780 1397.5  C 1780 1395.54  1781.54 1394  1783.5 1394  Z " fill-rule="nonzero" fill="#ffffff" stroke="none" />
    <path d="M 1783.5 1394  C 1785.46 1394  1787 1395.54  1787 1397.5  C 1787 1399.46  1785.46 1401  1783.5 1401  C 1781.54 1401  1780 1399.46  1780 1397.5  C 1780 1395.54  1781.54 1394  1783.5 1394  Z " stroke-width="2" stroke="#797979" fill="none" />
  </g>
</svg>