<?xml version="1.0" encoding="utf-8"?>
<svg version="1.1" xmlns:xlink="http://www.w3.org/1999/xlink" width="96px" height="96px" xmlns="http://www.w3.org/2000/svg">
  <g transform="matrix(1 0 0 1 -1021 -1582 )">
    <path d="M 1069 1582  C 1095.88 1582  1117 1603.12  1117 1630  C 1117 1656.88  1095.88 1678  1069 1678  C 1042.12 1678  1021 1656.88  1021 1630  C 1021 1603.12  1042.12 1582  1069 1582  Z " fill-rule="nonzero" fill="#ffffff" stroke="none" />
    <path d="M 1069 1582.5  C 1095.6 1582.5  1116.5 1603.4  1116.5 1630  C 1116.5 1656.6  1095.6 1677.5  1069 1677.5  C 1042.4 1677.5  1021.5 1656.6  1021.5 1630  C 1021.5 1603.4  1042.4 1582.5  1069 1582.5  Z " stroke-width="1" stroke="#797979" fill="none" />
  </g>
</svg>