<?xml version="1.0" encoding="utf-8"?>
<svg version="1.1" xmlns:xlink="http://www.w3.org/1999/xlink" width="283px" height="332px" xmlns="http://www.w3.org/2000/svg">
  <g transform="matrix(1 0 0 1 -509 -126 )">
    <path d="M 650.5 126  C 729.74 126  792 199.04  792 292  C 792 384.96  729.74 458  650.5 458  C 571.26 458  509 384.96  509 292  C 509 199.04  571.26 126  650.5 126  Z " fill-rule="nonzero" fill="#ffffff" stroke="none" />
    <path d="M 650.5 126.5  C 729.46 126.5  791.5 199.32  791.5 292  C 791.5 384.68  729.46 457.5  650.5 457.5  C 571.54 457.5  509.5 384.68  509.5 292  C 509.5 199.32  571.54 126.5  650.5 126.5  Z " stroke-width="1" stroke="#797979" fill="none" />
  </g>
</svg>