<?xml version="1.0" encoding="utf-8"?>
<svg version="1.1" xmlns:xlink="http://www.w3.org/1999/xlink" width="96px" height="96px" xmlns="http://www.w3.org/2000/svg">
  <g transform="matrix(1 0 0 1 -825 -967 )">
    <path d="M 873 967  C 899.88 967  921 988.12  921 1015  C 921 1041.88  899.88 1063  873 1063  C 846.12 1063  825 1041.88  825 1015  C 825 988.12  846.12 967  873 967  Z " fill-rule="nonzero" fill="#ffffff" stroke="none" />
    <path d="M 873 967.5  C 899.6 967.5  920.5 988.4  920.5 1015  C 920.5 1041.6  899.6 1062.5  873 1062.5  C 846.4 1062.5  825.5 1041.6  825.5 1015  C 825.5 988.4  846.4 967.5  873 967.5  Z " stroke-width="1" stroke="#797979" fill="none" />
  </g>
</svg>