<?xml version="1.0" encoding="utf-8"?>
<svg version="1.1" xmlns:xlink="http://www.w3.org/1999/xlink" width="78px" height="78px" xmlns="http://www.w3.org/2000/svg">
  <g transform="matrix(1 0 0 1 -15 -22 )">
    <path d="M 54 22  C 75.84 22  93 39.16  93 61  C 93 82.84  75.84 100  54 100  C 32.16 100  15 82.84  15 61  C 15 39.16  32.16 22  54 22  Z " fill-rule="nonzero" fill="#ffffff" stroke="none" />
    <path d="M 54 22.5  C 75.56 22.5  92.5 39.44  92.5 61  C 92.5 82.56  75.56 99.5  54 99.5  C 32.44 99.5  15.5 82.56  15.5 61  C 15.5 39.44  32.44 22.5  54 22.5  Z " stroke-width="1" stroke="#797979" fill="none" />
  </g>
</svg>