<?xml version="1.0" encoding="utf-8"?>
<svg version="1.1" xmlns:xlink="http://www.w3.org/1999/xlink" width="142px" height="142px" xmlns="http://www.w3.org/2000/svg">
  <g transform="matrix(1 0 0 1 -186 -802 )">
    <path d="M 257 802  C 296.76 802  328 833.24  328 873  C 328 912.76  296.76 944  257 944  C 217.24 944  186 912.76  186 873  C 186 833.24  217.24 802  257 802  Z " fill-rule="nonzero" fill="#ffffff" stroke="none" />
    <path d="M 257 802.5  C 296.48 802.5  327.5 833.52  327.5 873  C 327.5 912.48  296.48 943.5  257 943.5  C 217.52 943.5  186.5 912.48  186.5 873  C 186.5 833.52  217.52 802.5  257 802.5  Z " stroke-width="1" stroke="#797979" fill="none" />
  </g>
</svg>