<?xml version="1.0" encoding="utf-8"?>
<svg version="1.1" xmlns:xlink="http://www.w3.org/1999/xlink" width="136px" height="136px" xmlns="http://www.w3.org/2000/svg">
  <g transform="matrix(1 0 0 1 -474 -1131 )">
    <path d="M 542 1131  C 580.08 1131  610 1160.92  610 1199  C 610 1237.08  580.08 1267  542 1267  C 503.92 1267  474 1237.08  474 1199  C 474 1160.92  503.92 1131  542 1131  Z " fill-rule="nonzero" fill="#ffffff" stroke="none" />
    <path d="M 542 1131.5  C 579.8 1131.5  609.5 1161.2  609.5 1199  C 609.5 1236.8  579.8 1266.5  542 1266.5  C 504.2 1266.5  474.5 1236.8  474.5 1199  C 474.5 1161.2  504.2 1131.5  542 1131.5  Z " stroke-width="1" stroke="#797979" fill="none" />
  </g>
</svg>