<?xml version="1.0" encoding="utf-8"?>
<svg version="1.1" xmlns:xlink="http://www.w3.org/1999/xlink" width="83px" height="67px" xmlns="http://www.w3.org/2000/svg">
  <g transform="matrix(1 0 0 1 -106 -2996 )">
    <path d="M 147.5 2996  C 170.74 2996  189 3010.74  189 3029.5  C 189 3048.26  170.74 3063  147.5 3063  C 124.26 3063  106 3048.26  106 3029.5  C 106 3010.74  124.26 2996  147.5 2996  Z " fill-rule="nonzero" fill="#ffffff" stroke="none" />
    <path d="M 147.5 2996.5  C 170.46 2996.5  188.5 3011.02  188.5 3029.5  C 188.5 3047.98  170.46 3062.5  147.5 3062.5  C 124.54 3062.5  106.5 3047.98  106.5 3029.5  C 106.5 3011.02  124.54 2996.5  147.5 2996.5  Z " stroke-width="1" stroke="#797979" fill="none" />
  </g>
</svg>