<?xml version="1.0" encoding="utf-8"?>
<svg version="1.1" xmlns:xlink="http://www.w3.org/1999/xlink" width="55px" height="55px" xmlns="http://www.w3.org/2000/svg">
  <g transform="matrix(1 0 0 1 -41 -2525 )">
    <path d="M 68.5 2525  C 83.9 2525  96 2537.1  96 2552.5  C 96 2567.9  83.9 2580  68.5 2580  C 53.1 2580  41 2567.9  41 2552.5  C 41 2537.1  53.1 2525  68.5 2525  Z " fill-rule="nonzero" fill="#ffffff" stroke="none" />
    <path d="M 68.5 2525.5  C 83.62 2525.5  95.5 2537.38  95.5 2552.5  C 95.5 2567.62  83.62 2579.5  68.5 2579.5  C 53.38 2579.5  41.5 2567.62  41.5 2552.5  C 41.5 2537.38  53.38 2525.5  68.5 2525.5  Z " stroke-width="1" stroke="#797979" fill="none" />
  </g>
</svg>