<?xml version="1.0" encoding="utf-8"?>
<svg version="1.1" xmlns:xlink="http://www.w3.org/1999/xlink" width="54px" height="54px" xmlns="http://www.w3.org/2000/svg">
  <g transform="matrix(1 0 0 1 -41 -2793 )">
    <path d="M 68 2793  C 83.12 2793  95 2804.88  95 2820  C 95 2835.12  83.12 2847  68 2847  C 52.88 2847  41 2835.12  41 2820  C 41 2804.88  52.88 2793  68 2793  Z " fill-rule="nonzero" fill="#ffffff" stroke="none" />
    <path d="M 68 2793.5  C 82.84 2793.5  94.5 2805.16  94.5 2820  C 94.5 2834.84  82.84 2846.5  68 2846.5  C 53.16 2846.5  41.5 2834.84  41.5 2820  C 41.5 2805.16  53.16 2793.5  68 2793.5  Z " stroke-width="1" stroke="#797979" fill="none" />
  </g>
</svg>