<?xml version="1.0" encoding="utf-8"?>
<svg version="1.1" xmlns:xlink="http://www.w3.org/1999/xlink" width="54px" height="54px" xmlns="http://www.w3.org/2000/svg">
  <g transform="matrix(1 0 0 1 -41 -2903 )">
    <path d="M 68 2903  C 83.12 2903  95 2914.88  95 2930  C 95 2945.12  83.12 2957  68 2957  C 52.88 2957  41 2945.12  41 2930  C 41 2914.88  52.88 2903  68 2903  Z " fill-rule="nonzero" fill="#ffffff" stroke="none" />
    <path d="M 68 2903.5  C 82.84 2903.5  94.5 2915.16  94.5 2930  C 94.5 2944.84  82.84 2956.5  68 2956.5  C 53.16 2956.5  41.5 2944.84  41.5 2930  C 41.5 2915.16  53.16 2903.5  68 2903.5  Z " stroke-width="1" stroke="#797979" fill="none" />
  </g>
</svg>