<?xml version="1.0" encoding="utf-8"?>
<svg version="1.1" xmlns:xlink="http://www.w3.org/1999/xlink" width="55px" height="55px" xmlns="http://www.w3.org/2000/svg">
  <g transform="matrix(1 0 0 1 -41 -2635 )">
    <path d="M 68.5 2635  C 83.9 2635  96 2647.1  96 2662.5  C 96 2677.9  83.9 2690  68.5 2690  C 53.1 2690  41 2677.9  41 2662.5  C 41 2647.1  53.1 2635  68.5 2635  Z " fill-rule="nonzero" fill="#ffffff" stroke="none" />
    <path d="M 68.5 2635.5  C 83.62 2635.5  95.5 2647.38  95.5 2662.5  C 95.5 2677.62  83.62 2689.5  68.5 2689.5  C 53.38 2689.5  41.5 2677.62  41.5 2662.5  C 41.5 2647.38  53.38 2635.5  68.5 2635.5  Z " stroke-width="1" stroke="#797979" fill="none" />
  </g>
</svg>