<?xml version="1.0" encoding="utf-8"?>
<svg version="1.1" xmlns:xlink="http://www.w3.org/1999/xlink" width="103px" height="103px" xmlns="http://www.w3.org/2000/svg">
  <g transform="matrix(1 0 0 1 -29 -1315 )">
    <path d="M 80.5 1315  C 109.34 1315  132 1337.66  132 1366.5  C 132 1395.34  109.34 1418  80.5 1418  C 51.66 1418  29 1395.34  29 1366.5  C 29 1337.66  51.66 1315  80.5 1315  Z " fill-rule="nonzero" fill="#ffffff" stroke="none" />
    <path d="M 80.5 1315.5  C 109.06 1315.5  131.5 1337.94  131.5 1366.5  C 131.5 1395.06  109.06 1417.5  80.5 1417.5  C 51.94 1417.5  29.5 1395.06  29.5 1366.5  C 29.5 1337.94  51.94 1315.5  80.5 1315.5  Z " stroke-width="1" stroke="#797979" fill="none" />
  </g>
</svg>