<?xml version="1.0" encoding="utf-8"?>
<svg version="1.1" xmlns:xlink="http://www.w3.org/1999/xlink" width="131px" height="131px" xmlns="http://www.w3.org/2000/svg">
  <g transform="matrix(1 0 0 1 -201 -1184 )">
    <path d="M 266.5 1184.80039052968  C 240.5 1217.24254801826  201.5 1236.70784251142  201.5 1269.15  C 201.5 1285.99428571429  214.5 1314.5  266.5 1314.5  C 318.5 1314.5  331.5 1285.99428571429  331.5 1269.15  C 331.5 1236.70784251142  292.5 1217.24254801826  266.5 1184.80039052968  Z " fill-rule="nonzero" fill="#ffffff" stroke="none" />
    <path d="M 266.5 1184  C 240.3 1216.75  201 1236.4  201 1269.15  C 201 1286.18  214.1 1315  266.5 1315  C 318.9 1315  332 1286.18  332 1269.15  C 332 1236.4  292.7 1216.75  266.5 1184  Z M 266.5 1185.60078105936  C 292.3 1217.73509603653  331 1237.01568502283  331 1269.15  C 331 1285.80857142857  318.1 1314  266.5 1314  C 214.9 1314  202 1285.80857142857  202 1269.15  C 202 1237.01568502283  240.7 1217.73509603653  266.5 1185.60078105936  Z " fill-rule="nonzero" fill="#797979" stroke="none" />
  </g>
</svg>