<?xml version="1.0" encoding="utf-8"?>
<svg version="1.1" xmlns:xlink="http://www.w3.org/1999/xlink" width="131px" height="131px" xmlns="http://www.w3.org/2000/svg">
  <g transform="matrix(1 0 0 1 -201 -1091 )">
    <path d="M 266.5 1091  C 303.18 1091  332 1119.82  332 1156.5  C 332 1193.18  303.18 1222  266.5 1222  C 229.82 1222  201 1193.18  201 1156.5  C 201 1119.82  229.82 1091  266.5 1091  Z " fill-rule="nonzero" fill="#ffffff" stroke="none" />
    <path d="M 266.5 1091.5  C 302.9 1091.5  331.5 1120.1  331.5 1156.5  C 331.5 1192.9  302.9 1221.5  266.5 1221.5  C 230.1 1221.5  201.5 1192.9  201.5 1156.5  C 201.5 1120.1  230.1 1091.5  266.5 1091.5  Z " stroke-width="1" stroke="#797979" fill="none" />
  </g>
</svg>