<?xml version="1.0" encoding="utf-8"?>
<svg version="1.1" xmlns:xlink="http://www.w3.org/1999/xlink" width="30px" height="30px" xmlns="http://www.w3.org/2000/svg">
  <g transform="matrix(1 0 0 1 -80 0 )">
    <path d="M 95 0  C 103.4 0  110 6.6  110 15  C 110 23.4  103.4 30  95 30  C 86.6 30  80 23.4  80 15  C 80 6.6  86.6 0  95 0  Z " fill-rule="nonzero" fill="#ffffff" stroke="none" />
    <path d="M 95 0.5  C 103.12 0.5  109.5 6.88  109.5 15  C 109.5 23.12  103.12 29.5  95 29.5  C 86.88 29.5  80.5 23.12  80.5 15  C 80.5 6.88  86.88 0.5  95 0.5  Z " stroke-width="1" stroke="#797979" fill="none" />
  </g>
</svg>