<?xml version="1.0" encoding="utf-8"?>
<svg version="1.1" xmlns:xlink="http://www.w3.org/1999/xlink" width="50px" height="50px" xmlns="http://www.w3.org/2000/svg">
  <g transform="matrix(1 0 0 1 -143 -1080 )">
    <path d="M 168 1080  C 182 1080  193 1091  193 1105  C 193 1119  182 1130  168 1130  C 154 1130  143 1119  143 1105  C 143 1091  154 1080  168 1080  Z " fill-rule="nonzero" fill="#ffffff" stroke="none" />
    <path d="M 168 1080.5  C 181.72 1080.5  192.5 1091.28  192.5 1105  C 192.5 1118.72  181.72 1129.5  168 1129.5  C 154.28 1129.5  143.5 1118.72  143.5 1105  C 143.5 1091.28  154.28 1080.5  168 1080.5  Z " stroke-width="1" stroke="#797979" fill="none" />
  </g>
</svg>