<?xml version="1.0" encoding="utf-8"?>
<svg version="1.1" xmlns:xlink="http://www.w3.org/1999/xlink" width="83px" height="76px" xmlns="http://www.w3.org/2000/svg">
  <g transform="matrix(1 0 0 1 -370 -2207 )">
    <path d="M 62.8984375 68.7265625  C 63.5302483974359 68.0998263888889  63.8461538461538 67.3576388888889  63.8461538461538 66.5  C 63.8461538461538 65.6423611111111  63.5302483974359 64.9001736111111  62.8984375 64.2734375  C 62.2666266025641 63.6467013888889  61.5184294871795 63.3333333333333  60.6538461538462 63.3333333333333  C 59.7892628205128 63.3333333333333  59.0410657051282 63.6467013888889  58.4092548076923 64.2734375  C 57.7774439102564 64.9001736111111  57.4615384615385 65.6423611111111  57.4615384615385 66.5  C 57.4615384615385 67.3576388888889  57.7774439102564 68.0998263888889  58.4092548076923 68.7265625  C 59.0410657051282 69.3532986111111  59.7892628205128 69.6666666666667  60.6538461538462 69.6666666666667  C 61.5184294871795 69.6666666666667  62.2666266025641 69.3532986111111  62.8984375 68.7265625  Z M 75.6676682692308 68.7265625  C 76.2994791666667 68.0998263888889  76.6153846153846 67.3576388888889  76.6153846153846 66.5  C 76.6153846153846 65.6423611111111  76.2994791666667 64.9001736111111  75.6676682692308 64.2734375  C 75.0358573717949 63.6467013888889  74.2876602564103 63.3333333333333  73.4230769230769 63.3333333333333  C 72.5584935897436 63.3333333333333  71.810296474359 63.6467013888889  71.1784855769231 64.2734375  C 70.5466746794872 64.9001736111111  70.2307692307692 65.6423611111111  70.2307692307692 66.5  C 70.2307692307692 67.3576388888889  70.5466746794872 68.0998263888889  71.1784855769231 68.7265625  C 71.810296474359 69.3532986111111  72.5584935897436 69.6666666666667  73.4230769230769 69.6666666666667  C 74.2876602564103 69.6666666666667  75.0358573717949 69.3532986111111  75.6676682692308 68.7265625  Z M 81.6033653846154 52.0520833333333  C 82.5344551282051 52.9756944444444  83 54.0972222222222  83 55.4166666666667  L 83 71.25  C 83 72.5694444444444  82.5344551282051 73.6909722222222  81.6033653846154 74.6145833333333  C 80.6722756410256 75.5381944444444  79.5416666666667 76  78.2115384615385 76  L 4.78846153846154 76  C 3.45833333333333 76  2.32772435897436 75.5381944444444  1.39663461538462 74.6145833333333  C 0.465544871794872 73.6909722222222  0 72.5694444444444  0 71.25  L 0 55.4166666666667  C 0 54.0972222222222  0.465544871794872 52.9756944444444  1.39663461538462 52.0520833333333  C 2.32772435897436 51.1284722222222  3.45833333333333 50.6666666666667  4.78846153846154 50  L 27.9825721153846 50  L 34.7163461538462 57.3958333333333  C 36.6450320512821 59.2430555555556  38.90625 60.1666666666667  41.5 60.1666666666667  C 44.09375 60.1666666666667  46.3549679487179 59.2430555555556  48.2836538461538 57.3958333333333  L 55.0673076923077 50  L 78.2115384615385 50  C 79.5416666666667 50.6666666666667  80.6722756410256 51.1284722222222  81.6033653846154 52.0520833333333  Z M 63.8461538461538 26  C 65.2427884615385 25.3333333333333  66.2237580128205 25.9765625  66.7890625 27.2630208333333  C 67.3543669871795 28.6154513888889  67.1215945512821 29.7699652777778  66.0907451923077 30.7265625  L 43.7445913461538 52.8932291666667  C 43.1460336538462 53.5199652777778  42.3978365384615 53.8333333333333  41.5 53.8333333333333  C 40.6021634615385 53.8333333333333  39.8539663461538 53.5199652777778  39.2554086538462 52.8932291666667  L 16.9092548076923 30.7265625  C 15.878405448718 29.7699652777778  15.6456330128205 28.6154513888889  16.2109375 27.2630208333333  C 16.7762419871795 25.9765625  17.7572115384615 25.3333333333333  19.1538461538462 26  L 32 26  L 32 3.16666666666666  C 31.9230769230769 2.30902777777777  32.2389823717949 1.56684027777777  32.8707932692308 0.940104166666664  C 33.5026041666667 0.31336805555556  34.2508012820513 0  35.1153846153846 0  L 47.8846153846154 0  C 48.7491987179487 0  49.4973958333333 0.31336805555556  50.1292067307692 0.940104166666664  C 50.7610176282051 1.56684027777777  51.0769230769231 2.30902777777777  51 3.16666666666666  L 51 26  L 63.8461538461538 26  Z " fill-rule="nonzero" fill="#ffffff" stroke="none" transform="matrix(1 0 0 1 370 2207 )" />
  </g>
</svg>