<?xml version="1.0" encoding="utf-8"?>
<svg version="1.1" xmlns:xlink="http://www.w3.org/1999/xlink" width="58px" height="80px" xmlns="http://www.w3.org/2000/svg">
  <g transform="matrix(1 0 0 1 -537 -2205 )">
    <path d="M 45.9921875 50.8928571428571  C 46.2640625 52.5  46.4 54.2559523809524  46.4 56.1607142857143  C 46.4 58.0654761904762  45.8411458333333 59.6577380952381  44.7234375 60.9375  C 43.6057291666667 62.2172619047619  42.23125 62.8571428571429  40.6 62  L 17.4 62  C 15.76875 62.8571428571429  14.3942708333333 62.2172619047619  13.2765625 60.9375  C 12.1588541666667 59.6577380952381  11.6 58.0654761904762  11.6 56.1607142857143  C 11.6 54.2559523809524  11.7359375 52.5  12.0078125 50.8928571428571  C 12.2796875 49.2857142857143  12.7252604166667 47.7380952380952  13.34453125 46.25  C 13.9638020833333 44.7619047619048  14.88515625 43.59375  16.10859375 42.7455357142857  C 17.33203125 41.8973214285714  18.7895833333333 41.4732142857143  20.48125 41.4732142857143  C 22.8979166666667 43.7053571428571  25.7375 44.8214285714286  29 44.8214285714286  C 32.2625 44.8214285714286  35.1020833333333 43.7053571428571  37.51875 41.4732142857143  C 39.2104166666667 41.4732142857143  40.66796875 41.8973214285714  41.89140625 42.7455357142857  C 43.11484375 43.59375  44.0361979166667 44.7619047619048  44.65546875 46.25  C 45.2747395833333 47.7380952380952  45.7203125 49.2857142857143  45.9921875 50.8928571428571  Z M 36.36328125 25.8258928571429  C 38.40234375 27.8050595238095  39.421875 30.1934523809524  39.421875 32.9910714285714  C 39.421875 35.7886904761905  38.40234375 38.1770833333333  36.36328125 40.15625  C 34.32421875 42.1354166666667  31.8697916666667 43.125  29 43.125  C 26.1302083333333 43.125  23.67578125 42.1354166666667  21.63671875 40.15625  C 19.59765625 38.1770833333333  18.578125 35.7886904761905  18.578125 32.9910714285714  C 18.578125 30.1934523809524  19.59765625 27.8050595238095  21.63671875 25.8258928571429  C 23.67578125 23.8467261904762  26.1302083333333 22.8571428571429  29 22.8571428571429  C 31.8697916666667 22.8571428571429  34.32421875 23.8467261904762  36.36328125 25.8258928571429  Z M 51.76953125 73.8616071428571  C 52.0565104166667 73.5788690476191  52.2 73.2440476190476  52 72.8571428571429  L 52 12  L 6 12  L 6 72.8571428571429  C 5.8 73.2440476190476  5.94348958333333 73.5788690476191  6.23046875 73.8616071428571  C 6.51744791666667 74.1443452380952  6.85729166666667 74.2857142857143  7.25 74  L 50.75 74  C 51.1427083333333 74.2857142857143  51.4825520833333 74.1443452380952  51.76953125 73.8616071428571  Z M 55.8703125 2.09821428571429  C 57.2901041666667 3.4970238095238  58 5.17857142857143  58 7.14285714285714  L 58 72.8571428571429  C 58 74.8214285714286  57.2901041666667 76.5029761904762  55.8703125 77.9017857142857  C 54.4505208333333 79.3005952380952  52.74375 80  50.75 80  L 7.25 80  C 5.25625 80  3.54947916666667 79.3005952380952  2.1296875 77.9017857142857  C 0.709895833333333 76.5029761904762  0 74.8214285714286  0 72.8571428571429  L 0 7.14285714285714  C 0 5.17857142857143  0.709895833333333 3.4970238095238  2.1296875 2.09821428571429  C 3.54947916666667 0.699404761904763  5.25625 0  7.25 0  L 23.2 0  L 23.2 4.28571428571429  C 23.2 4.70238095238095  23.3359375 5.04464285714286  23.6078125 5.3125  C 23.8796875 5.58035714285714  24.2270833333333 5.71428571428571  24.65 5.71428571428571  L 33.35 5.71428571428571  C 33.7729166666667 5.71428571428571  34.1203125 5.58035714285714  34.3921875 5.3125  C 34.6640625 5.04464285714286  34.8 4.70238095238095  34.8 4.28571428571429  L 34.8 0  L 50.75 0  C 52.74375 0  54.4505208333333 0.699404761904763  55.8703125 2.09821428571429  Z " fill-rule="nonzero" fill="#ffffff" stroke="none" transform="matrix(1 0 0 1 537 2205 )" />
  </g>
</svg>