<?xml version="1.0" encoding="utf-8"?>
<svg version="1.1" xmlns:xlink="http://www.w3.org/1999/xlink" width="58px" height="58px" xmlns="http://www.w3.org/2000/svg">
  <g transform="matrix(1 0 0 1 -181 -1417 )">
    <path d="M 210 1417  C 226.24 1417  239 1429.76  239 1446  C 239 1462.24  226.24 1475  210 1475  C 193.76 1475  181 1462.24  181 1446  C 181 1429.76  193.76 1417  210 1417  Z " fill-rule="nonzero" fill="#ffffff" stroke="none" fill-opacity="0.56078431372549" />
    <path d="M 210 1417.5  C 225.96 1417.5  238.5 1430.04  238.5 1446  C 238.5 1461.96  225.96 1474.5  210 1474.5  C 194.04 1474.5  181.5 1461.96  181.5 1446  C 181.5 1430.04  194.04 1417.5  210 1417.5  Z " stroke-width="1" stroke="#797979" fill="none" />
  </g>
</svg>