<?xml version="1.0" encoding="utf-8"?>
<svg version="1.1" xmlns:xlink="http://www.w3.org/1999/xlink" width="46px" height="46px" xmlns="http://www.w3.org/2000/svg">
  <g transform="matrix(1 0 0 1 -187 -1423 )">
    <path d="M 210 1423  C 222.88 1423  233 1433.12  233 1446  C 233 1458.88  222.88 1469  210 1469  C 197.12 1469  187 1458.88  187 1446  C 187 1433.12  197.12 1423  210 1423  Z " fill-rule="nonzero" fill="#ffffff" stroke="none" fill-opacity="0.56078431372549" />
    <path d="M 210 1423.5  C 222.6 1423.5  232.5 1433.4  232.5 1446  C 232.5 1458.6  222.6 1468.5  210 1468.5  C 197.4 1468.5  187.5 1458.6  187.5 1446  C 187.5 1433.4  197.4 1423.5  210 1423.5  Z " stroke-width="1" stroke="#797979" fill="none" />
  </g>
</svg>