<?xml version="1.0" encoding="utf-8"?>
<svg version="1.1" xmlns:xlink="http://www.w3.org/1999/xlink" width="33px" height="33px" xmlns="http://www.w3.org/2000/svg">
  <g transform="matrix(1 0 0 1 -207 -4665 )">
    <path d="M 223.5 4665  C 232.74 4665  240 4672.26  240 4681.5  C 240 4690.74  232.74 4698  223.5 4698  C 214.26 4698  207 4690.74  207 4681.5  C 207 4672.26  214.26 4665  223.5 4665  Z " fill-rule="nonzero" fill="#ffffff" stroke="none" />
    <path d="M 223.5 4665.5  C 232.46 4665.5  239.5 4672.54  239.5 4681.5  C 239.5 4690.46  232.46 4697.5  223.5 4697.5  C 214.54 4697.5  207.5 4690.46  207.5 4681.5  C 207.5 4672.54  214.54 4665.5  223.5 4665.5  Z " stroke-width="1" stroke="#797979" fill="none" />
  </g>
</svg>