<?xml version="1.0" encoding="utf-8"?>
<svg version="1.1" xmlns:xlink="http://www.w3.org/1999/xlink" width="33px" height="33px" xmlns="http://www.w3.org/2000/svg">
  <g transform="matrix(1 0 0 1 -207 -4561 )">
    <path d="M 223.5 4561  C 232.74 4561  240 4568.26  240 4577.5  C 240 4586.74  232.74 4594  223.5 4594  C 214.26 4594  207 4586.74  207 4577.5  C 207 4568.26  214.26 4561  223.5 4561  Z " fill-rule="nonzero" fill="#ffffff" stroke="none" />
    <path d="M 223.5 4561.5  C 232.46 4561.5  239.5 4568.54  239.5 4577.5  C 239.5 4586.46  232.46 4593.5  223.5 4593.5  C 214.54 4593.5  207.5 4586.46  207.5 4577.5  C 207.5 4568.54  214.54 4561.5  223.5 4561.5  Z " stroke-width="1" stroke="#797979" fill="none" />
  </g>
</svg>