<?xml version="1.0" encoding="utf-8"?>
<svg version="1.1" xmlns:xlink="http://www.w3.org/1999/xlink" width="294px" height="294px" xmlns="http://www.w3.org/2000/svg">
  <g transform="matrix(1 0 0 1 -157 -1078 )">
    <path d="M 304 1080  C 385.2 1080  449 1143.8  449 1225  C 449 1306.2  385.2 1370  304 1370  C 222.8 1370  159 1306.2  159 1225  C 159 1143.8  222.8 1080  304 1080  Z " fill-rule="nonzero" fill="#ffffff" stroke="none" />
    <path d="M 304 1079.5  C 385.48 1079.5  449.5 1143.52  449.5 1225  C 449.5 1306.48  385.48 1370.5  304 1370.5  C 222.52 1370.5  158.5 1306.48  158.5 1225  C 158.5 1143.52  222.52 1079.5  304 1079.5  Z " stroke-width="3" stroke="#797979" fill="none" />
  </g>
</svg>