<?xml version="1.0" encoding="utf-8"?>
<svg version="1.1" xmlns:xlink="http://www.w3.org/1999/xlink" width="182px" height="96px" xmlns="http://www.w3.org/2000/svg">
  <g transform="matrix(1 0 0 1 -211 -1246 )">
    <path d="M 302 1339.15111599192  C 266.6 1316.24684061041  213.5 1302.50427538151  213.5 1279.6  C 213.5 1268.04857142857  231.2 1248.5  302 1248.5  C 372.8 1248.5  390.5 1268.04857142857  390.5 1279.6  C 390.5 1302.50427538151  337.4 1316.24684061041  302 1339.15111599192  Z " fill-rule="nonzero" fill="#ffffff" stroke="none" />
    <path d="M 302 1342  C 265.6 1318  211 1303.6  211 1279.6  C 211 1267.12  229.2 1246  302 1246  C 374.8 1246  393 1267.12  393 1279.6  C 393 1303.6  338.4 1318  302 1342  Z M 302 1338.58133919031  C 337.2 1315.8962087325  390 1302.28513045781  390 1279.6  C 390 1268.23428571429  372.4 1249  302 1249  C 231.6 1249  214 1268.23428571429  214 1279.6  C 214 1302.28513045781  266.8 1315.8962087325  302 1338.58133919031  Z " fill-rule="nonzero" fill="#797979" stroke="none" />
  </g>
</svg>