<?xml version="1.0" encoding="utf-8"?>
<svg version="1.1" xmlns:xlink="http://www.w3.org/1999/xlink" width="182px" height="182px" xmlns="http://www.w3.org/2000/svg">
  <g transform="matrix(1 0 0 1 -211 -1109 )">
    <path d="M 302 1111  C 351.84 1111  391 1150.16  391 1200  C 391 1249.84  351.84 1289  302 1289  C 252.16 1289  213 1249.84  213 1200  C 213 1150.16  252.16 1111  302 1111  Z " fill-rule="nonzero" fill="#ffffff" stroke="none" />
    <path d="M 302 1110.5  C 352.12 1110.5  391.5 1149.88  391.5 1200  C 391.5 1250.12  352.12 1289.5  302 1289.5  C 251.88 1289.5  212.5 1250.12  212.5 1200  C 212.5 1149.88  251.88 1110.5  302 1110.5  Z " stroke-width="3" stroke="#797979" fill="none" />
  </g>
</svg>