<?xml version="1.0" encoding="utf-8"?>
<svg version="1.1" xmlns:xlink="http://www.w3.org/1999/xlink" width="19px" height="19px" xmlns="http://www.w3.org/2000/svg">
  <g transform="matrix(1 0 0 1 -31 -7 )">
    <path d="M 40.5 7  C 45.82 7  50 11.18  50 16.5  C 50 21.82  45.82 26  40.5 26  C 35.18 26  31 21.82  31 16.5  C 31 11.18  35.18 7  40.5 7  Z " fill-rule="nonzero" fill="#ffffff" stroke="none" />
    <path d="M 40.5 7.5  C 45.54 7.5  49.5 11.46  49.5 16.5  C 49.5 21.54  45.54 25.5  40.5 25.5  C 35.46 25.5  31.5 21.54  31.5 16.5  C 31.5 11.46  35.46 7.5  40.5 7.5  Z " stroke-width="1" stroke="#797979" fill="none" />
  </g>
</svg>