<?xml version="1.0" encoding="utf-8"?>
<svg version="1.1" xmlns:xlink="http://www.w3.org/1999/xlink" width="227px" height="227px" xmlns="http://www.w3.org/2000/svg">
  <g transform="matrix(1 0 0 1 -43 -1451 )">
    <path d="M 156.5 1451  C 220.06 1451  270 1500.94  270 1564.5  C 270 1628.06  220.06 1678  156.5 1678  C 92.94 1678  43 1628.06  43 1564.5  C 43 1500.94  92.94 1451  156.5 1451  Z " fill-rule="nonzero" fill="#ffffff" stroke="none" />
    <path d="M 156.5 1451.5  C 219.78 1451.5  269.5 1501.22  269.5 1564.5  C 269.5 1627.78  219.78 1677.5  156.5 1677.5  C 93.22 1677.5  43.5 1627.78  43.5 1564.5  C 43.5 1501.22  93.22 1451.5  156.5 1451.5  Z " stroke-width="1" stroke="#797979" fill="none" />
  </g>
</svg>