<?xml version="1.0" encoding="utf-8"?>
<svg version="1.1" xmlns:xlink="http://www.w3.org/1999/xlink" width="140px" height="74px" xmlns="http://www.w3.org/2000/svg">
  <g transform="matrix(1 0 0 1 -85 -1580 )">
    <path d="M 155 1653.42968688739  C 127.2 1635.14903808455  85.5 1624.18064880284  85.5 1605.9  C 85.5 1596.46571428571  99.4 1580.5  155 1580.5  C 210.6 1580.5  224.5 1596.46571428571  224.5 1605.9  C 224.5 1624.18064880284  182.8 1635.14903808455  155 1653.42968688739  Z " fill-rule="nonzero" fill="#ffffff" stroke="none" />
    <path d="M 155 1654  C 127 1635.5  85 1624.4  85 1605.9  C 85 1596.28  99 1580  155 1580  C 211 1580  225 1596.28  225 1605.9  C 225 1624.4  183 1635.5  155 1654  Z M 155 1652.85937377478  C 182.6 1634.79807616909  224 1623.96129760568  224 1605.9  C 224 1596.65142857143  210.2 1581  155 1581  C 99.8 1581  86 1596.65142857143  86 1605.9  C 86 1623.96129760568  127.4 1634.79807616909  155 1652.85937377478  Z " fill-rule="nonzero" fill="#797979" stroke="none" />
  </g>
</svg>