<?xml version="1.0" encoding="utf-8"?>
<svg version="1.1" xmlns:xlink="http://www.w3.org/1999/xlink" width="140px" height="140px" xmlns="http://www.w3.org/2000/svg">
  <g transform="matrix(1 0 0 1 -85 -1475 )">
    <path d="M 155 1475  C 194.2 1475  225 1505.8  225 1545  C 225 1584.2  194.2 1615  155 1615  C 115.8 1615  85 1584.2  85 1545  C 85 1505.8  115.8 1475  155 1475  Z " fill-rule="nonzero" fill="#ffffff" stroke="none" />
    <path d="M 155 1475.5  C 193.92 1475.5  224.5 1506.08  224.5 1545  C 224.5 1583.92  193.92 1614.5  155 1614.5  C 116.08 1614.5  85.5 1583.92  85.5 1545  C 85.5 1506.08  116.08 1475.5  155 1475.5  Z " stroke-width="1" stroke="#797979" fill="none" />
  </g>
</svg>