<?xml version="1.0" encoding="utf-8"?>
<svg version="1.1" xmlns:xlink="http://www.w3.org/1999/xlink" width="610px" height="64px" xmlns="http://www.w3.org/2000/svg">
  <g transform="matrix(1 0 0 1 0 -884 )">
    <path d="M 0.5 939.970588235294  C 0.5 939.970588235294  0.5 884.5  0.5 884.5  C 0.5 884.5  609.5 884.5  609.5 884.5  C 609.5 884.5  609.5 939.970588235294  609.5 939.970588235294  C 609.5 939.970588235294  162.605862865483 939.970588235294  162.605862865483 939.970588235294  C 162.605862865483 939.970588235294  132.166666666667 947.48498961128  132.166666666667 947.48498961128  C 132.166666666667 947.48498961128  101.727470467852 939.970588235294  101.727470467852 939.970588235294  C 101.727470467852 939.970588235294  0.5 939.970588235294  0.5 939.970588235294  Z " fill-rule="nonzero" fill="#f2f2f2" stroke="none" />
    <path d="M 0 940.470588235294  C 0 940.470588235294  0 884  0 884  C 0 884  610 884  610 884  C 610 884  610 940.470588235294  610 940.470588235294  C 610 940.470588235294  162.666666666667 940.470588235294  162.666666666667 940.470588235294  C 162.666666666667 940.470588235294  132.166666666667 948  132.166666666667 948  C 132.166666666667 948  101.666666666667 940.470588235294  101.666666666667 940.470588235294  C 101.666666666667 940.470588235294  0 940.470588235294  0 940.470588235294  Z M 1 939.470588235294  C 1 939.470588235294  101.788274269031 939.470588235294  101.788274269031 939.470588235294  C 101.788274269031 939.470588235294  132.166666666667 946.969979222559  132.166666666667 946.969979222559  C 132.166666666667 946.969979222559  162.5450590643 939.470588235294  162.5450590643 939.470588235294  C 162.5450590643 939.470588235294  609 939.470588235294  609 939.470588235294  C 609 939.470588235294  609 885  609 885  C 609 885  1 885  1 885  C 1 885  1 939.470588235294  1 939.470588235294  Z " fill-rule="nonzero" fill="#797979" stroke="none" />
  </g>
</svg>