<?xml version="1.0" encoding="utf-8"?>
<svg version="1.1" xmlns:xlink="http://www.w3.org/1999/xlink" width="170px" height="424px" xmlns="http://www.w3.org/2000/svg">
  <g transform="matrix(1 0 0 1 -77 -2022 )">
    <path d="M 162 2022  C 209.6 2022  247 2115.28  247 2234  C 247 2352.72  209.6 2446  162 2446  C 114.4 2446  77 2352.72  77 2234  C 77 2115.28  114.4 2022  162 2022  Z " fill-rule="nonzero" fill="#ffffff" stroke="none" />
    <path d="M 162 2022.5  C 209.32 2022.5  246.5 2115.56  246.5 2234  C 246.5 2352.44  209.32 2445.5  162 2445.5  C 114.68 2445.5  77.5 2352.44  77.5 2234  C 77.5 2115.56  114.68 2022.5  162 2022.5  Z " stroke-width="1" stroke="#797979" fill="none" />
  </g>
</svg>