<?xml version="1.0" encoding="utf-8"?>
<svg version="1.1" xmlns:xlink="http://www.w3.org/1999/xlink" width="170px" height="170px" xmlns="http://www.w3.org/2000/svg">
  <g transform="matrix(1 0 0 1 -77 -1880 )">
    <path d="M 162 1880  C 209.6 1880  247 1917.4  247 1965  C 247 2012.6  209.6 2050  162 2050  C 114.4 2050  77 2012.6  77 1965  C 77 1917.4  114.4 1880  162 1880  Z " fill-rule="nonzero" fill="#ffffff" stroke="none" />
    <path d="M 162 1880.5  C 209.32 1880.5  246.5 1917.68  246.5 1965  C 246.5 2012.32  209.32 2049.5  162 2049.5  C 114.68 2049.5  77.5 2012.32  77.5 1965  C 77.5 1917.68  114.68 1880.5  162 1880.5  Z " stroke-width="1" stroke="#797979" fill="none" />
  </g>
</svg>