<?xml version="1.0" encoding="utf-8"?>
<svg version="1.1" xmlns:xlink="http://www.w3.org/1999/xlink" width="182px" height="182px" xmlns="http://www.w3.org/2000/svg">
  <g transform="matrix(1 0 0 1 -211 -477 )">
    <path d="M 302 479  C 351.84 479  391 518.16  391 568  C 391 617.84  351.84 657  302 657  C 252.16 657  213 617.84  213 568  C 213 518.16  252.16 479  302 479  Z " fill-rule="nonzero" fill="#ffffff" stroke="none" />
    <path d="M 302 478.5  C 352.12 478.5  391.5 517.88  391.5 568  C 391.5 618.12  352.12 657.5  302 657.5  C 251.88 657.5  212.5 618.12  212.5 568  C 212.5 517.88  251.88 478.5  302 478.5  Z " stroke-width="3" stroke="#797979" fill="none" />
  </g>
</svg>