<?xml version="1.0" encoding="utf-8"?>
<svg version="1.1" xmlns:xlink="http://www.w3.org/1999/xlink" width="29px" height="29px" xmlns="http://www.w3.org/2000/svg">
  <g transform="matrix(1 0 0 1 -9 -212 )">
    <path d="M 23.5 212  C 31.62 212  38 218.38  38 226.5  C 38 234.62  31.62 241  23.5 241  C 15.38 241  9 234.62  9 226.5  C 9 218.38  15.38 212  23.5 212  Z " fill-rule="nonzero" fill="#ffffff" stroke="none" />
    <path d="M 23.5 212.5  C 31.34 212.5  37.5 218.66  37.5 226.5  C 37.5 234.34  31.34 240.5  23.5 240.5  C 15.66 240.5  9.5 234.34  9.5 226.5  C 9.5 218.66  15.66 212.5  23.5 212.5  Z " stroke-width="1" stroke="#797979" fill="none" />
  </g>
</svg>