<?xml version="1.0" encoding="utf-8"?>
<svg version="1.1" xmlns:xlink="http://www.w3.org/1999/xlink" width="49px" height="49px" xmlns="http://www.w3.org/2000/svg">
  <g transform="matrix(1 0 0 1 -69 -2610 )">
    <path d="M 93.5 2610  C 107.22 2610  118 2620.78  118 2634.5  C 118 2648.22  107.22 2659  93.5 2659  C 79.78 2659  69 2648.22  69 2634.5  C 69 2620.78  79.78 2610  93.5 2610  Z " fill-rule="nonzero" fill="#ffffff" stroke="none" />
    <path d="M 93.5 2610.5  C 106.94 2610.5  117.5 2621.06  117.5 2634.5  C 117.5 2647.94  106.94 2658.5  93.5 2658.5  C 80.06 2658.5  69.5 2647.94  69.5 2634.5  C 69.5 2621.06  80.06 2610.5  93.5 2610.5  Z " stroke-width="1" stroke="#797979" fill="none" />
  </g>
</svg>