<?xml version="1.0" encoding="utf-8"?>
<svg version="1.1" xmlns:xlink="http://www.w3.org/1999/xlink" width="610px" height="64px" xmlns="http://www.w3.org/2000/svg">
  <g transform="matrix(1 0 0 1 0 -356 )">
    <path d="M 0.5 411.970588235294  C 0.5 411.970588235294  0.5 356.5  0.5 356.5  C 0.5 356.5  609.5 356.5  609.5 356.5  C 609.5 356.5  609.5 411.970588235294  609.5 411.970588235294  C 609.5 411.970588235294  162.605862865483 411.970588235294  162.605862865483 411.970588235294  C 162.605862865483 411.970588235294  132.166666666667 419.48498961128  132.166666666667 419.48498961128  C 132.166666666667 419.48498961128  101.727470467852 411.970588235294  101.727470467852 411.970588235294  C 101.727470467852 411.970588235294  0.5 411.970588235294  0.5 411.970588235294  Z " fill-rule="nonzero" fill="#f2f2f2" stroke="none" />
    <path d="M 0 412.470588235294  C 0 412.470588235294  0 356  0 356  C 0 356  610 356  610 356  C 610 356  610 412.470588235294  610 412.470588235294  C 610 412.470588235294  162.666666666667 412.470588235294  162.666666666667 412.470588235294  C 162.666666666667 412.470588235294  132.166666666667 420  132.166666666667 420  C 132.166666666667 420  101.666666666667 412.470588235294  101.666666666667 412.470588235294  C 101.666666666667 412.470588235294  0 412.470588235294  0 412.470588235294  Z M 1 411.470588235294  C 1 411.470588235294  101.788274269031 411.470588235294  101.788274269031 411.470588235294  C 101.788274269031 411.470588235294  132.166666666667 418.96997922256  132.166666666667 418.96997922256  C 132.166666666667 418.96997922256  162.5450590643 411.470588235294  162.5450590643 411.470588235294  C 162.5450590643 411.470588235294  609 411.470588235294  609 411.470588235294  C 609 411.470588235294  609 357  609 357  C 609 357  1 357  1 357  C 1 357  1 411.470588235294  1 411.470588235294  Z " fill-rule="nonzero" fill="#797979" stroke="none" />
  </g>
</svg>