<?xml version="1.0" encoding="utf-8"?>
<svg version="1.1" xmlns:xlink="http://www.w3.org/1999/xlink" width="227px" height="227px" xmlns="http://www.w3.org/2000/svg">
  <g transform="matrix(1 0 0 1 -43 -819 )">
    <path d="M 156.5 819  C 220.06 819  270 868.94  270 932.5  C 270 996.06  220.06 1046  156.5 1046  C 92.94 1046  43 996.06  43 932.5  C 43 868.94  92.94 819  156.5 819  Z " fill-rule="nonzero" fill="#ffffff" stroke="none" />
    <path d="M 156.5 819.5  C 219.78 819.5  269.5 869.22  269.5 932.5  C 269.5 995.78  219.78 1045.5  156.5 1045.5  C 93.22 1045.5  43.5 995.78  43.5 932.5  C 43.5 869.22  93.22 819.5  156.5 819.5  Z " stroke-width="1" stroke="#797979" fill="none" />
  </g>
</svg>