<?xml version="1.0" encoding="utf-8"?>
<svg version="1.1" xmlns:xlink="http://www.w3.org/1999/xlink" width="610px" height="64px" xmlns="http://www.w3.org/2000/svg">
  <g transform="matrix(1 0 0 1 0 -252 )">
    <path d="M 0.5 307.970588235294  C 0.5 307.970588235294  0.5 252.5  0.5 252.5  C 0.5 252.5  609.5 252.5  609.5 252.5  C 609.5 252.5  609.5 307.970588235294  609.5 307.970588235294  C 609.5 307.970588235294  162.605862865483 307.970588235294  162.605862865483 307.970588235294  C 162.605862865483 307.970588235294  132.166666666667 315.48498961128  132.166666666667 315.48498961128  C 132.166666666667 315.48498961128  101.727470467852 307.970588235294  101.727470467852 307.970588235294  C 101.727470467852 307.970588235294  0.5 307.970588235294  0.5 307.970588235294  Z " fill-rule="nonzero" fill="#f2f2f2" stroke="none" />
    <path d="M 0 308.470588235294  C 0 308.470588235294  0 252  0 252  C 0 252  610 252  610 252  C 610 252  610 308.470588235294  610 308.470588235294  C 610 308.470588235294  162.666666666667 308.470588235294  162.666666666667 308.470588235294  C 162.666666666667 308.470588235294  132.166666666667 316  132.166666666667 316  C 132.166666666667 316  101.666666666667 308.470588235294  101.666666666667 308.470588235294  C 101.666666666667 308.470588235294  0 308.470588235294  0 308.470588235294  Z M 1 307.470588235294  C 1 307.470588235294  101.788274269031 307.470588235294  101.788274269031 307.470588235294  C 101.788274269031 307.470588235294  132.166666666667 314.96997922256  132.166666666667 314.96997922256  C 132.166666666667 314.96997922256  162.5450590643 307.470588235294  162.5450590643 307.470588235294  C 162.5450590643 307.470588235294  609 307.470588235294  609 307.470588235294  C 609 307.470588235294  609 253  609 253  C 609 253  1 253  1 253  C 1 253  1 307.470588235294  1 307.470588235294  Z " fill-rule="nonzero" fill="#797979" stroke="none" />
  </g>
</svg>