<?xml version="1.0" encoding="utf-8"?>
<svg version="1.1" xmlns:xlink="http://www.w3.org/1999/xlink" width="182px" height="96px" xmlns="http://www.w3.org/2000/svg">
  <g transform="matrix(1 0 0 1 -211 -614 )">
    <path d="M 302 707.151115991922  C 266.6 684.246840610414  213.5 670.504275381508  213.5 647.6  C 213.5 636.048571428571  231.2 616.5  302 616.5  C 372.8 616.5  390.5 636.048571428571  390.5 647.6  C 390.5 670.504275381508  337.4 684.246840610414  302 707.151115991922  Z " fill-rule="nonzero" fill="#ffffff" stroke="none" />
    <path d="M 302 710  C 265.6 686  211 671.6  211 647.6  C 211 635.12  229.2 614  302 614  C 374.8 614  393 635.12  393 647.6  C 393 671.6  338.4 686  302 710  Z M 302 706.581339190307  C 337.2 683.896208732496  390 670.28513045781  390 647.6  C 390 636.234285714286  372.4 617  302 617  C 231.6 617  214 636.234285714286  214 647.6  C 214 670.28513045781  266.8 683.896208732496  302 706.581339190307  Z " fill-rule="nonzero" fill="#797979" stroke="none" />
  </g>
</svg>