<?xml version="1.0" encoding="utf-8"?>
<svg version="1.1" xmlns:xlink="http://www.w3.org/1999/xlink" width="140px" height="74px" xmlns="http://www.w3.org/2000/svg">
  <g transform="matrix(1 0 0 1 -85 -948 )">
    <path d="M 155 1021.42968688739  C 127.2 1003.14903808455  85.5 992.180648802842  85.5 973.9  C 85.5 964.465714285714  99.4 948.5  155 948.5  C 210.6 948.5  224.5 964.465714285714  224.5 973.9  C 224.5 992.180648802842  182.8 1003.14903808455  155 1021.42968688739  Z " fill-rule="nonzero" fill="#ffffff" stroke="none" />
    <path d="M 155 1022  C 127 1003.5  85 992.4  85 973.9  C 85 964.28  99 948  155 948  C 211 948  225 964.28  225 973.9  C 225 992.4  183 1003.5  155 1022  Z M 155 1020.85937377478  C 182.6 1002.79807616909  224 991.961297605684  224 973.9  C 224 964.651428571429  210.2 949  155 949  C 99.8 949  86 964.651428571429  86 973.9  C 86 991.961297605684  127.4 1002.79807616909  155 1020.85937377478  Z " fill-rule="nonzero" fill="#797979" stroke="none" />
  </g>
</svg>