<?xml version="1.0" encoding="utf-8"?>
<svg version="1.1" xmlns:xlink="http://www.w3.org/1999/xlink" width="294px" height="294px" xmlns="http://www.w3.org/2000/svg">
  <g transform="matrix(1 0 0 1 -157 -550 )">
    <path d="M 304 552  C 385.2 552  449 615.8  449 697  C 449 778.2  385.2 842  304 842  C 222.8 842  159 778.2  159 697  C 159 615.8  222.8 552  304 552  Z " fill-rule="nonzero" fill="#ffffff" stroke="none" />
    <path d="M 304 551.5  C 385.48 551.5  449.5 615.52  449.5 697  C 449.5 778.48  385.48 842.5  304 842.5  C 222.52 842.5  158.5 778.48  158.5 697  C 158.5 615.52  222.52 551.5  304 551.5  Z " stroke-width="3" stroke="#797979" fill="none" />
  </g>
</svg>