<?xml version="1.0" encoding="utf-8"?>
<svg version="1.1" xmlns:xlink="http://www.w3.org/1999/xlink" width="356px" height="178px" xmlns="http://www.w3.org/2000/svg">
  <g transform="matrix(1 0 0 1 -11 -3331 )">
    <path d="M 189 3331  C 288.68 3331  367 3370.16  367 3420  C 367 3469.84  288.68 3509  189 3509  C 89.32 3509  11 3469.84  11 3420  C 11 3370.16  89.32 3331  189 3331  Z " fill-rule="nonzero" fill="#ffffff" stroke="none" />
    <path d="M 189 3331.5  C 288.4 3331.5  366.5 3370.44  366.5 3420  C 366.5 3469.56  288.4 3508.5  189 3508.5  C 89.6 3508.5  11.5 3469.56  11.5 3420  C 11.5 3370.44  89.6 3331.5  189 3331.5  Z " stroke-width="1" stroke="#797979" fill="none" />
  </g>
</svg>