<?xml version="1.0" encoding="utf-8"?>
<svg version="1.1" xmlns:xlink="http://www.w3.org/1999/xlink" width="182px" height="96px" xmlns="http://www.w3.org/2000/svg">
  <g transform="matrix(1 0 0 1 -211 -718 )">
    <path d="M 302 811.151115991922  C 266.6 788.246840610414  213.5 774.504275381508  213.5 751.6  C 213.5 740.048571428571  231.2 720.5  302 720.5  C 372.8 720.5  390.5 740.048571428571  390.5 751.6  C 390.5 774.504275381508  337.4 788.246840610414  302 811.151115991922  Z " fill-rule="nonzero" fill="#ffffff" stroke="none" />
    <path d="M 302 814  C 265.6 790  211 775.6  211 751.6  C 211 739.12  229.2 718  302 718  C 374.8 718  393 739.12  393 751.6  C 393 775.6  338.4 790  302 814  Z M 302 810.581339190307  C 337.2 787.896208732496  390 774.28513045781  390 751.6  C 390 740.234285714286  372.4 721  302 721  C 231.6 721  214 740.234285714286  214 751.6  C 214 774.28513045781  266.8 787.896208732496  302 810.581339190307  Z " fill-rule="nonzero" fill="#797979" stroke="none" />
  </g>
</svg>