<?xml version="1.0" encoding="utf-8"?>
<svg version="1.1" xmlns:xlink="http://www.w3.org/1999/xlink" width="182px" height="182px" xmlns="http://www.w3.org/2000/svg">
  <g transform="matrix(1 0 0 1 -211 -581 )">
    <path d="M 302 583  C 351.84 583  391 622.16  391 672  C 391 721.84  351.84 761  302 761  C 252.16 761  213 721.84  213 672  C 213 622.16  252.16 583  302 583  Z " fill-rule="nonzero" fill="#ffffff" stroke="none" />
    <path d="M 302 582.5  C 352.12 582.5  391.5 621.88  391.5 672  C 391.5 722.12  352.12 761.5  302 761.5  C 251.88 761.5  212.5 722.12  212.5 672  C 212.5 621.88  251.88 582.5  302 582.5  Z " stroke-width="3" stroke="#797979" fill="none" />
  </g>
</svg>