<?xml version="1.0" encoding="utf-8"?>
<svg version="1.1" xmlns:xlink="http://www.w3.org/1999/xlink" width="294px" height="294px" xmlns="http://www.w3.org/2000/svg">
  <g transform="matrix(1 0 0 1 -157 -446 )">
    <path d="M 304 448  C 385.2 448  449 511.8  449 593  C 449 674.2  385.2 738  304 738  C 222.8 738  159 674.2  159 593  C 159 511.8  222.8 448  304 448  Z " fill-rule="nonzero" fill="#ffffff" stroke="none" />
    <path d="M 304 447.5  C 385.48 447.5  449.5 511.52  449.5 593  C 449.5 674.48  385.48 738.5  304 738.5  C 222.52 738.5  158.5 674.48  158.5 593  C 158.5 511.52  222.52 447.5  304 447.5  Z " stroke-width="3" stroke="#797979" fill="none" />
  </g>
</svg>