<?xml version="1.0" encoding="utf-8"?>
<svg version="1.1" xmlns:xlink="http://www.w3.org/1999/xlink" width="227px" height="227px" xmlns="http://www.w3.org/2000/svg">
  <g transform="matrix(1 0 0 1 -43 -923 )">
    <path d="M 156.5 923  C 220.06 923  270 972.94  270 1036.5  C 270 1100.06  220.06 1150  156.5 1150  C 92.94 1150  43 1100.06  43 1036.5  C 43 972.94  92.94 923  156.5 923  Z " fill-rule="nonzero" fill="#ffffff" stroke="none" />
    <path d="M 156.5 923.5  C 219.78 923.5  269.5 973.22  269.5 1036.5  C 269.5 1099.78  219.78 1149.5  156.5 1149.5  C 93.22 1149.5  43.5 1099.78  43.5 1036.5  C 43.5 973.22  93.22 923.5  156.5 923.5  Z " stroke-width="1" stroke="#797979" fill="none" />
  </g>
</svg>