<?xml version="1.0" encoding="utf-8"?>
<svg version="1.1" xmlns:xlink="http://www.w3.org/1999/xlink" width="140px" height="74px" xmlns="http://www.w3.org/2000/svg">
  <g transform="matrix(1 0 0 1 -85 -1052 )">
    <path d="M 155 1125.42968688739  C 127.2 1107.14903808455  85.5 1096.18064880284  85.5 1077.9  C 85.5 1068.46571428571  99.4 1052.5  155 1052.5  C 210.6 1052.5  224.5 1068.46571428571  224.5 1077.9  C 224.5 1096.18064880284  182.8 1107.14903808455  155 1125.42968688739  Z " fill-rule="nonzero" fill="#ffffff" stroke="none" />
    <path d="M 155 1126  C 127 1107.5  85 1096.4  85 1077.9  C 85 1068.28  99 1052  155 1052  C 211 1052  225 1068.28  225 1077.9  C 225 1096.4  183 1107.5  155 1126  Z M 155 1124.85937377478  C 182.6 1106.79807616909  224 1095.96129760568  224 1077.9  C 224 1068.65142857143  210.2 1053  155 1053  C 99.8 1053  86 1068.65142857143  86 1077.9  C 86 1095.96129760568  127.4 1106.79807616909  155 1124.85937377478  Z " fill-rule="nonzero" fill="#797979" stroke="none" />
  </g>
</svg>