<?xml version="1.0" encoding="utf-8"?>
<svg version="1.1" xmlns:xlink="http://www.w3.org/1999/xlink" width="140px" height="140px" xmlns="http://www.w3.org/2000/svg">
  <g transform="matrix(1 0 0 1 -85 -947 )">
    <path d="M 155 947  C 194.2 947  225 977.8  225 1017  C 225 1056.2  194.2 1087  155 1087  C 115.8 1087  85 1056.2  85 1017  C 85 977.8  115.8 947  155 947  Z " fill-rule="nonzero" fill="#ffffff" stroke="none" />
    <path d="M 155 947.5  C 193.92 947.5  224.5 978.08  224.5 1017  C 224.5 1055.92  193.92 1086.5  155 1086.5  C 116.08 1086.5  85.5 1055.92  85.5 1017  C 85.5 978.08  116.08 947.5  155 947.5  Z " stroke-width="1" stroke="#797979" fill="none" />
  </g>
</svg>