<?xml version="1.0" encoding="utf-8"?>
<svg version="1.1" xmlns:xlink="http://www.w3.org/1999/xlink" width="140px" height="140px" xmlns="http://www.w3.org/2000/svg">
  <g transform="matrix(1 0 0 1 -85 -843 )">
    <path d="M 155 843  C 194.2 843  225 873.8  225 913  C 225 952.2  194.2 983  155 983  C 115.8 983  85 952.2  85 913  C 85 873.8  115.8 843  155 843  Z " fill-rule="nonzero" fill="#ffffff" stroke="none" />
    <path d="M 155 843.5  C 193.92 843.5  224.5 874.08  224.5 913  C 224.5 951.92  193.92 982.5  155 982.5  C 116.08 982.5  85.5 951.92  85.5 913  C 85.5 874.08  116.08 843.5  155 843.5  Z " stroke-width="1" stroke="#797979" fill="none" />
  </g>
</svg>