<?xml version="1.0" encoding="utf-8"?>
<svg version="1.1" xmlns:xlink="http://www.w3.org/1999/xlink" width="170px" height="424px" xmlns="http://www.w3.org/2000/svg">
  <g transform="matrix(1 0 0 1 -77 -1494 )">
    <path d="M 162 1494  C 209.6 1494  247 1587.28  247 1706  C 247 1824.72  209.6 1918  162 1918  C 114.4 1918  77 1824.72  77 1706  C 77 1587.28  114.4 1494  162 1494  Z " fill-rule="nonzero" fill="#ffffff" stroke="none" />
    <path d="M 162 1494.5  C 209.32 1494.5  246.5 1587.56  246.5 1706  C 246.5 1824.44  209.32 1917.5  162 1917.5  C 114.68 1917.5  77.5 1824.44  77.5 1706  C 77.5 1587.56  114.68 1494.5  162 1494.5  Z " stroke-width="1" stroke="#797979" fill="none" />
  </g>
</svg>