<?xml version="1.0" encoding="utf-8"?>
<svg version="1.1" xmlns:xlink="http://www.w3.org/1999/xlink" width="170px" height="170px" xmlns="http://www.w3.org/2000/svg">
  <g transform="matrix(1 0 0 1 -77 -1352 )">
    <path d="M 162 1352  C 209.6 1352  247 1389.4  247 1437  C 247 1484.6  209.6 1522  162 1522  C 114.4 1522  77 1484.6  77 1437  C 77 1389.4  114.4 1352  162 1352  Z " fill-rule="nonzero" fill="#ffffff" stroke="none" />
    <path d="M 162 1352.5  C 209.32 1352.5  246.5 1389.68  246.5 1437  C 246.5 1484.32  209.32 1521.5  162 1521.5  C 114.68 1521.5  77.5 1484.32  77.5 1437  C 77.5 1389.68  114.68 1352.5  162 1352.5  Z " stroke-width="1" stroke="#797979" fill="none" />
  </g>
</svg>