<?xml version="1.0" encoding="utf-8"?>
<svg version="1.1" xmlns:xlink="http://www.w3.org/1999/xlink" width="170px" height="424px" xmlns="http://www.w3.org/2000/svg">
  <g transform="matrix(1 0 0 1 -77 -1390 )">
    <path d="M 162 1390  C 209.6 1390  247 1483.28  247 1602  C 247 1720.72  209.6 1814  162 1814  C 114.4 1814  77 1720.72  77 1602  C 77 1483.28  114.4 1390  162 1390  Z " fill-rule="nonzero" fill="#ffffff" stroke="none" />
    <path d="M 162 1390.5  C 209.32 1390.5  246.5 1483.56  246.5 1602  C 246.5 1720.44  209.32 1813.5  162 1813.5  C 114.68 1813.5  77.5 1720.44  77.5 1602  C 77.5 1483.56  114.68 1390.5  162 1390.5  Z " stroke-width="1" stroke="#797979" fill="none" />
  </g>
</svg>