<?xml version="1.0" encoding="utf-8"?>
<svg version="1.1" xmlns:xlink="http://www.w3.org/1999/xlink" width="170px" height="170px" xmlns="http://www.w3.org/2000/svg">
  <g transform="matrix(1 0 0 1 -77 -1248 )">
    <path d="M 162 1248  C 209.6 1248  247 1285.4  247 1333  C 247 1380.6  209.6 1418  162 1418  C 114.4 1418  77 1380.6  77 1333  C 77 1285.4  114.4 1248  162 1248  Z " fill-rule="nonzero" fill="#ffffff" stroke="none" />
    <path d="M 162 1248.5  C 209.32 1248.5  246.5 1285.68  246.5 1333  C 246.5 1380.32  209.32 1417.5  162 1417.5  C 114.68 1417.5  77.5 1380.32  77.5 1333  C 77.5 1285.68  114.68 1248.5  162 1248.5  Z " stroke-width="1" stroke="#797979" fill="none" />
  </g>
</svg>