<?xml version="1.0" encoding="utf-8"?>
<svg version="1.1" xmlns:xlink="http://www.w3.org/1999/xlink" width="49px" height="49px" xmlns="http://www.w3.org/2000/svg">
  <g transform="matrix(1 0 0 1 -69 -2082 )">
    <path d="M 93.5 2082  C 107.22 2082  118 2092.78  118 2106.5  C 118 2120.22  107.22 2131  93.5 2131  C 79.78 2131  69 2120.22  69 2106.5  C 69 2092.78  79.78 2082  93.5 2082  Z " fill-rule="nonzero" fill="#ffffff" stroke="none" />
    <path d="M 93.5 2082.5  C 106.94 2082.5  117.5 2093.06  117.5 2106.5  C 117.5 2119.94  106.94 2130.5  93.5 2130.5  C 80.06 2130.5  69.5 2119.94  69.5 2106.5  C 69.5 2093.06  80.06 2082.5  93.5 2082.5  Z " stroke-width="1" stroke="#797979" fill="none" />
  </g>
</svg>