<?xml version="1.0" encoding="utf-8"?>
<svg version="1.1" xmlns:xlink="http://www.w3.org/1999/xlink" width="49px" height="49px" xmlns="http://www.w3.org/2000/svg">
  <g transform="matrix(1 0 0 1 -69 -1978 )">
    <path d="M 93.5 1978  C 107.22 1978  118 1988.78  118 2002.5  C 118 2016.22  107.22 2027  93.5 2027  C 79.78 2027  69 2016.22  69 2002.5  C 69 1988.78  79.78 1978  93.5 1978  Z " fill-rule="nonzero" fill="#ffffff" stroke="none" />
    <path d="M 93.5 1978.5  C 106.94 1978.5  117.5 1989.06  117.5 2002.5  C 117.5 2015.94  106.94 2026.5  93.5 2026.5  C 80.06 2026.5  69.5 2015.94  69.5 2002.5  C 69.5 1989.06  80.06 1978.5  93.5 1978.5  Z " stroke-width="1" stroke="#797979" fill="none" />
  </g>
</svg>