<?xml version="1.0" encoding="utf-8"?>
<svg version="1.1" xmlns:xlink="http://www.w3.org/1999/xlink" width="29px" height="29px" xmlns="http://www.w3.org/2000/svg">
  <g transform="matrix(1 0 0 1 -9 -844 )">
    <path d="M 23.5 844  C 31.62 844  38 850.38  38 858.5  C 38 866.62  31.62 873  23.5 873  C 15.38 873  9 866.62  9 858.5  C 9 850.38  15.38 844  23.5 844  Z " fill-rule="nonzero" fill="#ffffff" stroke="none" />
    <path d="M 23.5 844.5  C 31.34 844.5  37.5 850.66  37.5 858.5  C 37.5 866.34  31.34 872.5  23.5 872.5  C 15.66 872.5  9.5 866.34  9.5 858.5  C 9.5 850.66  15.66 844.5  23.5 844.5  Z " stroke-width="1" stroke="#797979" fill="none" />
  </g>
</svg>