<?xml version="1.0" encoding="utf-8"?>
<svg version="1.1" xmlns:xlink="http://www.w3.org/1999/xlink" width="356px" height="178px" xmlns="http://www.w3.org/2000/svg">
  <g transform="matrix(1 0 0 1 -11 -2699 )">
    <path d="M 189 2699  C 288.68 2699  367 2738.16  367 2788  C 367 2837.84  288.68 2877  189 2877  C 89.32 2877  11 2837.84  11 2788  C 11 2738.16  89.32 2699  189 2699  Z " fill-rule="nonzero" fill="#ffffff" stroke="none" />
    <path d="M 189 2699.5  C 288.4 2699.5  366.5 2738.44  366.5 2788  C 366.5 2837.56  288.4 2876.5  189 2876.5  C 89.6 2876.5  11.5 2837.56  11.5 2788  C 11.5 2738.44  89.6 2699.5  189 2699.5  Z " stroke-width="1" stroke="#797979" fill="none" />
  </g>
</svg>