<?xml version="1.0" encoding="utf-8"?>
<svg version="1.1" xmlns:xlink="http://www.w3.org/1999/xlink" width="33px" height="33px" xmlns="http://www.w3.org/2000/svg">
  <g transform="matrix(1 0 0 1 -207 -5193 )">
    <path d="M 223.5 5193  C 232.74 5193  240 5200.26  240 5209.5  C 240 5218.74  232.74 5226  223.5 5226  C 214.26 5226  207 5218.74  207 5209.5  C 207 5200.26  214.26 5193  223.5 5193  Z " fill-rule="nonzero" fill="#ffffff" stroke="none" />
    <path d="M 223.5 5193.5  C 232.46 5193.5  239.5 5200.54  239.5 5209.5  C 239.5 5218.46  232.46 5225.5  223.5 5225.5  C 214.54 5225.5  207.5 5218.46  207.5 5209.5  C 207.5 5200.54  214.54 5193.5  223.5 5193.5  Z " stroke-width="1" stroke="#797979" fill="none" />
  </g>
</svg>