<?xml version="1.0" encoding="utf-8"?>
<svg version="1.1" xmlns:xlink="http://www.w3.org/1999/xlink" width="356px" height="178px" xmlns="http://www.w3.org/2000/svg">
  <g transform="matrix(1 0 0 1 -11 -2803 )">
    <path d="M 189 2803  C 288.68 2803  367 2842.16  367 2892  C 367 2941.84  288.68 2981  189 2981  C 89.32 2981  11 2941.84  11 2892  C 11 2842.16  89.32 2803  189 2803  Z " fill-rule="nonzero" fill="#ffffff" stroke="none" />
    <path d="M 189 2803.5  C 288.4 2803.5  366.5 2842.44  366.5 2892  C 366.5 2941.56  288.4 2980.5  189 2980.5  C 89.6 2980.5  11.5 2941.56  11.5 2892  C 11.5 2842.44  89.6 2803.5  189 2803.5  Z " stroke-width="1" stroke="#797979" fill="none" />
  </g>
</svg>