<?xml version="1.0" encoding="utf-8"?>
<svg version="1.1" xmlns:xlink="http://www.w3.org/1999/xlink" width="180px" height="180px" xmlns="http://www.w3.org/2000/svg">
  <g transform="matrix(1 0 0 1 -246 -1961 )">
    <path d="M 336 1961  C 386.4 1961  426 2000.6  426 2051  C 426 2101.4  386.4 2141  336 2141  C 285.6 2141  246 2101.4  246 2051  C 246 2000.6  285.6 1961  336 1961  Z " fill-rule="nonzero" fill="#ffffff" stroke="none" />
    <path d="M 336 1961.5  C 386.12 1961.5  425.5 2000.88  425.5 2051  C 425.5 2101.12  386.12 2140.5  336 2140.5  C 285.88 2140.5  246.5 2101.12  246.5 2051  C 246.5 2000.88  285.88 1961.5  336 1961.5  Z " stroke-width="1" stroke="#797979" fill="none" />
  </g>
</svg>