<?xml version="1.0" encoding="utf-8"?>
<svg version="1.1" xmlns:xlink="http://www.w3.org/1999/xlink" width="152px" height="29px" xmlns="http://www.w3.org/2000/svg">
  <g transform="matrix(1 0 0 1 -787 -1722 )">
    <path d="M 927.729740339078 1722.5  C 927.729740339078 1722.5  930.039302845538 1722.72032010752  930.039302845538 1722.72032010752  C 930.039302845538 1722.72032010752  938.467919922625 1736.5  938.467919922625 1736.5  C 938.467919922625 1736.5  930.039302845538 1750.27967989248  930.039302845538 1750.27967989248  C 930.039302845538 1750.27967989248  927.729740339078 1750.5  927.729740339078 1750.5  C 927.729740339078 1750.5  787.5 1750.5  787.5 1750.5  C 787.5 1750.5  787.5 1722.5  787.5 1722.5  C 787.5 1722.5  927.729740339078 1722.5  927.729740339078 1722.5  Z " fill-rule="nonzero" fill="#ffffff" stroke="none" />
    <path d="M 927.729740339078 1722.5  C 927.729740339078 1722.5  930.039302845538 1722.72032010752  930.039302845538 1722.72032010752  C 930.039302845538 1722.72032010752  938.467919922625 1736.5  938.467919922625 1736.5  C 938.467919922625 1736.5  930.039302845538 1750.27967989248  930.039302845538 1750.27967989248  C 930.039302845538 1750.27967989248  927.729740339078 1750.5  927.729740339078 1750.5  C 927.729740339078 1750.5  787.5 1750.5  787.5 1750.5  C 787.5 1750.5  787.5 1722.5  787.5 1722.5  C 787.5 1722.5  927.729740339078 1722.5  927.729740339078 1722.5  Z " stroke-width="1" stroke="#797979" fill="none" />
  </g>
</svg>