<?xml version="1.0" encoding="utf-8"?>
<svg version="1.1" xmlns:xlink="http://www.w3.org/1999/xlink" width="35px" height="35px" xmlns="http://www.w3.org/2000/svg">
  <g transform="matrix(1 0 0 1 0 -160 )">
    <path d="M 17.5 160  C 27.3 160  35 167.7  35 177.5  C 35 187.3  27.3 195  17.5 195  C 7.7 195  0 187.3  0 177.5  C 0 167.7  7.7 160  17.5 160  Z " fill-rule="nonzero" fill="#ffffff" stroke="none" />
    <path d="M 17.5 160.5  C 27.02 160.5  34.5 167.98  34.5 177.5  C 34.5 187.02  27.02 194.5  17.5 194.5  C 7.98 194.5  0.5 187.02  0.5 177.5  C 0.5 167.98  7.98 160.5  17.5 160.5  Z " stroke-width="1" stroke="#797979" fill="none" />
  </g>
</svg>