<?xml version="1.0" encoding="utf-8"?>
<svg version="1.1" xmlns:xlink="http://www.w3.org/1999/xlink" width="85px" height="16px" xmlns="http://www.w3.org/2000/svg">
  <defs>
    <mask fill="white" id="clip6">
      <path d="M 0 11  L 0 5  C 0 2.19999999999982  1.33571428571431 0  3.03571428571429 0  L 81.9642857142857 0  C 83.6642857142857 0  85 2.19999999999982  85 5  L 85 11  C 85 13.8000000000002  83.6642857142857 16  81.9642857142857 16  L 66.1785714285714 16  L 3.03571428571429 16  C 1.33571428571431 16  0 13.8000000000002  0 11  Z " fill-rule="evenodd" />
    </mask>
  </defs>
  <g transform="matrix(1 0 0 1 -967 -2744 )">
    <path d="M 0 11  L 0 5  C 0 2.19999999999982  1.33571428571431 0  3.03571428571429 0  L 81.9642857142857 0  C 83.6642857142857 0  85 2.19999999999982  85 5  L 85 11  C 85 13.8000000000002  83.6642857142857 16  81.9642857142857 16  L 66.1785714285714 16  L 3.03571428571429 16  C 1.33571428571431 16  0 13.8000000000002  0 11  Z " fill-rule="nonzero" fill="#ffffff" stroke="none" transform="matrix(1 0 0 1 967 2744 )" />
    <path d="M 0 11  L 0 5  C 0 2.19999999999982  1.33571428571431 0  3.03571428571429 0  L 81.9642857142857 0  C 83.6642857142857 0  85 2.19999999999982  85 5  L 85 11  C 85 13.8000000000002  83.6642857142857 16  81.9642857142857 16  L 66.1785714285714 16  L 3.03571428571429 16  C 1.33571428571431 16  0 13.8000000000002  0 11  Z " stroke-width="2" stroke="#797979" fill="none" transform="matrix(1 0 0 1 967 2744 )" mask="url(#clip6)" />
  </g>
</svg>