<?xml version="1.0" encoding="utf-8"?>
<svg version="1.1" xmlns:xlink="http://www.w3.org/1999/xlink" width="85px" height="30px" xmlns="http://www.w3.org/2000/svg">
  <defs>
    <mask fill="white" id="clip30">
      <path d="M 0 20.625  L 0 9.375  C 0 4.12499999999966  1.33571428571431 0  3.03571428571429 0  L 81.9642857142857 0  C 83.6642857142857 0  85 4.12499999999966  85 9.375  L 85 20.625  C 85 25.8750000000003  83.6642857142857 30  81.9642857142857 30  L 66.1785714285714 30  L 3.03571428571429 30  C 1.33571428571431 30  0 25.8750000000003  0 20.625  Z " fill-rule="evenodd" />
    </mask>
  </defs>
  <g transform="matrix(1 0 0 1 -967 -2733 )">
    <path d="M 0 20.625  L 0 9.375  C 0 4.12499999999966  1.33571428571431 0  3.03571428571429 0  L 81.9642857142857 0  C 83.6642857142857 0  85 4.12499999999966  85 9.375  L 85 20.625  C 85 25.8750000000003  83.6642857142857 30  81.9642857142857 30  L 66.1785714285714 30  L 3.03571428571429 30  C 1.33571428571431 30  0 25.8750000000003  0 20.625  Z " fill-rule="nonzero" fill="#ffffff" stroke="none" transform="matrix(1 0 0 1 967 2733 )" />
    <path d="M 0 20.625  L 0 9.375  C 0 4.12499999999966  1.33571428571431 0  3.03571428571429 0  L 81.9642857142857 0  C 83.6642857142857 0  85 4.12499999999966  85 9.375  L 85 20.625  C 85 25.8750000000003  83.6642857142857 30  81.9642857142857 30  L 66.1785714285714 30  L 3.03571428571429 30  C 1.33571428571431 30  0 25.8750000000003  0 20.625  Z " stroke-width="2" stroke="#797979" fill="none" transform="matrix(1 0 0 1 967 2733 )" mask="url(#clip30)" />
  </g>
</svg>