<?xml version="1.0" encoding="utf-8"?>
<svg version="1.1" xmlns:xlink="http://www.w3.org/1999/xlink" width="47px" height="47px" xmlns="http://www.w3.org/2000/svg">
  <g transform="matrix(1 0 0 1 -101 -2666 )">
    <path d="M 124.5 2666  C 137.66 2666  148 2676.34  148 2689.5  C 148 2702.66  137.66 2713  124.5 2713  C 111.34 2713  101 2702.66  101 2689.5  C 101 2676.34  111.34 2666  124.5 2666  Z " fill-rule="nonzero" fill="#ffffff" stroke="none" />
    <path d="M 124.5 2666.5  C 137.38 2666.5  147.5 2676.62  147.5 2689.5  C 147.5 2702.38  137.38 2712.5  124.5 2712.5  C 111.62 2712.5  101.5 2702.38  101.5 2689.5  C 101.5 2676.62  111.62 2666.5  124.5 2666.5  Z " stroke-width="1" stroke="#797979" fill="none" />
  </g>
</svg>