<?xml version="1.0" encoding="utf-8"?>
<svg version="1.1" xmlns:xlink="http://www.w3.org/1999/xlink" width="47px" height="47px" xmlns="http://www.w3.org/2000/svg">
  <defs>
    <mask fill="white" id="clip45">
      <path d="M 47 30.55  C 47 18.8  32.9 11.75  23.5 0  C 14.1 11.75  0 18.8  0 30.55  C 0 36.66  4.7 47  23.5 47  C 42.3 47  47 36.66  47 30.55  Z " fill-rule="evenodd" />
    </mask>
  </defs>
  <g transform="matrix(1 0 0 1 -101 -2705 )">
    <path d="M 47 30.55  C 47 18.8  32.9 11.75  23.5 0  C 14.1 11.75  0 18.8  0 30.55  C 0 36.66  4.7 47  23.5 47  C 42.3 47  47 36.66  47 30.55  Z " fill-rule="nonzero" fill="#ffffff" stroke="none" transform="matrix(1 0 0 1 101 2705 )" />
    <path d="M 47 30.55  C 47 18.8  32.9 11.75  23.5 0  C 14.1 11.75  0 18.8  0 30.55  C 0 36.66  4.7 47  23.5 47  C 42.3 47  47 36.66  47 30.55  Z " stroke-width="2" stroke="#797979" fill="none" transform="matrix(1 0 0 1 101 2705 )" mask="url(#clip45)" />
  </g>
</svg>