<?xml version="1.0" encoding="utf-8"?>
<svg version="1.1" xmlns:xlink="http://www.w3.org/1999/xlink" width="170px" height="170px" xmlns="http://www.w3.org/2000/svg">
  <g transform="matrix(1 0 0 1 -124 -2424 )">
    <path d="M 209 2424  C 256.6 2424  294 2461.4  294 2509  C 294 2556.6  256.6 2594  209 2594  C 161.4 2594  124 2556.6  124 2509  C 124 2461.4  161.4 2424  209 2424  Z " fill-rule="nonzero" fill="#ffffff" stroke="none" />
    <path d="M 209 2424.5  C 256.32 2424.5  293.5 2461.68  293.5 2509  C 293.5 2556.32  256.32 2593.5  209 2593.5  C 161.68 2593.5  124.5 2556.32  124.5 2509  C 124.5 2461.68  161.68 2424.5  209 2424.5  Z " stroke-width="1" stroke="#797979" fill="none" />
  </g>
</svg>