<?xml version="1.0" encoding="utf-8"?>
<svg version="1.1" xmlns:xlink="http://www.w3.org/1999/xlink" width="123px" height="123px" xmlns="http://www.w3.org/2000/svg">
  <defs>
    <mask fill="white" id="clip124">
      <path d="M 123 79.95  C 123 49.2  86.1 30.75  61.5 0  C 36.9 30.75  0 49.2  0 79.95  C 0 95.94  12.3 123  61.5 123  C 110.7 123  123 95.94  123 79.95  Z " fill-rule="evenodd" />
    </mask>
  </defs>
  <g transform="matrix(1 0 0 1 -147 -2537 )">
    <path d="M 123 79.95  C 123 49.2  86.1 30.75  61.5 0  C 36.9 30.75  0 49.2  0 79.95  C 0 95.94  12.3 123  61.5 123  C 110.7 123  123 95.94  123 79.95  Z " fill-rule="nonzero" fill="#ffffff" stroke="none" transform="matrix(1 0 0 1 147 2537 )" />
    <path d="M 123 79.95  C 123 49.2  86.1 30.75  61.5 0  C 36.9 30.75  0 49.2  0 79.95  C 0 95.94  12.3 123  61.5 123  C 110.7 123  123 95.94  123 79.95  Z " stroke-width="2" stroke="#797979" fill="none" transform="matrix(1 0 0 1 147 2537 )" mask="url(#clip124)" />
  </g>
</svg>