<?xml version="1.0" encoding="utf-8"?>
<svg version="1.1" xmlns:xlink="http://www.w3.org/1999/xlink" width="123px" height="123px" xmlns="http://www.w3.org/2000/svg">
  <g transform="matrix(1 0 0 1 -147 -2435 )">
    <path d="M 208.5 2435  C 242.94 2435  270 2462.06  270 2496.5  C 270 2530.94  242.94 2558  208.5 2558  C 174.06 2558  147 2530.94  147 2496.5  C 147 2462.06  174.06 2435  208.5 2435  Z " fill-rule="nonzero" fill="#ffffff" stroke="none" />
    <path d="M 208.5 2435.5  C 242.66 2435.5  269.5 2462.34  269.5 2496.5  C 269.5 2530.66  242.66 2557.5  208.5 2557.5  C 174.34 2557.5  147.5 2530.66  147.5 2496.5  C 147.5 2462.34  174.34 2435.5  208.5 2435.5  Z " stroke-width="1" stroke="#797979" fill="none" />
  </g>
</svg>