<?xml version="1.0" encoding="utf-8"?>
<svg version="1.1" xmlns:xlink="http://www.w3.org/1999/xlink" width="60px" height="60px" xmlns="http://www.w3.org/2000/svg">
  <g transform="matrix(1 0 0 1 -282 -2379 )">
    <path d="M 312 2379  C 328.8 2379  342 2392.2  342 2409  C 342 2425.8  328.8 2439  312 2439  C 295.2 2439  282 2425.8  282 2409  C 282 2392.2  295.2 2379  312 2379  Z " fill-rule="nonzero" fill="#02a7f0" stroke="none" />
    <path d="M 312 2379.5  C 328.52 2379.5  341.5 2392.48  341.5 2409  C 341.5 2425.52  328.52 2438.5  312 2438.5  C 295.48 2438.5  282.5 2425.52  282.5 2409  C 282.5 2392.48  295.48 2379.5  312 2379.5  Z " stroke-width="1" stroke="#797979" fill="none" />
  </g>
</svg>