<?xml version="1.0" encoding="utf-8"?>
<svg version="1.1" xmlns:xlink="http://www.w3.org/1999/xlink" width="196px" height="96px" xmlns="http://www.w3.org/2000/svg">
  <defs>
    <mask fill="white" id="clip151">
      <path d="M 59 3.74468085106383  C 59.0227272727273 1.86456255376756  61.5156871884422 0.340425531914894  64.5909090909091 0.340425531914894  L 189.875 0.340425531914894  C 192.950221902467 0.340425531914894  195.443181818182 1.86456255376756  195.443181818182 3.74468085106383  L 195.443181818182 92.2553191489362  C 195.443181818182 94.1354374462324  192.950221902467 95.6595744680851  189.875 95.6595744680851  L 64.5909090909091 95.6595744680851  C 61.5156871884422 95.6595744680851  59.0227272727273 94.1354374462324  59 92.2553191489362  L 59 39.8297872340426  L 0.556818181818182 29.6170212765957  L 59 19.4042553191489  L 59 3.74468085106383  Z " fill-rule="evenodd" />
    </mask>
  </defs>
  <g transform="matrix(1 0 0 1 -329 -2445 )">
    <path d="M 59 3.74468085106383  C 59.0227272727273 1.86456255376756  61.5156871884422 0.340425531914894  64.5909090909091 0.340425531914894  L 189.875 0.340425531914894  C 192.950221902467 0.340425531914894  195.443181818182 1.86456255376756  195.443181818182 3.74468085106383  L 195.443181818182 92.2553191489362  C 195.443181818182 94.1354374462324  192.950221902467 95.6595744680851  189.875 95.6595744680851  L 64.5909090909091 95.6595744680851  C 61.5156871884422 95.6595744680851  59.0227272727273 94.1354374462324  59 92.2553191489362  L 59 39.8297872340426  L 0.556818181818182 29.6170212765957  L 59 19.4042553191489  L 59 3.74468085106383  Z " fill-rule="nonzero" fill="#ffffff" stroke="none" transform="matrix(1 0 0 1 329 2445 )" />
    <path d="M 59 3.74468085106383  C 59.0227272727273 1.86456255376756  61.5156871884422 0.340425531914894  64.5909090909091 0.340425531914894  L 189.875 0.340425531914894  C 192.950221902467 0.340425531914894  195.443181818182 1.86456255376756  195.443181818182 3.74468085106383  L 195.443181818182 92.2553191489362  C 195.443181818182 94.1354374462324  192.950221902467 95.6595744680851  189.875 95.6595744680851  L 64.5909090909091 95.6595744680851  C 61.5156871884422 95.6595744680851  59.0227272727273 94.1354374462324  59 92.2553191489362  L 59 39.8297872340426  L 0.556818181818182 29.6170212765957  L 59 19.4042553191489  L 59 3.74468085106383  Z " stroke-width="2" stroke="#797979" fill="none" transform="matrix(1 0 0 1 329 2445 )" mask="url(#clip151)" />
  </g>
</svg>