<?xml version="1.0" encoding="utf-8"?>
<svg version="1.1" xmlns:xlink="http://www.w3.org/1999/xlink" width="60px" height="60px" xmlns="http://www.w3.org/2000/svg">
  <g transform="matrix(1 0 0 1 -94 -2035 )">
    <path d="M 124 2035  C 140.8 2035  154 2048.2  154 2065  C 154 2081.8  140.8 2095  124 2095  C 107.2 2095  94 2081.8  94 2065  C 94 2048.2  107.2 2035  124 2035  Z " fill-rule="nonzero" fill="#ffffff" stroke="none" />
    <path d="M 124 2035.5  C 140.52 2035.5  153.5 2048.48  153.5 2065  C 153.5 2081.52  140.52 2094.5  124 2094.5  C 107.48 2094.5  94.5 2081.52  94.5 2065  C 94.5 2048.48  107.48 2035.5  124 2035.5  Z " stroke-width="1" stroke="#797979" fill="none" />
  </g>
</svg>