<?xml version="1.0" encoding="utf-8"?>
<svg version="1.1" xmlns:xlink="http://www.w3.org/1999/xlink" width="158px" height="40px" xmlns="http://www.w3.org/2000/svg">
  <g transform="matrix(1 0 0 1 -253 -112 )">
    <path d="M 395.1934057978 112.5  C 395.1934057978 112.5  398.730271769262 112.94770455335  398.730271769262 112.94770455335  C 398.730271769262 112.94770455335  410.45856792733 132  410.45856792733 132  C 410.45856792733 132  398.730271769262 151.05229544665  398.730271769262 151.05229544665  C 398.730271769262 151.05229544665  395.1934057978 151.5  395.1934057978 151.5  C 395.1934057978 151.5  258 151.5  258 151.5  C 255.48 151.5  253.5 149.52  253.5 147  C 253.5 147  253.5 117  253.5 117  C 253.5 114.48  255.48 112.5  258 112.5  C 258 112.5  395.1934057978 112.5  395.1934057978 112.5  Z " fill-rule="nonzero" fill="#ffff80" stroke="none" />
    <path d="M 395.1934057978 112.5  C 395.1934057978 112.5  398.730271769262 112.94770455335  398.730271769262 112.94770455335  C 398.730271769262 112.94770455335  410.45856792733 132  410.45856792733 132  C 410.45856792733 132  398.730271769262 151.05229544665  398.730271769262 151.05229544665  C 398.730271769262 151.05229544665  395.1934057978 151.5  395.1934057978 151.5  C 395.1934057978 151.5  258 151.5  258 151.5  C 255.48 151.5  253.5 149.52  253.5 147  C 253.5 147  253.5 117  253.5 117  C 253.5 114.48  255.48 112.5  258 112.5  C 258 112.5  395.1934057978 112.5  395.1934057978 112.5  Z " stroke-width="1" stroke="#797979" fill="none" />
  </g>
</svg>