<?xml version="1.0" encoding="utf-8"?>
<svg version="1.1" xmlns:xlink="http://www.w3.org/1999/xlink" width="98px" height="32px" xmlns="http://www.w3.org/2000/svg">
  <g transform="matrix(1 0 0 1 -923 -65 )">
    <path d="M 935.700290070187 65.5  C 935.700290070187 65.5  932.87992869597 65.9604671631375  932.87992869597 65.9604671631375  C 932.87992869597 65.9604671631375  923.551610860448 81  923.551610860448 81  C 923.551610860448 81  932.87992869597 96.0395328368625  932.87992869597 96.0395328368625  C 932.87992869597 96.0395328368625  935.700290070187 96.5  935.700290070187 96.5  C 935.700290070187 96.5  1016 96.5  1016 96.5  C 1018.52 96.5  1020.5 94.52  1020.5 92  C 1020.5 92  1020.5 70  1020.5 70  C 1020.5 67.48  1018.52 65.5  1016 65.5  C 1016 65.5  935.700290070187 65.5  935.700290070187 65.5  Z " fill-rule="nonzero" fill="#ffffff" stroke="none" />
    <path d="M 935.700290070187 65.5  C 935.700290070187 65.5  932.87992869597 65.9604671631375  932.87992869597 65.9604671631375  C 932.87992869597 65.9604671631375  923.551610860448 81  923.551610860448 81  C 923.551610860448 81  932.87992869597 96.0395328368625  932.87992869597 96.0395328368625  C 932.87992869597 96.0395328368625  935.700290070187 96.5  935.700290070187 96.5  C 935.700290070187 96.5  1016 96.5  1016 96.5  C 1018.52 96.5  1020.5 94.52  1020.5 92  C 1020.5 92  1020.5 70  1020.5 70  C 1020.5 67.48  1018.52 65.5  1016 65.5  C 1016 65.5  935.700290070187 65.5  935.700290070187 65.5  Z " stroke-width="1" stroke="#797979" fill="none" />
  </g>
</svg>