<?xml version="1.0" encoding="utf-8"?>
<svg version="1.1" xmlns:xlink="http://www.w3.org/1999/xlink" width="62px" height="40px" xmlns="http://www.w3.org/2000/svg">
  <g transform="matrix(1 0 0 1 -849 -373 )">
    <path d="M 895 373  C 895 373  899 374.290322580645  899 374.290322580645  C 899 374.290322580645  911 393  911 393  C 911 393  899 411.709677419355  899 411.709677419355  C 899 411.709677419355  895 413  895 413  C 895 413  854 413  854 413  C 851.2 413  849 410.8  849 408  C 849 408  849 378  849 378  C 849 375.2  851.2 373  854 373  C 854 373  895 373  895 373  Z " fill-rule="nonzero" fill="#169bd5" stroke="none" />
  </g>
</svg>