<?xml version="1.0" encoding="utf-8"?>
<svg version="1.1" xmlns:xlink="http://www.w3.org/1999/xlink" width="80px" height="40px" xmlns="http://www.w3.org/2000/svg">
  <g transform="matrix(1 0 0 1 -1003 -373 )">
    <path d="M 1067 373  C 1067 373  1071 374  1071 374  C 1071 374  1083 393  1083 393  C 1083 393  1071 412  1071 412  C 1071 412  1067 413  1067 413  C 1067 413  1008 413  1008 413  C 1005.2 413  1003 410.8  1003 408  C 1003 408  1003 378  1003 378  C 1003 375.2  1005.2 373  1008 373  C 1008 373  1067 373  1067 373  Z " fill-rule="nonzero" fill="#169bd5" stroke="none" />
  </g>
</svg>