<?xml version="1.0" encoding="utf-8"?>
<svg version="1.1" xmlns:xlink="http://www.w3.org/1999/xlink" width="124px" height="40px" xmlns="http://www.w3.org/2000/svg">
  <g transform="matrix(1 0 0 1 -480 -364 )">
    <path d="M 588 364  C 588 364  592 364.645161290323  592 364.645161290323  C 592 364.645161290323  604 384  604 384  C 604 384  592 403.354838709677  592 403.354838709677  C 592 403.354838709677  588 404  588 404  C 588 404  485 404  485 404  C 482.2 404  480 401.8  480 399  C 480 399  480 369  480 369  C 480 366.2  482.2 364  485 364  C 485 364  588 364  588 364  Z " fill-rule="nonzero" fill="#169bd5" stroke="none" />
  </g>
</svg>