<?xml version="1.0" encoding="utf-8"?>
<svg version="1.1" xmlns:xlink="http://www.w3.org/1999/xlink" width="324px" height="324px" xmlns="http://www.w3.org/2000/svg">
  <g transform="matrix(1 0 0 1 -537 -3959 )">
    <path d="M 699 3959  C 789.72 3959  861 4030.28  861 4121  C 861 4211.72  789.72 4283  699 4283  C 608.28 4283  537 4211.72  537 4121  C 537 4030.28  608.28 3959  699 3959  Z " fill-rule="nonzero" fill="#ffffff" stroke="none" />
    <path d="M 699 3959.5  C 789.44 3959.5  860.5 4030.56  860.5 4121  C 860.5 4211.44  789.44 4282.5  699 4282.5  C 608.56 4282.5  537.5 4211.44  537.5 4121  C 537.5 4030.56  608.56 3959.5  699 3959.5  Z " stroke-width="1" stroke="#797979" fill="none" />
  </g>
</svg>