<?xml version="1.0" encoding="utf-8"?>
<svg version="1.1" xmlns:xlink="http://www.w3.org/1999/xlink" width="166px" height="102px" xmlns="http://www.w3.org/2000/svg">
  <g transform="matrix(1 0 0 1 -127 -882 )">
    <path d="M 210 882  C 256.48 882  293 904.44  293 933  C 293 961.56  256.48 984  210 984  C 163.52 984  127 961.56  127 933  C 127 904.44  163.52 882  210 882  Z " fill-rule="nonzero" fill="#d7d7d7" stroke="none" />
    <path d="M 210 882.5  C 256.2 882.5  292.5 904.72  292.5 933  C 292.5 961.28  256.2 983.5  210 983.5  C 163.8 983.5  127.5 961.28  127.5 933  C 127.5 904.72  163.8 882.5  210 882.5  Z " stroke-width="1" stroke="#797979" fill="none" />
  </g>
</svg>