<?xml version="1.0" encoding="utf-8"?>
<svg version="1.1" xmlns:xlink="http://www.w3.org/1999/xlink" width="221px" height="69px" xmlns="http://www.w3.org/2000/svg">
  <g transform="matrix(1 0 0 1 -100 -875 )">
    <path d="M 210.5 875  C 272.38 875  321 890.18  321 909.5  C 321 928.82  272.38 944  210.5 944  C 148.62 944  100 928.82  100 909.5  C 100 890.18  148.62 875  210.5 875  Z " fill-rule="nonzero" fill="#ffffff" stroke="none" />
    <path d="M 210.5 875.5  C 272.1 875.5  320.5 890.46  320.5 909.5  C 320.5 928.54  272.1 943.5  210.5 943.5  C 148.9 943.5  100.5 928.54  100.5 909.5  C 100.5 890.46  148.9 875.5  210.5 875.5  Z " stroke-width="1" stroke="#797979" fill="none" />
  </g>
</svg>