<?xml version="1.0" encoding="utf-8"?>
<svg version="1.1" xmlns:xlink="http://www.w3.org/1999/xlink" width="45px" height="45px" xmlns="http://www.w3.org/2000/svg">
  <g transform="matrix(1 0 0 1 -188 -915 )">
    <path d="M 205.811706527482 931.047117626564  L 210.5 916.61803398875  L 215.188293472518 931.047117626564  L 230.359929848053 931.047117626564  L 218.085818187768 939.964781741248  L 222.774111660285 954.393865379061  L 210.5 945.476201264377  L 198.225888339715 954.393865379061  L 202.914181812232 939.964781741248  L 190.640070151947 931.047117626564  L 205.811706527482 931.047117626564  Z " fill-rule="nonzero" fill="#ffffff" stroke="none" />
    <path d="M 205.44843526348 930.547117626564  L 210.5 915  L 215.55156473652 930.547117626564  L 231.898771616641 930.547117626564  L 218.67360344006 940.155764746873  L 223.725168176581 955.702882373436  L 210.5 946.094235253127  L 197.274831823419 955.702882373436  L 202.32639655994 940.155764746873  L 189.101228383359 930.547117626564  L 205.44843526348 930.547117626564  Z M 210.5 918.2360679775  L 206.174977791485 931.547117626564  L 192.178911920534 931.547117626564  L 203.501967064525 939.773798735623  L 199.17694485601 953.084848384686  L 210.5 944.858167275628  L 221.82305514399 953.084848384686  L 217.498032935475 939.773798735623  L 228.821088079466 931.547117626564  L 214.825022208515 931.547117626564  L 210.5 918.2360679775  Z " fill-rule="nonzero" fill="#797979" stroke="none" />
  </g>
</svg>