<?xml version="1.0" encoding="utf-8"?>
<svg version="1.1" xmlns:xlink="http://www.w3.org/1999/xlink" width="91px" height="91px" xmlns="http://www.w3.org/2000/svg">
  <g transform="matrix(1 0 0 1 -43 -3402 )">
    <path d="M 88.5 3402  C 113.98 3402  134 3422.02  134 3447.5  C 134 3472.98  113.98 3493  88.5 3493  C 63.02 3493  43 3472.98  43 3447.5  C 43 3422.02  63.02 3402  88.5 3402  Z " fill-rule="nonzero" fill="#ffffff" stroke="none" />
    <path d="M 88.5 3402.5  C 113.7 3402.5  133.5 3422.3  133.5 3447.5  C 133.5 3472.7  113.7 3492.5  88.5 3492.5  C 63.3 3492.5  43.5 3472.7  43.5 3447.5  C 43.5 3422.3  63.3 3402.5  88.5 3402.5  Z " stroke-width="1" stroke="#797979" fill="none" />
  </g>
</svg>