<?xml version="1.0" encoding="utf-8"?>
<svg version="1.1" xmlns:xlink="http://www.w3.org/1999/xlink" width="201px" height="64px" xmlns="http://www.w3.org/2000/svg">
  <defs>
    <mask fill="white" id="clip34">
      <path d="M 61 2.49645390070922  C 60.5284090909091 1.24304170251171  63.0849649228412 0.226950354609929  66.2386363636364 0.226950354609929  L 194.71875 0.226950354609929  C 197.872421440795 0.226950354609929  200.428977272727 1.24304170251171  200.428977272727 2.49645390070922  L 200.428977272727 61.5035460992908  C 200.428977272727 62.7569582974883  197.872421440795 63.7730496453901  194.71875 63.7730496453901  L 66.2386363636364 63.7730496453901  C 63.0849649228412 63.7730496453901  60.5284090909091 62.7569582974883  61 61.5035460992908  L 61 26.5531914893617  L 0.571022727272727 19.7446808510638  L 61 12.936170212766  L 61 2.49645390070922  Z " fill-rule="evenodd" />
    </mask>
  </defs>
  <g transform="matrix(1 0 0 1 -119 -3364 )">
    <path d="M 61 2.49645390070922  C 60.5284090909091 1.24304170251171  63.0849649228412 0.226950354609929  66.2386363636364 0.226950354609929  L 194.71875 0.226950354609929  C 197.872421440795 0.226950354609929  200.428977272727 1.24304170251171  200.428977272727 2.49645390070922  L 200.428977272727 61.5035460992908  C 200.428977272727 62.7569582974883  197.872421440795 63.7730496453901  194.71875 63.7730496453901  L 66.2386363636364 63.7730496453901  C 63.0849649228412 63.7730496453901  60.5284090909091 62.7569582974883  61 61.5035460992908  L 61 26.5531914893617  L 0.571022727272727 19.7446808510638  L 61 12.936170212766  L 61 2.49645390070922  Z " fill-rule="nonzero" fill="#ffffff" stroke="none" transform="matrix(1 0 0 1 119 3364 )" />
    <path d="M 61 2.49645390070922  C 60.5284090909091 1.24304170251171  63.0849649228412 0.226950354609929  66.2386363636364 0.226950354609929  L 194.71875 0.226950354609929  C 197.872421440795 0.226950354609929  200.428977272727 1.24304170251171  200.428977272727 2.49645390070922  L 200.428977272727 61.5035460992908  C 200.428977272727 62.7569582974883  197.872421440795 63.7730496453901  194.71875 63.7730496453901  L 66.2386363636364 63.7730496453901  C 63.0849649228412 63.7730496453901  60.5284090909091 62.7569582974883  61 61.5035460992908  L 61 26.5531914893617  L 0.571022727272727 19.7446808510638  L 61 12.936170212766  L 61 2.49645390070922  Z " stroke-width="2" stroke="#797979" fill="none" transform="matrix(1 0 0 1 119 3364 )" mask="url(#clip34)" />
  </g>
</svg>