<?xml version="1.0" encoding="utf-8"?>
<svg version="1.1" xmlns:xlink="http://www.w3.org/1999/xlink" width="91px" height="91px" xmlns="http://www.w3.org/2000/svg">
  <defs>
    <mask fill="white" id="clip156">
      <path d="M 91 59.15  C 91 36.4  63.7 22.75  45.5 0  C 27.3 22.75  0 36.4  0 59.15  C 0 70.98  9.1 91  45.5 91  C 81.9 91  91 70.98  91 59.15  Z " fill-rule="evenodd" />
    </mask>
  </defs>
  <g transform="matrix(1 0 0 1 -43 -3477 )">
    <path d="M 91 59.15  C 91 36.4  63.7 22.75  45.5 0  C 27.3 22.75  0 36.4  0 59.15  C 0 70.98  9.1 91  45.5 91  C 81.9 91  91 70.98  91 59.15  Z " fill-rule="nonzero" fill="#ffffff" stroke="none" transform="matrix(1 0 0 1 43 3477 )" />
    <path d="M 91 59.15  C 91 36.4  63.7 22.75  45.5 0  C 27.3 22.75  0 36.4  0 59.15  C 0 70.98  9.1 91  45.5 91  C 81.9 91  91 70.98  91 59.15  Z " stroke-width="2" stroke="#797979" fill="none" transform="matrix(1 0 0 1 43 3477 )" mask="url(#clip156)" />
  </g>
</svg>