<?xml version="1.0" encoding="utf-8"?>
<svg version="1.1" xmlns:xlink="http://www.w3.org/1999/xlink" width="185px" height="64px" xmlns="http://www.w3.org/2000/svg">
  <defs>
    <mask fill="white" id="clip131">
      <path d="M 56 2.49645390070922  C 55.7102272727273 1.24304170251171  58.0632761727643 0.226950354609929  60.9659090909091 0.226950354609929  L 179.21875 0.226950354609929  C 182.121382918145 0.226950354609929  184.474431818182 1.24304170251171  184.474431818182 2.49645390070922  L 184.474431818182 61.5035460992908  C 184.474431818182 62.7569582974883  182.121382918145 63.7730496453901  179.21875 63.7730496453901  L 60.9659090909091 63.7730496453901  C 58.0632761727643 63.7730496453901  55.7102272727273 62.7569582974883  56 61.5035460992908  L 56 26.5531914893617  L 0.525568181818182 19.7446808510638  L 56 12.936170212766  L 56 2.49645390070922  Z " fill-rule="evenodd" />
    </mask>
  </defs>
  <g transform="matrix(1 0 0 1 -119 -3368 )">
    <path d="M 56 2.49645390070922  C 55.7102272727273 1.24304170251171  58.0632761727643 0.226950354609929  60.9659090909091 0.226950354609929  L 179.21875 0.226950354609929  C 182.121382918145 0.226950354609929  184.474431818182 1.24304170251171  184.474431818182 2.49645390070922  L 184.474431818182 61.5035460992908  C 184.474431818182 62.7569582974883  182.121382918145 63.7730496453901  179.21875 63.7730496453901  L 60.9659090909091 63.7730496453901  C 58.0632761727643 63.7730496453901  55.7102272727273 62.7569582974883  56 61.5035460992908  L 56 26.5531914893617  L 0.525568181818182 19.7446808510638  L 56 12.936170212766  L 56 2.49645390070922  Z " fill-rule="nonzero" fill="#ffffff" stroke="none" transform="matrix(1 0 0 1 119 3368 )" />
    <path d="M 56 2.49645390070922  C 55.7102272727273 1.24304170251171  58.0632761727643 0.226950354609929  60.9659090909091 0.226950354609929  L 179.21875 0.226950354609929  C 182.121382918145 0.226950354609929  184.474431818182 1.24304170251171  184.474431818182 2.49645390070922  L 184.474431818182 61.5035460992908  C 184.474431818182 62.7569582974883  182.121382918145 63.7730496453901  179.21875 63.7730496453901  L 60.9659090909091 63.7730496453901  C 58.0632761727643 63.7730496453901  55.7102272727273 62.7569582974883  56 61.5035460992908  L 56 26.5531914893617  L 0.525568181818182 19.7446808510638  L 56 12.936170212766  L 56 2.49645390070922  Z " stroke-width="2" stroke="#797979" fill="none" transform="matrix(1 0 0 1 119 3368 )" mask="url(#clip131)" />
  </g>
</svg>