<?xml version="1.0" encoding="utf-8"?>
<svg version="1.1" xmlns:xlink="http://www.w3.org/1999/xlink" width="85px" height="85px" xmlns="http://www.w3.org/2000/svg">
  <g transform="matrix(1 0 0 1 -42 -2527 )">
    <path d="M 84.5 2527  C 108.3 2527  127 2545.7  127 2569.5  C 127 2593.3  108.3 2612  84.5 2612  C 60.7 2612  42 2593.3  42 2569.5  C 42 2545.7  60.7 2527  84.5 2527  Z " fill-rule="nonzero" fill="#ffffff" stroke="none" />
    <path d="M 84.5 2527.5  C 108.02 2527.5  126.5 2545.98  126.5 2569.5  C 126.5 2593.02  108.02 2611.5  84.5 2611.5  C 60.98 2611.5  42.5 2593.02  42.5 2569.5  C 42.5 2545.98  60.98 2527.5  84.5 2527.5  Z " stroke-width="1" stroke="#797979" fill="none" />
  </g>
</svg>