<?xml version="1.0" encoding="utf-8"?>
<svg version="1.1" xmlns:xlink="http://www.w3.org/1999/xlink" width="42px" height="42px" xmlns="http://www.w3.org/2000/svg">
  <g transform="matrix(1 0 0 1 -16 -2382 )">
    <path d="M 37 2382  C 48.76 2382  58 2391.24  58 2403  C 58 2414.76  48.76 2424  37 2424  C 25.24 2424  16 2414.76  16 2403  C 16 2391.24  25.24 2382  37 2382  Z " fill-rule="nonzero" fill="#95f204" stroke="none" />
    <path d="M 37 2382.5  C 48.48 2382.5  57.5 2391.52  57.5 2403  C 57.5 2414.48  48.48 2423.5  37 2423.5  C 25.52 2423.5  16.5 2414.48  16.5 2403  C 16.5 2391.52  25.52 2382.5  37 2382.5  Z " stroke-width="1" stroke="#797979" fill="none" />
  </g>
</svg>