<?xml version="1.0" encoding="utf-8"?>
<svg version="1.1" xmlns:xlink="http://www.w3.org/1999/xlink" width="26px" height="26px" xmlns="http://www.w3.org/2000/svg">
  <g transform="matrix(1 0 0 1 -24 -2390 )">
    <path d="M 37 2390  C 44.28 2390  50 2395.72  50 2403  C 50 2410.28  44.28 2416  37 2416  C 29.72 2416  24 2410.28  24 2403  C 24 2395.72  29.72 2390  37 2390  Z " fill-rule="nonzero" fill="#70b603" stroke="none" />
    <path d="M 37 2390.5  C 44 2390.5  49.5 2396  49.5 2403  C 49.5 2410  44 2415.5  37 2415.5  C 30 2415.5  24.5 2410  24.5 2403  C 24.5 2396  30 2390.5  37 2390.5  Z " stroke-width="1" stroke="#797979" fill="none" />
  </g>
</svg>