<?xml version="1.0" encoding="utf-8"?>
<svg version="1.1" xmlns:xlink="http://www.w3.org/1999/xlink" width="42px" height="42px" xmlns="http://www.w3.org/2000/svg">
  <g transform="matrix(1 0 0 1 -16 -2745 )">
    <path d="M 37 2745  C 48.76 2745  58 2754.24  58 2766  C 58 2777.76  48.76 2787  37 2787  C 25.24 2787  16 2777.76  16 2766  C 16 2754.24  25.24 2745  37 2745  Z " fill-rule="nonzero" fill="#ffffff" stroke="none" />
    <path d="M 37 2745.5  C 48.48 2745.5  57.5 2754.52  57.5 2766  C 57.5 2777.48  48.48 2786.5  37 2786.5  C 25.52 2786.5  16.5 2777.48  16.5 2766  C 16.5 2754.52  25.52 2745.5  37 2745.5  Z " stroke-width="1" stroke="#797979" fill="none" />
  </g>
</svg>