<?xml version="1.0" encoding="utf-8"?>
<svg version="1.1" xmlns:xlink="http://www.w3.org/1999/xlink" width="26px" height="26px" xmlns="http://www.w3.org/2000/svg">
  <g transform="matrix(1 0 0 1 -24 -2753 )">
    <path d="M 37 2753  C 44.28 2753  50 2758.72  50 2766  C 50 2773.28  44.28 2779  37 2779  C 29.72 2779  24 2773.28  24 2766  C 24 2758.72  29.72 2753  37 2753  Z " fill-rule="nonzero" fill="#ffffff" stroke="none" />
    <path d="M 37 2753.5  C 44 2753.5  49.5 2759  49.5 2766  C 49.5 2773  44 2778.5  37 2778.5  C 30 2778.5  24.5 2773  24.5 2766  C 24.5 2759  30 2753.5  37 2753.5  Z " stroke-width="1" stroke="#797979" fill="none" />
  </g>
</svg>