<?xml version="1.0" encoding="utf-8"?>
<svg version="1.1" xmlns:xlink="http://www.w3.org/1999/xlink" width="140px" height="43px" xmlns="http://www.w3.org/2000/svg">
  <g transform="matrix(1 0 0 1 -234 -5322 )">
    <path d="M 251.079881373099 5322.5  C 251.079881373099 5322.5  247.473228202113 5323.05387887983  247.473228202113 5323.05387887983  C 247.473228202113 5323.05387887983  234.551055893606 5343.5  234.551055893606 5343.5  C 234.551055893606 5343.5  247.473228202113 5363.94612112017  247.473228202113 5363.94612112017  C 247.473228202113 5363.94612112017  251.079881373099 5364.5  251.079881373099 5364.5  C 251.079881373099 5364.5  369 5364.5  369 5364.5  C 371.52 5364.5  373.5 5362.52  373.5 5360  C 373.5 5360  373.5 5327  373.5 5327  C 373.5 5324.48  371.52 5322.5  369 5322.5  C 369 5322.5  251.079881373099 5322.5  251.079881373099 5322.5  Z " fill-rule="nonzero" fill="#aaaaaa" stroke="none" />
    <path d="M 251.079881373099 5322.5  C 251.079881373099 5322.5  247.473228202113 5323.05387887983  247.473228202113 5323.05387887983  C 247.473228202113 5323.05387887983  234.551055893606 5343.5  234.551055893606 5343.5  C 234.551055893606 5343.5  247.473228202113 5363.94612112017  247.473228202113 5363.94612112017  C 247.473228202113 5363.94612112017  251.079881373099 5364.5  251.079881373099 5364.5  C 251.079881373099 5364.5  369 5364.5  369 5364.5  C 371.52 5364.5  373.5 5362.52  373.5 5360  C 373.5 5360  373.5 5327  373.5 5327  C 373.5 5324.48  371.52 5322.5  369 5322.5  C 369 5322.5  251.079881373099 5322.5  251.079881373099 5322.5  Z " stroke-width="1" stroke="#797979" fill="none" />
  </g>
</svg>