<?xml version="1.0" encoding="utf-8"?>
<svg version="1.1" xmlns:xlink="http://www.w3.org/1999/xlink" width="140px" height="43px" xmlns="http://www.w3.org/2000/svg">
  <g transform="matrix(1 0 0 1 -43 -5436 )">
    <path d="M 165.920118626901 5436.5  C 165.920118626901 5436.5  169.526771797887 5437.05387887983  169.526771797887 5437.05387887983  C 169.526771797887 5437.05387887983  182.448944106394 5457.5  182.448944106394 5457.5  C 182.448944106394 5457.5  169.526771797887 5477.94612112017  169.526771797887 5477.94612112017  C 169.526771797887 5477.94612112017  165.920118626901 5478.5  165.920118626901 5478.5  C 165.920118626901 5478.5  48 5478.5  48 5478.5  C 45.48 5478.5  43.5 5476.52  43.5 5474  C 43.5 5474  43.5 5441  43.5 5441  C 43.5 5438.48  45.48 5436.5  48 5436.5  C 48 5436.5  165.920118626901 5436.5  165.920118626901 5436.5  Z " fill-rule="nonzero" fill="#aaaaaa" stroke="none" />
    <path d="M 165.920118626901 5436.5  C 165.920118626901 5436.5  169.526771797887 5437.05387887983  169.526771797887 5437.05387887983  C 169.526771797887 5437.05387887983  182.448944106394 5457.5  182.448944106394 5457.5  C 182.448944106394 5457.5  169.526771797887 5477.94612112017  169.526771797887 5477.94612112017  C 169.526771797887 5477.94612112017  165.920118626901 5478.5  165.920118626901 5478.5  C 165.920118626901 5478.5  48 5478.5  48 5478.5  C 45.48 5478.5  43.5 5476.52  43.5 5474  C 43.5 5474  43.5 5441  43.5 5441  C 43.5 5438.48  45.48 5436.5  48 5436.5  C 48 5436.5  165.920118626901 5436.5  165.920118626901 5436.5  Z " stroke-width="1" stroke="#797979" fill="none" />
  </g>
</svg>