<?xml version="1.0" encoding="utf-8"?>
<svg version="1.1" xmlns:xlink="http://www.w3.org/1999/xlink" width="140px" height="40px" xmlns="http://www.w3.org/2000/svg">
  <g transform="matrix(1 0 0 1 -41 -4981 )">
    <path d="M 165.14589803375 4981.5  C 165.14589803375 4981.5  168.725685141703 4982.01139815828  168.725685141703 4982.01139815828  C 168.725685141703 4982.01139815828  180.453939220413 5001  180.453939220413 5001  C 180.453939220413 5001  168.725685141703 5019.98860184172  168.725685141703 5019.98860184172  C 168.725685141703 5019.98860184172  165.14589803375 5020.5  165.14589803375 5020.5  C 165.14589803375 5020.5  46 5020.5  46 5020.5  C 43.48 5020.5  41.5 5018.52  41.5 5016  C 41.5 5016  41.5 4986  41.5 4986  C 41.5 4983.48  43.48 4981.5  46 4981.5  C 46 4981.5  165.14589803375 4981.5  165.14589803375 4981.5  Z " fill-rule="nonzero" fill="#70b603" stroke="none" />
    <path d="M 165.14589803375 4981.5  C 165.14589803375 4981.5  168.725685141703 4982.01139815828  168.725685141703 4982.01139815828  C 168.725685141703 4982.01139815828  180.453939220413 5001  180.453939220413 5001  C 180.453939220413 5001  168.725685141703 5019.98860184172  168.725685141703 5019.98860184172  C 168.725685141703 5019.98860184172  165.14589803375 5020.5  165.14589803375 5020.5  C 165.14589803375 5020.5  46 5020.5  46 5020.5  C 43.48 5020.5  41.5 5018.52  41.5 5016  C 41.5 5016  41.5 4986  41.5 4986  C 41.5 4983.48  43.48 4981.5  46 4981.5  C 46 4981.5  165.14589803375 4981.5  165.14589803375 4981.5  Z " stroke-width="1" stroke="#797979" fill="none" />
  </g>
</svg>