<?xml version="1.0" encoding="utf-8"?>
<svg version="1.1" xmlns:xlink="http://www.w3.org/1999/xlink" width="60px" height="60px" xmlns="http://www.w3.org/2000/svg">
  <g transform="matrix(1 0 0 1 -180 -6072 )">
    <path d="M 210 6072  C 226.8 6072  240 6085.2  240 6102  C 240 6118.8  226.8 6132  210 6132  C 193.2 6132  180 6118.8  180 6102  C 180 6085.2  193.2 6072  210 6072  Z " fill-rule="nonzero" fill="#d9001b" stroke="none" />
    <path d="M 210 6072.5  C 226.52 6072.5  239.5 6085.48  239.5 6102  C 239.5 6118.52  226.52 6131.5  210 6131.5  C 193.48 6131.5  180.5 6118.52  180.5 6102  C 180.5 6085.48  193.48 6072.5  210 6072.5  Z " stroke-width="1" stroke="#797979" fill="none" />
  </g>
</svg>