<?xml version="1.0" encoding="utf-8"?>
<svg version="1.1" xmlns:xlink="http://www.w3.org/1999/xlink" width="60px" height="60px" xmlns="http://www.w3.org/2000/svg">
  <g transform="matrix(1 0 0 1 -180 -6428 )">
    <path d="M 210 6428  C 226.8 6428  240 6441.2  240 6458  C 240 6474.8  226.8 6488  210 6488  C 193.2 6488  180 6474.8  180 6458  C 180 6441.2  193.2 6428  210 6428  Z " fill-rule="nonzero" fill="#4b7902" stroke="none" />
    <path d="M 210 6428.5  C 226.52 6428.5  239.5 6441.48  239.5 6458  C 239.5 6474.52  226.52 6487.5  210 6487.5  C 193.48 6487.5  180.5 6474.52  180.5 6458  C 180.5 6441.48  193.48 6428.5  210 6428.5  Z " stroke-width="1" stroke="#797979" fill="none" />
  </g>
</svg>