<?xml version="1.0" encoding="utf-8"?>
<svg version="1.1" xmlns:xlink="http://www.w3.org/1999/xlink" width="102px" height="30px" xmlns="http://www.w3.org/2000/svg">
  <defs>
    <mask fill="white" id="clip159">
      <path d="M 0 20.625  L 0 9.375  C 0 4.12499999999966  1.60285714285718 0  3.64285714285714 0  L 98.3571428571429 0  C 100.397142857143 0  102 4.12499999999966  102 9.375  L 102 20.625  C 102 25.8750000000003  100.397142857143 30  98.3571428571429 30  L 79.4142857142857 30  L 3.64285714285714 30  C 1.60285714285718 30  0 25.8750000000003  0 20.625  Z " fill-rule="evenodd" />
    </mask>
  </defs>
  <g transform="matrix(1 0 0 1 -21 -3904 )">
    <path d="M 0 20.625  L 0 9.375  C 0 4.12499999999966  1.60285714285718 0  3.64285714285714 0  L 98.3571428571429 0  C 100.397142857143 0  102 4.12499999999966  102 9.375  L 102 20.625  C 102 25.8750000000003  100.397142857143 30  98.3571428571429 30  L 79.4142857142857 30  L 3.64285714285714 30  C 1.60285714285718 30  0 25.8750000000003  0 20.625  Z " fill-rule="nonzero" fill="#ffffff" stroke="none" transform="matrix(1 0 0 1 21 3904 )" />
    <path d="M 0 20.625  L 0 9.375  C 0 4.12499999999966  1.60285714285718 0  3.64285714285714 0  L 98.3571428571429 0  C 100.397142857143 0  102 4.12499999999966  102 9.375  L 102 20.625  C 102 25.8750000000003  100.397142857143 30  98.3571428571429 30  L 79.4142857142857 30  L 3.64285714285714 30  C 1.60285714285718 30  0 25.8750000000003  0 20.625  Z " stroke-width="2" stroke="#797979" fill="none" transform="matrix(1 0 0 1 21 3904 )" mask="url(#clip159)" />
  </g>
</svg>