<?xml version="1.0" encoding="utf-8"?>
<svg version="1.1" xmlns:xlink="http://www.w3.org/1999/xlink" width="57px" height="57px" xmlns="http://www.w3.org/2000/svg">
  <g transform="matrix(1 0 0 1 -24 -1782 )">
    <path d="M 52.5 1782  C 68.46 1782  81 1794.54  81 1810.5  C 81 1826.46  68.46 1839  52.5 1839  C 36.54 1839  24 1826.46  24 1810.5  C 24 1794.54  36.54 1782  52.5 1782  Z " fill-rule="nonzero" fill="#ffffff" stroke="none" />
    <path d="M 52.5 1782.5  C 68.18 1782.5  80.5 1794.82  80.5 1810.5  C 80.5 1826.18  68.18 1838.5  52.5 1838.5  C 36.82 1838.5  24.5 1826.18  24.5 1810.5  C 24.5 1794.82  36.82 1782.5  52.5 1782.5  Z " stroke-width="1" stroke="#797979" fill="none" />
  </g>
</svg>