<?xml version="1.0" encoding="utf-8"?>
<svg version="1.1" xmlns:xlink="http://www.w3.org/1999/xlink" width="24px" height="24px" xmlns="http://www.w3.org/2000/svg">
  <g transform="matrix(1 0 0 1 -340 -3484 )">
    <path d="M 352 3484  C 358.72 3484  364 3489.28  364 3496  C 364 3502.72  358.72 3508  352 3508  C 345.28 3508  340 3502.72  340 3496  C 340 3489.28  345.28 3484  352 3484  Z " fill-rule="nonzero" fill="#ffffff" stroke="none" />
    <path d="M 352 3484.5  C 358.44 3484.5  363.5 3489.56  363.5 3496  C 363.5 3502.44  358.44 3507.5  352 3507.5  C 345.56 3507.5  340.5 3502.44  340.5 3496  C 340.5 3489.56  345.56 3484.5  352 3484.5  Z " stroke-width="1" stroke="#797979" fill="none" />
  </g>
</svg>