<?xml version="1.0" encoding="utf-8"?>
<svg version="1.1" xmlns:xlink="http://www.w3.org/1999/xlink" width="32px" height="32px" xmlns="http://www.w3.org/2000/svg">
  <g transform="matrix(1 0 0 1 -103 -3477 )">
    <path d="M 119 3477  C 127.96 3477  135 3484.04  135 3493  C 135 3501.96  127.96 3509  119 3509  C 110.04 3509  103 3501.96  103 3493  C 103 3484.04  110.04 3477  119 3477  Z " fill-rule="nonzero" fill="#ffffff" stroke="none" />
    <path d="M 119 3477.5  C 127.68 3477.5  134.5 3484.32  134.5 3493  C 134.5 3501.68  127.68 3508.5  119 3508.5  C 110.32 3508.5  103.5 3501.68  103.5 3493  C 103.5 3484.32  110.32 3477.5  119 3477.5  Z " stroke-width="1" stroke="#797979" fill="none" />
  </g>
</svg>