<?xml version="1.0" encoding="utf-8"?>
<svg version="1.1" xmlns:xlink="http://www.w3.org/1999/xlink" width="140px" height="40px" xmlns="http://www.w3.org/2000/svg">
  <g transform="matrix(1 0 0 1 -85 -3988 )">
    <path d="M 100.85410196625 3988.5  C 100.85410196625 3988.5  97.2743148582968 3989.01139815828  97.2743148582968 3989.01139815828  C 97.2743148582968 3989.01139815828  85.5460607795868 4008  85.5460607795868 4008  C 85.5460607795868 4008  97.2743148582968 4026.98860184172  97.2743148582968 4026.98860184172  C 97.2743148582968 4026.98860184172  100.85410196625 4027.5  100.85410196625 4027.5  C 100.85410196625 4027.5  220 4027.5  220 4027.5  C 222.52 4027.5  224.5 4025.52  224.5 4023  C 224.5 4023  224.5 3993  224.5 3993  C 224.5 3990.48  222.52 3988.5  220 3988.5  C 220 3988.5  100.85410196625 3988.5  100.85410196625 3988.5  Z " fill-rule="nonzero" fill="#ffffff" stroke="none" />
    <path d="M 100.85410196625 3988.5  C 100.85410196625 3988.5  97.2743148582968 3989.01139815828  97.2743148582968 3989.01139815828  C 97.2743148582968 3989.01139815828  85.5460607795868 4008  85.5460607795868 4008  C 85.5460607795868 4008  97.2743148582968 4026.98860184172  97.2743148582968 4026.98860184172  C 97.2743148582968 4026.98860184172  100.85410196625 4027.5  100.85410196625 4027.5  C 100.85410196625 4027.5  220 4027.5  220 4027.5  C 222.52 4027.5  224.5 4025.52  224.5 4023  C 224.5 4023  224.5 3993  224.5 3993  C 224.5 3990.48  222.52 3988.5  220 3988.5  C 220 3988.5  100.85410196625 3988.5  100.85410196625 3988.5  Z " stroke-width="1" stroke="#797979" fill="none" />
  </g>
</svg>