<?xml version="1.0" encoding="utf-8"?>
<svg version="1.1" xmlns:xlink="http://www.w3.org/1999/xlink" width="140px" height="40px" xmlns="http://www.w3.org/2000/svg">
  <g transform="matrix(1 0 0 1 -246 -3988 )">
    <path d="M 370.14589803375 3988.5  C 370.14589803375 3988.5  373.725685141703 3989.01139815828  373.725685141703 3989.01139815828  C 373.725685141703 3989.01139815828  385.453939220413 4008  385.453939220413 4008  C 385.453939220413 4008  373.725685141703 4026.98860184172  373.725685141703 4026.98860184172  C 373.725685141703 4026.98860184172  370.14589803375 4027.5  370.14589803375 4027.5  C 370.14589803375 4027.5  251 4027.5  251 4027.5  C 248.48 4027.5  246.5 4025.52  246.5 4023  C 246.5 4023  246.5 3993  246.5 3993  C 246.5 3990.48  248.48 3988.5  251 3988.5  C 251 3988.5  370.14589803375 3988.5  370.14589803375 3988.5  Z " fill-rule="nonzero" fill="#ffffff" stroke="none" />
    <path d="M 370.14589803375 3988.5  C 370.14589803375 3988.5  373.725685141703 3989.01139815828  373.725685141703 3989.01139815828  C 373.725685141703 3989.01139815828  385.453939220413 4008  385.453939220413 4008  C 385.453939220413 4008  373.725685141703 4026.98860184172  373.725685141703 4026.98860184172  C 373.725685141703 4026.98860184172  370.14589803375 4027.5  370.14589803375 4027.5  C 370.14589803375 4027.5  251 4027.5  251 4027.5  C 248.48 4027.5  246.5 4025.52  246.5 4023  C 246.5 4023  246.5 3993  246.5 3993  C 246.5 3990.48  248.48 3988.5  251 3988.5  C 251 3988.5  370.14589803375 3988.5  370.14589803375 3988.5  Z " stroke-width="1" stroke="#797979" fill="none" />
  </g>
</svg>