<?xml version="1.0" encoding="utf-8"?>
<svg version="1.1" xmlns:xlink="http://www.w3.org/1999/xlink" width="640px" height="58px" xmlns="http://www.w3.org/2000/svg">
  <defs>
    <mask fill="white" id="clip1">
      <path d="M 7.5454545454545 57.5562448304383  L 0 35.5639097744361  L 4.88721804511277 22.0300751879699  L 14.6616541353383 10  L 24.4360902255639 3.60902255639098  L 33.8345864661654 0  L 640 0  L 634.090909090909 57.5562448304383  L 7.5454545454545 57.5562448304383  Z " fill-rule="evenodd" />
    </mask>
  </defs>
  <g transform="matrix(1 0 0 1 -428 -590 )">
    <path d="M 7.5454545454545 57.5562448304383  L 0 35.5639097744361  L 4.88721804511277 22.0300751879699  L 14.6616541353383 10  L 24.4360902255639 3.60902255639098  L 33.8345864661654 0  L 640 0  L 634.090909090909 57.5562448304383  L 7.5454545454545 57.5562448304383  Z " fill-rule="nonzero" fill="#ffffff" stroke="none" transform="matrix(1 0 0 1 428 590 )" />
    <path d="M 7.5454545454545 57.5562448304383  L 0 35.5639097744361  L 4.88721804511277 22.0300751879699  L 14.6616541353383 10  L 24.4360902255639 3.60902255639098  L 33.8345864661654 0  L 640 0  L 634.090909090909 57.5562448304383  L 7.5454545454545 57.5562448304383  Z " stroke-width="6" stroke="#797979" fill="none" transform="matrix(1 0 0 1 428 590 )" mask="url(#clip1)" />
  </g>
</svg>