<?xml version="1.0" encoding="utf-8"?>
<svg version="1.1" xmlns:xlink="http://www.w3.org/1999/xlink" width="274px" height="77px" xmlns="http://www.w3.org/2000/svg">
  <defs>
    <mask fill="white" id="clip5">
      <path d="M 274 77  L 0 77  C 0 35  60.28 2  137 2  C 170.700568481513 2  210.35964505898 -4.45842543795447  234 6.24242424242425  C 264.177373150717 19.9022671102737  274 53.4492163219963  274 77  Z " fill-rule="evenodd" />
    </mask>
  </defs>
  <g transform="matrix(1 0 0 1 -591 -491 )">
    <path d="M 274 77  L 0 77  C 0 35  60.28 2  137 2  C 170.700568481513 2  210.35964505898 -4.45842543795447  234 6.24242424242425  C 264.177373150717 19.9022671102737  274 53.4492163219963  274 77  Z " fill-rule="nonzero" fill="#ffffff" stroke="none" transform="matrix(1 0 0 1 591 491 )" />
    <path d="M 274 77  L 0 77  C 0 35  60.28 2  137 2  C 170.700568481513 2  210.35964505898 -4.45842543795447  234 6.24242424242425  C 264.177373150717 19.9022671102737  274 53.4492163219963  274 77  Z " stroke-width="6" stroke="#797979" fill="none" transform="matrix(1 0 0 1 591 491 )" mask="url(#clip5)" />
  </g>
</svg>