<?xml version="1.0" encoding="utf-8"?>
<svg version="1.1" xmlns:xlink="http://www.w3.org/1999/xlink" width="40px" height="40px" xmlns="http://www.w3.org/2000/svg">
  <g transform="matrix(1 0 0 1 -1058 -551 )">
    <path d="M 1078 552  C 1088.64 552  1097 560.36  1097 571  C 1097 581.64  1088.64 590  1078 590  C 1067.36 590  1059 581.64  1059 571  C 1059 560.36  1067.36 552  1078 552  Z " fill-rule="nonzero" fill="#ffffff" stroke="none" />
    <path d="M 1078 552  C 1088.64 552  1097 560.36  1097 571  C 1097 581.64  1088.64 590  1078 590  C 1067.36 590  1059 581.64  1059 571  C 1059 560.36  1067.36 552  1078 552  Z " stroke-width="2" stroke="#797979" fill="none" />
  </g>
</svg>