<?xml version="1.0" encoding="utf-8"?>
<svg version="1.1" xmlns:xlink="http://www.w3.org/1999/xlink" width="34px" height="34px" xmlns="http://www.w3.org/2000/svg">
  <g transform="matrix(1 0 0 1 -1061 -554 )">
    <path d="M 1078 555  C 1086.96 555  1094 562.04  1094 571  C 1094 579.96  1086.96 587  1078 587  C 1069.04 587  1062 579.96  1062 571  C 1062 562.04  1069.04 555  1078 555  Z " fill-rule="nonzero" fill="#ffffff" stroke="none" />
    <path d="M 1078 555  C 1086.96 555  1094 562.04  1094 571  C 1094 579.96  1086.96 587  1078 587  C 1069.04 587  1062 579.96  1062 571  C 1062 562.04  1069.04 555  1078 555  Z " stroke-width="2" stroke="#797979" fill="none" />
  </g>
</svg>