<?xml version="1.0" encoding="utf-8"?>
<svg version="1.1" xmlns:xlink="http://www.w3.org/1999/xlink" width="645px" height="115px" xmlns="http://www.w3.org/2000/svg">
  <defs>
    <mask fill="white" id="clip2">
      <path d="M 63.9090909090909 91  C 45.1356689854467 85.6468478755414  11.8421226230711 62.3057572449119  8.00000000000006 56  C 1.00510247381845 44.5198547572954  0.0729742323903793 32.3075221992933  1.44194989963017 27  C 3.56286973214873 18.7771883289124  9.06060606060606 4.54545454545462  28 1  C 46.9393939393939 -2.54545454545462  68.2272727272724 10.7626262626268  78 12  C 136.636363636364 19.4242424242424  213.035697260046 17.9090909090909  320.884356133873 17.9090909090909  C 391.78433191403 17.9090909090909  522.242424242424 18.9393939393939  548 15.9090909090909  C 573.757575757576 12.8787878787879  603.809808502265 -4  622.757575757576 1  C 633.50831390903 3.8369406290974  641.549843471048 17.388489731777  644 27.8064516129033  C 645.868151199841 35.7497514625887  643.60409907532 40.3960734548969  642.009216589862 45.7788018433181  C 638.322580645161 58.2211981566822  608.878787878788 78.3939393939394  602.30303030303 83  C 595.727272727273 87.6060606060606  566.394495412844 104.251876563803  558 106.545454545455  C 502.545454545455 121.69696969697  408.093332423252 111  320.884356133873 111  C 234.432776164384 111  172.382426500735 112.223672554706  131.406683580765 111  C 108.808855639463 110.325153374235  86.2331774091686 97.3656072697103  63.9090909090909 91  Z " fill-rule="evenodd" />
    </mask>
  </defs>
  <g transform="matrix(1 0 0 1 -430 -598 )">
    <path d="M 63.9090909090909 91  C 45.1356689854467 85.6468478755414  11.8421226230711 62.3057572449119  8.00000000000006 56  C 1.00510247381845 44.5198547572954  0.0729742323903793 32.3075221992933  1.44194989963017 27  C 3.56286973214873 18.7771883289124  9.06060606060606 4.54545454545462  28 1  C 46.9393939393939 -2.54545454545462  68.2272727272724 10.7626262626268  78 12  C 136.636363636364 19.4242424242424  213.035697260046 17.9090909090909  320.884356133873 17.9090909090909  C 391.78433191403 17.9090909090909  522.242424242424 18.9393939393939  548 15.9090909090909  C 573.757575757576 12.8787878787879  603.809808502265 -4  622.757575757576 1  C 633.50831390903 3.8369406290974  641.549843471048 17.388489731777  644 27.8064516129033  C 645.868151199841 35.7497514625887  643.60409907532 40.3960734548969  642.009216589862 45.7788018433181  C 638.322580645161 58.2211981566822  608.878787878788 78.3939393939394  602.30303030303 83  C 595.727272727273 87.6060606060606  566.394495412844 104.251876563803  558 106.545454545455  C 502.545454545455 121.69696969697  408.093332423252 111  320.884356133873 111  C 234.432776164384 111  172.382426500735 112.223672554706  131.406683580765 111  C 108.808855639463 110.325153374235  86.2331774091686 97.3656072697103  63.9090909090909 91  Z " fill-rule="nonzero" fill="#ffffff" stroke="none" fill-opacity="0" transform="matrix(1 0 0 1 430 598 )" />
    <path d="M 63.9090909090909 91  C 45.1356689854467 85.6468478755414  11.8421226230711 62.3057572449119  8.00000000000006 56  C 1.00510247381845 44.5198547572954  0.0729742323903793 32.3075221992933  1.44194989963017 27  C 3.56286973214873 18.7771883289124  9.06060606060606 4.54545454545462  28 1  C 46.9393939393939 -2.54545454545462  68.2272727272724 10.7626262626268  78 12  C 136.636363636364 19.4242424242424  213.035697260046 17.9090909090909  320.884356133873 17.9090909090909  C 391.78433191403 17.9090909090909  522.242424242424 18.9393939393939  548 15.9090909090909  C 573.757575757576 12.8787878787879  603.809808502265 -4  622.757575757576 1  C 633.50831390903 3.8369406290974  641.549843471048 17.388489731777  644 27.8064516129033  C 645.868151199841 35.7497514625887  643.60409907532 40.3960734548969  642.009216589862 45.7788018433181  C 638.322580645161 58.2211981566822  608.878787878788 78.3939393939394  602.30303030303 83  C 595.727272727273 87.6060606060606  566.394495412844 104.251876563803  558 106.545454545455  C 502.545454545455 121.69696969697  408.093332423252 111  320.884356133873 111  C 234.432776164384 111  172.382426500735 112.223672554706  131.406683580765 111  C 108.808855639463 110.325153374235  86.2331774091686 97.3656072697103  63.9090909090909 91  Z " stroke-width="12" stroke-dasharray="18,6" stroke="#797979" fill="none" transform="matrix(1 0 0 1 430 598 )" mask="url(#clip2)" />
  </g>
</svg>