<?xml version="1.0" encoding="utf-8"?>
<svg version="1.1" xmlns:xlink="http://www.w3.org/1999/xlink" width="7px" height="7px" xmlns="http://www.w3.org/2000/svg">
  <g transform="matrix(1 0 0 1 -1085 -574 )">
    <path d="M 1088.5 575  C 1089.9 575  1091 576.1  1091 577.5  C 1091 578.9  1089.9 580  1088.5 580  C 1087.1 580  1086 578.9  1086 577.5  C 1086 576.1  1087.1 575  1088.5 575  Z " fill-rule="nonzero" fill="#ffffff" stroke="none" />
    <path d="M 1088.5 575  C 1089.9 575  1091 576.1  1091 577.5  C 1091 578.9  1089.9 580  1088.5 580  C 1087.1 580  1086 578.9  1086 577.5  C 1086 576.1  1087.1 575  1088.5 575  Z " stroke-width="2" stroke="#797979" fill="none" />
  </g>
</svg>