<?xml version="1.0" encoding="utf-8"?>
<svg version="1.1" xmlns:xlink="http://www.w3.org/1999/xlink" width="60px" height="60px" xmlns="http://www.w3.org/2000/svg">
  <g transform="matrix(1 0 0 1 -435 -603 )">
    <path d="M 465 604  C 481.24 604  494 616.76  494 633  C 494 649.24  481.24 662  465 662  C 448.76 662  436 649.24  436 633  C 436 616.76  448.76 604  465 604  Z " fill-rule="nonzero" fill="#ffffff" stroke="none" />
    <path d="M 465 604  C 481.24 604  494 616.76  494 633  C 494 649.24  481.24 662  465 662  C 448.76 662  436 649.24  436 633  C 436 616.76  448.76 604  465 604  Z " stroke-width="2" stroke="#797979" fill="none" />
  </g>
</svg>