<?xml version="1.0" encoding="utf-8"?>
<svg version="1.1" xmlns:xlink="http://www.w3.org/1999/xlink" width="21px" height="21px" xmlns="http://www.w3.org/2000/svg">
  <g transform="matrix(1 0 0 1 -455 -623 )">
    <path d="M 465.5 623  C 471.38 623  476 627.62  476 633.5  C 476 639.38  471.38 644  465.5 644  C 459.62 644  455 639.38  455 633.5  C 455 627.62  459.62 623  465.5 623  Z " fill-rule="nonzero" fill="#ffffff" stroke="none" />
    <path d="M 465.5 623.5  C 471.1 623.5  475.5 627.9  475.5 633.5  C 475.5 639.1  471.1 643.5  465.5 643.5  C 459.9 643.5  455.5 639.1  455.5 633.5  C 455.5 627.9  459.9 623.5  465.5 623.5  Z " stroke-width="1" stroke="#797979" fill="none" />
  </g>
</svg>