<?xml version="1.0" encoding="utf-8"?>
<svg version="1.1" xmlns:xlink="http://www.w3.org/1999/xlink" width="31px" height="31px" xmlns="http://www.w3.org/2000/svg">
  <g transform="matrix(1 0 0 1 -450 -618 )">
    <path d="M 465.5 618  C 474.18 618  481 624.82  481 633.5  C 481 642.18  474.18 649  465.5 649  C 456.82 649  450 642.18  450 633.5  C 450 624.82  456.82 618  465.5 618  Z " fill-rule="nonzero" fill="#ffffff" stroke="none" />
    <path d="M 465.5 618.5  C 473.9 618.5  480.5 625.1  480.5 633.5  C 480.5 641.9  473.9 648.5  465.5 648.5  C 457.1 648.5  450.5 641.9  450.5 633.5  C 450.5 625.1  457.1 618.5  465.5 618.5  Z " stroke-width="1" stroke="#797979" fill="none" />
  </g>
</svg>