<?xml version="1.0" encoding="utf-8"?>
<svg version="1.1" xmlns:xlink="http://www.w3.org/1999/xlink" width="87px" height="87px" xmlns="http://www.w3.org/2000/svg">
  <g transform="matrix(1 0 0 1 -515 -619 )">
    <path d="M 558.5 619  C 582.86 619  602 638.14  602 662.5  C 602 686.86  582.86 706  558.5 706  C 534.14 706  515 686.86  515 662.5  C 515 638.14  534.14 619  558.5 619  Z " fill-rule="nonzero" fill="#555555" stroke="none" />
    <path d="M 558.5 619.5  C 582.58 619.5  601.5 638.42  601.5 662.5  C 601.5 686.58  582.58 705.5  558.5 705.5  C 534.42 705.5  515.5 686.58  515.5 662.5  C 515.5 638.42  534.42 619.5  558.5 619.5  Z " stroke-width="1" stroke="#797979" fill="none" />
  </g>
</svg>