<?xml version="1.0" encoding="utf-8"?>
<svg version="1.1" xmlns:xlink="http://www.w3.org/1999/xlink" width="71px" height="71px" xmlns="http://www.w3.org/2000/svg">
  <g transform="matrix(1 0 0 1 -523 -627 )">
    <path d="M 558.5 627  C 578.38 627  594 642.62  594 662.5  C 594 682.38  578.38 698  558.5 698  C 538.62 698  523 682.38  523 662.5  C 523 642.62  538.62 627  558.5 627  Z " fill-rule="nonzero" fill="#ffffff" stroke="none" />
    <path d="M 558.5 627.5  C 578.1 627.5  593.5 642.9  593.5 662.5  C 593.5 682.1  578.1 697.5  558.5 697.5  C 538.9 697.5  523.5 682.1  523.5 662.5  C 523.5 642.9  538.9 627.5  558.5 627.5  Z " stroke-width="1" stroke="#797979" fill="none" />
  </g>
</svg>