<?xml version="1.0" encoding="utf-8"?>
<svg version="1.1" xmlns:xlink="http://www.w3.org/1999/xlink" width="63px" height="63px" xmlns="http://www.w3.org/2000/svg">
  <g transform="matrix(1 0 0 1 -1008 -600 )">
    <path d="M 1033.51762316088 623.265964677189  L 1039.5 604.85410196625  L 1045.48237683912 623.265964677189  L 1064.84175495753 623.265964677189  L 1049.17968905921 634.645121628747  L 1055.16206589833 653.056984339686  L 1039.5 641.677827388129  L 1023.83793410167 653.056984339686  L 1029.82031094079 634.645121628747  L 1014.15824504247 623.265964677189  L 1033.51762316088 623.265964677189  Z " fill-rule="nonzero" fill="#ffffff" stroke="none" />
    <path d="M 1032.42780936887 621.765964677189  L 1039.5 600  L 1046.57219063113 621.765964677189  L 1069.4582802633 621.765964677189  L 1050.94304481608 635.218070645622  L 1058.01523544721 656.984035322811  L 1039.5 643.531929354378  L 1020.98476455279 656.984035322811  L 1028.05695518392 635.218070645622  L 1009.5417197367 621.765964677189  L 1032.42780936887 621.765964677189  Z M 1039.5 606.472135955  L 1033.88089442488 623.765964677189  L 1015.69708681105 623.765964677189  L 1030.40809619309 634.454138623121  L 1024.78899061797 651.747967345311  L 1039.5 641.059793399379  L 1054.21100938203 651.747967345311  L 1048.59190380691 634.454138623121  L 1063.30291318895 623.765964677189  L 1045.11910557512 623.765964677189  L 1039.5 606.472135955  Z " fill-rule="nonzero" fill="#555555" stroke="none" />
  </g>
</svg>