<?xml version="1.0" encoding="utf-8"?>
<svg version="1.1" xmlns:xlink="http://www.w3.org/1999/xlink" width="40px" height="40px" xmlns="http://www.w3.org/2000/svg">
  <g transform="matrix(1 0 0 1 -1020 -612 )">
    <path d="M 1040 612  C 1051.2 612  1060 620.8  1060 632  C 1060 643.2  1051.2 652  1040 652  C 1028.8 652  1020 643.2  1020 632  C 1020 620.8  1028.8 612  1040 612  Z " fill-rule="nonzero" fill="#ffffff" stroke="none" />
    <path d="M 1040 612.5  C 1050.92 612.5  1059.5 621.08  1059.5 632  C 1059.5 642.92  1050.92 651.5  1040 651.5  C 1029.08 651.5  1020.5 642.92  1020.5 632  C 1020.5 621.08  1029.08 612.5  1040 612.5  Z " stroke-width="1" stroke="#555555" fill="none" />
  </g>
</svg>