<?xml version="1.0" encoding="utf-8"?>
<svg version="1.1" xmlns:xlink="http://www.w3.org/1999/xlink" width="20px" height="20px" xmlns="http://www.w3.org/2000/svg">
  <g transform="matrix(1 0 0 1 -1030 -622 )">
    <path d="M 1040 623  C 1045.04 623  1049 626.96  1049 632  C 1049 637.04  1045.04 641  1040 641  C 1034.96 641  1031 637.04  1031 632  C 1031 626.96  1034.96 623  1040 623  Z " fill-rule="nonzero" fill="#ffffff" stroke="none" />
    <path d="M 1040 623  C 1045.04 623  1049 626.96  1049 632  C 1049 637.04  1045.04 641  1040 641  C 1034.96 641  1031 637.04  1031 632  C 1031 626.96  1034.96 623  1040 623  Z " stroke-width="2" stroke="#797979" fill="none" />
  </g>
</svg>