<?xml version="1.0" encoding="utf-8"?>
<svg version="1.1" xmlns:xlink="http://www.w3.org/1999/xlink" width="70px" height="70px" xmlns="http://www.w3.org/2000/svg">
  <defs>
    <linearGradient gradientUnits="userSpaceOnUse" x1="580" y1="302" x2="580" y2="372" id="LinearGradient6">
      <stop id="Stop7" stop-color="#77d136" offset="0" />
      <stop id="Stop8" stop-color="#5dae11" offset="1" />
    </linearGradient>
  </defs>
  <g transform="matrix(1 0 0 1 -545 -302 )">
    <path d="M 580 302  C 599.6 302  615 317.4  615 337  C 615 356.6  599.6 372  580 372  C 560.4 372  545 356.6  545 337  C 545 317.4  560.4 302  580 302  Z " fill-rule="nonzero" fill="url(#LinearGradient6)" stroke="none" />
    <path d="M 580 302.5  C 599.32 302.5  614.5 317.68  614.5 337  C 614.5 356.32  599.32 371.5  580 371.5  C 560.68 371.5  545.5 356.32  545.5 337  C 545.5 317.68  560.68 302.5  580 302.5  Z " stroke-width="1" stroke="#797979" fill="none" />
  </g>
</svg>