<?xml version="1.0" encoding="utf-8"?>
<svg version="1.1" xmlns:xlink="http://www.w3.org/1999/xlink" width="97px" height="97px" xmlns="http://www.w3.org/2000/svg">
  <g transform="matrix(1 0 0 1 -579 -1072 )">
    <path d="M 627.5 1072  C 654.66 1072  676 1093.34  676 1120.5  C 676 1147.66  654.66 1169  627.5 1169  C 600.34 1169  579 1147.66  579 1120.5  C 579 1093.34  600.34 1072  627.5 1072  Z " fill-rule="nonzero" fill="#ffffff" stroke="none" />
    <path d="M 627.5 1072.5  C 654.38 1072.5  675.5 1093.62  675.5 1120.5  C 675.5 1147.38  654.38 1168.5  627.5 1168.5  C 600.62 1168.5  579.5 1147.38  579.5 1120.5  C 579.5 1093.62  600.62 1072.5  627.5 1072.5  Z " stroke-width="1" stroke="#797979" fill="none" />
  </g>
</svg>