<?xml version="1.0" encoding="utf-8"?>
<svg version="1.1" xmlns:xlink="http://www.w3.org/1999/xlink" width="85px" height="85px" xmlns="http://www.w3.org/2000/svg">
  <g transform="matrix(1 0 0 1 -148 -1760 )">
    <path d="M 190.5 1760  C 214.3 1760  233 1778.7  233 1802.5  C 233 1826.3  214.3 1845  190.5 1845  C 166.7 1845  148 1826.3  148 1802.5  C 148 1778.7  166.7 1760  190.5 1760  Z " fill-rule="nonzero" fill="#ffffff" stroke="none" />
    <path d="M 190.5 1760.5  C 214.02 1760.5  232.5 1778.98  232.5 1802.5  C 232.5 1826.02  214.02 1844.5  190.5 1844.5  C 166.98 1844.5  148.5 1826.02  148.5 1802.5  C 148.5 1778.98  166.98 1760.5  190.5 1760.5  Z " stroke-width="1" stroke="#797979" fill="none" />
  </g>
</svg>