<?xml version="1.0" encoding="utf-8"?>
<svg version="1.1" xmlns:xlink="http://www.w3.org/1999/xlink" width="42px" height="42px" xmlns="http://www.w3.org/2000/svg">
  <g transform="matrix(1 0 0 1 -386 -1836 )">
    <path d="M 407 1836  C 418.76 1836  428 1845.24  428 1857  C 428 1868.76  418.76 1878  407 1878  C 395.24 1878  386 1868.76  386 1857  C 386 1845.24  395.24 1836  407 1836  Z " fill-rule="nonzero" fill="#ffffff" stroke="none" />
    <path d="M 407 1836.5  C 418.48 1836.5  427.5 1845.52  427.5 1857  C 427.5 1868.48  418.48 1877.5  407 1877.5  C 395.52 1877.5  386.5 1868.48  386.5 1857  C 386.5 1845.52  395.52 1836.5  407 1836.5  Z " stroke-width="1" stroke="#797979" fill="none" />
  </g>
</svg>