<?xml version="1.0" encoding="utf-8"?>
<svg version="1.1" xmlns:xlink="http://www.w3.org/1999/xlink" width="42px" height="42px" xmlns="http://www.w3.org/2000/svg">
  <g transform="matrix(1 0 0 1 -170 -1836 )">
    <path d="M 191 1836  C 202.76 1836  212 1845.24  212 1857  C 212 1868.76  202.76 1878  191 1878  C 179.24 1878  170 1868.76  170 1857  C 170 1845.24  179.24 1836  191 1836  Z " fill-rule="nonzero" fill="#95f204" stroke="none" />
    <path d="M 191 1836.5  C 202.48 1836.5  211.5 1845.52  211.5 1857  C 211.5 1868.48  202.48 1877.5  191 1877.5  C 179.52 1877.5  170.5 1868.48  170.5 1857  C 170.5 1845.52  179.52 1836.5  191 1836.5  Z " stroke-width="1" stroke="#797979" fill="none" />
  </g>
</svg>