<?xml version="1.0" encoding="utf-8"?>
<svg version="1.1" xmlns:xlink="http://www.w3.org/1999/xlink" width="26px" height="26px" xmlns="http://www.w3.org/2000/svg">
  <g transform="matrix(1 0 0 1 -178 -1844 )">
    <path d="M 191 1844  C 198.28 1844  204 1849.72  204 1857  C 204 1864.28  198.28 1870  191 1870  C 183.72 1870  178 1864.28  178 1857  C 178 1849.72  183.72 1844  191 1844  Z " fill-rule="nonzero" fill="#70b603" stroke="none" />
    <path d="M 191 1844.5  C 198 1844.5  203.5 1850  203.5 1857  C 203.5 1864  198 1869.5  191 1869.5  C 184 1869.5  178.5 1864  178.5 1857  C 178.5 1850  184 1844.5  191 1844.5  Z " stroke-width="1" stroke="#797979" fill="none" />
  </g>
</svg>