<?xml version="1.0" encoding="utf-8"?>
<svg version="1.1" xmlns:xlink="http://www.w3.org/1999/xlink" width="26px" height="26px" xmlns="http://www.w3.org/2000/svg">
  <g transform="matrix(1 0 0 1 -394 -1844 )">
    <path d="M 407 1844  C 414.28 1844  420 1849.72  420 1857  C 420 1864.28  414.28 1870  407 1870  C 399.72 1870  394 1864.28  394 1857  C 394 1849.72  399.72 1844  407 1844  Z " fill-rule="nonzero" fill="#ffffff" stroke="none" />
    <path d="M 407 1844.5  C 414 1844.5  419.5 1850  419.5 1857  C 419.5 1864  414 1869.5  407 1869.5  C 400 1869.5  394.5 1864  394.5 1857  C 394.5 1850  400 1844.5  407 1844.5  Z " stroke-width="1" stroke="#797979" fill="none" />
  </g>
</svg>