<?xml version="1.0" encoding="utf-8"?>
<svg version="1.1" xmlns:xlink="http://www.w3.org/1999/xlink" width="60px" height="60px" xmlns="http://www.w3.org/2000/svg">
  <g transform="matrix(1 0 0 1 -282 -3212 )">
    <path d="M 312 3212  C 328.8 3212  342 3225.2  342 3242  C 342 3258.8  328.8 3272  312 3272  C 295.2 3272  282 3258.8  282 3242  C 282 3225.2  295.2 3212  312 3212  Z " fill-rule="nonzero" fill="#d9001b" stroke="none" />
    <path d="M 312 3212.5  C 328.52 3212.5  341.5 3225.48  341.5 3242  C 341.5 3258.52  328.52 3271.5  312 3271.5  C 295.48 3271.5  282.5 3258.52  282.5 3242  C 282.5 3225.48  295.48 3212.5  312 3212.5  Z " stroke-width="1" stroke="#797979" fill="none" />
  </g>
</svg>