<?xml version="1.0" encoding="utf-8"?>
<svg version="1.1" xmlns:xlink="http://www.w3.org/1999/xlink" width="60px" height="60px" xmlns="http://www.w3.org/2000/svg">
  <g transform="matrix(1 0 0 1 -958 -3212 )">
    <path d="M 988 3212  C 1004.8 3212  1018 3225.2  1018 3242  C 1018 3258.8  1004.8 3272  988 3272  C 971.2 3272  958 3258.8  958 3242  C 958 3225.2  971.2 3212  988 3212  Z " fill-rule="nonzero" fill="#4b7902" stroke="none" />
    <path d="M 988 3212.5  C 1004.52 3212.5  1017.5 3225.48  1017.5 3242  C 1017.5 3258.52  1004.52 3271.5  988 3271.5  C 971.48 3271.5  958.5 3258.52  958.5 3242  C 958.5 3225.48  971.48 3212.5  988 3212.5  Z " stroke-width="1" stroke="#797979" fill="none" />
  </g>
</svg>