<?xml version="1.0" encoding="utf-8"?>
<svg version="1.1" xmlns:xlink="http://www.w3.org/1999/xlink" width="140px" height="40px" xmlns="http://www.w3.org/2000/svg">
  <g transform="matrix(1 0 0 1 -971 -3757 )">
    <path d="M 972 3762  A 4 4 0 0 1 976 3758 L 1106 3758  A 4 4 0 0 1 1110 3762 L 1110 3792  A 4 4 0 0 1 1106 3796 L 976 3796  A 4 4 0 0 1 972 3792 L 972 3762  Z " fill-rule="nonzero" fill="#ffffff" stroke="none" />
    <path d="M 971.5 3762  A 4.5 4.5 0 0 1 976 3757.5 L 1106 3757.5  A 4.5 4.5 0 0 1 1110.5 3762 L 1110.5 3792  A 4.5 4.5 0 0 1 1106 3796.5 L 976 3796.5  A 4.5 4.5 0 0 1 971.5 3792 L 971.5 3762  Z " stroke-width="1" stroke-dasharray="9,4" stroke="#797979" fill="none" stroke-dashoffset="0.5" />
  </g>
</svg>