<?xml version="1.0" encoding="utf-8"?>
<svg version="1.1" xmlns:xlink="http://www.w3.org/1999/xlink" width="60px" height="60px" xmlns="http://www.w3.org/2000/svg">
  <g transform="matrix(1 0 0 1 -282 -3309 )">
    <path d="M 312 3309  C 328.8 3309  342 3322.2  342 3339  C 342 3355.8  328.8 3369  312 3369  C 295.2 3369  282 3355.8  282 3339  C 282 3322.2  295.2 3309  312 3309  Z " fill-rule="nonzero" fill="#d9001b" stroke="none" />
    <path d="M 312 3309.5  C 328.52 3309.5  341.5 3322.48  341.5 3339  C 341.5 3355.52  328.52 3368.5  312 3368.5  C 295.48 3368.5  282.5 3355.52  282.5 3339  C 282.5 3322.48  295.48 3309.5  312 3309.5  Z " stroke-width="1" stroke="#797979" fill="none" />
  </g>
</svg>