<?xml version="1.0" encoding="utf-8"?>
<svg version="1.1" xmlns:xlink="http://www.w3.org/1999/xlink" width="60px" height="60px" xmlns="http://www.w3.org/2000/svg">
  <g transform="matrix(1 0 0 1 -958 -3309 )">
    <path d="M 988 3309  C 1004.8 3309  1018 3322.2  1018 3339  C 1018 3355.8  1004.8 3369  988 3369  C 971.2 3369  958 3355.8  958 3339  C 958 3322.2  971.2 3309  988 3309  Z " fill-rule="nonzero" fill="#4b7902" stroke="none" />
    <path d="M 988 3309.5  C 1004.52 3309.5  1017.5 3322.48  1017.5 3339  C 1017.5 3355.52  1004.52 3368.5  988 3368.5  C 971.48 3368.5  958.5 3355.52  958.5 3339  C 958.5 3322.48  971.48 3309.5  988 3309.5  Z " stroke-width="1" stroke="#797979" fill="none" />
  </g>
</svg>