<?xml version="1.0" encoding="utf-8"?>
<svg version="1.1" xmlns:xlink="http://www.w3.org/1999/xlink" width="185px" height="96px" xmlns="http://www.w3.org/2000/svg">
  <defs>
    <mask fill="white" id="clip52">
      <path d="M 129 3.74468085106383  C 129.289772727273 1.86456255376756  126.936723827236 0.340425531914894  124.034090909091 0.340425531914894  L 5.78125 0.340425531914894  C 2.87861708185517 0.340425531914894  0.525568181818176 1.86456255376756  0.525568181818176 3.74468085106383  L 0.525568181818176 92.2553191489362  C 0.525568181818176 94.1354374462324  2.87861708185517 95.6595744680851  5.78125 95.6595744680851  L 124.034090909091 95.6595744680851  C 126.936723827236 95.6595744680851  129.289772727273 94.1354374462324  129 92.2553191489362  L 129 39.8297872340426  L 184.474431818182 29.6170212765957  L 129 19.4042553191489  L 129 3.74468085106383  Z " fill-rule="evenodd" />
    </mask>
  </defs>
  <g transform="matrix(1 0 0 1 -790 -3375 )">
    <path d="M 129 3.74468085106383  C 129.289772727273 1.86456255376756  126.936723827236 0.340425531914894  124.034090909091 0.340425531914894  L 5.78125 0.340425531914894  C 2.87861708185517 0.340425531914894  0.525568181818176 1.86456255376756  0.525568181818176 3.74468085106383  L 0.525568181818176 92.2553191489362  C 0.525568181818176 94.1354374462324  2.87861708185517 95.6595744680851  5.78125 95.6595744680851  L 124.034090909091 95.6595744680851  C 126.936723827236 95.6595744680851  129.289772727273 94.1354374462324  129 92.2553191489362  L 129 39.8297872340426  L 184.474431818182 29.6170212765957  L 129 19.4042553191489  L 129 3.74468085106383  Z " fill-rule="nonzero" fill="#ffffff" stroke="none" transform="matrix(1 0 0 1 790 3375 )" />
    <path d="M 129 3.74468085106383  C 129.289772727273 1.86456255376756  126.936723827236 0.340425531914894  124.034090909091 0.340425531914894  L 5.78125 0.340425531914894  C 2.87861708185517 0.340425531914894  0.525568181818176 1.86456255376756  0.525568181818176 3.74468085106383  L 0.525568181818176 92.2553191489362  C 0.525568181818176 94.1354374462324  2.87861708185517 95.6595744680851  5.78125 95.6595744680851  L 124.034090909091 95.6595744680851  C 126.936723827236 95.6595744680851  129.289772727273 94.1354374462324  129 92.2553191489362  L 129 39.8297872340426  L 184.474431818182 29.6170212765957  L 129 19.4042553191489  L 129 3.74468085106383  Z " stroke-width="2" stroke="#797979" fill="none" transform="matrix(1 0 0 1 790 3375 )" mask="url(#clip52)" />
  </g>
</svg>