<?xml version="1.0" encoding="utf-8"?>
<svg version="1.1" xmlns:xlink="http://www.w3.org/1999/xlink" width="140px" height="40px" xmlns="http://www.w3.org/2000/svg">
  <g transform="matrix(1 0 0 1 -971 -3854 )">
    <path d="M 972 3859  A 4 4 0 0 1 976 3855 L 1106 3855  A 4 4 0 0 1 1110 3859 L 1110 3889  A 4 4 0 0 1 1106 3893 L 976 3893  A 4 4 0 0 1 972 3889 L 972 3859  Z " fill-rule="nonzero" fill="#ffffff" stroke="none" />
    <path d="M 971.5 3859  A 4.5 4.5 0 0 1 976 3854.5 L 1106 3854.5  A 4.5 4.5 0 0 1 1110.5 3859 L 1110.5 3889  A 4.5 4.5 0 0 1 1106 3893.5 L 976 3893.5  A 4.5 4.5 0 0 1 971.5 3889 L 971.5 3859  Z " stroke-width="1" stroke-dasharray="9,4" stroke="#797979" fill="none" stroke-dashoffset="0.5" />
  </g>
</svg>