<?xml version="1.0" encoding="utf-8"?>
<svg version="1.1" xmlns:xlink="http://www.w3.org/1999/xlink" width="150px" height="53px" xmlns="http://www.w3.org/2000/svg">
  <g transform="matrix(1 0 0 1 -1140 -2329 )">
    <path d="M 1268.87518417112 2329.5  C 1268.87518417112 2329.5  1272.52956367459 2330.14560704561  1272.52956367459 2330.14560704561  C 1272.52956367459 2330.14560704561  1289.43686112155 2355.5  1289.43686112155 2355.5  C 1289.43686112155 2355.5  1272.52956367459 2380.85439295439  1272.52956367459 2380.85439295439  C 1272.52956367459 2380.85439295439  1268.87518417112 2381.5  1268.87518417112 2381.5  C 1268.87518417112 2381.5  1140.5 2381.5  1140.5 2381.5  C 1140.5 2381.5  1140.5 2329.5  1140.5 2329.5  C 1140.5 2329.5  1268.87518417112 2329.5  1268.87518417112 2329.5  Z " fill-rule="nonzero" fill="#ffffff" stroke="none" />
    <path d="M 1268.87518417112 2329.5  C 1268.87518417112 2329.5  1272.52956367459 2330.14560704561  1272.52956367459 2330.14560704561  C 1272.52956367459 2330.14560704561  1289.43686112155 2355.5  1289.43686112155 2355.5  C 1289.43686112155 2355.5  1272.52956367459 2380.85439295439  1272.52956367459 2380.85439295439  C 1272.52956367459 2380.85439295439  1268.87518417112 2381.5  1268.87518417112 2381.5  C 1268.87518417112 2381.5  1140.5 2381.5  1140.5 2381.5  C 1140.5 2381.5  1140.5 2329.5  1140.5 2329.5  C 1140.5 2329.5  1268.87518417112 2329.5  1268.87518417112 2329.5  Z " stroke-width="1" stroke="#797979" fill="none" />
  </g>
</svg>