<?xml version="1.0" encoding="utf-8"?>
<svg version="1.1" xmlns:xlink="http://www.w3.org/1999/xlink" width="480px" height="77px" xmlns="http://www.w3.org/2000/svg">
  <g transform="matrix(1 0 0 1 -10 -112 )">
    <path d="M 250 112  C 384.4 112  490 128.94  490 150.5  C 490 172.06  384.4 189  250 189  C 115.6 189  10 172.06  10 150.5  C 10 128.94  115.6 112  250 112  Z " fill-rule="nonzero" fill="#ffff00" stroke="none" />
    <path d="M 250 112.5  C 384.12 112.5  489.5 129.22  489.5 150.5  C 489.5 171.78  384.12 188.5  250 188.5  C 115.88 188.5  10.5 171.78  10.5 150.5  C 10.5 129.22  115.88 112.5  250 112.5  Z " stroke-width="1" stroke="#797979" fill="none" />
  </g>
</svg>