<?xml version="1.0" encoding="utf-8"?>
<svg version="1.1" xmlns:xlink="http://www.w3.org/1999/xlink" width="168px" height="87px" xmlns="http://www.w3.org/2000/svg">
  <defs>
    <mask fill="white" id="clip62">
      <path d="M 168 56.55  C 168 34.8  117.6 21.75  84 0  C 50.4 21.75  0 34.8  0 56.55  C 0 67.86  16.8 87  84 87  C 151.2 87  168 67.86  168 56.55  Z " fill-rule="evenodd" />
    </mask>
  </defs>
  <g transform="matrix(1 0 0 1 -566 -1123 )">
    <path d="M 168 56.55  C 168 34.8  117.6 21.75  84 0  C 50.4 21.75  0 34.8  0 56.55  C 0 67.86  16.8 87  84 87  C 151.2 87  168 67.86  168 56.55  Z " fill-rule="nonzero" fill="#d7d7d7" stroke="none" transform="matrix(1 0 0 1 566 1123 )" />
    <path d="M 168 56.55  C 168 34.8  117.6 21.75  84 0  C 50.4 21.75  0 34.8  0 56.55  C 0 67.86  16.8 87  84 87  C 151.2 87  168 67.86  168 56.55  Z " stroke-width="2" stroke="#797979" fill="none" transform="matrix(1 0 0 1 566 1123 )" mask="url(#clip62)" />
  </g>
</svg>