<?xml version="1.0" encoding="utf-8"?>
<svg version="1.1" xmlns:xlink="http://www.w3.org/1999/xlink" width="35px" height="35px" xmlns="http://www.w3.org/2000/svg">
  <g transform="matrix(1 0 0 1 0 -200 )">
    <path d="M 17.5 200  C 27.3 200  35 207.7  35 217.5  C 35 227.3  27.3 235  17.5 235  C 7.7 235  0 227.3  0 217.5  C 0 207.7  7.7 200  17.5 200  Z " fill-rule="nonzero" fill="#ffffff" stroke="none" />
    <path d="M 17.5 200.5  C 27.02 200.5  34.5 207.98  34.5 217.5  C 34.5 227.02  27.02 234.5  17.5 234.5  C 7.98 234.5  0.5 227.02  0.5 217.5  C 0.5 207.98  7.98 200.5  17.5 200.5  Z " stroke-width="1" stroke="#797979" fill="none" />
  </g>
</svg>