<?xml version="1.0" encoding="utf-8"?>
<svg version="1.1" xmlns:xlink="http://www.w3.org/1999/xlink" width="170px" height="170px" xmlns="http://www.w3.org/2000/svg">
  <g transform="matrix(1 0 0 1 -565 -979 )">
    <path d="M 650 979  C 697.6 979  735 1016.4  735 1064  C 735 1111.6  697.6 1149  650 1149  C 602.4 1149  565 1111.6  565 1064  C 565 1016.4  602.4 979  650 979  Z " fill-rule="nonzero" fill="#ffffff" stroke="none" />
    <path d="M 650 979.5  C 697.32 979.5  734.5 1016.68  734.5 1064  C 734.5 1111.32  697.32 1148.5  650 1148.5  C 602.68 1148.5  565.5 1111.32  565.5 1064  C 565.5 1016.68  602.68 979.5  650 979.5  Z " stroke-width="1" stroke="#797979" fill="none" />
  </g>
</svg>