<?xml version="1.0" encoding="utf-8"?>
<svg version="1.1" xmlns:xlink="http://www.w3.org/1999/xlink" width="166px" height="102px" xmlns="http://www.w3.org/2000/svg">
  <g transform="matrix(1 0 0 1 -567 -986 )">
    <path d="M 650 986  C 696.48 986  733 1008.44  733 1037  C 733 1065.56  696.48 1088  650 1088  C 603.52 1088  567 1065.56  567 1037  C 567 1008.44  603.52 986  650 986  Z " fill-rule="nonzero" fill="#d7d7d7" stroke="none" />
    <path d="M 650 986.5  C 696.2 986.5  732.5 1008.72  732.5 1037  C 732.5 1065.28  696.2 1087.5  650 1087.5  C 603.8 1087.5  567.5 1065.28  567.5 1037  C 567.5 1008.72  603.8 986.5  650 986.5  Z " stroke-width="1" stroke="#797979" fill="none" />
  </g>
</svg>