<?xml version="1.0" encoding="utf-8"?>
<svg version="1.1" xmlns:xlink="http://www.w3.org/1999/xlink" width="221px" height="69px" xmlns="http://www.w3.org/2000/svg">
  <g transform="matrix(1 0 0 1 -540 -979 )">
    <path d="M 650.5 979  C 712.38 979  761 994.18  761 1013.5  C 761 1032.82  712.38 1048  650.5 1048  C 588.62 1048  540 1032.82  540 1013.5  C 540 994.18  588.62 979  650.5 979  Z " fill-rule="nonzero" fill="#ffffff" stroke="none" />
    <path d="M 650.5 979.5  C 712.1 979.5  760.5 994.46  760.5 1013.5  C 760.5 1032.54  712.1 1047.5  650.5 1047.5  C 588.9 1047.5  540.5 1032.54  540.5 1013.5  C 540.5 994.46  588.9 979.5  650.5 979.5  Z " stroke-width="1" stroke="#797979" fill="none" />
  </g>
</svg>