<?xml version="1.0" encoding="utf-8"?>
<svg version="1.1" xmlns:xlink="http://www.w3.org/1999/xlink" width="85px" height="85px" xmlns="http://www.w3.org/2000/svg">
  <g transform="matrix(1 0 0 1 -328 -1760 )">
    <path d="M 370.5 1760  C 394.3 1760  413 1778.7  413 1802.5  C 413 1826.3  394.3 1845  370.5 1845  C 346.7 1845  328 1826.3  328 1802.5  C 328 1778.7  346.7 1760  370.5 1760  Z " fill-rule="nonzero" fill="#ffffff" stroke="none" />
    <path d="M 370.5 1760.5  C 394.02 1760.5  412.5 1778.98  412.5 1802.5  C 412.5 1826.02  394.02 1844.5  370.5 1844.5  C 346.98 1844.5  328.5 1826.02  328.5 1802.5  C 328.5 1778.98  346.98 1760.5  370.5 1760.5  Z " stroke-width="1" stroke="#797979" fill="none" />
  </g>
</svg>