<?xml version="1.0" encoding="utf-8"?>
<svg version="1.1" xmlns:xlink="http://www.w3.org/1999/xlink" width="45px" height="45px" xmlns="http://www.w3.org/2000/svg">
  <g transform="matrix(1 0 0 1 -628 -1019 )">
    <path d="M 645.811706527482 1035.04711762656  L 650.5 1020.61803398875  L 655.188293472518 1035.04711762656  L 670.359929848053 1035.04711762656  L 658.085818187768 1043.96478174125  L 662.774111660285 1058.39386537906  L 650.5 1049.47620126438  L 638.225888339715 1058.39386537906  L 642.914181812232 1043.96478174125  L 630.640070151947 1035.04711762656  L 645.811706527482 1035.04711762656  Z " fill-rule="nonzero" fill="#ffffff" stroke="none" />
    <path d="M 645.44843526348 1034.54711762656  L 650.5 1019  L 655.55156473652 1034.54711762656  L 671.898771616641 1034.54711762656  L 658.67360344006 1044.15576474687  L 663.725168176581 1059.70288237344  L 650.5 1050.09423525313  L 637.274831823419 1059.70288237344  L 642.32639655994 1044.15576474687  L 629.101228383359 1034.54711762656  L 645.44843526348 1034.54711762656  Z M 650.5 1022.2360679775  L 646.174977791485 1035.54711762656  L 632.178911920534 1035.54711762656  L 643.501967064525 1043.77379873562  L 639.17694485601 1057.08484838469  L 650.5 1048.85816727563  L 661.82305514399 1057.08484838469  L 657.498032935475 1043.77379873562  L 668.821088079466 1035.54711762656  L 654.825022208515 1035.54711762656  L 650.5 1022.2360679775  Z " fill-rule="nonzero" fill="#797979" stroke="none" />
  </g>
</svg>