<?xml version="1.0" encoding="utf-8"?>
<svg version="1.1" xmlns:xlink="http://www.w3.org/1999/xlink" width="42px" height="42px" xmlns="http://www.w3.org/2000/svg">
  <g transform="matrix(1 0 0 1 -344 -1836 )">
    <path d="M 365 1836  C 376.76 1836  386 1845.24  386 1857  C 386 1868.76  376.76 1878  365 1878  C 353.24 1878  344 1868.76  344 1857  C 344 1845.24  353.24 1836  365 1836  Z " fill-rule="nonzero" fill="#95f204" stroke="none" />
    <path d="M 365 1836.5  C 376.48 1836.5  385.5 1845.52  385.5 1857  C 385.5 1868.48  376.48 1877.5  365 1877.5  C 353.52 1877.5  344.5 1868.48  344.5 1857  C 344.5 1845.52  353.52 1836.5  365 1836.5  Z " stroke-width="1" stroke="#797979" fill="none" />
  </g>
</svg>