<?xml version="1.0" encoding="utf-8"?>
<svg version="1.1" xmlns:xlink="http://www.w3.org/1999/xlink" width="42px" height="42px" xmlns="http://www.w3.org/2000/svg">
  <g transform="matrix(1 0 0 1 -732 -1836 )">
    <path d="M 753 1836  C 764.76 1836  774 1845.24  774 1857  C 774 1868.76  764.76 1878  753 1878  C 741.24 1878  732 1868.76  732 1857  C 732 1845.24  741.24 1836  753 1836  Z " fill-rule="nonzero" fill="#ffffff" stroke="none" />
    <path d="M 753 1836.5  C 764.48 1836.5  773.5 1845.52  773.5 1857  C 773.5 1868.48  764.48 1877.5  753 1877.5  C 741.52 1877.5  732.5 1868.48  732.5 1857  C 732.5 1845.52  741.52 1836.5  753 1836.5  Z " stroke-width="1" stroke="#797979" fill="none" />
  </g>
</svg>