<?xml version="1.0" encoding="utf-8"?>
<svg version="1.1" xmlns:xlink="http://www.w3.org/1999/xlink" width="26px" height="26px" xmlns="http://www.w3.org/2000/svg">
  <g transform="matrix(1 0 0 1 -352 -1844 )">
    <path d="M 365 1844  C 372.28 1844  378 1849.72  378 1857  C 378 1864.28  372.28 1870  365 1870  C 357.72 1870  352 1864.28  352 1857  C 352 1849.72  357.72 1844  365 1844  Z " fill-rule="nonzero" fill="#70b603" stroke="none" />
    <path d="M 365 1844.5  C 372 1844.5  377.5 1850  377.5 1857  C 377.5 1864  372 1869.5  365 1869.5  C 358 1869.5  352.5 1864  352.5 1857  C 352.5 1850  358 1844.5  365 1844.5  Z " stroke-width="1" stroke="#797979" fill="none" />
  </g>
</svg>