<?xml version="1.0" encoding="utf-8"?>
<svg version="1.1" xmlns:xlink="http://www.w3.org/1999/xlink" width="26px" height="26px" xmlns="http://www.w3.org/2000/svg">
  <g transform="matrix(1 0 0 1 -740 -1844 )">
    <path d="M 753 1844  C 760.28 1844  766 1849.72  766 1857  C 766 1864.28  760.28 1870  753 1870  C 745.72 1870  740 1864.28  740 1857  C 740 1849.72  745.72 1844  753 1844  Z " fill-rule="nonzero" fill="#ffffff" stroke="none" />
    <path d="M 753 1844.5  C 760 1844.5  765.5 1850  765.5 1857  C 765.5 1864  760 1869.5  753 1869.5  C 746 1869.5  740.5 1864  740.5 1857  C 740.5 1850  746 1844.5  753 1844.5  Z " stroke-width="1" stroke="#797979" fill="none" />
  </g>
</svg>