<?xml version="1.0" encoding="utf-8"?>
<svg version="1.1" xmlns:xlink="http://www.w3.org/1999/xlink" width="80px" height="80px" xmlns="http://www.w3.org/2000/svg">
  <g transform="matrix(1 0 0 1 -212 -2104 )">
    <path d="M 252 2107  C 272.72 2107  289 2123.28  289 2144  C 289 2164.72  272.72 2181  252 2181  C 231.28 2181  215 2164.72  215 2144  C 215 2123.28  231.28 2107  252 2107  Z " fill-rule="nonzero" fill="#ffffff" stroke="none" />
    <path d="M 252 2106  C 273.28 2106  290 2122.72  290 2144  C 290 2165.28  273.28 2182  252 2182  C 230.72 2182  214 2165.28  214 2144  C 214 2122.72  230.72 2106  252 2106  Z " stroke-width="4" stroke="#797979" fill="none" />
  </g>
</svg>