<?xml version="1.0" encoding="utf-8"?>
<svg version="1.1" xmlns:xlink="http://www.w3.org/1999/xlink" width="63px" height="70px" xmlns="http://www.w3.org/2000/svg">
  <g transform="matrix(1 0 0 1 -497 -1174 )">
    <path d="M 528.5 1174  C 546.14 1174  560 1189.4  560 1209  C 560 1228.6  546.14 1244  528.5 1244  C 510.86 1244  497 1228.6  497 1209  C 497 1189.4  510.86 1174  528.5 1174  Z " fill-rule="nonzero" fill="#ffffff" stroke="none" />
    <path d="M 528.5 1174.5  C 545.86 1174.5  559.5 1189.68  559.5 1209  C 559.5 1228.32  545.86 1243.5  528.5 1243.5  C 511.14 1243.5  497.5 1228.32  497.5 1209  C 497.5 1189.68  511.14 1174.5  528.5 1174.5  Z " stroke-width="1" stroke="#797979" fill="none" />
  </g>
</svg>