<?xml version="1.0" encoding="utf-8"?>
<svg version="1.1" xmlns:xlink="http://www.w3.org/1999/xlink" width="28px" height="16px" xmlns="http://www.w3.org/2000/svg">
  <g transform="matrix(1 0 0 1 -514 -1166 )">
    <path d="M 528 1166  C 535.84 1166  542 1169.52  542 1174  C 542 1178.48  535.84 1182  528 1182  C 520.16 1182  514 1178.48  514 1174  C 514 1169.52  520.16 1166  528 1166  Z " fill-rule="nonzero" fill="#ffffff" stroke="none" />
    <path d="M 528 1166.5  C 535.56 1166.5  541.5 1169.8  541.5 1174  C 541.5 1178.2  535.56 1181.5  528 1181.5  C 520.44 1181.5  514.5 1178.2  514.5 1174  C 514.5 1169.8  520.44 1166.5  528 1166.5  Z " stroke-width="1" stroke="#797979" fill="none" />
  </g>
</svg>