<?xml version="1.0" encoding="utf-8"?>
<svg version="1.1" xmlns:xlink="http://www.w3.org/1999/xlink" width="114px" height="114px" xmlns="http://www.w3.org/2000/svg">
  <g transform="matrix(1 0 0 1 -108 -1397 )">
    <path d="M 165 1397  C 196.92 1397  222 1422.08  222 1454  C 222 1485.92  196.92 1511  165 1511  C 133.08 1511  108 1485.92  108 1454  C 108 1422.08  133.08 1397  165 1397  Z " fill-rule="nonzero" fill="#ffffff" stroke="none" />
    <path d="M 165 1397.5  C 196.64 1397.5  221.5 1422.36  221.5 1454  C 221.5 1485.64  196.64 1510.5  165 1510.5  C 133.36 1510.5  108.5 1485.64  108.5 1454  C 108.5 1422.36  133.36 1397.5  165 1397.5  Z " stroke-width="1" stroke="#797979" fill="none" />
  </g>
</svg>