<?xml version="1.0" encoding="utf-8"?>
<svg version="1.1" xmlns:xlink="http://www.w3.org/1999/xlink" width="170px" height="311px" xmlns="http://www.w3.org/2000/svg">
  <g transform="matrix(1 0 0 1 -59 -1986 )">
    <path d="M 144 1986  C 191.6 1986  229 2054.42  229 2141.5  C 229 2228.58  191.6 2297  144 2297  C 96.4 2297  59 2228.58  59 2141.5  C 59 2054.42  96.4 1986  144 1986  Z " fill-rule="nonzero" fill="#ffffff" stroke="none" />
    <path d="M 144 1986.5  C 191.32 1986.5  228.5 2054.7  228.5 2141.5  C 228.5 2228.3  191.32 2296.5  144 2296.5  C 96.68 2296.5  59.5 2228.3  59.5 2141.5  C 59.5 2054.7  96.68 1986.5  144 1986.5  Z " stroke-width="1" stroke="#797979" fill="none" />
  </g>
</svg>