<?xml version="1.0" encoding="utf-8"?>
<svg version="1.1" xmlns:xlink="http://www.w3.org/1999/xlink" width="25px" height="45px" xmlns="http://www.w3.org/2000/svg">
  <g transform="matrix(1 0 0 1 -251 -3094 )">
    <path d="M 263.5 3094  C 270.5 3094  276 3103.9  276 3116.5  C 276 3129.1  270.5 3139  263.5 3139  C 256.5 3139  251 3129.1  251 3116.5  C 251 3103.9  256.5 3094  263.5 3094  Z " fill-rule="nonzero" fill="#ffffff" stroke="none" />
    <path d="M 263.5 3094.5  C 270.22 3094.5  275.5 3104.18  275.5 3116.5  C 275.5 3128.82  270.22 3138.5  263.5 3138.5  C 256.78 3138.5  251.5 3128.82  251.5 3116.5  C 251.5 3104.18  256.78 3094.5  263.5 3094.5  Z " stroke-width="1" stroke="#797979" fill="none" />
  </g>
</svg>