<?xml version="1.0" encoding="utf-8"?>
<svg version="1.1" xmlns:xlink="http://www.w3.org/1999/xlink" width="25px" height="25px" xmlns="http://www.w3.org/2000/svg">
  <g transform="matrix(1 0 0 1 -251 -3072 )">
    <path d="M 263.5 3072  C 270.5 3072  276 3077.5  276 3084.5  C 276 3091.5  270.5 3097  263.5 3097  C 256.5 3097  251 3091.5  251 3084.5  C 251 3077.5  256.5 3072  263.5 3072  Z " fill-rule="nonzero" fill="#ffffff" stroke="none" />
    <path d="M 263.5 3072.5  C 270.22 3072.5  275.5 3077.78  275.5 3084.5  C 275.5 3091.22  270.22 3096.5  263.5 3096.5  C 256.78 3096.5  251.5 3091.22  251.5 3084.5  C 251.5 3077.78  256.78 3072.5  263.5 3072.5  Z " stroke-width="1" stroke="#797979" fill="none" />
  </g>
</svg>