<?xml version="1.0" encoding="utf-8"?>
<svg version="1.1" xmlns:xlink="http://www.w3.org/1999/xlink" width="11px" height="55px" xmlns="http://www.w3.org/2000/svg">
  <g transform="matrix(1 0 0 1 -14 -3863 )">
    <path d="M 22.47360679775 3870.3222135955  C 22.47360679775 3870.3222135955  14.40249223595 3890.5  14.40249223595 3890.5  C 14.40249223595 3890.5  22.47360679775 3910.6777864045  22.47360679775 3910.6777864045  C 22.47360679775 3910.6777864045  24.5 3915.74376941013  24.5 3915.74376941013  C 24.5 3915.74376941013  24.5 3865.25623058988  24.5 3865.25623058988  C 24.5 3865.25623058988  22.47360679775 3870.3222135955  22.47360679775 3870.3222135955  Z " fill-rule="nonzero" fill="#ffffff" stroke="none" />
    <path d="M 22.47360679775 3870.3222135955  C 22.47360679775 3870.3222135955  14.40249223595 3890.5  14.40249223595 3890.5  C 14.40249223595 3890.5  22.47360679775 3910.6777864045  22.47360679775 3910.6777864045  C 22.47360679775 3910.6777864045  24.5 3915.74376941013  24.5 3915.74376941013  C 24.5 3915.74376941013  24.5 3865.25623058988  24.5 3865.25623058988  C 24.5 3865.25623058988  22.47360679775 3870.3222135955  22.47360679775 3870.3222135955  Z " stroke-width="1" stroke="#797979" fill="none" />
  </g>
</svg>