<?xml version="1.0" encoding="utf-8"?>
<svg version="1.1" xmlns:xlink="http://www.w3.org/1999/xlink" width="11px" height="55px" xmlns="http://www.w3.org/2000/svg">
  <g transform="matrix(1 0 0 1 -395 -3863 )">
    <path d="M 397.52639320225 3870.3222135955  C 397.52639320225 3870.3222135955  405.59750776405 3890.5  405.59750776405 3890.5  C 405.59750776405 3890.5  397.52639320225 3910.6777864045  397.52639320225 3910.6777864045  C 397.52639320225 3910.6777864045  395.5 3915.74376941013  395.5 3915.74376941013  C 395.5 3915.74376941013  395.5 3865.25623058988  395.5 3865.25623058988  C 395.5 3865.25623058988  397.52639320225 3870.3222135955  397.52639320225 3870.3222135955  Z " fill-rule="nonzero" fill="#ffffff" stroke="none" />
    <path d="M 397.52639320225 3870.3222135955  C 397.52639320225 3870.3222135955  405.59750776405 3890.5  405.59750776405 3890.5  C 405.59750776405 3890.5  397.52639320225 3910.6777864045  397.52639320225 3910.6777864045  C 397.52639320225 3910.6777864045  395.5 3915.74376941013  395.5 3915.74376941013  C 395.5 3915.74376941013  395.5 3865.25623058988  395.5 3865.25623058988  C 395.5 3865.25623058988  397.52639320225 3870.3222135955  397.52639320225 3870.3222135955  Z " stroke-width="1" stroke="#797979" fill="none" />
  </g>
</svg>