<?xml version="1.0" encoding="utf-8"?>
<svg version="1.1" xmlns:xlink="http://www.w3.org/1999/xlink" width="25px" height="25px" xmlns="http://www.w3.org/2000/svg">
  <g transform="matrix(1 0 0 1 -83 -1289 )">
    <path d="M 20.4752604166667 18.9778645833333  C 20.7139756944444 18.4027777777778  20.8333333333333 17.8548177083333  20.8333333333333 17.333984375  C 20.8333333333333 17.2146267361111  20.8224826388889 17.1278211805556  20.80078125 17.0735677083333  C 20.7790798611111 17.0193142361111  20.6814236111111 16.9297960069444  20.5078125 16.8050130208333  C 20.3342013888889 16.6802300347222  20.1144748263889 16.5445963541667  19.8486328125 16.3981119791667  C 19.5827907986111 16.2516276041667  19.3250868055556 16.1078559027778  19.0755208333333 15.966796875  C 18.8259548611111 15.8257378472222  18.5791015625 15.6901041666667  18.3349609375 15.5598958333333  C 18.0908203125 15.4296875  17.9361979166667 15.3483072916667  17.87109375 15.3157552083333  C 17.8168402777778 15.283203125  17.7137586805556 15.2126736111111  17.5618489583333 15.1041666666667  C 17.4099392361111 14.9956597222222  17.2743055555556 14.9142795138889  17.1549479166667 14.8600260416667  C 17.0355902777778 14.8057725694444  16.9216579861111 14.7786458333333  16.8131510416667 14.7786458333333  C 16.650390625 14.7786458333333  16.4523654513889 14.8898654513889  16.2190755208333 15.1123046875  C 15.9857855902778 15.3347439236111  15.771484375 15.5788845486111  15.576171875 15.8447265625  C 15.380859375 16.1105685763889  15.1719835069444 16.3547092013889  14.9495442708333 16.5771484375  C 14.7271050347222 16.7995876736111  14.5453559027778 16.9108072916667  14.404296875 16.9108072916667  C 14.3283420138889 16.9108072916667  14.2388237847222 16.8918185763889  14.1357421875 16.8538411458333  C 14.0326605902778 16.8158637152778  13.9485677083333 16.7805989583333  13.8834635416667 16.748046875  C 13.818359375 16.7154947916667  13.7261284722222 16.6639539930556  13.6067708333333 16.5934244791667  C 13.4874131944444 16.5228949652778  13.4114583333333 16.4767795138889  13.37890625 16.455078125  C 12.3046875 15.8582899305556  11.3823784722222 15.1719835069444  10.6119791666667 14.3961588541667  C 9.84157986111111 13.6203342013889  9.15256076388889 12.6953125  8.544921875 11.62109375  C 8.52322048611111 11.5885416666667  8.47710503472222 11.5125868055556  8.40657552083333 11.3932291666667  C 8.33604600694445 11.2738715277778  8.28450520833333 11.181640625  8.251953125 11.1165364583333  C 8.21940104166667 11.0514322916667  8.18413628472222 10.9673394097222  8.14615885416667 10.8642578125  C 8.10818142361111 10.7611762152778  8.08919270833333 10.6716579861111  8.08919270833333 10.595703125  C 8.08919270833333 10.4546440972222  8.20041232638889 10.2728949652778  8.4228515625 10.0504557291667  C 8.64529079861111 9.82801649305556  8.88943142361111 9.619140625  9.1552734375 9.423828125  C 9.42111545138889 9.228515625  9.66525607638889 9.01421440972222  9.8876953125 8.78092447916667  C 10.1101345486111 8.54763454861111  10.2213541666667 8.349609375  10.2213541666667 8.18684895833333  C 10.2213541666667 8.07834201388889  10.1942274305556 7.96440972222222  10.1399739583333 7.84505208333333  C 10.0857204861111 7.72569444444444  10.0043402777778 7.59006076388889  9.89583333333333 7.43815104166667  C 9.78732638888889 7.28624131944444  9.716796875 7.18315972222222  9.68424479166667 7.12890625  C 9.65169270833333 7.06380208333333  9.5703125 6.9091796875  9.44010416666667 6.6650390625  C 9.30989583333333 6.4208984375  9.17426215277778 6.17404513888889  9.033203125 5.92447916666667  C 8.89214409722222 5.67491319444444  8.74837239583333 5.41720920138889  8.60188802083333 5.1513671875  C 8.45540364583333 4.88552517361111  8.31976996527778 4.66579861111111  8.19498697916667 4.4921875  C 8.07020399305556 4.31857638888889  7.98068576388889 4.22092013888889  7.92643229166667 4.19921875  C 7.87217881944444 4.17751736111111  7.78537326388889 4.16666666666667  7.666015625 4.16666666666667  C 7.14518229166667 4.16666666666667  6.59722222222222 4.28602430555556  6.02213541666667 4.52473958333333  C 5.52300347222222 4.75260416666667  5.08897569444444 5.26529947916667  4.72005208333333 6.06282552083333  C 4.35112847222222 6.8603515625  4.16666666666667 7.568359375  4.16666666666667 8.18684895833333  C 4.16666666666667 8.36046006944444  4.18023003472222 8.544921875  4.20735677083333 8.740234375  C 4.23448350694444 8.935546875  4.26161024305556 9.10101996527778  4.28873697916667 9.23665364583333  C 4.31586371527778 9.37228732638889  4.36469184027778 9.55132378472222  4.43522135416667 9.77376302083333  C 4.50575086805556 9.99620225694444  4.56000434027778 10.15625  4.59798177083333 10.25390625  C 4.63595920138889 10.3515625  4.70377604166667 10.5305989583333  4.80143229166667 10.791015625  C 4.89908854166667 11.0514322916667  4.95876736111111 11.2141927083333  4.98046875 11.279296875  C 5.63151041666667 13.0588107638889  6.80609809027778 14.7976345486111  8.50423177083333 16.4957682291667  C 10.2023654513889 18.1939019097222  11.9411892361111 19.3684895833333  13.720703125 20.01953125  C 13.7858072916667 20.0412326388889  13.9485677083333 20.1009114583333  14.208984375 20.1985677083333  C 14.4694010416667 20.2962239583333  14.6484375 20.3640407986111  14.74609375 20.4020182291667  C 14.84375 20.4399956597222  15.0037977430556 20.4942491319444  15.2262369791667 20.5647786458333  C 15.4486762152778 20.6353081597222  15.6277126736111 20.6841362847222  15.7633463541667 20.7112630208333  C 15.8989800347222 20.7383897569444  16.064453125 20.7655164930556  16.259765625 20.7926432291667  C 16.455078125 20.8197699652778  16.6395399305556 20.8333333333333  16.8131510416667 20.8333333333333  C 17.431640625 20.8333333333333  18.1396484375 20.6488715277778  18.9371744791667 20.2799479166667  C 19.7347005208333 19.9110243055556  20.2473958333333 19.4769965277778  20.4752604166667 18.9778645833333  Z M 23.6246744791667 1.37532552083333  C 24.5415581597222 2.29220920138889  25 3.39626736111111  25 4.6875  L 25 20.3125  C 25 21.6037326388889  24.5415581597222 22.7077907986111  23.6246744791667 23.6246744791667  C 22.7077907986111 24.5415581597222  21.6037326388889 25  20.3125 25  L 4.6875 25  C 3.39626736111111 25  2.29220920138889 24.5415581597222  1.37532552083333 23.6246744791667  C 0.458441840277778 22.7077907986111  0 21.6037326388889  0 20.3125  L 0 4.6875  C 0 3.39626736111111  0.458441840277778 2.29220920138889  1.37532552083333 1.37532552083333  C 2.29220920138889 0.458441840277776  3.39626736111111 0  4.6875 0  L 20.3125 0  C 21.6037326388889 0  22.7077907986111 0.458441840277776  23.6246744791667 1.37532552083333  Z " fill-rule="nonzero" fill="#7f7f7f" stroke="none" transform="matrix(1 0 0 1 83 1289 )" />
  </g>
</svg>