<?xml version="1.0" encoding="utf-8"?>
<svg version="1.1" xmlns:xlink="http://www.w3.org/1999/xlink" width="65px" height="65px" xmlns="http://www.w3.org/2000/svg">
  <g transform="matrix(1 0 0 1 -174 -2794 )">
    <path d="M 206.5 2794  C 224.7 2794  239 2808.3  239 2826.5  C 239 2844.7  224.7 2859  206.5 2859  C 188.3 2859  174 2844.7  174 2826.5  C 174 2808.3  188.3 2794  206.5 2794  Z " fill-rule="nonzero" fill="#ffffff" stroke="none" />
    <path d="M 206.5 2794.5  C 224.42 2794.5  238.5 2808.58  238.5 2826.5  C 238.5 2844.42  224.42 2858.5  206.5 2858.5  C 188.58 2858.5  174.5 2844.42  174.5 2826.5  C 174.5 2808.58  188.58 2794.5  206.5 2794.5  Z " stroke-width="1" stroke="#797979" fill="none" />
  </g>
</svg>