<?xml version="1.0" encoding="utf-8"?>
<svg version="1.1" xmlns:xlink="http://www.w3.org/1999/xlink" width="65px" height="65px" xmlns="http://www.w3.org/2000/svg">
  <g transform="matrix(1 0 0 1 -174 -2997 )">
    <path d="M 206.5 2997  C 224.7 2997  239 3011.3  239 3029.5  C 239 3047.7  224.7 3062  206.5 3062  C 188.3 3062  174 3047.7  174 3029.5  C 174 3011.3  188.3 2997  206.5 2997  Z " fill-rule="nonzero" fill="#ffffff" stroke="none" />
    <path d="M 206.5 2997.5  C 224.42 2997.5  238.5 3011.58  238.5 3029.5  C 238.5 3047.42  224.42 3061.5  206.5 3061.5  C 188.58 3061.5  174.5 3047.42  174.5 3029.5  C 174.5 3011.58  188.58 2997.5  206.5 2997.5  Z " stroke-width="1" stroke="#797979" fill="none" />
  </g>
</svg>