<?xml version="1.0" encoding="utf-8"?>
<svg version="1.1" xmlns:xlink="http://www.w3.org/1999/xlink" width="64px" height="64px" xmlns="http://www.w3.org/2000/svg">
  <g transform="matrix(1 0 0 1 -197 -2454 )">
    <path d="M 229 2454  C 246.92 2454  261 2468.08  261 2486  C 261 2503.92  246.92 2518  229 2518  C 211.08 2518  197 2503.92  197 2486  C 197 2468.08  211.08 2454  229 2454  Z " fill-rule="nonzero" fill="#ffffff" stroke="none" />
    <path d="M 229 2454.5  C 246.64 2454.5  260.5 2468.36  260.5 2486  C 260.5 2503.64  246.64 2517.5  229 2517.5  C 211.36 2517.5  197.5 2503.64  197.5 2486  C 197.5 2468.36  211.36 2454.5  229 2454.5  Z " stroke-width="1" stroke="#797979" fill="none" />
  </g>
</svg>