<?xml version="1.0" encoding="utf-8"?>
<svg version="1.1" xmlns:xlink="http://www.w3.org/1999/xlink" width="64px" height="64px" xmlns="http://www.w3.org/2000/svg">
  <g transform="matrix(1 0 0 1 -197 -2657 )">
    <path d="M 229 2657  C 246.92 2657  261 2671.08  261 2689  C 261 2706.92  246.92 2721  229 2721  C 211.08 2721  197 2706.92  197 2689  C 197 2671.08  211.08 2657  229 2657  Z " fill-rule="nonzero" fill="#ffffff" stroke="none" />
    <path d="M 229 2657.5  C 246.64 2657.5  260.5 2671.36  260.5 2689  C 260.5 2706.64  246.64 2720.5  229 2720.5  C 211.36 2720.5  197.5 2706.64  197.5 2689  C 197.5 2671.36  211.36 2657.5  229 2657.5  Z " stroke-width="1" stroke="#797979" fill="none" />
  </g>
</svg>