<?xml version="1.0" encoding="utf-8"?>
<svg version="1.1" xmlns:xlink="http://www.w3.org/1999/xlink" width="125px" height="125px" xmlns="http://www.w3.org/2000/svg">
  <g transform="matrix(1 0 0 1 -45 -2954 )">
    <path d="M 107.5 2954  C 142.5 2954  170 2981.5  170 3016.5  C 170 3051.5  142.5 3079  107.5 3079  C 72.5 3079  45 3051.5  45 3016.5  C 45 2981.5  72.5 2954  107.5 2954  Z " fill-rule="nonzero" fill="#ffffff" stroke="none" />
    <path d="M 107.5 2954.5  C 142.22 2954.5  169.5 2981.78  169.5 3016.5  C 169.5 3051.22  142.22 3078.5  107.5 3078.5  C 72.78 3078.5  45.5 3051.22  45.5 3016.5  C 45.5 2981.78  72.78 2954.5  107.5 2954.5  Z " stroke-width="1" stroke="#797979" fill="none" />
  </g>
</svg>