<?xml version="1.0" encoding="utf-8"?>
<svg version="1.1" xmlns:xlink="http://www.w3.org/1999/xlink" width="125px" height="125px" xmlns="http://www.w3.org/2000/svg">
  <g transform="matrix(1 0 0 1 -45 -3157 )">
    <path d="M 107.5 3157  C 142.5 3157  170 3184.5  170 3219.5  C 170 3254.5  142.5 3282  107.5 3282  C 72.5 3282  45 3254.5  45 3219.5  C 45 3184.5  72.5 3157  107.5 3157  Z " fill-rule="nonzero" fill="#ffffff" stroke="none" />
    <path d="M 107.5 3157.5  C 142.22 3157.5  169.5 3184.78  169.5 3219.5  C 169.5 3254.22  142.22 3281.5  107.5 3281.5  C 72.78 3281.5  45.5 3254.22  45.5 3219.5  C 45.5 3184.78  72.78 3157.5  107.5 3157.5  Z " stroke-width="1" stroke="#797979" fill="none" />
  </g>
</svg>