<?xml version="1.0" encoding="utf-8"?>
<svg version="1.1" xmlns:xlink="http://www.w3.org/1999/xlink" width="70px" height="70px" xmlns="http://www.w3.org/2000/svg">
  <g transform="matrix(1 0 0 1 -67 -2269 )">
    <path d="M 102 2269  C 121.6 2269  137 2284.4  137 2304  C 137 2323.6  121.6 2339  102 2339  C 82.4 2339  67 2323.6  67 2304  C 67 2284.4  82.4 2269  102 2269  Z " fill-rule="nonzero" fill="#ffffff" stroke="none" fill-opacity="0.996078431372549" />
    <path d="M 102 2269.5  C 121.32 2269.5  136.5 2284.68  136.5 2304  C 136.5 2323.32  121.32 2338.5  102 2338.5  C 82.68 2338.5  67.5 2323.32  67.5 2304  C 67.5 2284.68  82.68 2269.5  102 2269.5  Z " stroke-width="1" stroke="#000000" fill="none" />
  </g>
</svg>