<?xml version="1.0" encoding="utf-8"?>
<svg version="1.1" xmlns:xlink="http://www.w3.org/1999/xlink" width="143px" height="40px" xmlns="http://www.w3.org/2000/svg">
  <g transform="matrix(1 0 0 1 -306 -35 )">
    <path d="M 321.846184005575 35.5  C 321.846184005575 35.5  318.273477278301 35.9996792625558  318.273477278301 35.9996792625558  C 318.273477278301 35.9996792625558  306.545221743965 55  306.545221743965 55  C 306.545221743965 55  318.273477278301 74.0003207374442  318.273477278301 74.0003207374442  C 318.273477278301 74.0003207374442  321.846184005575 74.5  321.846184005575 74.5  C 321.846184005575 74.5  444 74.5  444 74.5  C 446.52 74.5  448.5 72.52  448.5 70  C 448.5 70  448.5 40  448.5 40  C 448.5 37.48  446.52 35.5  444 35.5  C 444 35.5  321.846184005575 35.5  321.846184005575 35.5  Z " fill-rule="nonzero" fill="#ffffff" stroke="none" />
    <path d="M 321.846184005575 35.5  C 321.846184005575 35.5  318.273477278301 35.9996792625558  318.273477278301 35.9996792625558  C 318.273477278301 35.9996792625558  306.545221743965 55  306.545221743965 55  C 306.545221743965 55  318.273477278301 74.0003207374442  318.273477278301 74.0003207374442  C 318.273477278301 74.0003207374442  321.846184005575 74.5  321.846184005575 74.5  C 321.846184005575 74.5  444 74.5  444 74.5  C 446.52 74.5  448.5 72.52  448.5 70  C 448.5 70  448.5 40  448.5 40  C 448.5 37.48  446.52 35.5  444 35.5  C 444 35.5  321.846184005575 35.5  321.846184005575 35.5  Z " stroke-width="1" stroke="#797979" fill="none" />
  </g>
</svg>