<?xml version="1.0" encoding="utf-8"?>
<svg version="1.1" xmlns:xlink="http://www.w3.org/1999/xlink" width="143px" height="40px" xmlns="http://www.w3.org/2000/svg">
  <g transform="matrix(1 0 0 1 -852 -35 )">
    <path d="M 979.153815994425 35.5  C 979.153815994425 35.5  982.726522721699 35.9996792625558  982.726522721699 35.9996792625558  C 982.726522721699 35.9996792625558  994.454778256035 55  994.454778256035 55  C 994.454778256035 55  982.726522721699 74.0003207374442  982.726522721699 74.0003207374442  C 982.726522721699 74.0003207374442  979.153815994425 74.5  979.153815994425 74.5  C 979.153815994425 74.5  857 74.5  857 74.5  C 854.48 74.5  852.5 72.52  852.5 70  C 852.5 70  852.5 40  852.5 40  C 852.5 37.48  854.48 35.5  857 35.5  C 857 35.5  979.153815994425 35.5  979.153815994425 35.5  Z " fill-rule="nonzero" fill="#ffffff" stroke="none" />
    <path d="M 979.153815994425 35.5  C 979.153815994425 35.5  982.726522721699 35.9996792625558  982.726522721699 35.9996792625558  C 982.726522721699 35.9996792625558  994.454778256035 55  994.454778256035 55  C 994.454778256035 55  982.726522721699 74.0003207374442  982.726522721699 74.0003207374442  C 982.726522721699 74.0003207374442  979.153815994425 74.5  979.153815994425 74.5  C 979.153815994425 74.5  857 74.5  857 74.5  C 854.48 74.5  852.5 72.52  852.5 70  C 852.5 70  852.5 40  852.5 40  C 852.5 37.48  854.48 35.5  857 35.5  C 857 35.5  979.153815994425 35.5  979.153815994425 35.5  Z " stroke-width="1" stroke="#797979" fill="none" />
  </g>
</svg>