<?xml version="1.0" encoding="utf-8"?>
<svg version="1.1" xmlns:xlink="http://www.w3.org/1999/xlink" width="50px" height="50px" xmlns="http://www.w3.org/2000/svg">
  <g transform="matrix(1 0 0 1 -629 -30 )">
    <path d="M 659.5 30.5  L 648.5 30.5  L 648.5 49.5  L 629.5 49.5  L 629.5 60.5  L 648.5 60.5  L 648.5 79.5  L 659.5 79.5  L 659.5 60.5  L 678.5 60.5  L 678.5 49.5  L 659.5 49.5  L 659.5 30.5  Z " fill-rule="nonzero" fill="#ffffff" stroke="none" />
    <path d="M 659.5 30.5  L 648.5 30.5  L 648.5 49.5  L 629.5 49.5  L 629.5 60.5  L 648.5 60.5  L 648.5 79.5  L 659.5 79.5  L 659.5 60.5  L 678.5 60.5  L 678.5 49.5  L 659.5 49.5  L 659.5 30.5  Z " stroke-width="1" stroke="#797979" fill="none" />
  </g>
</svg>