<?xml version="1.0" encoding="utf-8"?>
<svg version="1.1" xmlns:xlink="http://www.w3.org/1999/xlink" width="30px" height="30px" xmlns="http://www.w3.org/2000/svg">
  <g transform="matrix(1 0 0 1 -80 -250 )">
    <path d="M 95 250  C 103.4 250  110 256.6  110 265  C 110 273.4  103.4 280  95 280  C 86.6 280  80 273.4  80 265  C 80 256.6  86.6 250  95 250  Z " fill-rule="nonzero" fill="#ffffff" stroke="none" />
    <path d="M 95 250.5  C 103.12 250.5  109.5 256.88  109.5 265  C 109.5 273.12  103.12 279.5  95 279.5  C 86.88 279.5  80.5 273.12  80.5 265  C 80.5 256.88  86.88 250.5  95 250.5  Z " stroke-width="1" stroke="#797979" fill="none" />
  </g>
</svg>