<?xml version="1.0" encoding="utf-8"?>
<svg version="1.1" xmlns:xlink="http://www.w3.org/1999/xlink" width="18px" height="55px" xmlns="http://www.w3.org/2000/svg">
  <g transform="matrix(1 0 0 1 -315 -2004 )">
    <path d="M 329.22360679775 2010.55832470661  C 329.22360679775 2010.55832470661  315.516328423895 2031.5  315.516328423895 2031.5  C 315.516328423895 2031.5  329.22360679775 2052.44167529339  329.22360679775 2052.44167529339  C 329.22360679775 2052.44167529339  332.5 2057.44727601905  332.5 2057.44727601905  C 332.5 2057.44727601905  332.5 2005.55272398095  332.5 2005.55272398095  C 332.5 2005.55272398095  329.22360679775 2010.55832470661  329.22360679775 2010.55832470661  Z " fill-rule="nonzero" fill="#ffffff" stroke="none" />
    <path d="M 329.22360679775 2010.55832470661  C 329.22360679775 2010.55832470661  315.516328423895 2031.5  315.516328423895 2031.5  C 315.516328423895 2031.5  329.22360679775 2052.44167529339  329.22360679775 2052.44167529339  C 329.22360679775 2052.44167529339  332.5 2057.44727601905  332.5 2057.44727601905  C 332.5 2057.44727601905  332.5 2005.55272398095  332.5 2005.55272398095  C 332.5 2005.55272398095  329.22360679775 2010.55832470661  329.22360679775 2010.55832470661  Z " stroke-width="1" stroke="#797979" fill="none" />
  </g>
</svg>