<?xml version="1.0" encoding="utf-8"?>
<svg version="1.1" xmlns:xlink="http://www.w3.org/1999/xlink" width="38px" height="38px" xmlns="http://www.w3.org/2000/svg">
  <g transform="matrix(1 0 0 1 -679 -949 )">
    <path d="M 698 949  C 708.64 949  717 957.36  717 968  C 717 978.64  708.64 987  698 987  C 687.36 987  679 978.64  679 968  C 679 957.36  687.36 949  698 949  Z " fill-rule="nonzero" fill="#ffffff" stroke="none" />
    <path d="M 698 949.5  C 708.36 949.5  716.5 957.64  716.5 968  C 716.5 978.36  708.36 986.5  698 986.5  C 687.64 986.5  679.5 978.36  679.5 968  C 679.5 957.64  687.64 949.5  698 949.5  Z " stroke-width="1" stroke="#797979" fill="none" />
  </g>
</svg>