<?xml version="1.0" encoding="utf-8"?>
<svg version="1.1" xmlns:xlink="http://www.w3.org/1999/xlink" width="139px" height="139px" xmlns="http://www.w3.org/2000/svg">
  <g transform="matrix(1 0 0 1 -338 -1409 )">
    <path d="M 407.5 1409  C 446.42 1409  477 1439.58  477 1478.5  C 477 1517.42  446.42 1548  407.5 1548  C 368.58 1548  338 1517.42  338 1478.5  C 338 1439.58  368.58 1409  407.5 1409  Z " fill-rule="nonzero" fill="#ffffff" stroke="none" />
    <path d="M 407.5 1409.5  C 446.14 1409.5  476.5 1439.86  476.5 1478.5  C 476.5 1517.14  446.14 1547.5  407.5 1547.5  C 368.86 1547.5  338.5 1517.14  338.5 1478.5  C 338.5 1439.86  368.86 1409.5  407.5 1409.5  Z " stroke-width="1" stroke="#797979" fill="none" />
  </g>
</svg>