<?xml version="1.0" encoding="utf-8"?>
<svg version="1.1" xmlns:xlink="http://www.w3.org/1999/xlink" width="139px" height="139px" xmlns="http://www.w3.org/2000/svg">
  <g transform="matrix(1 0 0 1 -338 -1410 )">
    <path d="M 407.5 1410  C 446.42 1410  477 1440.58  477 1479.5  C 477 1518.42  446.42 1549  407.5 1549  C 368.58 1549  338 1518.42  338 1479.5  C 338 1440.58  368.58 1410  407.5 1410  Z " fill-rule="nonzero" fill="#ffffff" stroke="none" />
    <path d="M 407.5 1410.5  C 446.14 1410.5  476.5 1440.86  476.5 1479.5  C 476.5 1518.14  446.14 1548.5  407.5 1548.5  C 368.86 1548.5  338.5 1518.14  338.5 1479.5  C 338.5 1440.86  368.86 1410.5  407.5 1410.5  Z " stroke-width="1" stroke="#797979" fill="none" />
  </g>
</svg>