<?xml version="1.0" encoding="utf-8"?>
<svg version="1.1" xmlns:xlink="http://www.w3.org/1999/xlink" width="24px" height="52px" xmlns="http://www.w3.org/2000/svg">
  <g transform="matrix(1 0 0 1 -300 -1453 )">
    <path d="M 320.974880885904 1453.5  C 320.974880885904 1453.5  317.13931824608 1457.65519285981  317.13931824608 1457.65519285981  C 317.13931824608 1457.65519285981  300.588883171224 1479  300.588883171224 1479  C 300.588883171224 1479  317.13931824608 1500.34480714019  317.13931824608 1500.34480714019  C 317.13931824608 1500.34480714019  320.974880885904 1504.5  320.974880885904 1504.5  C 320.974880885904 1504.5  323.5 1504.5  323.5 1504.5  C 323.5 1504.5  323.5 1453.5  323.5 1453.5  C 323.5 1453.5  320.974880885904 1453.5  320.974880885904 1453.5  Z " fill-rule="nonzero" fill="#ffffff" stroke="none" />
    <path d="M 320.974880885904 1453.5  C 320.974880885904 1453.5  317.13931824608 1457.65519285981  317.13931824608 1457.65519285981  C 317.13931824608 1457.65519285981  300.588883171224 1479  300.588883171224 1479  C 300.588883171224 1479  317.13931824608 1500.34480714019  317.13931824608 1500.34480714019  C 317.13931824608 1500.34480714019  320.974880885904 1504.5  320.974880885904 1504.5  C 320.974880885904 1504.5  323.5 1504.5  323.5 1504.5  C 323.5 1504.5  323.5 1453.5  323.5 1453.5  C 323.5 1453.5  320.974880885904 1453.5  320.974880885904 1453.5  Z " stroke-width="1" stroke="#797979" fill="none" />
  </g>
</svg>