<?xml version="1.0" encoding="utf-8"?>
<svg version="1.1" xmlns:xlink="http://www.w3.org/1999/xlink" width="24px" height="84px" xmlns="http://www.w3.org/2000/svg">
  <g transform="matrix(1 0 0 1 -300 -1437 )">
    <path d="M 320.22360679775 1444.4472135955  C 320.22360679775 1444.4472135955  300.47915742375 1479  300.47915742375 1479  C 300.47915742375 1479  320.22360679775 1513.5527864045  320.22360679775 1513.5527864045  C 320.22360679775 1513.5527864045  323.5 1519.28647450844  323.5 1519.28647450844  C 323.5 1519.28647450844  323.5 1438.71352549156  323.5 1438.71352549156  C 323.5 1438.71352549156  320.22360679775 1444.4472135955  320.22360679775 1444.4472135955  Z " fill-rule="nonzero" fill="#ffffff" stroke="none" />
    <path d="M 320.22360679775 1444.4472135955  C 320.22360679775 1444.4472135955  300.47915742375 1479  300.47915742375 1479  C 300.47915742375 1479  320.22360679775 1513.5527864045  320.22360679775 1513.5527864045  C 320.22360679775 1513.5527864045  323.5 1519.28647450844  323.5 1519.28647450844  C 323.5 1519.28647450844  323.5 1438.71352549156  323.5 1438.71352549156  C 323.5 1438.71352549156  320.22360679775 1444.4472135955  320.22360679775 1444.4472135955  Z " stroke-width="1" stroke="#797979" fill="none" />
  </g>
</svg>