<?xml version="1.0" encoding="utf-8"?>
<svg version="1.1" xmlns:xlink="http://www.w3.org/1999/xlink" width="38px" height="39px" xmlns="http://www.w3.org/2000/svg">
  <g transform="matrix(1 0 0 1 -592 -366 )">
    <path d="M 611 366  C 621.64 366  630 374.58  630 385.5  C 630 396.42  621.64 405  611 405  C 600.36 405  592 396.42  592 385.5  C 592 374.58  600.36 366  611 366  Z " fill-rule="nonzero" fill="#ffffff" stroke="none" />
    <path d="M 611 366.5  C 621.36 366.5  629.5 374.86  629.5 385.5  C 629.5 396.14  621.36 404.5  611 404.5  C 600.64 404.5  592.5 396.14  592.5 385.5  C 592.5 374.86  600.64 366.5  611 366.5  Z " stroke-width="1" stroke="#797979" fill="none" />
  </g>
</svg>