<?xml version="1.0" encoding="utf-8"?>
<svg version="1.1" xmlns:xlink="http://www.w3.org/1999/xlink" width="60px" height="60px" xmlns="http://www.w3.org/2000/svg">
  <g transform="matrix(1 0 0 1 -353 -2359 )">
    <path d="M 383 2359  C 399.8 2359  413 2372.2  413 2389  C 413 2405.8  399.8 2419  383 2419  C 366.2 2419  353 2405.8  353 2389  C 353 2372.2  366.2 2359  383 2359  Z " fill-rule="nonzero" fill="#ffffff" stroke="none" />
    <path d="M 383 2359.5  C 399.52 2359.5  412.5 2372.48  412.5 2389  C 412.5 2405.52  399.52 2418.5  383 2418.5  C 366.48 2418.5  353.5 2405.52  353.5 2389  C 353.5 2372.48  366.48 2359.5  383 2359.5  Z " stroke-width="1" stroke="#797979" fill="none" />
  </g>
</svg>