<?xml version="1.0" encoding="utf-8"?>
<svg version="1.1" xmlns:xlink="http://www.w3.org/1999/xlink" width="52px" height="170px" xmlns="http://www.w3.org/2000/svg">
  <g transform="matrix(1 0 0 1 -66 -918 )">
    <path d="M 69.3291796067501 925.880102324961  C 69.3291796067501 925.880102324961  116.508411125597 1003  116.508411125597 1003  C 116.508411125597 1003  69.3291796067501 1080.11989767504  69.3291796067501 1080.11989767504  C 69.3291796067501 1080.11989767504  67.5 1083.10990280146  67.5 1083.10990280146  C 67.5 1083.10990280146  67.5 922.890097198543  67.5 922.890097198543  C 67.5 922.890097198543  69.3291796067501 925.880102324961  69.3291796067501 925.880102324961  Z " fill-rule="nonzero" fill="#ffffff" stroke="none" />
    <path d="M 69.5527864045 925.432888729461  C 69.5527864045 925.432888729461  117.005607417065 1003  117.005607417065 1003  C 117.005607417065 1003  69.5527864045 1080.56711127054  69.5527864045 1080.56711127054  C 69.5527864045 1080.56711127054  67 1084.73993520097  67 1084.73993520097  C 67 1084.73993520097  67 921.260064799029  67 921.260064799029  C 67 921.260064799029  69.5527864045 925.432888729461  69.5527864045 925.432888729461  Z " stroke-width="2" stroke="#797979" fill="none" />
  </g>
</svg>