<?xml version="1.0" encoding="utf-8"?>
<svg version="1.1" xmlns:xlink="http://www.w3.org/1999/xlink" width="52px" height="170px" xmlns="http://www.w3.org/2000/svg">
  <g transform="matrix(1 0 0 1 -1284 -918 )">
    <path d="M 1332.67082039325 925.880102324961  C 1332.67082039325 925.880102324961  1285.4915888744 1003  1285.4915888744 1003  C 1285.4915888744 1003  1332.67082039325 1080.11989767504  1332.67082039325 1080.11989767504  C 1332.67082039325 1080.11989767504  1334.5 1083.10990280146  1334.5 1083.10990280146  C 1334.5 1083.10990280146  1334.5 922.890097198543  1334.5 922.890097198543  C 1334.5 922.890097198543  1332.67082039325 925.880102324961  1332.67082039325 925.880102324961  Z " fill-rule="nonzero" fill="#ffffff" stroke="none" />
    <path d="M 1332.4472135955 925.432888729461  C 1332.4472135955 925.432888729461  1284.99439258294 1003  1284.99439258294 1003  C 1284.99439258294 1003  1332.4472135955 1080.56711127054  1332.4472135955 1080.56711127054  C 1332.4472135955 1080.56711127054  1335 1084.73993520097  1335 1084.73993520097  C 1335 1084.73993520097  1335 921.260064799029  1335 921.260064799029  C 1335 921.260064799029  1332.4472135955 925.432888729461  1332.4472135955 925.432888729461  Z " stroke-width="2" stroke="#797979" fill="none" />
  </g>
</svg>