<?xml version="1.0" encoding="utf-8"?>
<svg version="1.1" xmlns:xlink="http://www.w3.org/1999/xlink" width="18px" height="23px" xmlns="http://www.w3.org/2000/svg">
  <g transform="matrix(1 0 0 1 -572 -908 )">
    <path d="M 581.340984599402 908.5  C 581.340984599402 908.5  579.250948519008 909.835300829141  579.250948519008 909.835300829141  C 579.250948519008 909.835300829141  572.602620426952 919.5  572.602620426952 919.5  C 572.602620426952 919.5  579.250948519008 929.164699170859  579.250948519008 929.164699170859  C 579.250948519008 929.164699170859  581.340984599402 930.5  581.340984599402 930.5  C 581.340984599402 930.5  589.5 930.5  589.5 930.5  C 589.5 930.5  589.5 908.5  589.5 908.5  C 589.5 908.5  581.340984599402 908.5  581.340984599402 908.5  Z " fill-rule="nonzero" fill="#ffffff" stroke="none" />
    <path d="M 581.340984599402 908.5  C 581.340984599402 908.5  579.250948519008 909.835300829141  579.250948519008 909.835300829141  C 579.250948519008 909.835300829141  572.602620426952 919.5  572.602620426952 919.5  C 572.602620426952 919.5  579.250948519008 929.164699170859  579.250948519008 929.164699170859  C 579.250948519008 929.164699170859  581.340984599402 930.5  581.340984599402 930.5  C 581.340984599402 930.5  589.5 930.5  589.5 930.5  C 589.5 930.5  589.5 908.5  589.5 908.5  C 589.5 908.5  581.340984599402 908.5  581.340984599402 908.5  Z " stroke-width="1" stroke="#797979" fill="none" />
  </g>
</svg>