<?xml version="1.0" encoding="utf-8"?>
<svg version="1.1" xmlns:xlink="http://www.w3.org/1999/xlink" width="10px" height="23px" xmlns="http://www.w3.org/2000/svg">
  <g transform="matrix(1 0 0 1 -597 -908 )">
    <path d="M 606.377705576446 908.5  C 606.377705576446 908.5  604.236925235458 910.961897392135  604.236925235458 910.961897392135  C 604.236925235458 910.961897392135  597.583858268291 919.5  597.583858268291 919.5  C 597.583858268291 919.5  604.236925235458 928.038102607865  604.236925235458 928.038102607865  C 604.236925235458 928.038102607865  606.377705576446 930.5  606.377705576446 930.5  C 606.377705576446 930.5  606.5 930.5  606.5 930.5  C 606.5 930.5  606.5 908.5  606.5 908.5  C 606.5 908.5  606.377705576446 908.5  606.377705576446 908.5  Z " fill-rule="nonzero" fill="#ffffff" stroke="none" />
    <path d="M 606.377705576446 908.5  C 606.377705576446 908.5  604.236925235458 910.961897392135  604.236925235458 910.961897392135  C 604.236925235458 910.961897392135  597.583858268291 919.5  597.583858268291 919.5  C 597.583858268291 919.5  604.236925235458 928.038102607865  604.236925235458 928.038102607865  C 604.236925235458 928.038102607865  606.377705576446 930.5  606.377705576446 930.5  C 606.377705576446 930.5  606.5 930.5  606.5 930.5  C 606.5 930.5  606.5 908.5  606.5 908.5  C 606.5 908.5  606.377705576446 908.5  606.377705576446 908.5  Z " stroke-width="1" stroke="#797979" fill="none" />
  </g>
</svg>