<?xml version="1.0" encoding="utf-8"?>
<svg version="1.1" xmlns:xlink="http://www.w3.org/1999/xlink" width="10px" height="23px" xmlns="http://www.w3.org/2000/svg">
  <g transform="matrix(1 0 0 1 -793 -908 )">
    <path d="M 793.622294423554 908.5  C 793.622294423554 908.5  795.763074764542 910.961897392135  795.763074764542 910.961897392135  C 795.763074764542 910.961897392135  802.416141731709 919.5  802.416141731709 919.5  C 802.416141731709 919.5  795.763074764542 928.038102607865  795.763074764542 928.038102607865  C 795.763074764542 928.038102607865  793.622294423554 930.5  793.622294423554 930.5  C 793.622294423554 930.5  793.5 930.5  793.5 930.5  C 793.5 930.5  793.5 908.5  793.5 908.5  C 793.5 908.5  793.622294423554 908.5  793.622294423554 908.5  Z " fill-rule="nonzero" fill="#ffffff" stroke="none" />
    <path d="M 793.622294423554 908.5  C 793.622294423554 908.5  795.763074764542 910.961897392135  795.763074764542 910.961897392135  C 795.763074764542 910.961897392135  802.416141731709 919.5  802.416141731709 919.5  C 802.416141731709 919.5  795.763074764542 928.038102607865  795.763074764542 928.038102607865  C 795.763074764542 928.038102607865  793.622294423554 930.5  793.622294423554 930.5  C 793.622294423554 930.5  793.5 930.5  793.5 930.5  C 793.5 930.5  793.5 908.5  793.5 908.5  C 793.5 908.5  793.622294423554 908.5  793.622294423554 908.5  Z " stroke-width="1" stroke="#797979" fill="none" />
  </g>
</svg>