<?xml version="1.0" encoding="utf-8"?>
<svg version="1.1" xmlns:xlink="http://www.w3.org/1999/xlink" width="18px" height="23px" xmlns="http://www.w3.org/2000/svg">
  <g transform="matrix(1 0 0 1 -810 -908 )">
    <path d="M 818.659015400598 908.5  C 818.659015400598 908.5  820.749051480992 909.835300829141  820.749051480992 909.835300829141  C 820.749051480992 909.835300829141  827.397379573048 919.5  827.397379573048 919.5  C 827.397379573048 919.5  820.749051480992 929.164699170859  820.749051480992 929.164699170859  C 820.749051480992 929.164699170859  818.659015400598 930.5  818.659015400598 930.5  C 818.659015400598 930.5  810.5 930.5  810.5 930.5  C 810.5 930.5  810.5 908.5  810.5 908.5  C 810.5 908.5  818.659015400598 908.5  818.659015400598 908.5  Z " fill-rule="nonzero" fill="#ffffff" stroke="none" />
    <path d="M 818.659015400598 908.5  C 818.659015400598 908.5  820.749051480992 909.835300829141  820.749051480992 909.835300829141  C 820.749051480992 909.835300829141  827.397379573048 919.5  827.397379573048 919.5  C 827.397379573048 919.5  820.749051480992 929.164699170859  820.749051480992 929.164699170859  C 820.749051480992 929.164699170859  818.659015400598 930.5  818.659015400598 930.5  C 818.659015400598 930.5  810.5 930.5  810.5 930.5  C 810.5 930.5  810.5 908.5  810.5 908.5  C 810.5 908.5  818.659015400598 908.5  818.659015400598 908.5  Z " stroke-width="1" stroke="#797979" fill="none" />
  </g>
</svg>