<?xml version="1.0" encoding="utf-8"?>
<svg version="1.1" xmlns:xlink="http://www.w3.org/1999/xlink" width="140px" height="40px" xmlns="http://www.w3.org/2000/svg">
  <g transform="matrix(1 0 0 1 -234 -5096 )">
    <path d="M 249.85410196625 5096.5  C 249.85410196625 5096.5  246.274314858297 5097.01139815828  246.274314858297 5097.01139815828  C 246.274314858297 5097.01139815828  234.546060779587 5116  234.546060779587 5116  C 234.546060779587 5116  246.274314858297 5134.98860184172  246.274314858297 5134.98860184172  C 246.274314858297 5134.98860184172  249.85410196625 5135.5  249.85410196625 5135.5  C 249.85410196625 5135.5  369 5135.5  369 5135.5  C 371.52 5135.5  373.5 5133.52  373.5 5131  C 373.5 5131  373.5 5101  373.5 5101  C 373.5 5098.48  371.52 5096.5  369 5096.5  C 369 5096.5  249.85410196625 5096.5  249.85410196625 5096.5  Z " fill-rule="nonzero" fill="#70b603" stroke="none" />
    <path d="M 249.85410196625 5096.5  C 249.85410196625 5096.5  246.274314858297 5097.01139815828  246.274314858297 5097.01139815828  C 246.274314858297 5097.01139815828  234.546060779587 5116  234.546060779587 5116  C 234.546060779587 5116  246.274314858297 5134.98860184172  246.274314858297 5134.98860184172  C 246.274314858297 5134.98860184172  249.85410196625 5135.5  249.85410196625 5135.5  C 249.85410196625 5135.5  369 5135.5  369 5135.5  C 371.52 5135.5  373.5 5133.52  373.5 5131  C 373.5 5131  373.5 5101  373.5 5101  C 373.5 5098.48  371.52 5096.5  369 5096.5  C 369 5096.5  249.85410196625 5096.5  249.85410196625 5096.5  Z " stroke-width="1" stroke="#797979" fill="none" />
  </g>
</svg>