<?xml version="1.0" encoding="utf-8"?>
<svg version="1.1" xmlns:xlink="http://www.w3.org/1999/xlink" width="140px" height="38px" xmlns="http://www.w3.org/2000/svg">
  <g transform="matrix(1 0 0 1 -39 -5212 )">
    <path d="M 163.965345656461 5212.5  C 163.965345656461 5212.5  167.327686696781 5212.95631771261  167.327686696781 5212.95631771261  C 167.327686696781 5212.95631771261  178.455948900455 5231  178.455948900455 5231  C 178.455948900455 5231  167.327686696781 5249.04368228739  167.327686696781 5249.04368228739  C 167.327686696781 5249.04368228739  163.965345656461 5249.5  163.965345656461 5249.5  C 163.965345656461 5249.5  44 5249.5  44 5249.5  C 41.48 5249.5  39.5 5247.52  39.5 5245  C 39.5 5245  39.5 5217  39.5 5217  C 39.5 5214.48  41.48 5212.5  44 5212.5  C 44 5212.5  163.965345656461 5212.5  163.965345656461 5212.5  Z " fill-rule="nonzero" fill="#70b603" stroke="none" />
    <path d="M 163.965345656461 5212.5  C 163.965345656461 5212.5  167.327686696781 5212.95631771261  167.327686696781 5212.95631771261  C 167.327686696781 5212.95631771261  178.455948900455 5231  178.455948900455 5231  C 178.455948900455 5231  167.327686696781 5249.04368228739  167.327686696781 5249.04368228739  C 167.327686696781 5249.04368228739  163.965345656461 5249.5  163.965345656461 5249.5  C 163.965345656461 5249.5  44 5249.5  44 5249.5  C 41.48 5249.5  39.5 5247.52  39.5 5245  C 39.5 5245  39.5 5217  39.5 5217  C 39.5 5214.48  41.48 5212.5  44 5212.5  C 44 5212.5  163.965345656461 5212.5  163.965345656461 5212.5  Z " stroke-width="1" stroke="#797979" fill="none" />
  </g>
</svg>