<?xml version="1.0" encoding="utf-8"?>
<svg version="1.1" xmlns:xlink="http://www.w3.org/1999/xlink" width="140px" height="45px" xmlns="http://www.w3.org/2000/svg">
  <g transform="matrix(1 0 0 1 -237 -5551 )">
    <path d="M 254.895158058639 5551.5  C 254.895158058639 5551.5  251.272937832411 5552.08214253636  251.272937832411 5552.08214253636  C 251.272937832411 5552.08214253636  237.554310175961 5573.5  237.554310175961 5573.5  C 237.554310175961 5573.5  251.272937832411 5594.91785746364  251.272937832411 5594.91785746364  C 251.272937832411 5594.91785746364  254.895158058639 5595.5  254.895158058639 5595.5  C 254.895158058639 5595.5  372 5595.5  372 5595.5  C 374.52 5595.5  376.5 5593.52  376.5 5591  C 376.5 5591  376.5 5556  376.5 5556  C 376.5 5553.48  374.52 5551.5  372 5551.5  C 372 5551.5  254.895158058639 5551.5  254.895158058639 5551.5  Z " fill-rule="nonzero" fill="#aaaaaa" stroke="none" />
    <path d="M 254.895158058639 5551.5  C 254.895158058639 5551.5  251.272937832411 5552.08214253636  251.272937832411 5552.08214253636  C 251.272937832411 5552.08214253636  237.554310175961 5573.5  237.554310175961 5573.5  C 237.554310175961 5573.5  251.272937832411 5594.91785746364  251.272937832411 5594.91785746364  C 251.272937832411 5594.91785746364  254.895158058639 5595.5  254.895158058639 5595.5  C 254.895158058639 5595.5  372 5595.5  372 5595.5  C 374.52 5595.5  376.5 5593.52  376.5 5591  C 376.5 5591  376.5 5556  376.5 5556  C 376.5 5553.48  374.52 5551.5  372 5551.5  C 372 5551.5  254.895158058639 5551.5  254.895158058639 5551.5  Z " stroke-width="1" stroke="#797979" fill="none" />
  </g>
</svg>