<?xml version="1.0" encoding="utf-8"?>
<svg version="1.1" xmlns:xlink="http://www.w3.org/1999/xlink" width="250px" height="53px" xmlns="http://www.w3.org/2000/svg">
  <g transform="matrix(1 0 0 1 -85 -3212 )">
    <path d="M 314.074378150364 3212.5  C 314.074378150364 3212.5  317.552456490252 3212.86867630403  317.552456490252 3212.86867630403  C 317.552456490252 3212.86867630403  334.45914338896 3238.5  334.45914338896 3238.5  C 334.45914338896 3238.5  317.552456490252 3264.13132369597  317.552456490252 3264.13132369597  C 317.552456490252 3264.13132369597  314.074378150364 3264.5  314.074378150364 3264.5  C 314.074378150364 3264.5  85.5 3264.5  85.5 3264.5  C 85.5 3264.5  85.5 3212.5  85.5 3212.5  C 85.5 3212.5  314.074378150364 3212.5  314.074378150364 3212.5  Z " fill-rule="nonzero" fill="#ffffff" stroke="none" />
    <path d="M 314.074378150364 3212.5  C 314.074378150364 3212.5  317.552456490252 3212.86867630403  317.552456490252 3212.86867630403  C 317.552456490252 3212.86867630403  334.45914338896 3238.5  334.45914338896 3238.5  C 334.45914338896 3238.5  317.552456490252 3264.13132369597  317.552456490252 3264.13132369597  C 317.552456490252 3264.13132369597  314.074378150364 3264.5  314.074378150364 3264.5  C 314.074378150364 3264.5  85.5 3264.5  85.5 3264.5  C 85.5 3264.5  85.5 3212.5  85.5 3212.5  C 85.5 3212.5  314.074378150364 3212.5  314.074378150364 3212.5  Z " stroke-width="1" stroke="#797979" fill="none" />
  </g>
</svg>