<?xml version="1.0" encoding="utf-8"?>
<svg version="1.1" xmlns:xlink="http://www.w3.org/1999/xlink" width="91px" height="91px" xmlns="http://www.w3.org/2000/svg">
  <g transform="matrix(1 0 0 1 -43 -6029 )">
    <path d="M 88.5 6029  C 113.98 6029  134 6049.02  134 6074.5  C 134 6099.98  113.98 6120  88.5 6120  C 63.02 6120  43 6099.98  43 6074.5  C 43 6049.02  63.02 6029  88.5 6029  Z " fill-rule="nonzero" fill="#ffffff" stroke="none" />
    <path d="M 88.5 6029.5  C 113.7 6029.5  133.5 6049.3  133.5 6074.5  C 133.5 6099.7  113.7 6119.5  88.5 6119.5  C 63.3 6119.5  43.5 6099.7  43.5 6074.5  C 43.5 6049.3  63.3 6029.5  88.5 6029.5  Z " stroke-width="1" stroke="#797979" fill="none" />
  </g>
</svg>