<?xml version="1.0" encoding="utf-8"?>
<svg version="1.1" xmlns:xlink="http://www.w3.org/1999/xlink" width="91px" height="91px" xmlns="http://www.w3.org/2000/svg">
  <g transform="matrix(1 0 0 1 -43 -6594 )">
    <path d="M 88.5 6594  C 113.98 6594  134 6614.02  134 6639.5  C 134 6664.98  113.98 6685  88.5 6685  C 63.02 6685  43 6664.98  43 6639.5  C 43 6614.02  63.02 6594  88.5 6594  Z " fill-rule="nonzero" fill="#ffffff" stroke="none" />
    <path d="M 88.5 6594.5  C 113.7 6594.5  133.5 6614.3  133.5 6639.5  C 133.5 6664.7  113.7 6684.5  88.5 6684.5  C 63.3 6684.5  43.5 6664.7  43.5 6639.5  C 43.5 6614.3  63.3 6594.5  88.5 6594.5  Z " stroke-width="1" stroke="#797979" fill="none" />
  </g>
</svg>