<?xml version="1.0" encoding="utf-8"?>
<svg version="1.1" xmlns:xlink="http://www.w3.org/1999/xlink" width="185px" height="58px" xmlns="http://www.w3.org/2000/svg">
  <defs>
    <mask fill="white" id="clip46">
      <path d="M 129.289772727273 2.26241134751773  C 129.289772727273 1.12650654290124  126.936723827236 0.205673758865248  124.034090909091 0.205673758865248  L 5.78125 0.205673758865248  C 2.87861708185517 0.205673758865248  0.525568181818176 1.12650654290124  0.525568181818176 2.26241134751773  L 0.525568181818176 55.7375886524823  C 0.525568181818176 56.8734934570988  2.87861708185517 57.7943262411348  5.78125 57.7943262411348  L 124.034090909091 57.7943262411348  C 126.936723827236 57.7943262411348  129.289772727273 56.8734934570988  129 55.7375886524823  L 129 24.063829787234  L 184.474431818182 17.8936170212766  L 129.289772727273 11.7234042553191  L 129.289772727273 2.26241134751773  Z " fill-rule="evenodd" />
    </mask>
  </defs>
  <g transform="matrix(1 0 0 1 -119 -6911 )">
    <path d="M 129.289772727273 2.26241134751773  C 129.289772727273 1.12650654290124  126.936723827236 0.205673758865248  124.034090909091 0.205673758865248  L 5.78125 0.205673758865248  C 2.87861708185517 0.205673758865248  0.525568181818176 1.12650654290124  0.525568181818176 2.26241134751773  L 0.525568181818176 55.7375886524823  C 0.525568181818176 56.8734934570988  2.87861708185517 57.7943262411348  5.78125 57.7943262411348  L 124.034090909091 57.7943262411348  C 126.936723827236 57.7943262411348  129.289772727273 56.8734934570988  129 55.7375886524823  L 129 24.063829787234  L 184.474431818182 17.8936170212766  L 129.289772727273 11.7234042553191  L 129.289772727273 2.26241134751773  Z " fill-rule="nonzero" fill="#ffffff" stroke="none" transform="matrix(1 0 0 1 119 6911 )" />
    <path d="M 129.289772727273 2.26241134751773  C 129.289772727273 1.12650654290124  126.936723827236 0.205673758865248  124.034090909091 0.205673758865248  L 5.78125 0.205673758865248  C 2.87861708185517 0.205673758865248  0.525568181818176 1.12650654290124  0.525568181818176 2.26241134751773  L 0.525568181818176 55.7375886524823  C 0.525568181818176 56.8734934570988  2.87861708185517 57.7943262411348  5.78125 57.7943262411348  L 124.034090909091 57.7943262411348  C 126.936723827236 57.7943262411348  129.289772727273 56.8734934570988  129 55.7375886524823  L 129 24.063829787234  L 184.474431818182 17.8936170212766  L 129.289772727273 11.7234042553191  L 129.289772727273 2.26241134751773  Z " stroke-width="2" stroke="#797979" fill="none" transform="matrix(1 0 0 1 119 6911 )" mask="url(#clip46)" />
  </g>
</svg>