<?xml version="1.0" encoding="utf-8"?>
<svg version="1.1" xmlns:xlink="http://www.w3.org/1999/xlink" width="97px" height="23px" xmlns="http://www.w3.org/2000/svg">
  <g transform="matrix(1 0 0 1 -312 -835 )">
    <path d="M 400.464905146708 836.5  C 400.464905146708 836.5  401.297700458146 836.598733464758  401.297700458146 836.598733464758  C 401.297700458146 836.598733464758  407.38274493915 846.5  407.38274493915 846.5  C 407.38274493915 846.5  401.297700458146 856.401266535242  401.297700458146 856.401266535242  C 401.297700458146 856.401266535242  400.464905146708 856.5  400.464905146708 856.5  C 400.464905146708 856.5  317 856.5  317 856.5  C 315.04 856.5  313.5 854.96  313.5 853  C 313.5 853  313.5 840  313.5 840  C 313.5 838.04  315.04 836.5  317 836.5  C 317 836.5  400.464905146708 836.5  400.464905146708 836.5  Z " fill-rule="nonzero" fill="#ffffff" stroke="none" />
    <path d="M 400.243270097805 836  C 400.243270097805 836  401.565133638764 836.156715780629  401.565133638764 836.156715780629  C 401.565133638764 836.156715780629  407.921829959434 846.5  407.921829959434 846.5  C 407.921829959434 846.5  401.565133638764 856.843284219371  401.565133638764 856.843284219371  C 401.565133638764 856.843284219371  400.243270097805 857  400.243270097805 857  C 400.243270097805 857  317 857  317 857  C 314.76 857  313 855.24  313 853  C 313 853  313 840  313 840  C 313 837.76  314.76 836  317 836  C 317 836  400.243270097805 836  400.243270097805 836  Z " stroke-width="2" stroke="#797979" fill="none" />
  </g>
</svg>