<?xml version="1.0" encoding="utf-8"?>
<svg version="1.1" xmlns:xlink="http://www.w3.org/1999/xlink" width="40px" height="40px" xmlns="http://www.w3.org/2000/svg">
  <g transform="matrix(1 0 0 1 -19 -840 )">
    <path d="M 39 840  C 50.2 840  59 848.8  59 860  C 59 871.2  50.2 880  39 880  C 27.8 880  19 871.2  19 860  C 19 848.8  27.8 840  39 840  Z " fill-rule="nonzero" fill="#ffffff" stroke="none" />
    <path d="M 39 840.5  C 49.92 840.5  58.5 849.08  58.5 860  C 58.5 870.92  49.92 879.5  39 879.5  C 28.08 879.5  19.5 870.92  19.5 860  C 19.5 849.08  28.08 840.5  39 840.5  Z " stroke-width="1" stroke="#797979" fill="none" />
  </g>
</svg>