<?xml version="1.0" encoding="utf-8"?>
<svg version="1.1" xmlns:xlink="http://www.w3.org/1999/xlink" width="30px" height="30px" xmlns="http://www.w3.org/2000/svg">
  <g transform="matrix(1 0 0 1 1 0 )">
    <path d="M 14 0  C 22.4 0  29 6.6  29 15  C 29 23.4  22.4 30  14 30  C 5.6 30  -1 23.4  -1 15  C -1 6.6  5.6 0  14 0  Z " fill-rule="nonzero" fill="#000000" stroke="none" fill-opacity="0.501960784313725" />
    <path d="M 14 0.5  C 22.12 0.5  28.5 6.88  28.5 15  C 28.5 23.12  22.12 29.5  14 29.5  C 5.88 29.5  -0.5 23.12  -0.5 15  C -0.5 6.88  5.88 0.5  14 0.5  Z " stroke-width="1" stroke="#797979" fill="none" />
  </g>
</svg>