<?xml version="1.0" encoding="utf-8"?>
<svg version="1.1" xmlns:xlink="http://www.w3.org/1999/xlink" width="37px" height="37px" xmlns="http://www.w3.org/2000/svg">
  <g transform="matrix(1 0 0 1 -385 -594 )">
    <path d="M 403.5 594  C 413.86 594  422 602.14  422 612.5  C 422 622.86  413.86 631  403.5 631  C 393.14 631  385 622.86  385 612.5  C 385 602.14  393.14 594  403.5 594  Z " fill-rule="nonzero" fill="#02a7f0" stroke="none" fill-opacity="0.682352941176471" />
    <path d="M 403.5 594.5  C 413.58 594.5  421.5 602.42  421.5 612.5  C 421.5 622.58  413.58 630.5  403.5 630.5  C 393.42 630.5  385.5 622.58  385.5 612.5  C 385.5 602.42  393.42 594.5  403.5 594.5  Z " stroke-width="1" stroke="#797979" fill="none" />
  </g>
</svg>