<?xml version="1.0" encoding="utf-8"?>
<svg version="1.1" xmlns:xlink="http://www.w3.org/1999/xlink" width="29px" height="28px" xmlns="http://www.w3.org/2000/svg">
  <g transform="matrix(1 0 0 1 -281 -81 )">
    <path d="M 4.295625 22.99609375  C 4.52520833333333 22.7712673611111  4.64 22.4947916666667  4.64 22.1666666666667  C 4.64 21.8506944444444  4.52520833333333 21.5772569444444  4.295625 21.3463541666667  C 4.06604166666667 21.1154513888889  3.79416666666667 21  3.48 21  C 3.15375 21  2.87885416666667 21.1154513888889  2.6553125 21.3463541666667  C 2.43177083333333 21.5772569444444  2.32 21.8506944444444  2.32 22.1666666666667  C 2.32 22.4947916666667  2.43177083333333 22.7712673611111  2.6553125 22.99609375  C 2.87885416666667 23.2209201388889  3.15375 23.3333333333333  3.48 23.3333333333333  C 3.79416666666667 23.3333333333333  4.06604166666667 23.2209201388889  4.295625 22.99609375  Z M 7.195625 12.0130208333333  C 7.42520833333333 12.2439236111111  7.54 12.5173611111111  8 12.8333333333333  L 8 24.5  C 7.54 24.8159722222222  7.42520833333333 25.0894097222222  7.195625 25.3203125  C 6.96604166666667 25.5512152777778  6.69416666666667 25.6666666666667  6.38 25.6666666666667  L 1.16 25.6666666666667  C 0.845833333333333 25.6666666666667  0.573958333333333 25.5512152777778  0.344375 25.3203125  C 0.114791666666667 25.0894097222222  0 24.8159722222222  0 24.5  L 0 12.8333333333333  C 0 12.5173611111111  0.114791666666667 12.2439236111111  0.344375 12.0130208333333  C 0.573958333333333 11.7821180555556  0.845833333333333 11.6666666666667  1.16 11.6666666666667  L 6.38 11.6666666666667  C 6.69416666666667 11.6666666666667  6.96604166666667 11.7821180555556  7.195625 12.0130208333333  Z M 27.966875 10.3723958333333  C 28.655625 11.0651041666667  29 11.8854166666667  29 12.8333333333333  C 29 13.8784722222222  28.6677083333333 14.7838541666667  28.003125 15.5494791666667  C 28.184375 16.0842013888889  28.275 16.5460069444444  28.275 16.9348958333333  C 28.31125 17.8585069444444  28.0514583333333 18.6909722222222  27.495625 19.4322916666667  C 27.7010416666667 20.1128472222222  27.7010416666667 20.8237847222222  27.495625 21.5651041666667  C 27.314375 22.2578125  26.988125 22.8289930555556  26.516875 23.2786458333333  C 26.625625 24.6397569444444  26.3295833333333 25.7395833333333  25.62875 26.578125  C 24.8554166666667 27.5017361111111  23.6652083333333 27.9756944444444  22.058125 28  L 21.405625 28  L 20.028125 28  L 19.72 28  C 18.9225 28  18.0525 27.9058159722222  17.11 27.7174479166667  C 16.1675 27.5290798611111  15.4334375 27.3528645833333  14.9078125 27.1888020833333  C 14.3821875 27.0247395833333  13.6541666666667 26.7847222222222  12.72375 26.46875  C 11.2375 25.9461805555556  10.2829166666667 25.6788194444444  9.86 25.6666666666667  C 9.54583333333333 25.6545138888889  9.27395833333333 25.5360243055556  9.044375 25.3111979166667  C 8.81479166666667 25.0863715277778  8.7 24.8159722222222  9 24.5  L 9 12.8151041666667  C 8.7 12.5112847222222  8.80875 12.2469618055556  9.02625 12.0221354166667  C 9.24375 11.7973090277778  9.50354166666667 11.6727430555556  9.805625 11.6484375  C 10.095625 11.6241319444444  10.5547916666667 11.265625  11.183125 10.5729166666667  C 11.8114583333333 9.88020833333333  12.4216666666667 9.14496527777778  13.01375 8.3671875  C 13.8354166666667 7.30989583333333  14.445625 6.58072916666667  14.844375 6.1796875  C 15.061875 5.9609375  15.2491666666667 5.66927083333333  15.40625 5.3046875  C 15.5633333333333 4.94010416666667  15.6690625 4.64539930555555  15.7234375 4.42057291666667  C 15.7778125 4.19574652777778  15.859375 3.828125  15.968125 3.31770833333333  C 16.0527083333333 2.84375  16.1282291666667 2.47309027777778  16.1946875 2.20572916666667  C 16.2611458333333 1.93836805555555  16.3789583333333 1.62239583333333  16.548125 1.2578125  C 16.7172916666667 0.893229166666666  16.9227083333333 0.589409722222222  17.164375 0.346354166666666  C 17.3939583333333 0.115451388888888  17.6658333333333 0  17.98 0  C 18.5358333333333 0  19.0342708333333 0.0638020833333344  19.4753125 0.19140625  C 19.9163541666667 0.319010416666666  20.2788541666667 0.476996527777775  20.5628125 0.665364583333334  C 20.8467708333333 0.853732638888888  21.0884375 1.09982638888889  21.2878125 1.40364583333333  C 21.4871875 1.70746527777778  21.6321875 1.98090277777778  21.7228125 2.22395833333333  C 21.8134375 2.46701388888889  21.8859375 2.77083333333333  21.9403125 3.13541666666667  C 21.9946875 3.5  22.0248958333333 3.7734375  22.0309375 3.95572916666667  C 22.0369791666667 4.13802083333333  22.04 4.375  22.04 4.66666666666667  C 22.04 5.12847222222222  21.9826041666667 5.59027777777778  21.8678125 6.05208333333333  C 21.7530208333333 6.51388888888889  21.6382291666667 6.87847222222222  21.5234375 7.14583333333333  C 21.4086458333333 7.41319444444444  21.2425 7.75347222222222  21.025 8.16666666666667  C 20.98875 8.23958333333333  20.9283333333333 8.34895833333333  20.84375 8.49479166666667  C 20.7591666666667 8.640625  20.6927083333333 8.77430555555555  20.644375 8.89583333333333  C 20.5960416666667 9.01736111111111  20.5477083333333 9.16319444444444  20.499375 9.33333333333333  L 25.52 9.33333333333333  C 26.4625 9.33333333333333  27.278125 9.6796875  27.966875 10.3723958333333  Z " fill-rule="nonzero" fill="#f74f63" stroke="none" transform="matrix(1 0 0 1 281 81 )" />
  </g>
</svg>