<?xml version="1.0" encoding="utf-8"?>
<svg version="1.1" xmlns:xlink="http://www.w3.org/1999/xlink" width="58px" height="58px" xmlns="http://www.w3.org/2000/svg">
  <g transform="matrix(1 0 0 1 -942 -594 )">
    <path d="M 971 594  C 987.24 594  1000 606.76  1000 623  C 1000 639.24  987.24 652  971 652  C 954.76 652  942 639.24  942 623  C 942 606.76  954.76 594  971 594  Z " fill-rule="nonzero" fill="#80ffff" stroke="none" fill-opacity="0.682352941176471" />
    <path d="M 971 594.5  C 986.96 594.5  999.5 607.04  999.5 623  C 999.5 638.96  986.96 651.5  971 651.5  C 955.04 651.5  942.5 638.96  942.5 623  C 942.5 607.04  955.04 594.5  971 594.5  Z " stroke-width="1" stroke="#797979" fill="none" />
  </g>
</svg>