<?xml version="1.0" encoding="utf-8"?>
<svg version="1.1" xmlns:xlink="http://www.w3.org/1999/xlink" width="37px" height="37px" xmlns="http://www.w3.org/2000/svg">
  <g transform="matrix(1 0 0 1 -953 -605 )">
    <path d="M 971.5 605  C 981.86 605  990 613.14  990 623.5  C 990 633.86  981.86 642  971.5 642  C 961.14 642  953 633.86  953 623.5  C 953 613.14  961.14 605  971.5 605  Z " fill-rule="nonzero" fill="#80ffff" stroke="none" fill-opacity="0.682352941176471" />
    <path d="M 971.5 605.5  C 981.58 605.5  989.5 613.42  989.5 623.5  C 989.5 633.58  981.58 641.5  971.5 641.5  C 961.42 641.5  953.5 633.58  953.5 623.5  C 953.5 613.42  961.42 605.5  971.5 605.5  Z " stroke-width="1" stroke="#797979" fill="none" />
  </g>
</svg>