<?xml version="1.0" encoding="utf-8"?>
<svg version="1.1" xmlns:xlink="http://www.w3.org/1999/xlink" width="35px" height="19px" xmlns="http://www.w3.org/2000/svg">
  <g transform="matrix(1 0 0 1 -1881 -6 )">
    <path d="M 34.3505859375 0.626736111111112  C 34.7835286458333 1.04456018518518  35 1.53935185185185  35 2.11111111111111  C 35 2.68287037037037  34.7835286458333 3.17766203703703  34.3505859375 3.59548611111111  L 19.0380859375 18.3732638888889  C 18.6051432291667 18.791087962963  18.0924479166667 19  17.5 19  C 16.9075520833333 19  16.3948567708333 18.791087962963  15.9619140625 18.3732638888889  L 0.6494140625 3.59548611111111  C 0.216471354166667 3.17766203703703  0 2.68287037037037  0 2.11111111111111  C 0 1.53935185185185  0.216471354166667 1.04456018518518  0.6494140625 0.626736111111112  C 1.08235677083333 0.208912037037035  1.59505208333333 0  2.1875 0  L 32.8125 0  C 33.4049479166667 0  33.9176432291667 0.208912037037035  34.3505859375 0.626736111111112  Z " fill-rule="nonzero" fill="#7f7f7f" stroke="none" transform="matrix(1 0 0 1 1881 6 )" />
  </g>
</svg>