<?xml version="1.0" encoding="utf-8"?>
<svg version="1.1" xmlns:xlink="http://www.w3.org/1999/xlink" width="58px" height="58px" xmlns="http://www.w3.org/2000/svg">
  <g transform="matrix(1 0 0 1 -746 -443 )">
    <path d="M 775 443  C 791.24 443  804 455.76  804 472  C 804 488.24  791.24 501  775 501  C 758.76 501  746 488.24  746 472  C 746 455.76  758.76 443  775 443  Z " fill-rule="nonzero" fill="#80ffff" stroke="none" fill-opacity="0.67843137254902" />
    <path d="M 775 443.5  C 790.96 443.5  803.5 456.04  803.5 472  C 803.5 487.96  790.96 500.5  775 500.5  C 759.04 500.5  746.5 487.96  746.5 472  C 746.5 456.04  759.04 443.5  775 443.5  Z " stroke-width="1" stroke="#797979" fill="none" />
  </g>
</svg>