<?xml version="1.0" encoding="utf-8"?>
<svg version="1.1" xmlns:xlink="http://www.w3.org/1999/xlink" width="37px" height="37px" xmlns="http://www.w3.org/2000/svg">
  <g transform="matrix(1 0 0 1 -757 -454 )">
    <path d="M 775.5 454  C 785.86 454  794 462.14  794 472.5  C 794 482.86  785.86 491  775.5 491  C 765.14 491  757 482.86  757 472.5  C 757 462.14  765.14 454  775.5 454  Z " fill-rule="nonzero" fill="#80ffff" stroke="none" fill-opacity="0.67843137254902" />
    <path d="M 775.5 454.5  C 785.58 454.5  793.5 462.42  793.5 472.5  C 793.5 482.58  785.58 490.5  775.5 490.5  C 765.42 490.5  757.5 482.58  757.5 472.5  C 757.5 462.42  765.42 454.5  775.5 454.5  Z " stroke-width="1" stroke="#797979" fill="none" />
  </g>
</svg>