<?xml version="1.0" encoding="utf-8"?>
<svg version="1.1" xmlns:xlink="http://www.w3.org/1999/xlink" width="35px" height="19px" xmlns="http://www.w3.org/2000/svg">
  <g transform="matrix(1 0 0 1 -1881 -2 )">
    <path d="M 34.3505859375 15.4045138888889  C 34.7835286458333 15.822337962963  35 16.3171296296296  35 16.8888888888889  C 35 17.4606481481481  34.7835286458333 17.9554398148148  34.3505859375 18.3732638888889  C 33.9176432291667 18.791087962963  33.4049479166667 19  32.8125 19  L 2.1875 19  C 1.59505208333333 19  1.08235677083333 18.791087962963  0.6494140625 18.3732638888889  C 0.216471354166667 17.9554398148148  0 17.4606481481481  0 16.8888888888889  C 0 16.3171296296296  0.216471354166667 15.822337962963  0.6494140625 15.4045138888889  L 15.9619140625 0.626736111111112  C 16.3948567708333 0.208912037037035  16.9075520833333 0  17.5 0  C 18.0924479166667 0  18.6051432291667 0.208912037037035  19.0380859375 0.626736111111112  L 34.3505859375 15.4045138888889  Z " fill-rule="nonzero" fill="#7f7f7f" stroke="none" transform="matrix(1 0 0 1 1881 2 )" />
  </g>
</svg>