<?xml version="1.0" encoding="utf-8"?>
<svg version="1.1" xmlns:xlink="http://www.w3.org/1999/xlink" width="242px" height="95px" xmlns="http://www.w3.org/2000/svg">
  <g transform="matrix(1 0 0 1 -1325 -4515 )">
    <path d="M 1529.04532604202 4515.5  C 1529.04532604202 4515.5  1532.73948210608 4516.22509261588  1532.73948210608 4516.22509261588  C 1532.73948210608 4516.22509261588  1566.41926432249 4562.5  1566.41926432249 4562.5  C 1566.41926432249 4562.5  1532.73948210608 4608.77490738412  1532.73948210608 4608.77490738412  C 1532.73948210608 4608.77490738412  1529.04532604202 4609.5  1529.04532604202 4609.5  C 1529.04532604202 4609.5  1325.5 4609.5  1325.5 4609.5  C 1325.5 4609.5  1325.5 4515.5  1325.5 4515.5  C 1325.5 4515.5  1529.04532604202 4515.5  1529.04532604202 4515.5  Z " fill-rule="nonzero" fill="#ffffff" stroke="none" />
    <path d="M 1529.04532604202 4515.5  C 1529.04532604202 4515.5  1532.73948210608 4516.22509261588  1532.73948210608 4516.22509261588  C 1532.73948210608 4516.22509261588  1566.41926432249 4562.5  1566.41926432249 4562.5  C 1566.41926432249 4562.5  1532.73948210608 4608.77490738412  1532.73948210608 4608.77490738412  C 1532.73948210608 4608.77490738412  1529.04532604202 4609.5  1529.04532604202 4609.5  C 1529.04532604202 4609.5  1325.5 4609.5  1325.5 4609.5  C 1325.5 4609.5  1325.5 4515.5  1325.5 4515.5  C 1325.5 4515.5  1529.04532604202 4515.5  1529.04532604202 4515.5  Z " stroke-width="1" stroke="#797979" fill="none" />
  </g>
</svg>