<?xml version="1.0" encoding="utf-8"?>
<svg version="1.1" xmlns:xlink="http://www.w3.org/1999/xlink" width="62px" height="62px" xmlns="http://www.w3.org/2000/svg">
  <g transform="matrix(1 0 0 1 -929 -1565 )">
    <path d="M 960 1565  C 977.36 1565  991 1578.64  991 1596  C 991 1613.36  977.36 1627  960 1627  C 942.64 1627  929 1613.36  929 1596  C 929 1578.64  942.64 1565  960 1565  Z " fill-rule="nonzero" fill="#f2f2f2" stroke="none" />
    <path d="M 960 1565.5  C 977.08 1565.5  990.5 1578.92  990.5 1596  C 990.5 1613.08  977.08 1626.5  960 1626.5  C 942.92 1626.5  929.5 1613.08  929.5 1596  C 929.5 1578.92  942.92 1565.5  960 1565.5  Z " stroke-width="1" stroke="#797979" fill="none" />
  </g>
</svg>