<?xml version="1.0" encoding="utf-8"?>
<svg version="1.1" xmlns:xlink="http://www.w3.org/1999/xlink" width="83px" height="40px" xmlns="http://www.w3.org/2000/svg">
  <g transform="matrix(1 0 0 1 -376 -2097 )">
    <path d="M 442.995456780925 2097.5  C 442.995456780925 2097.5  446.700331172113 2098.39274081715  446.700331172113 2098.39274081715  C 446.700331172113 2098.39274081715  458.429970505097 2117  458.429970505097 2117  C 458.429970505097 2117  446.700331172113 2135.60725918285  446.700331172113 2135.60725918285  C 446.700331172113 2135.60725918285  442.995456780925 2136.5  442.995456780925 2136.5  C 442.995456780925 2136.5  381 2136.5  381 2136.5  C 378.48 2136.5  376.5 2134.52  376.5 2132  C 376.5 2132  376.5 2102  376.5 2102  C 376.5 2099.48  378.48 2097.5  381 2097.5  C 381 2097.5  442.995456780925 2097.5  442.995456780925 2097.5  Z " fill-rule="nonzero" fill="#ffffff" stroke="none" />
    <path d="M 442.995456780925 2097.5  C 442.995456780925 2097.5  446.700331172113 2098.39274081715  446.700331172113 2098.39274081715  C 446.700331172113 2098.39274081715  458.429970505097 2117  458.429970505097 2117  C 458.429970505097 2117  446.700331172113 2135.60725918285  446.700331172113 2135.60725918285  C 446.700331172113 2135.60725918285  442.995456780925 2136.5  442.995456780925 2136.5  C 442.995456780925 2136.5  381 2136.5  381 2136.5  C 378.48 2136.5  376.5 2134.52  376.5 2132  C 376.5 2132  376.5 2102  376.5 2102  C 376.5 2099.48  378.48 2097.5  381 2097.5  C 381 2097.5  442.995456780925 2097.5  442.995456780925 2097.5  Z " stroke-width="1" stroke="#797979" fill="none" />
  </g>
</svg>