<?xml version="1.0" encoding="utf-8"?>
<svg version="1.1" xmlns:xlink="http://www.w3.org/1999/xlink" width="39px" height="21px" xmlns="http://www.w3.org/2000/svg">
  <defs>
    <mask fill="white" id="clip10">
      <path d="M 11.7 21  L 0 10.5  L 11.7 0  L 11.7 6  L 39 6  L 39 15  L 11.7 15  L 11.7 21  Z " fill-rule="evenodd" />
    </mask>
  </defs>
  <g transform="matrix(1 0 0 1 -1184 -1648 )">
    <path d="M 11.7 21  L 0 10.5  L 11.7 0  L 11.7 6  L 39 6  L 39 15  L 11.7 15  L 11.7 21  Z " fill-rule="nonzero" fill="#555555" stroke="none" transform="matrix(1 0 0 1 1184 1648 )" />
    <path d="M 11.7 21  L 0 10.5  L 11.7 0  L 11.7 6  L 39 6  L 39 15  L 11.7 15  L 11.7 21  Z " stroke-width="2" stroke="#797979" fill="none" transform="matrix(1 0 0 1 1184 1648 )" mask="url(#clip10)" />
  </g>
</svg>