<?xml version="1.0" encoding="utf-8"?>
<svg version="1.1" xmlns:xlink="http://www.w3.org/1999/xlink" width="60px" height="60px" xmlns="http://www.w3.org/2000/svg">
  <g transform="matrix(1 0 0 1 -353 -1981 )">
    <path d="M 383 1981  C 399.8 1981  413 1994.2  413 2011  C 413 2027.8  399.8 2041  383 2041  C 366.2 2041  353 2027.8  353 2011  C 353 1994.2  366.2 1981  383 1981  Z " fill-rule="nonzero" fill="#ffffff" stroke="none" />
    <path d="M 383 1981.5  C 399.52 1981.5  412.5 1994.48  412.5 2011  C 412.5 2027.52  399.52 2040.5  383 2040.5  C 366.48 2040.5  353.5 2027.52  353.5 2011  C 353.5 1994.48  366.48 1981.5  383 1981.5  Z " stroke-width="1" stroke="#797979" fill="none" />
  </g>
</svg>