<?xml version="1.0" encoding="utf-8"?>
<svg version="1.1" xmlns:xlink="http://www.w3.org/1999/xlink" width="92px" height="75px" xmlns="http://www.w3.org/2000/svg">
  <g transform="matrix(1 0 0 1 -351 -1605 )">
    <path d="M 27 53.9899553571429  L 27 68.3035714285714  L 44 60.2678571428571  L 44 47.1261160714286  L 27 53.9899553571429  Z M 7.27205882352941 42.0619419642857  L 24.3529411764706 49.3024553571429  L 41.4338235294118 42.0619419642857  L 24.3529411764706 34.8214285714286  L 7.27205882352941 42.0619419642857  Z M 70 53.9899553571429  L 70 68.3035714285714  L 86 60.2678571428571  L 86 47.1261160714286  L 70 53.9899553571429  Z M 50.5661764705882 42.0619419642857  L 67.6470588235294 49.3024553571429  L 84.7279411764706 42.0619419642857  L 67.6470588235294 34.8214285714286  L 50.5661764705882 42.0619419642857  Z M 48 25.8649553571429  L 48 37.0396205357143  L 65 30.1339285714286  L 65 19.0011160714286  L 48 25.8649553571429  Z M 27.3547794117647 13.2672991071429  L 46 21.1774553571429  L 64.6452205882353 13.2672991071429  L 46 5.35714285714286  L 27.3547794117647 13.2672991071429  Z M 91.1121323529412 39.9274553571429  C 91.7040441176471 40.8203125  92 41.796875  92 42.8571428571429  L 92 60.2678571428571  C 92 61.2723214285714  91.7322303921569 62.20703125  91.1966911764706 63.0719866071429  C 90.6611519607843 63.9369419642857  89.9283088235294 64.5926339285714  88.9981617647059 65.0390625  L 70.0569852941177 74.4140625  C 69.3523284313726 74.8046875  68.5490196078431 75  67.6470588235294 75  C 66.7450980392157 75  65.9417892156863 74.8046875  65.2371323529412 74.4140625  L 46.2959558823529 65.0390625  C 46.1832107843137 64.9832589285714  46.0845588235294 64.9274553571428  46 64.8716517857143  C 45.9436274509804 64.9274553571428  45.8449754901961 64.9832589285714  45.7040441176471 65.0390625  L 26.7628676470588 74.4140625  C 26.0582107843137 74.8046875  25.2549019607843 75  24.3529411764706 75  C 23.4509803921569 75  22.6476715686275 74.8046875  21.9430147058824 74.4140625  L 3.00183823529412 65.0390625  C 2.07169117647059 64.5926339285714  1.33884803921569 63.9369419642857  0.803308823529412 63.0719866071429  C 0.267769607843137 62.20703125  0 61.2723214285714  0 60.2678571428571  L 0 42.8571428571429  C 0 41.796875  0.303002450980392 40.8203125  0.909007352941176 39.9274553571429  C 1.51501225490196 39.0345982142857  2.31127450980392 38.3649553571429  3.29779411764706 37.9185267857143  L 22 30.1339285714286  L 22 13.3928571428571  C 21.6470588235294 12.3325892857143  21.9500612745098 11.3560267857143  22.5560661764706 10.4631696428571  C 23.1620710784314 9.5703125  23.9583333333333 8.90066964285713  24.9448529411765 8.45424107142857  L 43.8860294117647 0.418526785714282  C 44.5343137254902 0.139508928571438  45.2389705882353 0  46 0  C 46.7610294117647 0  47.4656862745098 0.139508928571438  48.1139705882353 0.418526785714282  L 67.0551470588235 8.45424107142857  C 68.0416666666667 8.90066964285713  68.8379289215686 9.5703125  69.4439338235294 10.4631696428571  C 70.0499387254902 11.3560267857143  70.3529411764706 12.3325892857143  70 13.3928571428571  L 70 30.1339285714286  L 88.7022058823529 37.9185267857143  C 89.7169117647059 38.3649553571429  90.5202205882353 39.0345982142857  91.1121323529412 39.9274553571429  Z " fill-rule="nonzero" fill="#555555" stroke="none" transform="matrix(1 0 0 1 351 1605 )" />
  </g>
</svg>