<?xml version="1.0" encoding="utf-8"?>
<svg version="1.1" xmlns:xlink="http://www.w3.org/1999/xlink" width="177px" height="42px" xmlns="http://www.w3.org/2000/svg">
  <g transform="matrix(1 0 0 1 -122 -1236 )">
    <path d="M 282.863921549108 1237.5  C 282.863921549108 1237.5  285.406846291797 1237.80170293557  285.406846291797 1237.80170293557  C 285.406846291797 1237.80170293557  297.379227747664 1257  297.379227747664 1257  C 297.379227747664 1257  285.406846291797 1276.19829706443  285.406846291797 1276.19829706443  C 285.406846291797 1276.19829706443  282.863921549108 1276.5  282.863921549108 1276.5  C 282.863921549108 1276.5  127 1276.5  127 1276.5  C 125.04 1276.5  123.5 1274.96  123.5 1273  C 123.5 1273  123.5 1241  123.5 1241  C 123.5 1239.04  125.04 1237.5  127 1237.5  C 127 1237.5  282.863921549108 1237.5  282.863921549108 1237.5  Z " fill-rule="nonzero" fill="#ffffff" stroke="none" />
    <path d="M 282.642614366072 1237  C 282.642614366072 1237  285.671230861198 1237.35932738078  285.671230861198 1237.35932738078  C 285.671230861198 1237.35932738078  297.919485165109 1257  297.919485165109 1257  C 297.919485165109 1257  285.671230861198 1276.64067261922  285.671230861198 1276.64067261922  C 285.671230861198 1276.64067261922  282.642614366072 1277  282.642614366072 1277  C 282.642614366072 1277  127 1277  127 1277  C 124.76 1277  123 1275.24  123 1273  C 123 1273  123 1241  123 1241  C 123 1238.76  124.76 1237  127 1237  C 127 1237  282.642614366072 1237  282.642614366072 1237  Z " stroke-width="2" stroke="#797979" fill="none" />
  </g>
</svg>