<?xml version="1.0" encoding="utf-8"?>
<svg version="1.1" xmlns:xlink="http://www.w3.org/1999/xlink" width="114px" height="114px" xmlns="http://www.w3.org/2000/svg">
  <g transform="matrix(1 0 0 1 -31 -867 )">
    <path d="M 88 867  C 119.92 867  145 892.08  145 924  C 145 955.92  119.92 981  88 981  C 56.08 981  31 955.92  31 924  C 31 892.08  56.08 867  88 867  Z " fill-rule="nonzero" fill="#ffffff" stroke="none" />
    <path d="M 88 867.5  C 119.64 867.5  144.5 892.36  144.5 924  C 144.5 955.64  119.64 980.5  88 980.5  C 56.36 980.5  31.5 955.64  31.5 924  C 31.5 892.36  56.36 867.5  88 867.5  Z " stroke-width="1" stroke="#797979" fill="none" />
  </g>
</svg>