<?xml version="1.0" encoding="utf-8"?>
<svg version="1.1" xmlns:xlink="http://www.w3.org/1999/xlink" width="60px" height="60px" xmlns="http://www.w3.org/2000/svg">
  <g transform="matrix(1 0 0 1 -42 -1371 )">
    <path d="M 72 1371  C 88.8 1371  102 1384.2  102 1401  C 102 1417.8  88.8 1431  72 1431  C 55.2 1431  42 1417.8  42 1401  C 42 1384.2  55.2 1371  72 1371  Z " fill-rule="nonzero" fill="#ffffff" stroke="none" />
    <path d="M 72 1371.5  C 88.52 1371.5  101.5 1384.48  101.5 1401  C 101.5 1417.52  88.52 1430.5  72 1430.5  C 55.48 1430.5  42.5 1417.52  42.5 1401  C 42.5 1384.48  55.48 1371.5  72 1371.5  Z " stroke-width="1" stroke="#797979" fill="none" />
  </g>
</svg>