<?xml version="1.0" encoding="utf-8"?>
<svg version="1.1" xmlns:xlink="http://www.w3.org/1999/xlink" width="108px" height="21px" xmlns="http://www.w3.org/2000/svg">
  <defs>
    <mask fill="white" id="clip5">
      <path d="M 0 16  L 0 5  C 0 2.20000000000005  2.19999999999982 0  5 0  L 103 0  C 105.8 0  108 2.20000000000005  108 5  L 108 16  C 108 18.8  105.8 21  103 21  L 89.4810126582279 21  L 5 21  C 2.19999999999982 21  0 18.8  0 16  Z " fill-rule="evenodd" />
    </mask>
  </defs>
  <g transform="matrix(1 0 0 1 -289 -1240 )">
    <path d="M 0 16  L 0 5  C 0 2.20000000000005  2.19999999999982 0  5 0  L 103 0  C 105.8 0  108 2.20000000000005  108 5  L 108 16  C 108 18.8  105.8 21  103 21  L 89.4810126582279 21  L 5 21  C 2.19999999999982 21  0 18.8  0 16  Z " fill-rule="nonzero" fill="#ffffff" stroke="none" transform="matrix(1 0 0 1 289 1240 )" />
    <path d="M 0 16  L 0 5  C 0 2.20000000000005  2.19999999999982 0  5 0  L 103 0  C 105.8 0  108 2.20000000000005  108 5  L 108 16  C 108 18.8  105.8 21  103 21  L 89.4810126582279 21  L 5 21  C 2.19999999999982 21  0 18.8  0 16  Z " stroke-width="2" stroke="#797979" fill="none" transform="matrix(1 0 0 1 289 1240 )" mask="url(#clip5)" />
  </g>
</svg>