<?xml version="1.0" encoding="utf-8"?>
<svg version="1.1" xmlns:xlink="http://www.w3.org/1999/xlink" width="136px" height="136px" xmlns="http://www.w3.org/2000/svg">
  <g transform="matrix(1 0 0 1 -25 -928 )">
    <path d="M 93 928  C 131.08 928  161 957.92  161 996  C 161 1034.08  131.08 1064  93 1064  C 54.92 1064  25 1034.08  25 996  C 25 957.92  54.92 928  93 928  Z " fill-rule="nonzero" fill="#ffffff" stroke="none" />
    <path d="M 93 928.5  C 130.8 928.5  160.5 958.2  160.5 996  C 160.5 1033.8  130.8 1063.5  93 1063.5  C 55.2 1063.5  25.5 1033.8  25.5 996  C 25.5 958.2  55.2 928.5  93 928.5  Z " stroke-width="1" stroke="#797979" fill="none" />
  </g>
</svg>