<?xml version="1.0" encoding="utf-8"?>
<svg version="1.1" xmlns:xlink="http://www.w3.org/1999/xlink" width="16px" height="16px" xmlns="http://www.w3.org/2000/svg">
  <g transform="matrix(1 0 0 1 -1267 -914 )">
    <path d="M 1275 914  C 1279.48 914  1283 917.52  1283 922  C 1283 926.48  1279.48 930  1275 930  C 1270.52 930  1267 926.48  1267 922  C 1267 917.52  1270.52 914  1275 914  Z " fill-rule="nonzero" fill="#d9001b" stroke="none" />
    <path d="M 1275 914.5  C 1279.2 914.5  1282.5 917.8  1282.5 922  C 1282.5 926.2  1279.2 929.5  1275 929.5  C 1270.8 929.5  1267.5 926.2  1267.5 922  C 1267.5 917.8  1270.8 914.5  1275 914.5  Z " stroke-width="1" stroke="#ffffff" fill="none" />
  </g>
</svg>