<?xml version="1.0" encoding="utf-8"?>
<svg version="1.1" xmlns:xlink="http://www.w3.org/1999/xlink" width="130px" height="130px" xmlns="http://www.w3.org/2000/svg">
  <g transform="matrix(1 0 0 1 -154 -2058 )">
    <path d="M 219 2058  C 255.4 2058  284 2086.6  284 2123  C 284 2159.4  255.4 2188  219 2188  C 182.6 2188  154 2159.4  154 2123  C 154 2086.6  182.6 2058  219 2058  Z " fill-rule="nonzero" fill="#ffffff" stroke="none" />
    <path d="M 219 2058.5  C 255.12 2058.5  283.5 2086.88  283.5 2123  C 283.5 2159.12  255.12 2187.5  219 2187.5  C 182.88 2187.5  154.5 2159.12  154.5 2123  C 154.5 2086.88  182.88 2058.5  219 2058.5  Z " stroke-width="1" stroke="#797979" fill="none" />
  </g>
</svg>