<?xml version="1.0" encoding="utf-8"?>
<svg version="1.1" xmlns:xlink="http://www.w3.org/1999/xlink" width="130px" height="130px" xmlns="http://www.w3.org/2000/svg">
  <g transform="matrix(1 0 0 1 -154 -2008 )">
    <path d="M 219 2008  C 255.4 2008  284 2036.6  284 2073  C 284 2109.4  255.4 2138  219 2138  C 182.6 2138  154 2109.4  154 2073  C 154 2036.6  182.6 2008  219 2008  Z " fill-rule="nonzero" fill="#ffffff" stroke="none" />
    <path d="M 219 2008.5  C 255.12 2008.5  283.5 2036.88  283.5 2073  C 283.5 2109.12  255.12 2137.5  219 2137.5  C 182.88 2137.5  154.5 2109.12  154.5 2073  C 154.5 2036.88  182.88 2008.5  219 2008.5  Z " stroke-width="1" stroke="#797979" fill="none" />
  </g>
</svg>