<?xml version="1.0" encoding="utf-8"?>
<svg version="1.1" xmlns:xlink="http://www.w3.org/1999/xlink" width="237px" height="36px" xmlns="http://www.w3.org/2000/svg">
  <g transform="matrix(1 0 0 1 -128 -2464 )">
    <path d="M 351.071414194834 2464.5  C 351.071414194834 2464.5  353.945073365833 2464.71825259527  353.945073365833 2464.71825259527  C 353.945073365833 2464.71825259527  364.474055717818 2482  364.474055717818 2482  C 364.474055717818 2482  353.945073365833 2499.28174740473  353.945073365833 2499.28174740473  C 353.945073365833 2499.28174740473  351.071414194834 2499.5  351.071414194834 2499.5  C 351.071414194834 2499.5  128.5 2499.5  128.5 2499.5  C 128.5 2499.5  128.5 2464.5  128.5 2464.5  C 128.5 2464.5  351.071414194834 2464.5  351.071414194834 2464.5  Z " fill-rule="nonzero" fill="#ffffff" stroke="none" />
    <path d="M 351.071414194834 2464.5  C 351.071414194834 2464.5  353.945073365833 2464.71825259527  353.945073365833 2464.71825259527  C 353.945073365833 2464.71825259527  364.474055717818 2482  364.474055717818 2482  C 364.474055717818 2482  353.945073365833 2499.28174740473  353.945073365833 2499.28174740473  C 353.945073365833 2499.28174740473  351.071414194834 2499.5  351.071414194834 2499.5  C 351.071414194834 2499.5  128.5 2499.5  128.5 2499.5  C 128.5 2499.5  128.5 2464.5  128.5 2464.5  C 128.5 2464.5  351.071414194834 2464.5  351.071414194834 2464.5  Z " stroke-width="1" stroke="#797979" fill="none" />
  </g>
</svg>