<?xml version="1.0" encoding="utf-8"?>
<svg version="1.1" xmlns:xlink="http://www.w3.org/1999/xlink" width="237px" height="36px" xmlns="http://www.w3.org/2000/svg">
  <g transform="matrix(1 0 0 1 -938 -2404 )">
    <path d="M 951.928585805166 2404.5  C 951.928585805166 2404.5  949.054926634167 2404.71825259527  949.054926634167 2404.71825259527  C 949.054926634167 2404.71825259527  938.525944282182 2422  938.525944282182 2422  C 938.525944282182 2422  949.054926634167 2439.28174740473  949.054926634167 2439.28174740473  C 949.054926634167 2439.28174740473  951.928585805166 2439.5  951.928585805166 2439.5  C 951.928585805166 2439.5  1174.5 2439.5  1174.5 2439.5  C 1174.5 2439.5  1174.5 2404.5  1174.5 2404.5  C 1174.5 2404.5  951.928585805166 2404.5  951.928585805166 2404.5  Z " fill-rule="nonzero" fill="#ffffff" stroke="none" />
    <path d="M 951.928585805166 2404.5  C 951.928585805166 2404.5  949.054926634167 2404.71825259527  949.054926634167 2404.71825259527  C 949.054926634167 2404.71825259527  938.525944282182 2422  938.525944282182 2422  C 938.525944282182 2422  949.054926634167 2439.28174740473  949.054926634167 2439.28174740473  C 949.054926634167 2439.28174740473  951.928585805166 2439.5  951.928585805166 2439.5  C 951.928585805166 2439.5  1174.5 2439.5  1174.5 2439.5  C 1174.5 2439.5  1174.5 2404.5  1174.5 2404.5  C 1174.5 2404.5  951.928585805166 2404.5  951.928585805166 2404.5  Z " stroke-width="1" stroke="#797979" fill="none" />
  </g>
</svg>