<?xml version="1.0" encoding="utf-8"?>
<svg version="1.1" xmlns:xlink="http://www.w3.org/1999/xlink" width="348px" height="36px" xmlns="http://www.w3.org/2000/svg">
  <g transform="matrix(1 0 0 1 -72 -2640 )">
    <path d="M 406.396930355918 2640.5  C 406.396930355918 2640.5  408.952385902271 2640.63217873516  408.952385902271 2640.63217873516  C 408.952385902271 2640.63217873516  419.482005763186 2658  419.482005763186 2658  C 419.482005763186 2658  408.952385902271 2675.36782126484  408.952385902271 2675.36782126484  C 408.952385902271 2675.36782126484  406.396930355918 2675.5  406.396930355918 2675.5  C 406.396930355918 2675.5  72.5 2675.5  72.5 2675.5  C 72.5 2675.5  72.5 2640.5  72.5 2640.5  C 72.5 2640.5  406.396930355918 2640.5  406.396930355918 2640.5  Z " fill-rule="nonzero" fill="#ffffff" stroke="none" />
    <path d="M 406.396930355918 2640.5  C 406.396930355918 2640.5  408.952385902271 2640.63217873516  408.952385902271 2640.63217873516  C 408.952385902271 2640.63217873516  419.482005763186 2658  419.482005763186 2658  C 419.482005763186 2658  408.952385902271 2675.36782126484  408.952385902271 2675.36782126484  C 408.952385902271 2675.36782126484  406.396930355918 2675.5  406.396930355918 2675.5  C 406.396930355918 2675.5  72.5 2675.5  72.5 2675.5  C 72.5 2675.5  72.5 2640.5  72.5 2640.5  C 72.5 2640.5  406.396930355918 2640.5  406.396930355918 2640.5  Z " stroke-width="1" stroke="#797979" fill="none" />
  </g>
</svg>