<?xml version="1.0" encoding="utf-8"?>
<svg version="1.1" xmlns:xlink="http://www.w3.org/1999/xlink" width="274px" height="36px" xmlns="http://www.w3.org/2000/svg">
  <g transform="matrix(1 0 0 1 -938 -2575 )">
    <path d="M 951.820080418138 2575.5  C 951.820080418138 2575.5  949.051846094 2575.68185480961  949.051846094 2575.68185480961  C 949.051846094 2575.68185480961  938.52261876671 2593  938.52261876671 2593  C 938.52261876671 2593  949.051846094 2610.31814519039  949.051846094 2610.31814519039  C 949.051846094 2610.31814519039  951.820080418138 2610.5  951.820080418138 2610.5  C 951.820080418138 2610.5  1211.5 2610.5  1211.5 2610.5  C 1211.5 2610.5  1211.5 2575.5  1211.5 2575.5  C 1211.5 2575.5  951.820080418138 2575.5  951.820080418138 2575.5  Z " fill-rule="nonzero" fill="#ffffff" stroke="none" />
    <path d="M 951.820080418138 2575.5  C 951.820080418138 2575.5  949.051846094 2575.68185480961  949.051846094 2575.68185480961  C 949.051846094 2575.68185480961  938.52261876671 2593  938.52261876671 2593  C 938.52261876671 2593  949.051846094 2610.31814519039  949.051846094 2610.31814519039  C 949.051846094 2610.31814519039  951.820080418138 2610.5  951.820080418138 2610.5  C 951.820080418138 2610.5  1211.5 2610.5  1211.5 2610.5  C 1211.5 2610.5  1211.5 2575.5  1211.5 2575.5  C 1211.5 2575.5  951.820080418138 2575.5  951.820080418138 2575.5  Z " stroke-width="1" stroke="#797979" fill="none" />
  </g>
</svg>