<?xml version="1.0" encoding="utf-8"?>
<svg version="1.1" xmlns:xlink="http://www.w3.org/1999/xlink" width="250px" height="100px" xmlns="http://www.w3.org/2000/svg">
  <g transform="matrix(1 0 0 1 -788 -890 )">
    <path d="M 791 895  A 2 2 0 0 1 793 893 L 1033 893  A 2 2 0 0 1 1035 895 L 1035 985  A 2 2 0 0 1 1033 987 L 793 987  A 2 2 0 0 1 791 985 L 791 895  Z " fill-rule="nonzero" fill="#ffffff" stroke="none" />
    <path d="M 789.5 895  A 3.5 3.5 0 0 1 793 891.5 L 1033 891.5  A 3.5 3.5 0 0 1 1036.5 895 L 1036.5 985  A 3.5 3.5 0 0 1 1033 988.5 L 793 988.5  A 3.5 3.5 0 0 1 789.5 985 L 789.5 895  Z " stroke-width="3" stroke-dasharray="9,3" stroke="#797979" fill="none" stroke-dashoffset="0.5" />
  </g>
</svg>