<?xml version="1.0" encoding="utf-8"?>
<svg version="1.1" xmlns:xlink="http://www.w3.org/1999/xlink" width="70px" height="70px" xmlns="http://www.w3.org/2000/svg">
  <g transform="matrix(1 0 0 1 -398 -1128 )">
    <path d="M 433 1128  C 452.6 1128  468 1143.4  468 1163  C 468 1182.6  452.6 1198  433 1198  C 413.4 1198  398 1182.6  398 1163  C 398 1143.4  413.4 1128  433 1128  Z " fill-rule="nonzero" fill="#ffffff" stroke="none" />
    <path d="M 433 1128.5  C 452.32 1128.5  467.5 1143.68  467.5 1163  C 467.5 1182.32  452.32 1197.5  433 1197.5  C 413.68 1197.5  398.5 1182.32  398.5 1163  C 398.5 1143.68  413.68 1128.5  433 1128.5  Z " stroke-width="1" stroke="#797979" fill="none" />
  </g>
</svg>