<?xml version="1.0" encoding="utf-8"?>
<svg version="1.1" xmlns:xlink="http://www.w3.org/1999/xlink" width="70px" height="70px" xmlns="http://www.w3.org/2000/svg">
  <g transform="matrix(1 0 0 1 -558 -1055 )">
    <path d="M 593 1055  C 612.6 1055  628 1070.4  628 1090  C 628 1109.6  612.6 1125  593 1125  C 573.4 1125  558 1109.6  558 1090  C 558 1070.4  573.4 1055  593 1055  Z " fill-rule="nonzero" fill="#ffffff" stroke="none" />
    <path d="M 593 1055.5  C 612.32 1055.5  627.5 1070.68  627.5 1090  C 627.5 1109.32  612.32 1124.5  593 1124.5  C 573.68 1124.5  558.5 1109.32  558.5 1090  C 558.5 1070.68  573.68 1055.5  593 1055.5  Z " stroke-width="1" stroke="#797979" fill="none" />
  </g>
</svg>