<?xml version="1.0" encoding="utf-8"?>
<svg version="1.1" xmlns:xlink="http://www.w3.org/1999/xlink" width="70px" height="70px" xmlns="http://www.w3.org/2000/svg">
  <g transform="matrix(1 0 0 1 -66 -1404 )">
    <path d="M 101 1404  C 120.6 1404  136 1419.4  136 1439  C 136 1458.6  120.6 1474  101 1474  C 81.4 1474  66 1458.6  66 1439  C 66 1419.4  81.4 1404  101 1404  Z " fill-rule="nonzero" fill="#ffffff" stroke="none" />
    <path d="M 101 1404.5  C 120.32 1404.5  135.5 1419.68  135.5 1439  C 135.5 1458.32  120.32 1473.5  101 1473.5  C 81.68 1473.5  66.5 1458.32  66.5 1439  C 66.5 1419.68  81.68 1404.5  101 1404.5  Z " stroke-width="1" stroke="#d9001b" fill="none" />
  </g>
</svg>