<?xml version="1.0" encoding="utf-8"?>
<svg version="1.1" xmlns:xlink="http://www.w3.org/1999/xlink" width="70px" height="70px" xmlns="http://www.w3.org/2000/svg">
  <g transform="matrix(1 0 0 1 -558 -1200 )">
    <path d="M 593 1200  C 612.6 1200  628 1215.4  628 1235  C 628 1254.6  612.6 1270  593 1270  C 573.4 1270  558 1254.6  558 1235  C 558 1215.4  573.4 1200  593 1200  Z " fill-rule="nonzero" fill="#ffffff" stroke="none" />
    <path d="M 593 1200.5  C 612.32 1200.5  627.5 1215.68  627.5 1235  C 627.5 1254.32  612.32 1269.5  593 1269.5  C 573.68 1269.5  558.5 1254.32  558.5 1235  C 558.5 1215.68  573.68 1200.5  593 1200.5  Z " stroke-width="1" stroke="#797979" fill="none" />
  </g>
</svg>