<?xml version="1.0" encoding="utf-8"?>
<svg version="1.1" xmlns:xlink="http://www.w3.org/1999/xlink" width="88px" height="88px" xmlns="http://www.w3.org/2000/svg">
  <g transform="matrix(1 0 0 1 -312 -1830 )">
    <path d="M 356 1830  C 380.64 1830  400 1849.36  400 1874  C 400 1898.64  380.64 1918  356 1918  C 331.36 1918  312 1898.64  312 1874  C 312 1849.36  331.36 1830  356 1830  Z " fill-rule="nonzero" fill="#ffffff" stroke="none" />
    <path d="M 356 1830.5  C 380.36 1830.5  399.5 1849.64  399.5 1874  C 399.5 1898.36  380.36 1917.5  356 1917.5  C 331.64 1917.5  312.5 1898.36  312.5 1874  C 312.5 1849.64  331.64 1830.5  356 1830.5  Z " stroke-width="1" stroke="#797979" fill="none" />
  </g>
</svg>