<?xml version="1.0" encoding="utf-8"?>
<svg version="1.1" xmlns:xlink="http://www.w3.org/1999/xlink" width="100px" height="30px" xmlns="http://www.w3.org/2000/svg">
  <g transform="matrix(1 0 0 1 -1194 -35 )">
    <path d="M 1195 40  A 4 4 0 0 1 1199 36 L 1289 36  A 4 4 0 0 1 1293 40 L 1293 60  A 4 4 0 0 1 1289 64 L 1199 64  A 4 4 0 0 1 1195 60 L 1195 40  Z " fill-rule="nonzero" fill="#ffffff" stroke="none" />
    <path d="M 1194.5 40  A 4.5 4.5 0 0 1 1199 35.5 L 1289 35.5  A 4.5 4.5 0 0 1 1293.5 40 L 1293.5 60  A 4.5 4.5 0 0 1 1289 64.5 L 1199 64.5  A 4.5 4.5 0 0 1 1194.5 60 L 1194.5 40  Z " stroke-width="1" stroke-dasharray="3,1" stroke="#797979" fill="none" stroke-dashoffset="0.5" />
  </g>
</svg>