<?xml version="1.0" encoding="utf-8"?>
<svg version="1.1" xmlns:xlink="http://www.w3.org/1999/xlink" width="88px" height="88px" xmlns="http://www.w3.org/2000/svg">
  <g transform="matrix(1 0 0 1 -312 -1780 )">
    <path d="M 356 1780  C 380.64 1780  400 1799.36  400 1824  C 400 1848.64  380.64 1868  356 1868  C 331.36 1868  312 1848.64  312 1824  C 312 1799.36  331.36 1780  356 1780  Z " fill-rule="nonzero" fill="#ffffff" stroke="none" />
    <path d="M 356 1780.5  C 380.36 1780.5  399.5 1799.64  399.5 1824  C 399.5 1848.36  380.36 1867.5  356 1867.5  C 331.64 1867.5  312.5 1848.36  312.5 1824  C 312.5 1799.64  331.64 1780.5  356 1780.5  Z " stroke-width="1" stroke="#797979" fill="none" />
  </g>
</svg>