<?xml version="1.0" encoding="utf-8"?>
<svg version="1.1" xmlns:xlink="http://www.w3.org/1999/xlink" width="250px" height="100px" xmlns="http://www.w3.org/2000/svg">
  <g transform="matrix(1 0 0 1 -785 -676 )">
    <path d="M 788 681  A 2 2 0 0 1 790 679 L 1030 679  A 2 2 0 0 1 1032 681 L 1032 771  A 2 2 0 0 1 1030 773 L 790 773  A 2 2 0 0 1 788 771 L 788 681  Z " fill-rule="nonzero" fill="#ffffff" stroke="none" />
    <path d="M 786.5 681  A 3.5 3.5 0 0 1 790 677.5 L 1030 677.5  A 3.5 3.5 0 0 1 1033.5 681 L 1033.5 771  A 3.5 3.5 0 0 1 1030 774.5 L 790 774.5  A 3.5 3.5 0 0 1 786.5 771 L 786.5 681  Z " stroke-width="3" stroke-dasharray="9,3" stroke="#797979" fill="none" stroke-dashoffset="0.5" />
  </g>
</svg>