<?xml version="1.0" encoding="utf-8"?>
<svg version="1.1" xmlns:xlink="http://www.w3.org/1999/xlink" width="114px" height="114px" xmlns="http://www.w3.org/2000/svg">
  <g transform="matrix(1 0 0 1 -31 -880 )">
    <path d="M 88 880  C 119.92 880  145 905.08  145 937  C 145 968.92  119.92 994  88 994  C 56.08 994  31 968.92  31 937  C 31 905.08  56.08 880  88 880  Z " fill-rule="nonzero" fill="#ffffff" stroke="none" />
    <path d="M 88 880.5  C 119.64 880.5  144.5 905.36  144.5 937  C 144.5 968.64  119.64 993.5  88 993.5  C 56.36 993.5  31.5 968.64  31.5 937  C 31.5 905.36  56.36 880.5  88 880.5  Z " stroke-width="1" stroke="#797979" fill="none" />
  </g>
</svg>