<?xml version="1.0" encoding="utf-8"?>
<svg version="1.1" xmlns:xlink="http://www.w3.org/1999/xlink" width="20px" height="20px" viewBox="760 2039 20 20" xmlns="http://www.w3.org/2000/svg">
  <path d="M 770 2039  C 775.6 2039  780 2043.4  780 2049  C 780 2054.6  775.6 2059  770 2059  C 764.4 2059  760 2054.6  760 2049  C 760 2043.4  764.4 2039  770 2039  Z " fill-rule="nonzero" fill="rgba(255, 255, 255, 1)" stroke="none" class="fill" />
  <path d="M 770 2039.5  C 775.32 2039.5  779.5 2043.68  779.5 2049  C 779.5 2054.32  775.32 2058.5  770 2058.5  C 764.68 2058.5  760.5 2054.32  760.5 2049  C 760.5 2043.68  764.68 2039.5  770 2039.5  Z " stroke-width="1" stroke-dasharray="0" stroke="rgba(121, 121, 121, 1)" fill="none" class="stroke" stroke-dashoffset="0.5" />
  <path d="M 770 2054  C 767.2 2054  765 2051.8  765 2049  C 765 2046.2  767.2 2044  770 2044  C 772.8 2044  775 2046.2  775 2049  C 775 2051.8  772.8 2054  770 2054  " fill-rule="nonzero" fill="rgba(121, 121, 121, 1)" stroke="none" class="stroke btn_check" />
</svg>