<?xml version="1.0" encoding="utf-8"?>
<svg version="1.1" xmlns:xlink="http://www.w3.org/1999/xlink" width="20px" height="20px" viewBox="1070 2039 20 20" xmlns="http://www.w3.org/2000/svg">
  <path d="M 1080 2039  C 1085.6 2039  1090 2043.4  1090 2049  C 1090 2054.6  1085.6 2059  1080 2059  C 1074.4 2059  1070 2054.6  1070 2049  C 1070 2043.4  1074.4 2039  1080 2039  Z " fill-rule="nonzero" fill="rgba(255, 255, 255, 1)" stroke="none" class="fill" />
  <path d="M 1080 2039.5  C 1085.32 2039.5  1089.5 2043.68  1089.5 2049  C 1089.5 2054.32  1085.32 2058.5  1080 2058.5  C 1074.68 2058.5  1070.5 2054.32  1070.5 2049  C 1070.5 2043.68  1074.68 2039.5  1080 2039.5  Z " stroke-width="1" stroke-dasharray="0" stroke="rgba(2, 167, 240, 1)" fill="none" class="stroke" stroke-dashoffset="0.5" />
  <path d="M 1080 2054  C 1077.2 2054  1075 2051.8  1075 2049  C 1075 2046.2  1077.2 2044  1080 2044  C 1082.8 2044  1085 2046.2  1085 2049  C 1085 2051.8  1082.8 2054  1080 2054  " fill-rule="nonzero" fill="rgba(2, 167, 240, 1)" stroke="none" class="stroke btn_check" />
</svg>