<?xml version="1.0" encoding="utf-8"?>
<svg version="1.1" xmlns:xlink="http://www.w3.org/1999/xlink" width="20px" height="20px" viewBox="450 2250 20 20" xmlns="http://www.w3.org/2000/svg">
  <path d="M 460 2250  C 465.6 2250  470 2254.4  470 2260  C 470 2265.6  465.6 2270  460 2270  C 454.4 2270  450 2265.6  450 2260  C 450 2254.4  454.4 2250  460 2250  Z " fill-rule="nonzero" fill="rgba(240, 240, 240, 1)" stroke="none" class="fill" />
  <path d="M 460 2250.5  C 465.32 2250.5  469.5 2254.68  469.5 2260  C 469.5 2265.32  465.32 2269.5  460 2269.5  C 454.68 2269.5  450.5 2265.32  450.5 2260  C 450.5 2254.68  454.68 2250.5  460 2250.5  Z " stroke-width="1" stroke-dasharray="0" stroke="rgba(2, 167, 240, 1)" fill="none" class="stroke" stroke-dashoffset="0.5" />
  <path d="M 460 2265  C 457.2 2265  455 2262.8  455 2260  C 455 2257.2  457.2 2255  460 2255  C 462.8 2255  465 2257.2  465 2260  C 465 2262.8  462.8 2265  460 2265  " fill-rule="nonzero" fill="rgba(2, 167, 240, 1)" stroke="none" class="stroke btn_check" />
</svg>