<?xml version="1.0" encoding="utf-8"?>
<svg version="1.1" xmlns:xlink="http://www.w3.org/1999/xlink" width="20px" height="20px" viewBox="760 2250 20 20" xmlns="http://www.w3.org/2000/svg">
  <path d="M 770 2250  C 775.6 2250  780 2254.4  780 2260  C 780 2265.6  775.6 2270  770 2270  C 764.4 2270  760 2265.6  760 2260  C 760 2254.4  764.4 2250  770 2250  Z " fill-rule="nonzero" fill="rgba(255, 255, 255, 1)" stroke="none" class="fill" />
  <path d="M 770 2250.5  C 775.32 2250.5  779.5 2254.68  779.5 2260  C 779.5 2265.32  775.32 2269.5  770 2269.5  C 764.68 2269.5  760.5 2265.32  760.5 2260  C 760.5 2254.68  764.68 2250.5  770 2250.5  Z " stroke-width="1" stroke-dasharray="0" stroke="rgba(121, 121, 121, 1)" fill="none" class="stroke" stroke-dashoffset="0.5" />
  <path d="M 770 2265  C 767.2 2265  765 2262.8  765 2260  C 765 2257.2  767.2 2255  770 2255  C 772.8 2255  775 2257.2  775 2260  C 775 2262.8  772.8 2265  770 2265  " fill-rule="nonzero" fill="rgba(121, 121, 121, 1)" stroke="none" class="stroke btn_check" />
</svg>