<?xml version="1.0" encoding="utf-8"?>
<svg version="1.1" xmlns:xlink="http://www.w3.org/1999/xlink" width="300px" height="390px" xmlns="http://www.w3.org/2000/svg">
  <g transform="matrix(1 0 0 1 -101 -3750 )">
    <path d="M 251 3750  C 335 3750  401 3835.8  401 3945  C 401 4054.2  335 4140  251 4140  C 167 4140  101 4054.2  101 3945  C 101 3835.8  167 3750  251 3750  Z " fill-rule="nonzero" fill="#ffffff" stroke="none" />
    <path d="M 251 3750.5  C 334.72 3750.5  400.5 3836.08  400.5 3945  C 400.5 4053.92  334.72 4139.5  251 4139.5  C 167.28 4139.5  101.5 4053.92  101.5 3945  C 101.5 3836.08  167.28 3750.5  251 3750.5  Z " stroke-width="1" stroke="#797979" fill="none" />
  </g>
</svg>