<?xml version="1.0" encoding="utf-8"?>
<svg version="1.1" xmlns:xlink="http://www.w3.org/1999/xlink" width="190px" height="390px" xmlns="http://www.w3.org/2000/svg">
  <g transform="matrix(1 0 0 1 -15 -3750 )">
    <path d="M 110 3750  C 163.2 3750  205 3835.8  205 3945  C 205 4054.2  163.2 4140  110 4140  C 56.8 4140  15 4054.2  15 3945  C 15 3835.8  56.8 3750  110 3750  Z " fill-rule="nonzero" fill="#ffffff" stroke="none" />
    <path d="M 110 3750.5  C 162.92 3750.5  204.5 3836.08  204.5 3945  C 204.5 4053.92  162.92 4139.5  110 4139.5  C 57.08 4139.5  15.5 4053.92  15.5 3945  C 15.5 3836.08  57.08 3750.5  110 3750.5  Z " stroke-width="1" stroke="#797979" fill="none" />
  </g>
</svg>