<?xml version="1.0" encoding="utf-8"?>
<svg version="1.1" xmlns:xlink="http://www.w3.org/1999/xlink" width="198px" height="198px" xmlns="http://www.w3.org/2000/svg">
  <g transform="matrix(1 0 0 1 -6 -1842 )">
    <path d="M 105 1842  C 160.44 1842  204 1885.56  204 1941  C 204 1996.44  160.44 2040  105 2040  C 49.56 2040  6 1996.44  6 1941  C 6 1885.56  49.56 1842  105 1842  Z " fill-rule="nonzero" fill="#ffffff" stroke="none" />
    <path d="M 105 1842.5  C 160.16 1842.5  203.5 1885.84  203.5 1941  C 203.5 1996.16  160.16 2039.5  105 2039.5  C 49.84 2039.5  6.5 1996.16  6.5 1941  C 6.5 1885.84  49.84 1842.5  105 1842.5  Z " stroke-width="1" stroke="#797979" fill="none" />
  </g>
</svg>