<?xml version="1.0" encoding="utf-8"?>
<svg version="1.1" xmlns:xlink="http://www.w3.org/1999/xlink" width="198px" height="198px" xmlns="http://www.w3.org/2000/svg">
  <g transform="matrix(1 0 0 1 -6 -1691 )">
    <path d="M 105 1691  C 160.44 1691  204 1734.56  204 1790  C 204 1845.44  160.44 1889  105 1889  C 49.56 1889  6 1845.44  6 1790  C 6 1734.56  49.56 1691  105 1691  Z " fill-rule="nonzero" fill="#ffffff" stroke="none" />
    <path d="M 105 1691.5  C 160.16 1691.5  203.5 1734.84  203.5 1790  C 203.5 1845.16  160.16 1888.5  105 1888.5  C 49.84 1888.5  6.5 1845.16  6.5 1790  C 6.5 1734.84  49.84 1691.5  105 1691.5  Z " stroke-width="1" stroke="#797979" fill="none" />
  </g>
</svg>