<?xml version="1.0" encoding="utf-8"?>
<svg version="1.1" xmlns:xlink="http://www.w3.org/1999/xlink" width="199px" height="199px" xmlns="http://www.w3.org/2000/svg">
  <g transform="matrix(1 0 0 1 -6 -1899 )">
    <path d="M 105.5 1899  C 161.22 1899  205 1942.78  205 1998.5  C 205 2054.22  161.22 2098  105.5 2098  C 49.78 2098  6 2054.22  6 1998.5  C 6 1942.78  49.78 1899  105.5 1899  Z " fill-rule="nonzero" fill="#ffffff" stroke="none" />
    <path d="M 105.5 1899.5  C 160.94 1899.5  204.5 1943.06  204.5 1998.5  C 204.5 2053.94  160.94 2097.5  105.5 2097.5  C 50.06 2097.5  6.5 2053.94  6.5 1998.5  C 6.5 1943.06  50.06 1899.5  105.5 1899.5  Z " stroke-width="1" stroke="#797979" fill="none" />
  </g>
</svg>