<?xml version="1.0" encoding="utf-8"?>
<svg version="1.1" xmlns:xlink="http://www.w3.org/1999/xlink" width="199px" height="199px" xmlns="http://www.w3.org/2000/svg">
  <g transform="matrix(1 0 0 1 -6 -2050 )">
    <path d="M 105.5 2050  C 161.22 2050  205 2093.78  205 2149.5  C 205 2205.22  161.22 2249  105.5 2249  C 49.78 2249  6 2205.22  6 2149.5  C 6 2093.78  49.78 2050  105.5 2050  Z " fill-rule="nonzero" fill="#ffffff" stroke="none" />
    <path d="M 105.5 2050.5  C 160.94 2050.5  204.5 2094.06  204.5 2149.5  C 204.5 2204.94  160.94 2248.5  105.5 2248.5  C 50.06 2248.5  6.5 2204.94  6.5 2149.5  C 6.5 2094.06  50.06 2050.5  105.5 2050.5  Z " stroke-width="1" stroke="#797979" fill="none" />
  </g>
</svg>