<?xml version="1.0" encoding="utf-8"?>
<svg version="1.1" xmlns:xlink="http://www.w3.org/1999/xlink" width="30px" height="24px" xmlns="http://www.w3.org/2000/svg">
  <g transform="matrix(1 0 0 1 -333 -251 )">
    <path d="M 353.3083592135 251.5  C 353.3083592135 251.5  355.469698466934 252.364535701374  355.469698466934 252.364535701374  C 355.469698466934 252.364535701374  362.405870835604 263  362.405870835604 263  C 362.405870835604 263  355.469698466934 273.635464298626  355.469698466934 273.635464298626  C 355.469698466934 273.635464298626  353.3083592135 274.5  353.3083592135 274.5  C 353.3083592135 274.5  333.5 274.5  333.5 274.5  C 333.5 274.5  333.5 251.5  333.5 251.5  C 333.5 251.5  353.3083592135 251.5  353.3083592135 251.5  Z " fill-rule="nonzero" fill="#ffffff" stroke="none" />
    <path d="M 353.3083592135 251.5  C 353.3083592135 251.5  355.469698466934 252.364535701374  355.469698466934 252.364535701374  C 355.469698466934 252.364535701374  362.405870835604 263  362.405870835604 263  C 362.405870835604 263  355.469698466934 273.635464298626  355.469698466934 273.635464298626  C 355.469698466934 273.635464298626  353.3083592135 274.5  353.3083592135 274.5  C 353.3083592135 274.5  333.5 274.5  333.5 274.5  C 333.5 274.5  333.5 251.5  333.5 251.5  C 333.5 251.5  353.3083592135 251.5  353.3083592135 251.5  Z " stroke-width="1" stroke="#797979" fill="none" />
  </g>
</svg>