<?xml version="1.0" encoding="utf-8"?>
<svg version="1.1" xmlns:xlink="http://www.w3.org/1999/xlink" width="30px" height="24px" xmlns="http://www.w3.org/2000/svg">
  <g transform="matrix(1 0 0 1 -6 -259 )">
    <path d="M 15.6916407864999 259.5  C 15.6916407864999 259.5  13.5303015330657 260.364535701374  13.5303015330657 260.364535701374  C 13.5303015330657 260.364535701374  6.59412916439632 271  6.59412916439632 271  C 6.59412916439632 271  13.5303015330657 281.635464298626  13.5303015330657 281.635464298626  C 13.5303015330657 281.635464298626  15.6916407864999 282.5  15.6916407864999 282.5  C 15.6916407864999 282.5  35.5 282.5  35.5 282.5  C 35.5 282.5  35.5 259.5  35.5 259.5  C 35.5 259.5  15.6916407864999 259.5  15.6916407864999 259.5  Z " fill-rule="nonzero" fill="#ffffff" stroke="none" />
    <path d="M 15.6916407864999 259.5  C 15.6916407864999 259.5  13.5303015330657 260.364535701374  13.5303015330657 260.364535701374  C 13.5303015330657 260.364535701374  6.59412916439632 271  6.59412916439632 271  C 6.59412916439632 271  13.5303015330657 281.635464298626  13.5303015330657 281.635464298626  C 13.5303015330657 281.635464298626  15.6916407864999 282.5  15.6916407864999 282.5  C 15.6916407864999 282.5  35.5 282.5  35.5 282.5  C 35.5 282.5  35.5 259.5  35.5 259.5  C 35.5 259.5  15.6916407864999 259.5  15.6916407864999 259.5  Z " stroke-width="1" stroke="#797979" fill="none" />
  </g>
</svg>