<?xml version="1.0" encoding="utf-8"?>
<svg version="1.1" xmlns:xlink="http://www.w3.org/1999/xlink" width="190px" height="22px" xmlns="http://www.w3.org/2000/svg">
  <g transform="matrix(1 0 0 1 -225 -487 )">
    <path d="M 406.888158370887 487.5  C 406.888158370887 487.5  408.150511688151 487.573083613105  408.150511688151 487.573083613105  C 408.150511688151 487.573083613105  414.479949750483 498  414.479949750483 498  C 414.479949750483 498  408.150511688151 508.426916386895  408.150511688151 508.426916386895  C 408.150511688151 508.426916386895  406.888158370887 508.5  406.888158370887 508.5  C 406.888158370887 508.5  230 508.5  230 508.5  C 227.48 508.5  225.5 506.52  225.5 504  C 225.5 504  225.5 492  225.5 492  C 225.5 489.48  227.48 487.5  230 487.5  C 230 487.5  406.888158370887 487.5  406.888158370887 487.5  Z " fill-rule="nonzero" fill="#ffffff" stroke="none" />
    <path d="M 406.888158370887 487.5  C 406.888158370887 487.5  408.150511688151 487.573083613105  408.150511688151 487.573083613105  C 408.150511688151 487.573083613105  414.479949750483 498  414.479949750483 498  C 414.479949750483 498  408.150511688151 508.426916386895  408.150511688151 508.426916386895  C 408.150511688151 508.426916386895  406.888158370887 508.5  406.888158370887 508.5  C 406.888158370887 508.5  230 508.5  230 508.5  C 227.48 508.5  225.5 506.52  225.5 504  C 225.5 504  225.5 492  225.5 492  C 225.5 489.48  227.48 487.5  230 487.5  C 230 487.5  406.888158370887 487.5  406.888158370887 487.5  Z " stroke-width="1" stroke="#797979" fill="none" />
  </g>
</svg>