<?xml version="1.0" encoding="utf-8"?>
<svg version="1.1" xmlns:xlink="http://www.w3.org/1999/xlink" width="23px" height="191px" xmlns="http://www.w3.org/2000/svg">
  <defs>
    <mask fill="white" id="clip156">
      <path d="M 0.479166666666667 185.825123152709  L 0.479166666666667 9.1266009852215  L 0.604651402640295 6.96256157635477  L 11.5 0.470443349753695  L 22.3953485973597 6.96256157635477  L 22.5208333333333 9.1266009852215  L 22.5208333333333 185.825123152709  C 22.5208333333333 188.45960591133  20.4125 190.529556650246  17.7291666666667 190.529556650246  L 5.27083333333333 190.529556650246  C 2.58750000000004 190.529556650246  0.479166666666667 188.45960591133  0.479166666666667 185.825123152709  Z " fill-rule="evenodd" />
    </mask>
  </defs>
  <g transform="matrix(1 0 0 1 -308 -403 )">
    <path d="M 0.479166666666667 185.825123152709  L 0.479166666666667 9.1266009852215  L 0.604651402640295 6.96256157635477  L 11.5 0.470443349753695  L 22.3953485973597 6.96256157635477  L 22.5208333333333 9.1266009852215  L 22.5208333333333 185.825123152709  C 22.5208333333333 188.45960591133  20.4125 190.529556650246  17.7291666666667 190.529556650246  L 5.27083333333333 190.529556650246  C 2.58750000000004 190.529556650246  0.479166666666667 188.45960591133  0.479166666666667 185.825123152709  Z " fill-rule="nonzero" fill="#ffffff" stroke="none" transform="matrix(1 0 0 1 308 403 )" />
    <path d="M 0.479166666666667 185.825123152709  L 0.479166666666667 9.1266009852215  L 0.604651402640295 6.96256157635477  L 11.5 0.470443349753695  L 22.3953485973597 6.96256157635477  L 22.5208333333333 9.1266009852215  L 22.5208333333333 185.825123152709  C 22.5208333333333 188.45960591133  20.4125 190.529556650246  17.7291666666667 190.529556650246  L 5.27083333333333 190.529556650246  C 2.58750000000004 190.529556650246  0.479166666666667 188.45960591133  0.479166666666667 185.825123152709  Z " stroke-width="2" stroke="#797979" fill="none" transform="matrix(1 0 0 1 308 403 )" mask="url(#clip156)" />
  </g>
</svg>