<?xml version="1.0" encoding="utf-8"?>
<svg version="1.1" xmlns:xlink="http://www.w3.org/1999/xlink" width="23px" height="50px" xmlns="http://www.w3.org/2000/svg">
  <defs>
    <mask fill="white" id="clip157">
      <path d="M 0 45.2830188679245  L 0 8.6792452830187  L 0.499056603773624 6.50943396226424  L 11.5 0  L 22.5009433962264 6.50943396226424  L 23 8.6792452830187  L 23 45.2830188679245  C 23 47.924528301887  20.8 50  18 50  L 5 50  C 2.20000000000005 50  0 47.924528301887  0 45.2830188679245  Z " fill-rule="evenodd" />
    </mask>
  </defs>
  <g transform="matrix(1 0 0 1 -308 -404 )">
    <path d="M 0 45.2830188679245  L 0 8.6792452830187  L 0.499056603773624 6.50943396226424  L 11.5 0  L 22.5009433962264 6.50943396226424  L 23 8.6792452830187  L 23 45.2830188679245  C 23 47.924528301887  20.8 50  18 50  L 5 50  C 2.20000000000005 50  0 47.924528301887  0 45.2830188679245  Z " fill-rule="nonzero" fill="#d9001b" stroke="none" transform="matrix(1 0 0 1 308 404 )" />
    <path d="M 0 45.2830188679245  L 0 8.6792452830187  L 0.499056603773624 6.50943396226424  L 11.5 0  L 22.5009433962264 6.50943396226424  L 23 8.6792452830187  L 23 45.2830188679245  C 23 47.924528301887  20.8 50  18 50  L 5 50  C 2.20000000000005 50  0 47.924528301887  0 45.2830188679245  Z " stroke-width="2" stroke="#797979" fill="none" transform="matrix(1 0 0 1 308 404 )" mask="url(#clip157)" />
  </g>
</svg>