<?xml version="1.0" encoding="utf-8"?>
<svg version="1.1" xmlns:xlink="http://www.w3.org/1999/xlink" width="139px" height="16px" xmlns="http://www.w3.org/2000/svg">
  <g transform="matrix(1 0 0 1 -161 -516 )">
    <path d="M 294.293556980438 516.5  C 294.293556980438 516.5  294.950615000406 516.537816288919  294.950615000406 516.537816288919  C 294.950615000406 516.537816288919  299.480062755167 524  299.480062755167 524  C 299.480062755167 524  294.950615000406 531.462183711081  294.950615000406 531.462183711081  C 294.950615000406 531.462183711081  294.293556980438 531.5  294.293556980438 531.5  C 294.293556980438 531.5  166 531.5  166 531.5  C 163.48 531.5  161.5 529.52  161.5 527  C 161.5 527  161.5 521  161.5 521  C 161.5 518.48  163.48 516.5  166 516.5  C 166 516.5  294.293556980438 516.5  294.293556980438 516.5  Z " fill-rule="nonzero" fill="#ffffff" stroke="none" />
    <path d="M 294.293556980438 516.5  C 294.293556980438 516.5  294.950615000406 516.537816288919  294.950615000406 516.537816288919  C 294.950615000406 516.537816288919  299.480062755167 524  299.480062755167 524  C 299.480062755167 524  294.950615000406 531.462183711081  294.950615000406 531.462183711081  C 294.950615000406 531.462183711081  294.293556980438 531.5  294.293556980438 531.5  C 294.293556980438 531.5  166 531.5  166 531.5  C 163.48 531.5  161.5 529.52  161.5 527  C 161.5 527  161.5 521  161.5 521  C 161.5 518.48  163.48 516.5  166 516.5  C 166 516.5  294.293556980438 516.5  294.293556980438 516.5  Z " stroke-width="1" stroke="#797979" fill="none" />
  </g>
</svg>