<?xml version="1.0" encoding="utf-8"?>
<svg version="1.1" xmlns:xlink="http://www.w3.org/1999/xlink" width="17px" height="140px" xmlns="http://www.w3.org/2000/svg">
  <defs>
    <mask fill="white" id="clip158">
      <path d="M 0.354166666666667 136.206896551724  L 0.354166666666667 6.68965517241367  L 0.446916254125436 5.10344827586213  L 8.5 0.344827586206897  L 16.5530837458746 5.10344827586213  L 16.6458333333333 6.68965517241367  L 16.6458333333333 136.206896551724  C 16.6458333333333 138.137931034483  15.0875 139.655172413793  13.1041666666667 139.655172413793  L 3.89583333333333 139.655172413793  C 1.91250000000003 139.655172413793  0.354166666666667 138.137931034483  0.354166666666667 136.206896551724  Z " fill-rule="evenodd" />
    </mask>
  </defs>
  <g transform="matrix(1 0 0 1 -222 -454 )">
    <path d="M 0.354166666666667 136.206896551724  L 0.354166666666667 6.68965517241367  L 0.446916254125436 5.10344827586213  L 8.5 0.344827586206897  L 16.5530837458746 5.10344827586213  L 16.6458333333333 6.68965517241367  L 16.6458333333333 136.206896551724  C 16.6458333333333 138.137931034483  15.0875 139.655172413793  13.1041666666667 139.655172413793  L 3.89583333333333 139.655172413793  C 1.91250000000003 139.655172413793  0.354166666666667 138.137931034483  0.354166666666667 136.206896551724  Z " fill-rule="nonzero" fill="#ffffff" stroke="none" transform="matrix(1 0 0 1 222 454 )" />
    <path d="M 0.354166666666667 136.206896551724  L 0.354166666666667 6.68965517241367  L 0.446916254125436 5.10344827586213  L 8.5 0.344827586206897  L 16.5530837458746 5.10344827586213  L 16.6458333333333 6.68965517241367  L 16.6458333333333 136.206896551724  C 16.6458333333333 138.137931034483  15.0875 139.655172413793  13.1041666666667 139.655172413793  L 3.89583333333333 139.655172413793  C 1.91250000000003 139.655172413793  0.354166666666667 138.137931034483  0.354166666666667 136.206896551724  Z " stroke-width="2" stroke="#797979" fill="none" transform="matrix(1 0 0 1 222 454 )" mask="url(#clip158)" />
  </g>
</svg>