<?xml version="1.0" encoding="utf-8"?>
<svg version="1.1" xmlns:xlink="http://www.w3.org/1999/xlink" width="17px" height="37px" xmlns="http://www.w3.org/2000/svg">
  <defs>
    <mask fill="white" id="clip180">
      <path d="M 0 33.5094339622642  L 0 6.42264150943384  L 0.368867924528331 4.81698113207554  L 8.5 0  L 16.6311320754717 4.81698113207554  L 17 6.42264150943384  L 17 33.5094339622642  C 17 35.4641509433964  15.3739130434782 37  13.304347826087 37  L 3.69565217391304 37  C 1.62608695652177 37  0 35.4641509433964  0 33.5094339622642  Z " fill-rule="evenodd" />
    </mask>
  </defs>
  <g transform="matrix(1 0 0 1 -222 -455 )">
    <path d="M 0 33.5094339622642  L 0 6.42264150943384  L 0.368867924528331 4.81698113207554  L 8.5 0  L 16.6311320754717 4.81698113207554  L 17 6.42264150943384  L 17 33.5094339622642  C 17 35.4641509433964  15.3739130434782 37  13.304347826087 37  L 3.69565217391304 37  C 1.62608695652177 37  0 35.4641509433964  0 33.5094339622642  Z " fill-rule="nonzero" fill="#d9001b" stroke="none" transform="matrix(1 0 0 1 222 455 )" />
    <path d="M 0 33.5094339622642  L 0 6.42264150943384  L 0.368867924528331 4.81698113207554  L 8.5 0  L 16.6311320754717 4.81698113207554  L 17 6.42264150943384  L 17 33.5094339622642  C 17 35.4641509433964  15.3739130434782 37  13.304347826087 37  L 3.69565217391304 37  C 1.62608695652177 37  0 35.4641509433964  0 33.5094339622642  Z " stroke-width="2" stroke="#797979" fill="none" transform="matrix(1 0 0 1 222 455 )" mask="url(#clip180)" />
  </g>
</svg>