<?xml version="1.0" encoding="utf-8"?>
<svg version="1.1" xmlns:xlink="http://www.w3.org/1999/xlink" width="103px" height="12px" xmlns="http://www.w3.org/2000/svg">
  <g transform="matrix(1 0 0 1 -90 -535 )">
    <path d="M 188.882559812834 535.5  C 188.882559812834 535.5  189.150403274235 535.515602531732  189.150403274235 535.515602531732  C 189.150403274235 535.515602531732  192.479831206838 541  192.479831206838 541  C 192.479831206838 541  189.150403274235 546.484397468268  189.150403274235 546.484397468268  C 189.150403274235 546.484397468268  188.882559812834 546.5  188.882559812834 546.5  C 188.882559812834 546.5  95 546.5  95 546.5  C 92.48 546.5  90.5 544.52  90.5 542  C 90.5 542  90.5 540  90.5 540  C 90.5 537.48  92.48 535.5  95 535.5  C 95 535.5  188.882559812834 535.5  188.882559812834 535.5  Z " fill-rule="nonzero" fill="#ffffff" stroke="none" />
    <path d="M 188.882559812834 535.5  C 188.882559812834 535.5  189.150403274235 535.515602531732  189.150403274235 535.515602531732  C 189.150403274235 535.515602531732  192.479831206838 541  192.479831206838 541  C 192.479831206838 541  189.150403274235 546.484397468268  189.150403274235 546.484397468268  C 189.150403274235 546.484397468268  188.882559812834 546.5  188.882559812834 546.5  C 188.882559812834 546.5  95 546.5  95 546.5  C 92.48 546.5  90.5 544.52  90.5 542  C 90.5 542  90.5 540  90.5 540  C 90.5 537.48  92.48 535.5  95 535.5  C 95 535.5  188.882559812834 535.5  188.882559812834 535.5  Z " stroke-width="1" stroke="#797979" fill="none" />
  </g>
</svg>