<?xml version="1.0" encoding="utf-8"?>
<svg version="1.1" xmlns:xlink="http://www.w3.org/1999/xlink" width="12px" height="104px" xmlns="http://www.w3.org/2000/svg">
  <defs>
    <mask fill="white" id="clip181">
      <path d="M 0.25 101.182266009852  L 0.25 4.96945812807872  L 0.315470297029719 3.79113300492615  L 6 0.25615763546798  L 11.6845297029703 3.79113300492615  L 11.75 4.96945812807872  L 11.75 101.182266009852  C 11.75 102.616748768473  10.65 103.743842364532  9.25 103.743842364532  L 2.75 103.743842364532  C 1.35000000000002 103.743842364532  0.25 102.616748768473  0.25 101.182266009852  Z " fill-rule="evenodd" />
    </mask>
  </defs>
  <g transform="matrix(1 0 0 1 -135 -489 )">
    <path d="M 0.25 101.182266009852  L 0.25 4.96945812807872  L 0.315470297029719 3.79113300492615  L 6 0.25615763546798  L 11.6845297029703 3.79113300492615  L 11.75 4.96945812807872  L 11.75 101.182266009852  C 11.75 102.616748768473  10.65 103.743842364532  9.25 103.743842364532  L 2.75 103.743842364532  C 1.35000000000002 103.743842364532  0.25 102.616748768473  0.25 101.182266009852  Z " fill-rule="nonzero" fill="#ffffff" stroke="none" transform="matrix(1 0 0 1 135 489 )" />
    <path d="M 0.25 101.182266009852  L 0.25 4.96945812807872  L 0.315470297029719 3.79113300492615  L 6 0.25615763546798  L 11.6845297029703 3.79113300492615  L 11.75 4.96945812807872  L 11.75 101.182266009852  C 11.75 102.616748768473  10.65 103.743842364532  9.25 103.743842364532  L 2.75 103.743842364532  C 1.35000000000002 103.743842364532  0.25 102.616748768473  0.25 101.182266009852  Z " stroke-width="2" stroke="#797979" fill="none" transform="matrix(1 0 0 1 135 489 )" mask="url(#clip181)" />
  </g>
</svg>