<?xml version="1.0" encoding="utf-8"?>
<svg version="1.1" xmlns:xlink="http://www.w3.org/1999/xlink" width="12px" height="27px" xmlns="http://www.w3.org/2000/svg">
  <defs>
    <mask fill="white" id="clip161">
      <path d="M 0 24.4528301886792  L 0 4.6867924528301  L 0.260377358490587 3.51509433962269  L 6 0  L 11.7396226415094 3.51509433962269  L 12 4.6867924528301  L 12 24.4528301886792  C 12 25.879245283019  10.8521739130435 27  9.39130434782609 27  L 2.60869565217391 27  C 1.14782608695655 27  0 25.879245283019  0 24.4528301886792  Z " fill-rule="evenodd" />
    </mask>
  </defs>
  <g transform="matrix(1 0 0 1 -135 -490 )">
    <path d="M 0 24.4528301886792  L 0 4.6867924528301  L 0.260377358490587 3.51509433962269  L 6 0  L 11.7396226415094 3.51509433962269  L 12 4.6867924528301  L 12 24.4528301886792  C 12 25.879245283019  10.8521739130435 27  9.39130434782609 27  L 2.60869565217391 27  C 1.14782608695655 27  0 25.879245283019  0 24.4528301886792  Z " fill-rule="nonzero" fill="#d9001b" stroke="none" transform="matrix(1 0 0 1 135 490 )" />
    <path d="M 0 24.4528301886792  L 0 4.6867924528301  L 0.260377358490587 3.51509433962269  L 6 0  L 11.7396226415094 3.51509433962269  L 12 4.6867924528301  L 12 24.4528301886792  C 12 25.879245283019  10.8521739130435 27  9.39130434782609 27  L 2.60869565217391 27  C 1.14782608695655 27  0 25.879245283019  0 24.4528301886792  Z " stroke-width="2" stroke="#797979" fill="none" transform="matrix(1 0 0 1 135 490 )" mask="url(#clip161)" />
  </g>
</svg>