<?xml version="1.0" encoding="utf-8"?>
<svg version="1.1" xmlns:xlink="http://www.w3.org/1999/xlink" width="77px" height="9px" xmlns="http://www.w3.org/2000/svg">
  <g transform="matrix(1 0 0 1 -14 -550 )">
    <path d="M 88.0796272348063 550.5  C 88.0796272348063 550.5  88.050345959981 550.498288756666  88.050345959981 550.498288756666  C 88.050345959981 550.498288756666  90.4797685544886 554.5  90.4797685544886 554.5  C 90.4797685544886 554.5  88.050345959981 558.501711243334  88.050345959981 558.501711243334  C 88.050345959981 558.501711243334  88.0796272348063 558.5  88.0796272348063 558.5  C 88.0796272348063 558.5  18.5 558.5  18.5 558.5  C 16.26 558.5  14.5 556.74  14.5 554.5  C 14.5 552.26  16.26 550.5  18.5 550.5  C 18.5 550.5  88.0796272348063 550.5  88.0796272348063 550.5  Z " fill-rule="nonzero" fill="#ffffff" stroke="none" />
    <path d="M 88.0796272348063 550.5  C 88.0796272348063 550.5  88.050345959981 550.498288756666  88.050345959981 550.498288756666  C 88.050345959981 550.498288756666  90.4797685544886 554.5  90.4797685544886 554.5  C 90.4797685544886 554.5  88.050345959981 558.501711243334  88.050345959981 558.501711243334  C 88.050345959981 558.501711243334  88.0796272348063 558.5  88.0796272348063 558.5  C 88.0796272348063 558.5  18.5 558.5  18.5 558.5  C 16.26 558.5  14.5 556.74  14.5 554.5  C 14.5 552.26  16.26 550.5  18.5 550.5  C 18.5 550.5  88.0796272348063 550.5  88.0796272348063 550.5  Z " stroke-width="1" stroke="#797979" fill="none" />
  </g>
</svg>