<?xml version="1.0" encoding="utf-8"?>
<svg version="1.1" xmlns:xlink="http://www.w3.org/1999/xlink" width="9px" height="78px" xmlns="http://www.w3.org/2000/svg">
  <defs>
    <mask fill="white" id="clip162">
      <path d="M 0.1875 75.8866995073892  L 0.1875 3.72709359605904  L 0.23660272277229 2.84334975369462  L 4.5 0.192118226600985  L 8.76339727722771 2.84334975369462  L 8.8125 3.72709359605904  L 8.8125 75.8866995073892  C 8.8125 76.9625615763547  7.98749999999998 77.807881773399  6.9375 77.807881773399  L 2.0625 77.807881773399  C 1.01250000000002 77.807881773399  0.1875 76.9625615763547  0.1875 75.8866995073892  Z " fill-rule="evenodd" />
    </mask>
  </defs>
  <g transform="matrix(1 0 0 1 -47 -517 )">
    <path d="M 0.1875 75.8866995073892  L 0.1875 3.72709359605904  L 0.23660272277229 2.84334975369462  L 4.5 0.192118226600985  L 8.76339727722771 2.84334975369462  L 8.8125 3.72709359605904  L 8.8125 75.8866995073892  C 8.8125 76.9625615763547  7.98749999999998 77.807881773399  6.9375 77.807881773399  L 2.0625 77.807881773399  C 1.01250000000002 77.807881773399  0.1875 76.9625615763547  0.1875 75.8866995073892  Z " fill-rule="nonzero" fill="#ffffff" stroke="none" transform="matrix(1 0 0 1 47 517 )" />
    <path d="M 0.1875 75.8866995073892  L 0.1875 3.72709359605904  L 0.23660272277229 2.84334975369462  L 4.5 0.192118226600985  L 8.76339727722771 2.84334975369462  L 8.8125 3.72709359605904  L 8.8125 75.8866995073892  C 8.8125 76.9625615763547  7.98749999999998 77.807881773399  6.9375 77.807881773399  L 2.0625 77.807881773399  C 1.01250000000002 77.807881773399  0.1875 76.9625615763547  0.1875 75.8866995073892  Z " stroke-width="2" stroke="#797979" fill="none" transform="matrix(1 0 0 1 47 517 )" mask="url(#clip162)" />
  </g>
</svg>