<?xml version="1.0" encoding="utf-8"?>
<svg version="1.1" xmlns:xlink="http://www.w3.org/1999/xlink" width="9px" height="21px" xmlns="http://www.w3.org/2000/svg">
  <defs>
    <mask fill="white" id="clip163">
      <path d="M 0 19.0188679245283  L 0 3.64528301886785  L 0.19528301886794 2.73396226415098  L 4.5 0  L 8.80471698113206 2.73396226415098  L 9 3.64528301886785  L 9 19.0188679245283  C 9 20.1283018867925  8.13913043478259 21  7.04347826086957 21  L 1.95652173913043 21  C 0.860869565217409 21  0 20.1283018867925  0 19.0188679245283  Z " fill-rule="evenodd" />
    </mask>
  </defs>
  <g transform="matrix(1 0 0 1 -47 -517 )">
    <path d="M 0 19.0188679245283  L 0 3.64528301886785  L 0.19528301886794 2.73396226415098  L 4.5 0  L 8.80471698113206 2.73396226415098  L 9 3.64528301886785  L 9 19.0188679245283  C 9 20.1283018867925  8.13913043478259 21  7.04347826086957 21  L 1.95652173913043 21  C 0.860869565217409 21  0 20.1283018867925  0 19.0188679245283  Z " fill-rule="nonzero" fill="#d9001b" stroke="none" transform="matrix(1 0 0 1 47 517 )" />
    <path d="M 0 19.0188679245283  L 0 3.64528301886785  L 0.19528301886794 2.73396226415098  L 4.5 0  L 8.80471698113206 2.73396226415098  L 9 3.64528301886785  L 9 19.0188679245283  C 9 20.1283018867925  8.13913043478259 21  7.04347826086957 21  L 1.95652173913043 21  C 0.860869565217409 21  0 20.1283018867925  0 19.0188679245283  Z " stroke-width="2" stroke="#797979" fill="none" transform="matrix(1 0 0 1 47 517 )" mask="url(#clip163)" />
  </g>
</svg>