<?xml version="1.0" encoding="utf-8"?>
<svg version="1.1" xmlns:xlink="http://www.w3.org/1999/xlink" width="150px" height="150px" xmlns="http://www.w3.org/2000/svg">
  <g transform="matrix(1 0 0 1 -24 -147 )">
    <path d="M 99 149  C 139.88 149  172 181.12  172 222  C 172 262.88  139.88 295  99 295  C 58.12 295  26 262.88  26 222  C 26 181.12  58.12 149  99 149  Z " fill-rule="nonzero" fill="#ffffff" stroke="none" />
    <path d="M 99 148.5  C 140.16 148.5  172.5 180.84  172.5 222  C 172.5 263.16  140.16 295.5  99 295.5  C 57.84 295.5  25.5 263.16  25.5 222  C 25.5 180.84  57.84 148.5  99 148.5  Z " stroke-width="3" stroke="#797979" fill="none" />
  </g>
</svg>