<?xml version="1.0" encoding="utf-8"?>
<svg version="1.1" xmlns:xlink="http://www.w3.org/1999/xlink" width="88px" height="48px" xmlns="http://www.w3.org/2000/svg">
  <defs>
    <mask fill="white" id="clip185">
      <path d="M 88 31.2  C 88 19.2  61.6 12  44 0  C 26.4 12  0 19.2  0 31.2  C 0 37.44  8.8 48  44 48  C 79.2 48  88 37.44  88 31.2  Z " fill-rule="evenodd" />
    </mask>
  </defs>
  <g transform="matrix(1 0 0 1 -55 -232 )">
    <path d="M 88 31.2  C 88 19.2  61.6 12  44 0  C 26.4 12  0 19.2  0 31.2  C 0 37.44  8.8 48  44 48  C 79.2 48  88 37.44  88 31.2  Z " fill-rule="nonzero" fill="#ffffff" stroke="none" transform="matrix(1 0 0 1 55 232 )" />
    <path d="M 88 31.2  C 88 19.2  61.6 12  44 0  C 26.4 12  0 19.2  0 31.2  C 0 37.44  8.8 48  44 48  C 79.2 48  88 37.44  88 31.2  Z " stroke-width="2" stroke="#797979" fill="none" transform="matrix(1 0 0 1 55 232 )" mask="url(#clip185)" />
  </g>
</svg>