<?xml version="1.0" encoding="utf-8"?>
<svg version="1.1" xmlns:xlink="http://www.w3.org/1999/xlink" width="88px" height="88px" xmlns="http://www.w3.org/2000/svg">
  <g transform="matrix(1 0 0 1 -55 -165 )">
    <path d="M 99 165  C 123.64 165  143 184.36  143 209  C 143 233.64  123.64 253  99 253  C 74.36 253  55 233.64  55 209  C 55 184.36  74.36 165  99 165  Z " fill-rule="nonzero" fill="#ffffff" stroke="none" />
    <path d="M 99 165.5  C 123.36 165.5  142.5 184.64  142.5 209  C 142.5 233.36  123.36 252.5  99 252.5  C 74.64 252.5  55.5 233.36  55.5 209  C 55.5 184.64  74.64 165.5  99 165.5  Z " stroke-width="1" stroke="#797979" fill="none" />
  </g>
</svg>