<?xml version="1.0" encoding="utf-8"?>
<svg version="1.1" xmlns:xlink="http://www.w3.org/1999/xlink" width="150px" height="150px" xmlns="http://www.w3.org/2000/svg">
  <g transform="matrix(1 0 0 1 -195 -145 )">
    <path d="M 270 145  C 312 145  345 178  345 220  C 345 262  312 295  270 295  C 228 295  195 262  195 220  C 195 178  228 145  270 145  Z " fill-rule="nonzero" fill="#ffffff" stroke="none" />
    <path d="M 270 145.5  C 311.72 145.5  344.5 178.28  344.5 220  C 344.5 261.72  311.72 294.5  270 294.5  C 228.28 294.5  195.5 261.72  195.5 220  C 195.5 178.28  228.28 145.5  270 145.5  Z " stroke-width="1" stroke="#797979" fill="none" />
  </g>
</svg>