<?xml version="1.0" encoding="utf-8"?>
<svg version="1.1" xmlns:xlink="http://www.w3.org/1999/xlink" width="26px" height="26px" xmlns="http://www.w3.org/2000/svg">
  <g transform="matrix(1 0 0 1 -87 -280 )">
    <path d="M 100 282  C 106.16 282  111 286.84  111 293  C 111 299.16  106.16 304  100 304  C 93.84 304  89 299.16  89 293  C 89 286.84  93.84 282  100 282  Z " fill-rule="nonzero" fill="#ffffff" stroke="none" />
    <path d="M 100 281.5  C 106.44 281.5  111.5 286.56  111.5 293  C 111.5 299.44  106.44 304.5  100 304.5  C 93.56 304.5  88.5 299.44  88.5 293  C 88.5 286.56  93.56 281.5  100 281.5  Z " stroke-width="3" stroke="#70b603" fill="none" />
  </g>
</svg>