<?xml version="1.0" encoding="utf-8"?>
<svg version="1.1" xmlns:xlink="http://www.w3.org/1999/xlink" width="108px" height="24px" xmlns="http://www.w3.org/2000/svg">
  <g transform="matrix(1 0 0 1 -1065 -1153 )">
    <path d="M 1164.15441252825 1154.5  C 1164.15441252825 1154.5  1165.00414357397 1154.59441456063  1165.00414357397 1154.59441456063  C 1165.00414357397 1154.59441456063  1171.38938918449 1165  1171.38938918449 1165  C 1171.38938918449 1165  1165.00414357397 1175.40558543937  1165.00414357397 1175.40558543937  C 1165.00414357397 1175.40558543937  1164.15441252825 1175.5  1164.15441252825 1175.5  C 1164.15441252825 1175.5  1070 1175.5  1070 1175.5  C 1068.04 1175.5  1066.5 1173.96  1066.5 1172  C 1066.5 1172  1066.5 1158  1066.5 1158  C 1066.5 1156.04  1068.04 1154.5  1070 1154.5  C 1070 1154.5  1164.15441252825 1154.5  1164.15441252825 1154.5  Z " fill-rule="nonzero" fill="#ffffff" stroke="none" />
    <path d="M 1163.9029416855 1154  C 1163.9029416855 1154  1165.26942904931 1154.15183192931  1165.26942904931 1154.15183192931  C 1165.26942904931 1154.15183192931  1171.92625945632 1165  1171.92625945632 1165  C 1171.92625945632 1165  1165.26942904931 1175.84816807069  1165.26942904931 1175.84816807069  C 1165.26942904931 1175.84816807069  1163.9029416855 1176  1163.9029416855 1176  C 1163.9029416855 1176  1070 1176  1070 1176  C 1067.76 1176  1066 1174.24  1066 1172  C 1066 1172  1066 1158  1066 1158  C 1066 1155.76  1067.76 1154  1070 1154  C 1070 1154  1163.9029416855 1154  1163.9029416855 1154  Z " stroke-width="2" stroke="#797979" fill="none" />
  </g>
</svg>