<?xml version="1.0" encoding="utf-8"?>
<svg version="1.1" xmlns:xlink="http://www.w3.org/1999/xlink" width="105px" height="61px" xmlns="http://www.w3.org/2000/svg">
  <defs>
    <radialGradient cx="786.5" cy="784.5" r="46.55" gradientTransform="matrix(-1 0 0 -0.536842105263159 1573 1205.65263157895 )" gradientUnits="userSpaceOnUse" id="RadialGradient28">
      <stop id="Stop29" stop-color="#ffffff" offset="0" />
      <stop id="Stop30" stop-color="#aaaaaa" offset="0.22" />
      <stop id="Stop31" stop-color="#333333" offset="1" />
    </radialGradient>
    <filter x="739px" y="759px" width="105px" height="61px" filterUnits="userSpaceOnUse" id="filter32">
      <feOffset dx="5" dy="5" in="SourceAlpha" result="shadowOffsetInner" />
      <feGaussianBlur stdDeviation="2.5" in="shadowOffsetInner" result="shadowGaussian" />
      <feComposite in2="shadowGaussian" operator="atop" in="SourceAlpha" result="shadowComposite" />
      <feColorMatrix type="matrix" values="0 0 0 0 0  0 0 0 0 0  0 0 0 0 0  0 0 0 0.349019607843137 0  " in="shadowComposite" />
    </filter>
    <g id="widget33">
      <path d="M 786.5 759  C 813.1 759  834 770.22  834 784.5  C 834 798.78  813.1 810  786.5 810  C 759.9 810  739 798.78  739 784.5  C 739 770.22  759.9 759  786.5 759  Z " fill-rule="nonzero" fill="url(#RadialGradient28)" stroke="none" />
      <path d="M 786.5 759.5  C 812.82 759.5  833.5 770.5  833.5 784.5  C 833.5 798.5  812.82 809.5  786.5 809.5  C 760.18 809.5  739.5 798.5  739.5 784.5  C 739.5 770.5  760.18 759.5  786.5 759.5  Z " stroke-width="1" stroke="#797979" fill="none" />
    </g>
  </defs>
  <g transform="matrix(1 0 0 1 -739 -759 )">
    <use xlink:href="#widget33" filter="url(#filter32)" />
    <use xlink:href="#widget33" />
  </g>
</svg>