<?xml version="1.0" encoding="utf-8"?>
<svg version="1.1" xmlns:xlink="http://www.w3.org/1999/xlink" width="294px" height="85px" xmlns="http://www.w3.org/2000/svg">
  <g transform="matrix(1 0 0 1 -344 -779 )">
    <path d="M 604.141550918086 779.5  C 604.141550918086 779.5  607.755777333071 780.022464702846  607.755777333071 780.022464702846  C 607.755777333071 780.022464702846  637.437875614685 821.5  637.437875614685 821.5  C 637.437875614685 821.5  607.755777333071 862.977535297154  607.755777333071 862.977535297154  C 607.755777333071 862.977535297154  604.141550918086 863.5  604.141550918086 863.5  C 604.141550918086 863.5  344.5 863.5  344.5 863.5  C 344.5 863.5  344.5 779.5  344.5 779.5  C 344.5 779.5  604.141550918086 779.5  604.141550918086 779.5  Z " fill-rule="nonzero" fill="#ffffff" stroke="none" />
    <path d="M 604.141550918086 779.5  C 604.141550918086 779.5  607.755777333071 780.022464702846  607.755777333071 780.022464702846  C 607.755777333071 780.022464702846  637.437875614685 821.5  637.437875614685 821.5  C 637.437875614685 821.5  607.755777333071 862.977535297154  607.755777333071 862.977535297154  C 607.755777333071 862.977535297154  604.141550918086 863.5  604.141550918086 863.5  C 604.141550918086 863.5  344.5 863.5  344.5 863.5  C 344.5 863.5  344.5 779.5  344.5 779.5  C 344.5 779.5  604.141550918086 779.5  604.141550918086 779.5  Z " stroke-width="1" stroke="#797979" fill="none" />
  </g>
</svg>