<?xml version="1.0" encoding="utf-8"?>
<svg version="1.1" xmlns:xlink="http://www.w3.org/1999/xlink" width="73px" height="73px" xmlns="http://www.w3.org/2000/svg">
  <defs>
    <radialGradient cx="778.076923076923" cy="698.638461538462" r="27.1012500000001" gradientTransform="matrix(-1 0 0 -0.999999999999996 1556.15384615385 1397.27692307692 )" gradientUnits="userSpaceOnUse" id="RadialGradient37">
      <stop id="Stop38" stop-color="#ffffff" offset="0" />
      <stop id="Stop39" stop-color="#f2f2f2" offset="0.64" />
      <stop id="Stop40" stop-color="#d7d7d7" offset="1" />
    </radialGradient>
  </defs>
  <g transform="matrix(1 0 0 1 -750 -670 )">
    <path d="M 786.5 670  C 806.94 670  823 686.06  823 706.5  C 823 726.94  806.94 743  786.5 743  C 766.06 743  750 726.94  750 706.5  C 750 686.06  766.06 670  786.5 670  Z " fill-rule="nonzero" fill="url(#RadialGradient37)" stroke="none" />
    <path d="M 786.5 670.5  C 806.66 670.5  822.5 686.34  822.5 706.5  C 822.5 726.66  806.66 742.5  786.5 742.5  C 766.34 742.5  750.5 726.66  750.5 706.5  C 750.5 686.34  766.34 670.5  786.5 670.5  Z " stroke-width="1" stroke="#797979" fill="none" />
  </g>
</svg>