<?xml version="1.0" encoding="utf-8"?>
<svg version="1.1" xmlns:xlink="http://www.w3.org/1999/xlink" width="30px" height="85px" xmlns="http://www.w3.org/2000/svg">
  <g transform="matrix(1 0 0 1 -608 -779 )">
    <path d="M 611.77639320225 785.113880262167  C 611.77639320225 785.113880262167  637.460713017191 821.5  637.460713017191 821.5  C 637.460713017191 821.5  611.77639320225 857.886119737833  611.77639320225 857.886119737833  C 611.77639320225 857.886119737833  608.5 862.527676774354  608.5 862.527676774354  C 608.5 862.527676774354  608.5 780.472323225646  608.5 780.472323225646  C 608.5 780.472323225646  611.77639320225 785.113880262167  611.77639320225 785.113880262167  Z " fill-rule="nonzero" fill="#f2f2f2" stroke="none" />
    <path d="M 611.77639320225 785.113880262167  C 611.77639320225 785.113880262167  637.460713017191 821.5  637.460713017191 821.5  C 637.460713017191 821.5  611.77639320225 857.886119737833  611.77639320225 857.886119737833  C 611.77639320225 857.886119737833  608.5 862.527676774354  608.5 862.527676774354  C 608.5 862.527676774354  608.5 780.472323225646  608.5 780.472323225646  C 608.5 780.472323225646  611.77639320225 785.113880262167  611.77639320225 785.113880262167  Z " stroke-width="1" stroke="#797979" fill="none" />
  </g>
</svg>