<?xml version="1.0" encoding="utf-8"?>
<svg version="1.1" xmlns:xlink="http://www.w3.org/1999/xlink" width="78px" height="56px" xmlns="http://www.w3.org/2000/svg">
  <defs>
    <filter x="988px" y="756px" width="78px" height="56px" filterUnits="userSpaceOnUse" id="filter45">
      <feOffset dx="1" dy="1" in="SourceAlpha" result="shadowOffsetInner" />
      <feGaussianBlur stdDeviation="2.5" in="shadowOffsetInner" result="shadowGaussian" />
      <feComposite in2="shadowGaussian" operator="atop" in="SourceAlpha" result="shadowComposite" />
      <feColorMatrix type="matrix" values="0 0 0 0 0  0 0 0 0 0  0 0 0 0 0  0 0 0 0.698039215686274 0  " in="shadowComposite" />
    </filter>
    <g id="widget46">
      <path d="M 1026 760  C 1045.04 760  1060 770.12  1060 783  C 1060 795.88  1045.04 806  1026 806  C 1006.96 806  992 795.88  992 783  C 992 770.12  1006.96 760  1026 760  Z " fill-rule="nonzero" fill="#01c368" stroke="none" />
      <path d="M 1026 760.5  C 1044.76 760.5  1059.5 770.4  1059.5 783  C 1059.5 795.6  1044.76 805.5  1026 805.5  C 1007.24 805.5  992.5 795.6  992.5 783  C 992.5 770.4  1007.24 760.5  1026 760.5  Z " stroke-width="1" stroke="#ffffff" fill="none" />
    </g>
  </defs>
  <g transform="matrix(1 0 0 1 -988 -756 )">
    <use xlink:href="#widget46" filter="url(#filter45)" />
    <use xlink:href="#widget46" />
  </g>
</svg>