<?xml version="1.0" encoding="utf-8"?>
<svg version="1.1" xmlns:xlink="http://www.w3.org/1999/xlink" width="78px" height="56px" xmlns="http://www.w3.org/2000/svg">
  <defs>
    <filter x="1079px" y="756px" width="78px" height="56px" filterUnits="userSpaceOnUse" id="filter118">
      <feOffset dx="1" dy="1" in="SourceAlpha" result="shadowOffsetInner" />
      <feGaussianBlur stdDeviation="2.5" in="shadowOffsetInner" result="shadowGaussian" />
      <feComposite in2="shadowGaussian" operator="atop" in="SourceAlpha" result="shadowComposite" />
      <feColorMatrix type="matrix" values="0 0 0 0 0  0 0 0 0 0  0 0 0 0 0  0 0 0 0.698039215686274 0  " in="shadowComposite" />
    </filter>
    <g id="widget119">
      <path d="M 1117 760  C 1136.04 760  1151 770.12  1151 783  C 1151 795.88  1136.04 806  1117 806  C 1097.96 806  1083 795.88  1083 783  C 1083 770.12  1097.96 760  1117 760  Z " fill-rule="nonzero" fill="#3050c0" stroke="none" />
      <path d="M 1117 760.5  C 1135.76 760.5  1150.5 770.4  1150.5 783  C 1150.5 795.6  1135.76 805.5  1117 805.5  C 1098.24 805.5  1083.5 795.6  1083.5 783  C 1083.5 770.4  1098.24 760.5  1117 760.5  Z " stroke-width="1" stroke="#ffffff" fill="none" />
    </g>
  </defs>
  <g transform="matrix(1 0 0 1 -1079 -756 )">
    <use xlink:href="#widget119" filter="url(#filter118)" />
    <use xlink:href="#widget119" />
  </g>
</svg>