<?xml version="1.0" encoding="utf-8"?>
<svg version="1.1" xmlns:xlink="http://www.w3.org/1999/xlink" width="55px" height="55px" xmlns="http://www.w3.org/2000/svg">
  <g transform="matrix(1 0 0 1 -950 -978 )">
    <path d="M 964.435327173881 981.871322880895  C 968.432299349307 979.661313078163  972.92728694247 978.5  977.5 978.5  C 992.411688245431 978.5  1004.5 990.588311754569  1004.5 1005.5  C 1004.5 1020.41168824543  992.411688245431 1032.5  977.5 1032.5  C 962.588311754569 1032.5  950.5 1020.41168824543  950.5 1005.5  C 950.5 1000.92728694247  951.661313078163 996.432299349307  953.871322880895 992.435327173881  L 977.25 1005.93301270189  A 0.5 0.5 0 0 0 977.933012701892 1005.25 L 964.43532717388 981.871322880896  Z " fill-rule="nonzero" fill="#ffffff" stroke="none" />
    <path d="M 964.435327173881 981.871322880895  C 968.432299349307 979.661313078163  972.92728694247 978.5  977.5 978.5  C 992.411688245431 978.5  1004.5 990.588311754569  1004.5 1005.5  C 1004.5 1020.41168824543  992.411688245431 1032.5  977.5 1032.5  C 962.588311754569 1032.5  950.5 1020.41168824543  950.5 1005.5  C 950.5 1000.92728694247  951.661313078163 996.432299349307  953.871322880895 992.435327173881  L 977.25 1005.93301270189  A 0.5 0.5 0 0 0 977.933012701892 1005.25 L 964.43532717388 981.871322880896  Z " stroke-width="1" stroke="#797979" fill="none" />
  </g>
</svg>