<?xml version="1.0" encoding="utf-8"?>
<svg version="1.1" xmlns:xlink="http://www.w3.org/1999/xlink" width="294px" height="85px" xmlns="http://www.w3.org/2000/svg">
  <g transform="matrix(1 0 0 1 -571 -262 )">
    <path d="M 831.141550918086 262.5  C 831.141550918086 262.5  834.755777333071 263.022464702846  834.755777333071 263.022464702846  C 834.755777333071 263.022464702846  864.437875614685 304.5  864.437875614685 304.5  C 864.437875614685 304.5  834.755777333071 345.977535297154  834.755777333071 345.977535297154  C 834.755777333071 345.977535297154  831.141550918086 346.5  831.141550918086 346.5  C 831.141550918086 346.5  571.5 346.5  571.5 346.5  C 571.5 346.5  571.5 262.5  571.5 262.5  C 571.5 262.5  831.141550918086 262.5  831.141550918086 262.5  Z " fill-rule="nonzero" fill="#ffffff" stroke="none" />
    <path d="M 831.141550918086 262.5  C 831.141550918086 262.5  834.755777333071 263.022464702846  834.755777333071 263.022464702846  C 834.755777333071 263.022464702846  864.437875614685 304.5  864.437875614685 304.5  C 864.437875614685 304.5  834.755777333071 345.977535297154  834.755777333071 345.977535297154  C 834.755777333071 345.977535297154  831.141550918086 346.5  831.141550918086 346.5  C 831.141550918086 346.5  571.5 346.5  571.5 346.5  C 571.5 346.5  571.5 262.5  571.5 262.5  C 571.5 262.5  831.141550918086 262.5  831.141550918086 262.5  Z " stroke-width="1" stroke="#797979" fill="none" />
  </g>
</svg>