<?xml version="1.0" encoding="utf-8"?>
<svg version="1.1" xmlns:xlink="http://www.w3.org/1999/xlink" width="197px" height="41px" xmlns="http://www.w3.org/2000/svg">
  <g transform="matrix(1 0 0 1 -600 -201 )">
    <path d="M 780.883657674763 201.5  C 780.883657674763 201.5  784.338408526633 201.859504530271  784.338408526633 201.859504530271  C 784.338408526633 201.859504530271  796.46473288742 221.5  796.46473288742 221.5  C 796.46473288742 221.5  784.338408526633 241.140495469729  784.338408526633 241.140495469729  C 784.338408526633 241.140495469729  780.883657674763 241.5  780.883657674763 241.5  C 780.883657674763 241.5  600.5 241.5  600.5 241.5  C 600.5 241.5  600.5 201.5  600.5 201.5  C 600.5 201.5  780.883657674763 201.5  780.883657674763 201.5  Z " fill-rule="nonzero" fill="#ffffff" stroke="none" />
    <path d="M 780.883657674763 201.5  C 780.883657674763 201.5  784.338408526633 201.859504530271  784.338408526633 201.859504530271  C 784.338408526633 201.859504530271  796.46473288742 221.5  796.46473288742 221.5  C 796.46473288742 221.5  784.338408526633 241.140495469729  784.338408526633 241.140495469729  C 784.338408526633 241.140495469729  780.883657674763 241.5  780.883657674763 241.5  C 780.883657674763 241.5  600.5 241.5  600.5 241.5  C 600.5 241.5  600.5 201.5  600.5 201.5  C 600.5 201.5  780.883657674763 201.5  780.883657674763 201.5  Z " stroke-width="1" stroke="#797979" fill="none" />
  </g>
</svg>