<?xml version="1.0" encoding="utf-8"?>
<svg version="1.1" xmlns:xlink="http://www.w3.org/1999/xlink" width="106px" height="108px" xmlns="http://www.w3.org/2000/svg">
  <defs>
    <mask fill="white" id="clip19">
      <path d="M 106 70.2  C 106 43.2  74.2 27  53 0  C 31.8 27  0 43.2  0 70.2  C 0 84.24  10.6 108  53 108  C 95.4 108  106 84.24  106 70.2  Z " fill-rule="evenodd" />
    </mask>
  </defs>
  <g transform="matrix(1 0 0 1 -55 -901 )">
    <path d="M 106 70.2  C 106 43.2  74.2 27  53 0  C 31.8 27  0 43.2  0 70.2  C 0 84.24  10.6 108  53 108  C 95.4 108  106 84.24  106 70.2  Z " fill-rule="nonzero" fill="#ffffff" stroke="none" transform="matrix(1 0 0 1 55 901 )" />
    <path d="M 106 70.2  C 106 43.2  74.2 27  53 0  C 31.8 27  0 43.2  0 70.2  C 0 84.24  10.6 108  53 108  C 95.4 108  106 84.24  106 70.2  Z " stroke-width="2" stroke="#797979" fill="none" transform="matrix(1 0 0 1 55 901 )" mask="url(#clip19)" />
  </g>
</svg>