<?xml version="1.0" encoding="utf-8"?>
<svg version="1.1" xmlns:xlink="http://www.w3.org/1999/xlink" width="79px" height="79px" xmlns="http://www.w3.org/2000/svg">
  <g transform="matrix(1 0 0 1 0 -1006 )">
    <path d="M 39.5 1006  C 61.62 1006  79 1023.38  79 1045.5  C 79 1067.62  61.62 1085  39.5 1085  C 17.38 1085  0 1067.62  0 1045.5  C 0 1023.38  17.38 1006  39.5 1006  Z " fill-rule="nonzero" fill="#ffffff" stroke="none" />
    <path d="M 39.5 1006.5  C 61.34 1006.5  78.5 1023.66  78.5 1045.5  C 78.5 1067.34  61.34 1084.5  39.5 1084.5  C 17.66 1084.5  0.5 1067.34  0.5 1045.5  C 0.5 1023.66  17.66 1006.5  39.5 1006.5  Z " stroke-width="1" stroke="#797979" fill="none" />
  </g>
</svg>