<?xml version="1.0" encoding="utf-8"?>
<svg version="1.1" xmlns:xlink="http://www.w3.org/1999/xlink" width="246px" height="40px" xmlns="http://www.w3.org/2000/svg">
  <g transform="matrix(1 0 0 1 -198 -113 )">
    <path d="M 428.4256659776 113.5  C 428.4256659776 113.5  431.743475725941 113.769740629946  431.743475725941 113.769740629946  C 431.743475725941 113.769740629946  443.47234466404 133  443.47234466404 133  C 443.47234466404 133  431.743475725941 152.230259370054  431.743475725941 152.230259370054  C 431.743475725941 152.230259370054  428.425665977601 152.5  428.425665977601 152.5  C 428.425665977601 152.5  203 152.5  203 152.5  C 200.48 152.5  198.5 150.52  198.5 148  C 198.5 148  198.5 118  198.5 118  C 198.5 115.48  200.48 113.5  203 113.5  C 203 113.5  428.4256659776 113.5  428.4256659776 113.5  Z " fill-rule="nonzero" fill="#ffff80" stroke="none" />
    <path d="M 428.4256659776 113.5  C 428.4256659776 113.5  431.743475725941 113.769740629946  431.743475725941 113.769740629946  C 431.743475725941 113.769740629946  443.47234466404 133  443.47234466404 133  C 443.47234466404 133  431.743475725941 152.230259370054  431.743475725941 152.230259370054  C 431.743475725941 152.230259370054  428.425665977601 152.5  428.425665977601 152.5  C 428.425665977601 152.5  203 152.5  203 152.5  C 200.48 152.5  198.5 150.52  198.5 148  C 198.5 148  198.5 118  198.5 118  C 198.5 115.48  200.48 113.5  203 113.5  C 203 113.5  428.4256659776 113.5  428.4256659776 113.5  Z " stroke-width="1" stroke="#797979" fill="none" />
  </g>
</svg>