<?xml version="1.0" encoding="utf-8"?>
<svg version="1.1" xmlns:xlink="http://www.w3.org/1999/xlink" width="261px" height="40px" xmlns="http://www.w3.org/2000/svg">
  <g transform="matrix(1 0 0 1 -198 -158 )">
    <path d="M 443.465255780976 158.5  C 443.465255780976 158.5  446.744870276703 158.751311455611  446.744870276703 158.751311455611  C 446.744870276703 158.751311455611  458.473837693245 178  458.473837693245 178  C 458.473837693245 178  446.744870276703 197.248688544389  446.744870276703 197.248688544389  C 446.744870276703 197.248688544389  443.465255780976 197.5  443.465255780976 197.5  C 443.465255780976 197.5  203 197.5  203 197.5  C 200.48 197.5  198.5 195.52  198.5 193  C 198.5 193  198.5 163  198.5 163  C 198.5 160.48  200.48 158.5  203 158.5  C 203 158.5  443.465255780976 158.5  443.465255780976 158.5  Z " fill-rule="nonzero" fill="#ffff80" stroke="none" />
    <path d="M 443.465255780976 158.5  C 443.465255780976 158.5  446.744870276703 158.751311455611  446.744870276703 158.751311455611  C 446.744870276703 158.751311455611  458.473837693245 178  458.473837693245 178  C 458.473837693245 178  446.744870276703 197.248688544389  446.744870276703 197.248688544389  C 446.744870276703 197.248688544389  443.465255780976 197.5  443.465255780976 197.5  C 443.465255780976 197.5  203 197.5  203 197.5  C 200.48 197.5  198.5 195.52  198.5 193  C 198.5 193  198.5 163  198.5 163  C 198.5 160.48  200.48 158.5  203 158.5  C 203 158.5  443.465255780976 158.5  443.465255780976 158.5  Z " stroke-width="1" stroke="#797979" fill="none" />
  </g>
</svg>