<?xml version="1.0" encoding="utf-8"?>
<svg version="1.1" xmlns:xlink="http://www.w3.org/1999/xlink" width="210px" height="210px" xmlns="http://www.w3.org/2000/svg">
  <g transform="matrix(1 0 0 1 -50 -3973 )">
    <path d="M 155 3973  C 213.8 3973  260 4019.2  260 4078  C 260 4136.8  213.8 4183  155 4183  C 96.2 4183  50 4136.8  50 4078  C 50 4019.2  96.2 3973  155 3973  Z " fill-rule="nonzero" fill="#ffffff" stroke="none" />
    <path d="M 155 3973.5  C 213.52 3973.5  259.5 4019.48  259.5 4078  C 259.5 4136.52  213.52 4182.5  155 4182.5  C 96.48 4182.5  50.5 4136.52  50.5 4078  C 50.5 4019.48  96.48 3973.5  155 3973.5  Z " stroke-width="1" stroke="#797979" fill="none" />
  </g>
</svg>