<?xml version="1.0" encoding="utf-8"?>
<svg version="1.1" xmlns:xlink="http://www.w3.org/1999/xlink" width="62px" height="27px" xmlns="http://www.w3.org/2000/svg">
  <defs>
    <pattern id="BGPattern" patternUnits="userSpaceOnUse" alignment="0 0" imageRepeat="None" />
    <mask fill="white" id="Clip21">
      <path d="M 62 17.55  C 62 10.8  43.4 6.75  31 0  C 18.599999999999998 6.75  0 10.8  0 17.55  C 0 21.060000000000002  6.2 27  31 27  C 55.800000000000004 27  62 21.060000000000002  62 17.55  Z " fill-rule="evenodd" />
    </mask>
  </defs>
  <g transform="matrix(1 0 0 1 -564 -1564 )">
    <path d="M 62 17.55  C 62 10.8  43.4 6.75  31 0  C 18.599999999999998 6.75  0 10.8  0 17.55  C 0 21.060000000000002  6.2 27  31 27  C 55.800000000000004 27  62 21.060000000000002  62 17.55  Z " fill-rule="nonzero" fill="rgba(255, 255, 255, 1)" stroke="none" transform="matrix(1 0 0 1 564 1564 )" class="fill" />
    <path d="M 62 17.55  C 62 10.8  43.4 6.75  31 0  C 18.599999999999998 6.75  0 10.8  0 17.55  C 0 21.060000000000002  6.2 27  31 27  C 55.800000000000004 27  62 21.060000000000002  62 17.55  Z " stroke-width="2" stroke-dasharray="0" stroke="rgba(121, 121, 121, 1)" fill="none" transform="matrix(1 0 0 1 564 1564 )" class="stroke" mask="url(#Clip21)" />
  </g>
</svg>