<?xml version="1.0" encoding="utf-8"?>
<svg version="1.1" xmlns:xlink="http://www.w3.org/1999/xlink" width="22px" height="22px" xmlns="http://www.w3.org/2000/svg">
  <defs>
    <pattern id="BGPattern" patternUnits="userSpaceOnUse" alignment="0 0" imageRepeat="None" />
    <mask fill="white" id="Clip25">
      <path d="M 8.53034612881228 7.600813061875578  L 11 0  L 13.469653871187719 7.600813061875578  L 21.46162167924669 7.600813061875578  L 14.995983904029485 12.298373876248844  L 17.465637775217203 19.899186938124423  L 11 15.201626123751156  L 4.534362224782797 19.899186938124423  L 7.004016095970514 12.298373876248844  L 0.5383783207533099 7.600813061875581  L 8.53034612881228 7.600813061875578  Z " fill-rule="evenodd" />
    </mask>
  </defs>
  <g transform="matrix(1 0 0 1 -584 -1509 )">
    <path d="M 8.53034612881228 7.600813061875578  L 11 0  L 13.469653871187719 7.600813061875578  L 21.46162167924669 7.600813061875578  L 14.995983904029485 12.298373876248844  L 17.465637775217203 19.899186938124423  L 11 15.201626123751156  L 4.534362224782797 19.899186938124423  L 7.004016095970514 12.298373876248844  L 0.5383783207533099 7.600813061875581  L 8.53034612881228 7.600813061875578  Z " fill-rule="nonzero" fill="rgba(255, 255, 255, 1)" stroke="none" transform="matrix(1 0 0 1 584 1509 )" class="fill" />
    <path d="M 8.53034612881228 7.600813061875578  L 11 0  L 13.469653871187719 7.600813061875578  L 21.46162167924669 7.600813061875578  L 14.995983904029485 12.298373876248844  L 17.465637775217203 19.899186938124423  L 11 15.201626123751156  L 4.534362224782797 19.899186938124423  L 7.004016095970514 12.298373876248844  L 0.5383783207533099 7.600813061875581  L 8.53034612881228 7.600813061875578  Z " stroke-width="2" stroke-dasharray="0" stroke="rgba(121, 121, 121, 1)" fill="none" transform="matrix(1 0 0 1 584 1509 )" class="stroke" mask="url(#Clip25)" />
  </g>
</svg>