<?xml version="1.0" encoding="utf-8"?>
<svg version="1.1" xmlns:xlink="http://www.w3.org/1999/xlink" width="123px" height="123px" xmlns="http://www.w3.org/2000/svg">
  <g transform="matrix(1 0 0 1 -58 -2292 )">
    <path d="M 119.5 2292  C 153.94 2292  181 2319.06  181 2353.5  C 181 2387.94  153.94 2415  119.5 2415  C 85.06 2415  58 2387.94  58 2353.5  C 58 2319.06  85.06 2292  119.5 2292  Z " fill-rule="nonzero" fill="#ffffff" stroke="none" />
    <path d="M 119.5 2292.5  C 153.66 2292.5  180.5 2319.34  180.5 2353.5  C 180.5 2387.66  153.66 2414.5  119.5 2414.5  C 85.34 2414.5  58.5 2387.66  58.5 2353.5  C 58.5 2319.34  85.34 2292.5  119.5 2292.5  Z " stroke-width="1" stroke="#797979" fill="none" />
  </g>
</svg>