<?xml version="1.0" encoding="utf-8"?>
<svg version="1.1" xmlns:xlink="http://www.w3.org/1999/xlink" width="17px" height="17px" xmlns="http://www.w3.org/2000/svg">
  <defs>
    <pattern id="BGPattern" patternUnits="userSpaceOnUse" alignment="0 0" imageRepeat="None" />
    <mask fill="white" id="Clip338">
      <path d="M 0 8.5  C 0 3.7399999999999993  3.7399999999999993 0  8.5 0  C 13.26 0  17 3.7399999999999993  17 8.5  C 17 13.26  13.26 17  8.5 17  C 3.7399999999999993 17  0 13.26  0 8.5  Z " fill-rule="evenodd" />
    </mask>
  </defs>
  <g transform="matrix(1 0 0 1 -353 -3943 )">
    <path d="M 0 8.5  C 0 3.7399999999999993  3.7399999999999993 0  8.5 0  C 13.26 0  17 3.7399999999999993  17 8.5  C 17 13.26  13.26 17  8.5 17  C 3.7399999999999993 17  0 13.26  0 8.5  Z " fill-rule="nonzero" fill="rgba(217, 0, 27, 1)" stroke="none" transform="matrix(1 0 0 1 353 3943 )" class="fill" />
    <path d="M 0 8.5  C 0 3.7399999999999993  3.7399999999999993 0  8.5 0  C 13.26 0  17 3.7399999999999993  17 8.5  C 17 13.26  13.26 17  8.5 17  C 3.7399999999999993 17  0 13.26  0 8.5  Z " stroke-width="2" stroke-dasharray="0" stroke="rgba(217, 0, 27, 1)" fill="none" transform="matrix(1 0 0 1 353 3943 )" class="stroke" mask="url(#Clip338)" />
  </g>
</svg>