<?xml version="1.0" encoding="utf-8"?>
<svg version="1.1" xmlns:xlink="http://www.w3.org/1999/xlink" width="104px" height="104px" xmlns="http://www.w3.org/2000/svg">
  <g transform="matrix(1 0 0 1 -65 -923 )">
    <path d="M 117 923.800390529679  C 96.4 949.492548018264  65.5 964.907842511415  65.5 990.6  C 65.5 1003.93428571429  75.8 1026.5  117 1026.5  C 158.2 1026.5  168.5 1003.93428571429  168.5 990.6  C 168.5 964.907842511415  137.6 949.492548018264  117 923.800390529679  Z " fill-rule="nonzero" fill="#ffffff" stroke="none" />
    <path d="M 117 923  C 96.2 949  65 964.6  65 990.6  C 65 1004.12  75.4 1027  117 1027  C 158.6 1027  169 1004.12  169 990.6  C 169 964.6  137.8 949  117 923  Z M 117 924.600781059358  C 137.4 949.985096036528  168 965.21568502283  168 990.6  C 168 1003.74857142857  157.8 1026  117 1026  C 76.2 1026  66 1003.74857142857  66 990.6  C 66 965.21568502283  96.6 949.985096036528  117 924.600781059358  Z " fill-rule="nonzero" fill="#797979" stroke="none" />
  </g>
</svg>