<?xml version="1.0" encoding="utf-8"?>
<svg version="1.1" xmlns:xlink="http://www.w3.org/1999/xlink" width="104px" height="104px" xmlns="http://www.w3.org/2000/svg">
  <g transform="matrix(1 0 0 1 -65 -849 )">
    <path d="M 117 849  C 146.12 849  169 871.88  169 901  C 169 930.12  146.12 953  117 953  C 87.88 953  65 930.12  65 901  C 65 871.88  87.88 849  117 849  Z " fill-rule="nonzero" fill="#ffffff" stroke="none" />
    <path d="M 117 849.5  C 145.84 849.5  168.5 872.16  168.5 901  C 168.5 929.84  145.84 952.5  117 952.5  C 88.16 952.5  65.5 929.84  65.5 901  C 65.5 872.16  88.16 849.5  117 849.5  Z " stroke-width="1" stroke="#797979" fill="none" />
  </g>
</svg>