<?xml version="1.0" encoding="utf-8"?>
<svg version="1.1" xmlns:xlink="http://www.w3.org/1999/xlink" width="21px" height="21px" xmlns="http://www.w3.org/2000/svg">
  <g transform="matrix(1 0 0 1 -4 -4 )">
    <path d="M 16.5 4.5  L 12.5 4.5  L 12.5 12.5  L 4.5 12.5  L 4.5 16.5  L 12.5 16.5  L 12.5 24.5  L 16.5 24.5  L 16.5 16.5  L 24.5 16.5  L 24.5 12.5  L 16.5 12.5  L 16.5 4.5  Z " fill-rule="nonzero" fill="#ffffff" stroke="none" />
    <path d="M 16.5 4.5  L 12.5 4.5  L 12.5 12.5  L 4.5 12.5  L 4.5 16.5  L 12.5 16.5  L 12.5 24.5  L 16.5 24.5  L 16.5 16.5  L 24.5 16.5  L 24.5 12.5  L 16.5 12.5  L 16.5 4.5  Z " stroke-width="1" stroke="#797979" fill="none" />
  </g>
</svg>