<?xml version="1.0" encoding="utf-8"?>
<svg version="1.1" xmlns:xlink="http://www.w3.org/1999/xlink" width="44px" height="44px" xmlns="http://www.w3.org/2000/svg">
  <g transform="matrix(1 0 0 1 -357 -3112 )">
    <path d="M 379 3112  C 391.32 3112  401 3121.68  401 3134  C 401 3146.32  391.32 3156  379 3156  C 366.68 3156  357 3146.32  357 3134  C 357 3121.68  366.68 3112  379 3112  Z " fill-rule="nonzero" fill="#ffffff" stroke="none" />
    <path d="M 379 3112.5  C 391.04 3112.5  400.5 3121.96  400.5 3134  C 400.5 3146.04  391.04 3155.5  379 3155.5  C 366.96 3155.5  357.5 3146.04  357.5 3134  C 357.5 3121.96  366.96 3112.5  379 3112.5  Z " stroke-width="1" stroke="#797979" fill="none" />
  </g>
</svg>