<?xml version="1.0" encoding="utf-8"?>
<svg version="1.1" xmlns:xlink="http://www.w3.org/1999/xlink" width="33px" height="33px" xmlns="http://www.w3.org/2000/svg">
  <g transform="matrix(1 0 0 1 -682 -3122 )">
    <path d="M 698.5 3122  C 707.74 3122  715 3129.26  715 3138.5  C 715 3147.74  707.74 3155  698.5 3155  C 689.26 3155  682 3147.74  682 3138.5  C 682 3129.26  689.26 3122  698.5 3122  Z " fill-rule="nonzero" fill="#ffffff" stroke="none" />
    <path d="M 698.5 3122.5  C 707.46 3122.5  714.5 3129.54  714.5 3138.5  C 714.5 3147.46  707.46 3154.5  698.5 3154.5  C 689.54 3154.5  682.5 3147.46  682.5 3138.5  C 682.5 3129.54  689.54 3122.5  698.5 3122.5  Z " stroke-width="1" stroke="#797979" fill="none" />
  </g>
</svg>