<?xml version="1.0" encoding="utf-8"?>
<svg version="1.1" xmlns:xlink="http://www.w3.org/1999/xlink" width="18px" height="103px" xmlns="http://www.w3.org/2000/svg">
  <g transform="matrix(1 0 0 1 -197 -3273 )">
    <path d="M 211.22360679775 3284.89165803994  C 211.22360679775 3284.89165803994  197.379914462197 3324.5  197.379914462197 3324.5  C 197.379914462197 3324.5  211.22360679775 3364.10834196006  211.22360679775 3364.10834196006  C 211.22360679775 3364.10834196006  214.5 3373.48246695538  214.5 3373.48246695538  C 214.5 3373.48246695538  214.5 3275.51753304462  214.5 3275.51753304462  C 214.5 3275.51753304462  211.22360679775 3284.89165803994  211.22360679775 3284.89165803994  Z " fill-rule="nonzero" fill="#ffffff" stroke="none" />
    <path d="M 211.22360679775 3284.89165803994  C 211.22360679775 3284.89165803994  197.379914462197 3324.5  197.379914462197 3324.5  C 197.379914462197 3324.5  211.22360679775 3364.10834196006  211.22360679775 3364.10834196006  C 211.22360679775 3364.10834196006  214.5 3373.48246695538  214.5 3373.48246695538  C 214.5 3373.48246695538  214.5 3275.51753304462  214.5 3275.51753304462  C 214.5 3275.51753304462  211.22360679775 3284.89165803994  211.22360679775 3284.89165803994  Z " stroke-width="1" stroke="#797979" fill="none" />
  </g>
</svg>