<?xml version="1.0" encoding="utf-8"?>
<svg version="1.1" xmlns:xlink="http://www.w3.org/1999/xlink" width="18px" height="103px" xmlns="http://www.w3.org/2000/svg">
  <g transform="matrix(1 0 0 1 -1183 -3273 )">
    <path d="M 1186.77639320225 3284.89165803994  C 1186.77639320225 3284.89165803994  1200.6200855378 3324.5  1200.6200855378 3324.5  C 1200.6200855378 3324.5  1186.77639320225 3364.10834196006  1186.77639320225 3364.10834196006  C 1186.77639320225 3364.10834196006  1183.5 3373.48246695538  1183.5 3373.48246695538  C 1183.5 3373.48246695538  1183.5 3275.51753304462  1183.5 3275.51753304462  C 1183.5 3275.51753304462  1186.77639320225 3284.89165803994  1186.77639320225 3284.89165803994  Z " fill-rule="nonzero" fill="#ffffff" stroke="none" />
    <path d="M 1186.77639320225 3284.89165803994  C 1186.77639320225 3284.89165803994  1200.6200855378 3324.5  1200.6200855378 3324.5  C 1200.6200855378 3324.5  1186.77639320225 3364.10834196006  1186.77639320225 3364.10834196006  C 1186.77639320225 3364.10834196006  1183.5 3373.48246695538  1183.5 3373.48246695538  C 1183.5 3373.48246695538  1183.5 3275.51753304462  1183.5 3275.51753304462  C 1183.5 3275.51753304462  1186.77639320225 3284.89165803994  1186.77639320225 3284.89165803994  Z " stroke-width="1" stroke="#797979" fill="none" />
  </g>
</svg>