<?xml version="1.0" encoding="utf-8"?>
<svg version="1.1" xmlns:xlink="http://www.w3.org/1999/xlink" width="125px" height="125px" xmlns="http://www.w3.org/2000/svg">
  <g transform="matrix(1 0 0 1 -37 -1062 )">
    <path d="M 99.5 1062  C 134.5 1062  162 1089.5  162 1124.5  C 162 1159.5  134.5 1187  99.5 1187  C 64.5 1187  37 1159.5  37 1124.5  C 37 1089.5  64.5 1062  99.5 1062  Z " fill-rule="nonzero" fill="#ffffff" stroke="none" />
    <path d="M 99.5 1062.5  C 134.22 1062.5  161.5 1089.78  161.5 1124.5  C 161.5 1159.22  134.22 1186.5  99.5 1186.5  C 64.78 1186.5  37.5 1159.22  37.5 1124.5  C 37.5 1089.78  64.78 1062.5  99.5 1062.5  Z " stroke-width="1" stroke="#797979" fill="none" />
  </g>
</svg>