<?xml version="1.0" encoding="utf-8"?>
<svg version="1.1" xmlns:xlink="http://www.w3.org/1999/xlink" width="68px" height="68px" xmlns="http://www.w3.org/2000/svg">
  <g transform="matrix(1 0 0 1 -41 -1747 )">
    <path d="M 75 1747  C 94.04 1747  109 1761.96  109 1781  C 109 1800.04  94.04 1815  75 1815  C 55.96 1815  41 1800.04  41 1781  C 41 1761.96  55.96 1747  75 1747  Z " fill-rule="nonzero" fill="#ffffff" stroke="none" />
    <path d="M 75 1747.5  C 93.76 1747.5  108.5 1762.24  108.5 1781  C 108.5 1799.76  93.76 1814.5  75 1814.5  C 56.24 1814.5  41.5 1799.76  41.5 1781  C 41.5 1762.24  56.24 1747.5  75 1747.5  Z " stroke-width="1" stroke="#797979" fill="none" />
  </g>
</svg>