<?xml version="1.0" encoding="utf-8"?>
<svg version="1.1" xmlns:xlink="http://www.w3.org/1999/xlink" width="50px" height="50px" xmlns="http://www.w3.org/2000/svg">
  <g transform="matrix(1 0 0 1 -650 -455 )">
    <path d="M 675 455  C 689 455  700 466  700 480  C 700 494  689 505  675 505  C 661 505  650 494  650 480  C 650 466  661 455  675 455  Z " fill-rule="nonzero" fill="#f2f2f2" stroke="none" />
    <path d="M 675 455.5  C 688.72 455.5  699.5 466.28  699.5 480  C 699.5 493.72  688.72 504.5  675 504.5  C 661.28 504.5  650.5 493.72  650.5 480  C 650.5 466.28  661.28 455.5  675 455.5  Z " stroke-width="1" stroke="#797979" fill="none" />
  </g>
</svg>