<?xml version="1.0" encoding="utf-8"?>
<svg version="1.1" xmlns:xlink="http://www.w3.org/1999/xlink" width="454px" height="42px" xmlns="http://www.w3.org/2000/svg">
  <defs>
    <mask fill="white" id="clip13">
      <path d="M 5.35255681818179 41.6786600496278  L 0 25.7531760435572  L 3.46687030075187 15.9528130671506  L 10.4006109022556 7.24137931034483  L 17.3343515037594 2.61343012704175  L 24.0014097744361 0  L 454 0  L 449.808238636364 41.6786600496278  L 5.35255681818179 41.6786600496278  Z " fill-rule="evenodd" />
    </mask>
  </defs>
  <g transform="matrix(1 0 0 1 -854 -1244 )">
    <path d="M 5.35255681818179 41.6786600496278  L 0 25.7531760435572  L 3.46687030075187 15.9528130671506  L 10.4006109022556 7.24137931034483  L 17.3343515037594 2.61343012704175  L 24.0014097744361 0  L 454 0  L 449.808238636364 41.6786600496278  L 5.35255681818179 41.6786600496278  Z " fill-rule="nonzero" fill="#ffffff" stroke="none" transform="matrix(1 0 0 1 854 1244 )" />
    <path d="M 5.35255681818179 41.6786600496278  L 0 25.7531760435572  L 3.46687030075187 15.9528130671506  L 10.4006109022556 7.24137931034483  L 17.3343515037594 2.61343012704175  L 24.0014097744361 0  L 454 0  L 449.808238636364 41.6786600496278  L 5.35255681818179 41.6786600496278  Z " stroke-width="6" stroke="#797979" fill="none" transform="matrix(1 0 0 1 854 1244 )" mask="url(#clip13)" />
  </g>
</svg>