<?xml version="1.0" encoding="utf-8"?>
<svg version="1.1" xmlns:xlink="http://www.w3.org/1999/xlink" width="458px" height="82px" xmlns="http://www.w3.org/2000/svg">
  <defs>
    <mask fill="white" id="clip30">
      <path d="M 45.3804087385483 64.8869565217391  C 32.0498238687358 61.0699263112556  8.40882505638225 44.4267138615893  5.6806201550388 39.9304347826087  C 0.713700671331553 31.7445920878107  0.0518173619144088 23.0366680029744  1.02389620779941 19.2521739130435  C 2.5299137012777 13.3889516780071  6.43373267559314 3.24110671936764  19.8821705426357 0.71304347826087  C 33.3306084096782 -1.8150197628459  48.4466525722337 7.67422046552518  55.3860465116279 8.55652173913044  C 97.0224101479915 13.8503293807641  151.271859449769 12.7699604743083  227.852767611339 12.7699604743083  C 278.197246537404 12.7699604743083  370.832605120977 13.5046113306982  389.122480620155 11.3438735177865  C 407.412356119333 9.18313570487483  428.751770998508 -2.85217391304348  442.206154568945 0.71304347826087  C 449.840012047032 2.73590549205206  455.55012141045 12.3987492000497  457.28992248062 19.8272089761571  C 458.61645465043 25.4911271298459  457.008802134103 28.8041567243612  455.876311935127 32.6422760969746  C 453.258514628657 41.514245642156  432.351139299976 55.8982872200263  427.681841672539 59.1826086956522  C 423.012544045102 62.466930171278  402.183998293151 74.3361206802767  396.223255813953 75.9715415019763  C 356.846229739253 86.7752305665349  289.777901162557 79.1478260869565  227.852767611339 79.1478260869565  C 166.465444160136 79.1478260869565  122.40488579432 80.0203578216165  93.3089319069617 79.1478260869565  C 77.2627222990298 78.6666311016287  61.2322407029446 69.425911270576  45.3804087385483 64.8869565217391  Z " fill-rule="evenodd" />
    </mask>
  </defs>
  <g transform="matrix(1 0 0 1 -854 -1334 )">
    <path d="M 45.3804087385483 64.8869565217391  C 32.0498238687358 61.0699263112556  8.40882505638225 44.4267138615893  5.6806201550388 39.9304347826087  C 0.713700671331553 31.7445920878107  0.0518173619144088 23.0366680029744  1.02389620779941 19.2521739130435  C 2.5299137012777 13.3889516780071  6.43373267559314 3.24110671936764  19.8821705426357 0.71304347826087  C 33.3306084096782 -1.8150197628459  48.4466525722337 7.67422046552518  55.3860465116279 8.55652173913044  C 97.0224101479915 13.8503293807641  151.271859449769 12.7699604743083  227.852767611339 12.7699604743083  C 278.197246537404 12.7699604743083  370.832605120977 13.5046113306982  389.122480620155 11.3438735177865  C 407.412356119333 9.18313570487483  428.751770998508 -2.85217391304348  442.206154568945 0.71304347826087  C 449.840012047032 2.73590549205206  455.55012141045 12.3987492000497  457.28992248062 19.8272089761571  C 458.61645465043 25.4911271298459  457.008802134103 28.8041567243612  455.876311935127 32.6422760969746  C 453.258514628657 41.514245642156  432.351139299976 55.8982872200263  427.681841672539 59.1826086956522  C 423.012544045102 62.466930171278  402.183998293151 74.3361206802767  396.223255813953 75.9715415019763  C 356.846229739253 86.7752305665349  289.777901162557 79.1478260869565  227.852767611339 79.1478260869565  C 166.465444160136 79.1478260869565  122.40488579432 80.0203578216165  93.3089319069617 79.1478260869565  C 77.2627222990298 78.6666311016287  61.2322407029446 69.425911270576  45.3804087385483 64.8869565217391  Z " fill-rule="nonzero" fill="#ffffff" stroke="none" fill-opacity="0" transform="matrix(1 0 0 1 854 1334 )" />
    <path d="M 45.3804087385483 64.8869565217391  C 32.0498238687358 61.0699263112556  8.40882505638225 44.4267138615893  5.6806201550388 39.9304347826087  C 0.713700671331553 31.7445920878107  0.0518173619144088 23.0366680029744  1.02389620779941 19.2521739130435  C 2.5299137012777 13.3889516780071  6.43373267559314 3.24110671936764  19.8821705426357 0.71304347826087  C 33.3306084096782 -1.8150197628459  48.4466525722337 7.67422046552518  55.3860465116279 8.55652173913044  C 97.0224101479915 13.8503293807641  151.271859449769 12.7699604743083  227.852767611339 12.7699604743083  C 278.197246537404 12.7699604743083  370.832605120977 13.5046113306982  389.122480620155 11.3438735177865  C 407.412356119333 9.18313570487483  428.751770998508 -2.85217391304348  442.206154568945 0.71304347826087  C 449.840012047032 2.73590549205206  455.55012141045 12.3987492000497  457.28992248062 19.8272089761571  C 458.61645465043 25.4911271298459  457.008802134103 28.8041567243612  455.876311935127 32.6422760969746  C 453.258514628657 41.514245642156  432.351139299976 55.8982872200263  427.681841672539 59.1826086956522  C 423.012544045102 62.466930171278  402.183998293151 74.3361206802767  396.223255813953 75.9715415019763  C 356.846229739253 86.7752305665349  289.777901162557 79.1478260869565  227.852767611339 79.1478260869565  C 166.465444160136 79.1478260869565  122.40488579432 80.0203578216165  93.3089319069617 79.1478260869565  C 77.2627222990298 78.6666311016287  61.2322407029446 69.425911270576  45.3804087385483 64.8869565217391  Z " stroke-width="12" stroke-dasharray="18,6" stroke="#797979" fill="none" transform="matrix(1 0 0 1 854 1334 )" mask="url(#clip30)" />
  </g>
</svg>