<?xml version="1.0" encoding="utf-8"?>
<svg version="1.1" xmlns:xlink="http://www.w3.org/1999/xlink" width="43px" height="43px" xmlns="http://www.w3.org/2000/svg">
  <g transform="matrix(1 0 0 1 -859 -1338 )">
    <path d="M 880.5 1339  C 891.98 1339  901 1348.02  901 1359.5  C 901 1370.98  891.98 1380  880.5 1380  C 869.02 1380  860 1370.98  860 1359.5  C 860 1348.02  869.02 1339  880.5 1339  Z " fill-rule="nonzero" fill="#ffffff" stroke="none" />
    <path d="M 880.5 1339  C 891.98 1339  901 1348.02  901 1359.5  C 901 1370.98  891.98 1380  880.5 1380  C 869.02 1380  860 1370.98  860 1359.5  C 860 1348.02  869.02 1339  880.5 1339  Z " stroke-width="2" stroke="#797979" fill="none" />
  </g>
</svg>