<?xml version="1.0" encoding="utf-8"?>
<svg version="1.1" xmlns:xlink="http://www.w3.org/1999/xlink" width="43px" height="43px" xmlns="http://www.w3.org/2000/svg">
  <g transform="matrix(1 0 0 1 -859 -1253 )">
    <path d="M 880.5 1254  C 891.98 1254  901 1263.02  901 1274.5  C 901 1285.98  891.98 1295  880.5 1295  C 869.02 1295  860 1285.98  860 1274.5  C 860 1263.02  869.02 1254  880.5 1254  Z " fill-rule="nonzero" fill="#ffffff" stroke="none" />
    <path d="M 880.5 1254  C 891.98 1254  901 1263.02  901 1274.5  C 901 1285.98  891.98 1295  880.5 1295  C 869.02 1295  860 1285.98  860 1274.5  C 860 1263.02  869.02 1254  880.5 1254  Z " stroke-width="2" stroke="#797979" fill="none" />
  </g>
</svg>