<?xml version="1.0" encoding="utf-8"?>
<svg version="1.1" xmlns:xlink="http://www.w3.org/1999/xlink" width="22px" height="22px" xmlns="http://www.w3.org/2000/svg">
  <g transform="matrix(1 0 0 1 -869 -1349 )">
    <path d="M 880 1349  C 886.16 1349  891 1353.84  891 1360  C 891 1366.16  886.16 1371  880 1371  C 873.84 1371  869 1366.16  869 1360  C 869 1353.84  873.84 1349  880 1349  Z " fill-rule="nonzero" fill="#ffffff" stroke="none" />
    <path d="M 880 1349.5  C 885.88 1349.5  890.5 1354.12  890.5 1360  C 890.5 1365.88  885.88 1370.5  880 1370.5  C 874.12 1370.5  869.5 1365.88  869.5 1360  C 869.5 1354.12  874.12 1349.5  880 1349.5  Z " stroke-width="1" stroke="#797979" fill="none" />
  </g>
</svg>