<?xml version="1.0" encoding="utf-8"?>
<svg version="1.1" xmlns:xlink="http://www.w3.org/1999/xlink" width="22px" height="22px" xmlns="http://www.w3.org/2000/svg">
  <g transform="matrix(1 0 0 1 -869 -1264 )">
    <path d="M 880 1264  C 886.16 1264  891 1268.84  891 1275  C 891 1281.16  886.16 1286  880 1286  C 873.84 1286  869 1281.16  869 1275  C 869 1268.84  873.84 1264  880 1264  Z " fill-rule="nonzero" fill="#ffffff" stroke="none" />
    <path d="M 880 1264.5  C 885.88 1264.5  890.5 1269.12  890.5 1275  C 890.5 1280.88  885.88 1285.5  880 1285.5  C 874.12 1285.5  869.5 1280.88  869.5 1275  C 869.5 1269.12  874.12 1264.5  880 1264.5  Z " stroke-width="1" stroke="#797979" fill="none" />
  </g>
</svg>