<?xml version="1.0" encoding="utf-8"?>
<svg version="1.1" xmlns:xlink="http://www.w3.org/1999/xlink" width="62px" height="62px" xmlns="http://www.w3.org/2000/svg">
  <g transform="matrix(1 0 0 1 -915 -1349 )">
    <path d="M 946 1349  C 963.36 1349  977 1362.64  977 1380  C 977 1397.36  963.36 1411  946 1411  C 928.64 1411  915 1397.36  915 1380  C 915 1362.64  928.64 1349  946 1349  Z " fill-rule="nonzero" fill="#555555" stroke="none" />
    <path d="M 946 1349.5  C 963.08 1349.5  976.5 1362.92  976.5 1380  C 976.5 1397.08  963.08 1410.5  946 1410.5  C 928.92 1410.5  915.5 1397.08  915.5 1380  C 915.5 1362.92  928.92 1349.5  946 1349.5  Z " stroke-width="1" stroke="#797979" fill="none" />
  </g>
</svg>