<?xml version="1.0" encoding="utf-8"?>
<svg version="1.1" xmlns:xlink="http://www.w3.org/1999/xlink" width="50px" height="50px" xmlns="http://www.w3.org/2000/svg">
  <g transform="matrix(1 0 0 1 -921 -1356 )">
    <path d="M 946 1356  C 960 1356  971 1367  971 1381  C 971 1395  960 1406  946 1406  C 932 1406  921 1395  921 1381  C 921 1367  932 1356  946 1356  Z " fill-rule="nonzero" fill="#ffffff" stroke="none" />
    <path d="M 946 1356.5  C 959.72 1356.5  970.5 1367.28  970.5 1381  C 970.5 1394.72  959.72 1405.5  946 1405.5  C 932.28 1405.5  921.5 1394.72  921.5 1381  C 921.5 1367.28  932.28 1356.5  946 1356.5  Z " stroke-width="1" stroke="#797979" fill="none" />
  </g>
</svg>