<?xml version="1.0" encoding="utf-8"?>
<svg version="1.1" xmlns:xlink="http://www.w3.org/1999/xlink" width="62px" height="62px" xmlns="http://www.w3.org/2000/svg">
  <g transform="matrix(1 0 0 1 -915 -1264 )">
    <path d="M 946 1264  C 963.36 1264  977 1277.64  977 1295  C 977 1312.36  963.36 1326  946 1326  C 928.64 1326  915 1312.36  915 1295  C 915 1277.64  928.64 1264  946 1264  Z " fill-rule="nonzero" fill="#555555" stroke="none" />
    <path d="M 946 1264.5  C 963.08 1264.5  976.5 1277.92  976.5 1295  C 976.5 1312.08  963.08 1325.5  946 1325.5  C 928.92 1325.5  915.5 1312.08  915.5 1295  C 915.5 1277.92  928.92 1264.5  946 1264.5  Z " stroke-width="1" stroke="#797979" fill="none" />
  </g>
</svg>