<?xml version="1.0" encoding="utf-8"?>
<svg version="1.1" xmlns:xlink="http://www.w3.org/1999/xlink" width="50px" height="50px" xmlns="http://www.w3.org/2000/svg">
  <g transform="matrix(1 0 0 1 -921 -1271 )">
    <path d="M 946 1271  C 960 1271  971 1282  971 1296  C 971 1310  960 1321  946 1321  C 932 1321  921 1310  921 1296  C 921 1282  932 1271  946 1271  Z " fill-rule="nonzero" fill="#ffffff" stroke="none" />
    <path d="M 946 1271.5  C 959.72 1271.5  970.5 1282.28  970.5 1296  C 970.5 1309.72  959.72 1320.5  946 1320.5  C 932.28 1320.5  921.5 1309.72  921.5 1296  C 921.5 1282.28  932.28 1271.5  946 1271.5  Z " stroke-width="1" stroke="#797979" fill="none" />
  </g>
</svg>