<?xml version="1.0" encoding="utf-8"?>
<svg version="1.1" xmlns:xlink="http://www.w3.org/1999/xlink" width="194px" height="54px" xmlns="http://www.w3.org/2000/svg">
  <defs>
    <mask fill="white" id="clip33">
      <path d="M 194 54  L 0 54  C 0 24.5454545454545  42.68 1.4025974025974  97 1.4025974025974  C 120.860986443115 1.4025974025974  148.940770589205 -3.12668796947457  165.678832116788 4.37780401416766  C 187.045293398683 13.9574340773348  194 37.4838659920494  194 54  Z " fill-rule="evenodd" />
    </mask>
  </defs>
  <g transform="matrix(1 0 0 1 -968 -1257 )">
    <path d="M 194 54  L 0 54  C 0 24.5454545454545  42.68 1.4025974025974  97 1.4025974025974  C 120.860986443115 1.4025974025974  148.940770589205 -3.12668796947457  165.678832116788 4.37780401416766  C 187.045293398683 13.9574340773348  194 37.4838659920494  194 54  Z " fill-rule="nonzero" fill="#ffffff" stroke="none" transform="matrix(1 0 0 1 968 1257 )" />
    <path d="M 194 54  L 0 54  C 0 24.5454545454545  42.68 1.4025974025974  97 1.4025974025974  C 120.860986443115 1.4025974025974  148.940770589205 -3.12668796947457  165.678832116788 4.37780401416766  C 187.045293398683 13.9574340773348  194 37.4838659920494  194 54  Z " stroke-width="6" stroke="#797979" fill="none" transform="matrix(1 0 0 1 968 1257 )" mask="url(#clip33)" />
  </g>
</svg>