<?xml version="1.0" encoding="utf-8"?>
<svg version="1.1" xmlns:xlink="http://www.w3.org/1999/xlink" width="28px" height="28px" xmlns="http://www.w3.org/2000/svg">
  <g transform="matrix(1 0 0 1 -1301 -1302 )">
    <path d="M 1315 1303  C 1322.28 1303  1328 1308.72  1328 1316  C 1328 1323.28  1322.28 1329  1315 1329  C 1307.72 1329  1302 1323.28  1302 1316  C 1302 1308.72  1307.72 1303  1315 1303  Z " fill-rule="nonzero" fill="#ffffff" stroke="none" />
    <path d="M 1315 1303  C 1322.28 1303  1328 1308.72  1328 1316  C 1328 1323.28  1322.28 1329  1315 1329  C 1307.72 1329  1302 1323.28  1302 1316  C 1302 1308.72  1307.72 1303  1315 1303  Z " stroke-width="2" stroke="#797979" fill="none" />
  </g>
</svg>