<?xml version="1.0" encoding="utf-8"?>
<svg version="1.1" xmlns:xlink="http://www.w3.org/1999/xlink" width="24px" height="24px" xmlns="http://www.w3.org/2000/svg">
  <g transform="matrix(1 0 0 1 -1303 -1303 )">
    <path d="M 1315 1304  C 1321.16 1304  1326 1308.84  1326 1315  C 1326 1321.16  1321.16 1326  1315 1326  C 1308.84 1326  1304 1321.16  1304 1315  C 1304 1308.84  1308.84 1304  1315 1304  Z " fill-rule="nonzero" fill="#ffffff" stroke="none" />
    <path d="M 1315 1304  C 1321.16 1304  1326 1308.84  1326 1315  C 1326 1321.16  1321.16 1326  1315 1326  C 1308.84 1326  1304 1321.16  1304 1315  C 1304 1308.84  1308.84 1304  1315 1304  Z " stroke-width="2" stroke="#797979" fill="none" />
  </g>
</svg>