<?xml version="1.0" encoding="utf-8"?>
<svg version="1.1" xmlns:xlink="http://www.w3.org/1999/xlink" width="28px" height="28px" xmlns="http://www.w3.org/2000/svg">
  <g transform="matrix(1 0 0 1 -1301 -1217 )">
    <path d="M 1315 1218  C 1322.28 1218  1328 1223.72  1328 1231  C 1328 1238.28  1322.28 1244  1315 1244  C 1307.72 1244  1302 1238.28  1302 1231  C 1302 1223.72  1307.72 1218  1315 1218  Z " fill-rule="nonzero" fill="#ffffff" stroke="none" />
    <path d="M 1315 1218  C 1322.28 1218  1328 1223.72  1328 1231  C 1328 1238.28  1322.28 1244  1315 1244  C 1307.72 1244  1302 1238.28  1302 1231  C 1302 1223.72  1307.72 1218  1315 1218  Z " stroke-width="2" stroke="#797979" fill="none" />
  </g>
</svg>