<?xml version="1.0" encoding="utf-8"?>
<svg version="1.1" xmlns:xlink="http://www.w3.org/1999/xlink" width="24px" height="24px" xmlns="http://www.w3.org/2000/svg">
  <g transform="matrix(1 0 0 1 -1303 -1218 )">
    <path d="M 1315 1219  C 1321.16 1219  1326 1223.84  1326 1230  C 1326 1236.16  1321.16 1241  1315 1241  C 1308.84 1241  1304 1236.16  1304 1230  C 1304 1223.84  1308.84 1219  1315 1219  Z " fill-rule="nonzero" fill="#ffffff" stroke="none" />
    <path d="M 1315 1219  C 1321.16 1219  1326 1223.84  1326 1230  C 1326 1236.16  1321.16 1241  1315 1241  C 1308.84 1241  1304 1236.16  1304 1230  C 1304 1223.84  1308.84 1219  1315 1219  Z " stroke-width="2" stroke="#797979" fill="none" />
  </g>
</svg>