<?xml version="1.0" encoding="utf-8"?>
<svg version="1.1" xmlns:xlink="http://www.w3.org/1999/xlink" width="15px" height="15px" xmlns="http://www.w3.org/2000/svg">
  <g transform="matrix(1 0 0 1 -872 -1352 )">
    <path d="M 879.5 1352  C 883.7 1352  887 1355.3  887 1359.5  C 887 1363.7  883.7 1367  879.5 1367  C 875.3 1367  872 1363.7  872 1359.5  C 872 1355.3  875.3 1352  879.5 1352  Z " fill-rule="nonzero" fill="#ffffff" stroke="none" />
    <path d="M 879.5 1352.5  C 883.42 1352.5  886.5 1355.58  886.5 1359.5  C 886.5 1363.42  883.42 1366.5  879.5 1366.5  C 875.58 1366.5  872.5 1363.42  872.5 1359.5  C 872.5 1355.58  875.58 1352.5  879.5 1352.5  Z " stroke-width="1" stroke="#797979" fill="none" />
  </g>
</svg>