<?xml version="1.0" encoding="utf-8"?>
<svg version="1.1" xmlns:xlink="http://www.w3.org/1999/xlink" width="15px" height="15px" xmlns="http://www.w3.org/2000/svg">
  <g transform="matrix(1 0 0 1 -872 -1267 )">
    <path d="M 879.5 1267  C 883.7 1267  887 1270.3  887 1274.5  C 887 1278.7  883.7 1282  879.5 1282  C 875.3 1282  872 1278.7  872 1274.5  C 872 1270.3  875.3 1267  879.5 1267  Z " fill-rule="nonzero" fill="#ffffff" stroke="none" />
    <path d="M 879.5 1267.5  C 883.42 1267.5  886.5 1270.58  886.5 1274.5  C 886.5 1278.42  883.42 1281.5  879.5 1281.5  C 875.58 1281.5  872.5 1278.42  872.5 1274.5  C 872.5 1270.58  875.58 1267.5  879.5 1267.5  Z " stroke-width="1" stroke="#797979" fill="none" />
  </g>
</svg>