<?xml version="1.0" encoding="utf-8"?>
<svg version="1.1" xmlns:xlink="http://www.w3.org/1999/xlink" width="45px" height="45px" xmlns="http://www.w3.org/2000/svg">
  <g transform="matrix(1 0 0 1 -1265 -1251 )">
    <path d="M 1283.53824905549 1268.04711762656  L 1287.5 1255.85410196625  L 1291.46175094451 1268.04711762656  L 1304.28224631088 1268.04711762656  L 1293.91024768318 1275.58281573  L 1297.8719986277 1287.77583139031  L 1287.5 1280.24013328688  L 1277.1280013723 1287.77583139031  L 1281.08975231682 1275.58281573  L 1270.71775368912 1268.04711762656  L 1283.53824905549 1268.04711762656  Z " fill-rule="nonzero" fill="#ffffff" stroke="none" />
    <path d="M 1282.44843526348 1266.54711762656  L 1287.5 1251  L 1292.55156473652 1266.54711762656  L 1308.89877161664 1266.54711762656  L 1295.67360344006 1276.15576474687  L 1300.72516817658 1291.70288237344  L 1287.5 1282.09423525313  L 1274.27483182342 1291.70288237344  L 1279.32639655994 1276.15576474687  L 1266.10122838336 1266.54711762656  L 1282.44843526348 1266.54711762656  Z M 1287.5 1257.472135955  L 1283.90152031949 1268.54711762656  L 1272.25659545771 1268.54711762656  L 1281.67753756911 1275.39183272437  L 1278.0790578886 1286.46681439594  L 1287.5 1279.62209929813  L 1296.9209421114 1286.46681439594  L 1293.32246243089 1275.39183272437  L 1302.74340454229 1268.54711762656  L 1291.09847968051 1268.54711762656  L 1287.5 1257.472135955  Z " fill-rule="nonzero" fill="#555555" stroke="none" />
  </g>
</svg>