<?xml version="1.0" encoding="utf-8"?>
<svg version="1.1" xmlns:xlink="http://www.w3.org/1999/xlink" width="28px" height="28px" xmlns="http://www.w3.org/2000/svg">
  <g transform="matrix(1 0 0 1 -1275 -1344 )">
    <path d="M 1289 1344  C 1296.84 1344  1303 1350.16  1303 1358  C 1303 1365.84  1296.84 1372  1289 1372  C 1281.16 1372  1275 1365.84  1275 1358  C 1275 1350.16  1281.16 1344  1289 1344  Z " fill-rule="nonzero" fill="#ffffff" stroke="none" />
    <path d="M 1289 1344.5  C 1296.56 1344.5  1302.5 1350.44  1302.5 1358  C 1302.5 1365.56  1296.56 1371.5  1289 1371.5  C 1281.44 1371.5  1275.5 1365.56  1275.5 1358  C 1275.5 1350.44  1281.44 1344.5  1289 1344.5  Z " stroke-width="1" stroke="#555555" fill="none" />
  </g>
</svg>