<?xml version="1.0" encoding="utf-8"?>
<svg version="1.1" xmlns:xlink="http://www.w3.org/1999/xlink" width="13px" height="13px" xmlns="http://www.w3.org/2000/svg">
  <g transform="matrix(1 0 0 1 -1280 -1351 )">
    <path d="M 1286.5 1352  C 1289.58 1352  1292 1354.42  1292 1357.5  C 1292 1360.58  1289.58 1363  1286.5 1363  C 1283.42 1363  1281 1360.58  1281 1357.5  C 1281 1354.42  1283.42 1352  1286.5 1352  Z " fill-rule="nonzero" fill="#ffffff" stroke="none" />
    <path d="M 1286.5 1352  C 1289.58 1352  1292 1354.42  1292 1357.5  C 1292 1360.58  1289.58 1363  1286.5 1363  C 1283.42 1363  1281 1360.58  1281 1357.5  C 1281 1354.42  1283.42 1352  1286.5 1352  Z " stroke-width="2" stroke="#797979" fill="none" />
  </g>
</svg>