<?xml version="1.0" encoding="utf-8"?>
<svg version="1.1" xmlns:xlink="http://www.w3.org/1999/xlink" width="28px" height="28px" xmlns="http://www.w3.org/2000/svg">
  <g transform="matrix(1 0 0 1 -1275 -1259 )">
    <path d="M 1289 1259  C 1296.84 1259  1303 1265.16  1303 1273  C 1303 1280.84  1296.84 1287  1289 1287  C 1281.16 1287  1275 1280.84  1275 1273  C 1275 1265.16  1281.16 1259  1289 1259  Z " fill-rule="nonzero" fill="#ffffff" stroke="none" />
    <path d="M 1289 1259.5  C 1296.56 1259.5  1302.5 1265.44  1302.5 1273  C 1302.5 1280.56  1296.56 1286.5  1289 1286.5  C 1281.44 1286.5  1275.5 1280.56  1275.5 1273  C 1275.5 1265.44  1281.44 1259.5  1289 1259.5  Z " stroke-width="1" stroke="#555555" fill="none" />
  </g>
</svg>