<?xml version="1.0" encoding="utf-8"?>
<svg version="1.1" xmlns:xlink="http://www.w3.org/1999/xlink" width="13px" height="13px" xmlns="http://www.w3.org/2000/svg">
  <g transform="matrix(1 0 0 1 -1280 -1266 )">
    <path d="M 1286.5 1267  C 1289.58 1267  1292 1269.42  1292 1272.5  C 1292 1275.58  1289.58 1278  1286.5 1278  C 1283.42 1278  1281 1275.58  1281 1272.5  C 1281 1269.42  1283.42 1267  1286.5 1267  Z " fill-rule="nonzero" fill="#ffffff" stroke="none" />
    <path d="M 1286.5 1267  C 1289.58 1267  1292 1269.42  1292 1272.5  C 1292 1275.58  1289.58 1278  1286.5 1278  C 1283.42 1278  1281 1275.58  1281 1272.5  C 1281 1269.42  1283.42 1267  1286.5 1267  Z " stroke-width="2" stroke="#797979" fill="none" />
  </g>
</svg>