<?xml version="1.0" encoding="utf-8"?>
<svg version="1.1" xmlns:xlink="http://www.w3.org/1999/xlink" width="23px" height="56px" xmlns="http://www.w3.org/2000/svg">
  <g transform="matrix(1 0 0 1 -13 -1291 )">
    <path d="M 35.5802465369107 1291.5  C 35.5802465369107 1291.5  31.7325842385546 1296.18411062409  31.7325842385546 1296.18411062409  C 31.7325842385546 1296.18411062409  13.5828015620754 1319  13.5828015620754 1319  C 13.5828015620754 1319  31.7325842385546 1341.81588937591  31.7325842385546 1341.81588937591  C 31.7325842385546 1341.81588937591  35.5802465369107 1346.5  35.5802465369107 1346.5  C 35.5802465369107 1346.5  35.5 1346.5  35.5 1346.5  C 35.5 1346.5  35.5 1291.5  35.5 1291.5  C 35.5 1291.5  35.5802465369107 1291.5  35.5802465369107 1291.5  Z " fill-rule="nonzero" fill="#ffffff" stroke="none" />
    <path d="M 35.5802465369107 1291.5  C 35.5802465369107 1291.5  31.7325842385546 1296.18411062409  31.7325842385546 1296.18411062409  C 31.7325842385546 1296.18411062409  13.5828015620754 1319  13.5828015620754 1319  C 13.5828015620754 1319  31.7325842385546 1341.81588937591  31.7325842385546 1341.81588937591  C 31.7325842385546 1341.81588937591  35.5802465369107 1346.5  35.5802465369107 1346.5  C 35.5802465369107 1346.5  35.5 1346.5  35.5 1346.5  C 35.5 1346.5  35.5 1291.5  35.5 1291.5  C 35.5 1291.5  35.5802465369107 1291.5  35.5802465369107 1291.5  Z " stroke-width="1" stroke="#797979" fill="none" />
  </g>
</svg>