<?xml version="1.0" encoding="utf-8"?>
<svg version="1.1" xmlns:xlink="http://www.w3.org/1999/xlink" width="402px" height="37px" xmlns="http://www.w3.org/2000/svg">
  <defs>
    <mask fill="white" id="clip24">
      <path d="M 4.73948863636361 36.7169148056245  L 0 22.6873217526575  L 3.06978383458646 14.0536686543946  L 9.20935150375938 6.37931034482759  L 15.3489191729323 2.30230749287011  L 21.2523496240601 0  L 402 0  L 398.288352272727 36.7169148056245  L 4.73948863636361 36.7169148056245  Z " fill-rule="evenodd" />
    </mask>
  </defs>
  <g transform="matrix(1 0 0 1 -192 -1328 )">
    <path d="M 4.73948863636361 36.7169148056245  L 0 22.6873217526575  L 3.06978383458646 14.0536686543946  L 9.20935150375938 6.37931034482759  L 15.3489191729323 2.30230749287011  L 21.2523496240601 0  L 402 0  L 398.288352272727 36.7169148056245  L 4.73948863636361 36.7169148056245  Z " fill-rule="nonzero" fill="#ffffff" stroke="none" transform="matrix(1 0 0 1 192 1328 )" />
    <path d="M 4.73948863636361 36.7169148056245  L 0 22.6873217526575  L 3.06978383458646 14.0536686543946  L 9.20935150375938 6.37931034482759  L 15.3489191729323 2.30230749287011  L 21.2523496240601 0  L 402 0  L 398.288352272727 36.7169148056245  L 4.73948863636361 36.7169148056245  Z " stroke-width="6" stroke="#797979" fill="none" transform="matrix(1 0 0 1 192 1328 )" mask="url(#clip24)" />
  </g>
</svg>