<?xml version="1.0" encoding="utf-8"?>
<svg version="1.1" xmlns:xlink="http://www.w3.org/1999/xlink" width="23px" height="56px" xmlns="http://www.w3.org/2000/svg">
  <g transform="matrix(1 0 0 1 -635 -1292 )">
    <path d="M 635.419753463089 1292.5  C 635.419753463089 1292.5  639.267415761445 1297.18411062409  639.267415761445 1297.18411062409  C 639.267415761445 1297.18411062409  657.417198437925 1320  657.417198437925 1320  C 657.417198437925 1320  639.267415761445 1342.81588937591  639.267415761445 1342.81588937591  C 639.267415761445 1342.81588937591  635.419753463089 1347.5  635.419753463089 1347.5  C 635.419753463089 1347.5  635.5 1347.5  635.5 1347.5  C 635.5 1347.5  635.5 1292.5  635.5 1292.5  C 635.5 1292.5  635.419753463089 1292.5  635.419753463089 1292.5  Z " fill-rule="nonzero" fill="#ffffff" stroke="none" />
    <path d="M 635.419753463089 1292.5  C 635.419753463089 1292.5  639.267415761445 1297.18411062409  639.267415761445 1297.18411062409  C 639.267415761445 1297.18411062409  657.417198437925 1320  657.417198437925 1320  C 657.417198437925 1320  639.267415761445 1342.81588937591  639.267415761445 1342.81588937591  C 639.267415761445 1342.81588937591  635.419753463089 1347.5  635.419753463089 1347.5  C 635.419753463089 1347.5  635.5 1347.5  635.5 1347.5  C 635.5 1347.5  635.5 1292.5  635.5 1292.5  C 635.5 1292.5  635.419753463089 1292.5  635.419753463089 1292.5  Z " stroke-width="1" stroke="#797979" fill="none" />
  </g>
</svg>