<?xml version="1.0" encoding="utf-8"?>
<svg version="1.1" xmlns:xlink="http://www.w3.org/1999/xlink" width="405px" height="73px" xmlns="http://www.w3.org/2000/svg">
  <defs>
    <mask fill="white" id="clip9">
      <path d="M 40.1289640591966 57.7652173913043  C 28.3410014559782 54.3671295209959  7.43575141448649 39.5506111206832  5.02325581395352 35.5478260869565  C 0.631110855653448 28.2604295415875  0.0458210296404707 20.5082532221601  0.905410402093365 17.1391304347826  C 2.23715076204687 11.9194325913966  5.6892177589852 2.88537549407119  17.5813953488372 0.634782608695652  C 29.4735729386892 -1.61581027667989  42.8403805496827 6.83192797540657  48.9767441860465 7.61739130434783  C 85.7949260042283 12.3301712779973  133.766600605145 11.3683794466403  201.485525944525 11.3683794466403  C 246.004115387879 11.3683794466403  327.919661733615 12.0223978919631  344.093023255814 10.098814229249  C 360.266384778013 8.17523056653491  379.136391385143 -2.53913043478261  391.033826638478 0.634782608695652  C 397.784290128926 2.43562318194878  402.833622644612 11.037910873215  404.372093023256 17.6510518934082  C 405.545118195249 22.6933204936433  404.12350407055 25.6427248887606  403.122066230843 29.0595872570628  C 400.80720180045 36.9578040472853  382.319238900634 49.7631093544137  378.190274841438 52.6869565217391  C 374.061310782241 55.6108036890646  355.643055259228 66.1772781665878  350.372093023256 67.6332015810276  C 315.551797040169 77.2511198945981  256.244650591344 70.4608695652174  201.485525944525 70.4608695652174  C 147.201975731125 70.4608695652174  108.240128267903 71.2376356216829  82.5111734111779 70.4608695652174  C 68.3218395875701 70.0324886636451  54.1464137220361 61.805994179903  40.1289640591966 57.7652173913043  Z " fill-rule="evenodd" />
    </mask>
  </defs>
  <g transform="matrix(1 0 0 1 -192 -1231 )">
    <path d="M 40.1289640591966 57.7652173913043  C 28.3410014559782 54.3671295209959  7.43575141448649 39.5506111206832  5.02325581395352 35.5478260869565  C 0.631110855653448 28.2604295415875  0.0458210296404707 20.5082532221601  0.905410402093365 17.1391304347826  C 2.23715076204687 11.9194325913966  5.6892177589852 2.88537549407119  17.5813953488372 0.634782608695652  C 29.4735729386892 -1.61581027667989  42.8403805496827 6.83192797540657  48.9767441860465 7.61739130434783  C 85.7949260042283 12.3301712779973  133.766600605145 11.3683794466403  201.485525944525 11.3683794466403  C 246.004115387879 11.3683794466403  327.919661733615 12.0223978919631  344.093023255814 10.098814229249  C 360.266384778013 8.17523056653491  379.136391385143 -2.53913043478261  391.033826638478 0.634782608695652  C 397.784290128926 2.43562318194878  402.833622644612 11.037910873215  404.372093023256 17.6510518934082  C 405.545118195249 22.6933204936433  404.12350407055 25.6427248887606  403.122066230843 29.0595872570628  C 400.80720180045 36.9578040472853  382.319238900634 49.7631093544137  378.190274841438 52.6869565217391  C 374.061310782241 55.6108036890646  355.643055259228 66.1772781665878  350.372093023256 67.6332015810276  C 315.551797040169 77.2511198945981  256.244650591344 70.4608695652174  201.485525944525 70.4608695652174  C 147.201975731125 70.4608695652174  108.240128267903 71.2376356216829  82.5111734111779 70.4608695652174  C 68.3218395875701 70.0324886636451  54.1464137220361 61.805994179903  40.1289640591966 57.7652173913043  Z " fill-rule="nonzero" fill="#ffffff" stroke="none" fill-opacity="0" transform="matrix(1 0 0 1 192 1231 )" />
    <path d="M 40.1289640591966 57.7652173913043  C 28.3410014559782 54.3671295209959  7.43575141448649 39.5506111206832  5.02325581395352 35.5478260869565  C 0.631110855653448 28.2604295415875  0.0458210296404707 20.5082532221601  0.905410402093365 17.1391304347826  C 2.23715076204687 11.9194325913966  5.6892177589852 2.88537549407119  17.5813953488372 0.634782608695652  C 29.4735729386892 -1.61581027667989  42.8403805496827 6.83192797540657  48.9767441860465 7.61739130434783  C 85.7949260042283 12.3301712779973  133.766600605145 11.3683794466403  201.485525944525 11.3683794466403  C 246.004115387879 11.3683794466403  327.919661733615 12.0223978919631  344.093023255814 10.098814229249  C 360.266384778013 8.17523056653491  379.136391385143 -2.53913043478261  391.033826638478 0.634782608695652  C 397.784290128926 2.43562318194878  402.833622644612 11.037910873215  404.372093023256 17.6510518934082  C 405.545118195249 22.6933204936433  404.12350407055 25.6427248887606  403.122066230843 29.0595872570628  C 400.80720180045 36.9578040472853  382.319238900634 49.7631093544137  378.190274841438 52.6869565217391  C 374.061310782241 55.6108036890646  355.643055259228 66.1772781665878  350.372093023256 67.6332015810276  C 315.551797040169 77.2511198945981  256.244650591344 70.4608695652174  201.485525944525 70.4608695652174  C 147.201975731125 70.4608695652174  108.240128267903 71.2376356216829  82.5111734111779 70.4608695652174  C 68.3218395875701 70.0324886636451  54.1464137220361 61.805994179903  40.1289640591966 57.7652173913043  Z " stroke-width="12" stroke-dasharray="18,6" stroke="#797979" fill="none" transform="matrix(1 0 0 1 192 1231 )" mask="url(#clip9)" />
  </g>
</svg>