<?xml version="1.0" encoding="utf-8"?>
<svg version="1.1" xmlns:xlink="http://www.w3.org/1999/xlink" width="38px" height="38px" xmlns="http://www.w3.org/2000/svg">
  <g transform="matrix(1 0 0 1 -196 -1336 )">
    <path d="M 215 1337  C 225.08 1337  233 1344.92  233 1355  C 233 1365.08  225.08 1373  215 1373  C 204.92 1373  197 1365.08  197 1355  C 197 1344.92  204.92 1337  215 1337  Z " fill-rule="nonzero" fill="#ffffff" stroke="none" />
    <path d="M 215 1337  C 225.08 1337  233 1344.92  233 1355  C 233 1365.08  225.08 1373  215 1373  C 204.92 1373  197 1365.08  197 1355  C 197 1344.92  204.92 1337  215 1337  Z " stroke-width="2" stroke="#797979" fill="none" />
  </g>
</svg>