<?xml version="1.0" encoding="utf-8"?>
<svg version="1.1" xmlns:xlink="http://www.w3.org/1999/xlink" width="38px" height="38px" xmlns="http://www.w3.org/2000/svg">
  <g transform="matrix(1 0 0 1 -196 -1235 )">
    <path d="M 215 1236  C 225.08 1236  233 1243.92  233 1254  C 233 1264.08  225.08 1272  215 1272  C 204.92 1272  197 1264.08  197 1254  C 197 1243.92  204.92 1236  215 1236  Z " fill-rule="nonzero" fill="#ffffff" stroke="none" />
    <path d="M 215 1236  C 225.08 1236  233 1243.92  233 1254  C 233 1264.08  225.08 1272  215 1272  C 204.92 1272  197 1264.08  197 1254  C 197 1243.92  204.92 1236  215 1236  Z " stroke-width="2" stroke="#797979" fill="none" />
  </g>
</svg>