<?xml version="1.0" encoding="utf-8"?>
<svg version="1.1" xmlns:xlink="http://www.w3.org/1999/xlink" width="19px" height="19px" xmlns="http://www.w3.org/2000/svg">
  <g transform="matrix(1 0 0 1 -205 -1345 )">
    <path d="M 214.5 1345  C 219.82 1345  224 1349.18  224 1354.5  C 224 1359.82  219.82 1364  214.5 1364  C 209.18 1364  205 1359.82  205 1354.5  C 205 1349.18  209.18 1345  214.5 1345  Z " fill-rule="nonzero" fill="#ffffff" stroke="none" />
    <path d="M 214.5 1345.5  C 219.54 1345.5  223.5 1349.46  223.5 1354.5  C 223.5 1359.54  219.54 1363.5  214.5 1363.5  C 209.46 1363.5  205.5 1359.54  205.5 1354.5  C 205.5 1349.46  209.46 1345.5  214.5 1345.5  Z " stroke-width="1" stroke="#797979" fill="none" />
  </g>
</svg>