<?xml version="1.0" encoding="utf-8"?>
<svg version="1.1" xmlns:xlink="http://www.w3.org/1999/xlink" width="19px" height="19px" xmlns="http://www.w3.org/2000/svg">
  <g transform="matrix(1 0 0 1 -205 -1244 )">
    <path d="M 214.5 1244  C 219.82 1244  224 1248.18  224 1253.5  C 224 1258.82  219.82 1263  214.5 1263  C 209.18 1263  205 1258.82  205 1253.5  C 205 1248.18  209.18 1244  214.5 1244  Z " fill-rule="nonzero" fill="#ffffff" stroke="none" />
    <path d="M 214.5 1244.5  C 219.54 1244.5  223.5 1248.46  223.5 1253.5  C 223.5 1258.54  219.54 1262.5  214.5 1262.5  C 209.46 1262.5  205.5 1258.54  205.5 1253.5  C 205.5 1248.46  209.46 1244.5  214.5 1244.5  Z " stroke-width="1" stroke="#797979" fill="none" />
  </g>
</svg>