<?xml version="1.0" encoding="utf-8"?>
<svg version="1.1" xmlns:xlink="http://www.w3.org/1999/xlink" width="55px" height="55px" xmlns="http://www.w3.org/2000/svg">
  <g transform="matrix(1 0 0 1 -245 -1244 )">
    <path d="M 272.5 1244  C 287.9 1244  300 1256.1  300 1271.5  C 300 1286.9  287.9 1299  272.5 1299  C 257.1 1299  245 1286.9  245 1271.5  C 245 1256.1  257.1 1244  272.5 1244  Z " fill-rule="nonzero" fill="#555555" stroke="none" />
    <path d="M 272.5 1244.5  C 287.62 1244.5  299.5 1256.38  299.5 1271.5  C 299.5 1286.62  287.62 1298.5  272.5 1298.5  C 257.38 1298.5  245.5 1286.62  245.5 1271.5  C 245.5 1256.38  257.38 1244.5  272.5 1244.5  Z " stroke-width="1" stroke="#797979" fill="none" />
  </g>
</svg>