<?xml version="1.0" encoding="utf-8"?>
<svg version="1.1" xmlns:xlink="http://www.w3.org/1999/xlink" width="55px" height="55px" xmlns="http://www.w3.org/2000/svg">
  <g transform="matrix(1 0 0 1 -245 -1345 )">
    <path d="M 272.5 1345  C 287.9 1345  300 1357.1  300 1372.5  C 300 1387.9  287.9 1400  272.5 1400  C 257.1 1400  245 1387.9  245 1372.5  C 245 1357.1  257.1 1345  272.5 1345  Z " fill-rule="nonzero" fill="#555555" stroke="none" />
    <path d="M 272.5 1345.5  C 287.62 1345.5  299.5 1357.38  299.5 1372.5  C 299.5 1387.62  287.62 1399.5  272.5 1399.5  C 257.38 1399.5  245.5 1387.62  245.5 1372.5  C 245.5 1357.38  257.38 1345.5  272.5 1345.5  Z " stroke-width="1" stroke="#797979" fill="none" />
  </g>
</svg>