<?xml version="1.0" encoding="utf-8"?>
<svg version="1.1" xmlns:xlink="http://www.w3.org/1999/xlink" width="44px" height="44px" xmlns="http://www.w3.org/2000/svg">
  <g transform="matrix(1 0 0 1 -251 -1352 )">
    <path d="M 273 1352  C 285.32 1352  295 1361.68  295 1374  C 295 1386.32  285.32 1396  273 1396  C 260.68 1396  251 1386.32  251 1374  C 251 1361.68  260.68 1352  273 1352  Z " fill-rule="nonzero" fill="#ffffff" stroke="none" />
    <path d="M 273 1352.5  C 285.04 1352.5  294.5 1361.96  294.5 1374  C 294.5 1386.04  285.04 1395.5  273 1395.5  C 260.96 1395.5  251.5 1386.04  251.5 1374  C 251.5 1361.96  260.96 1352.5  273 1352.5  Z " stroke-width="1" stroke="#797979" fill="none" />
  </g>
</svg>