<?xml version="1.0" encoding="utf-8"?>
<svg version="1.1" xmlns:xlink="http://www.w3.org/1999/xlink" width="44px" height="44px" xmlns="http://www.w3.org/2000/svg">
  <g transform="matrix(1 0 0 1 -251 -1251 )">
    <path d="M 273 1251  C 285.32 1251  295 1260.68  295 1273  C 295 1285.32  285.32 1295  273 1295  C 260.68 1295  251 1285.32  251 1273  C 251 1260.68  260.68 1251  273 1251  Z " fill-rule="nonzero" fill="#ffffff" stroke="none" />
    <path d="M 273 1251.5  C 285.04 1251.5  294.5 1260.96  294.5 1273  C 294.5 1285.04  285.04 1294.5  273 1294.5  C 260.96 1294.5  251.5 1285.04  251.5 1273  C 251.5 1260.96  260.96 1251.5  273 1251.5  Z " stroke-width="1" stroke="#797979" fill="none" />
  </g>
</svg>