<?xml version="1.0" encoding="utf-8"?>
<svg version="1.1" xmlns:xlink="http://www.w3.org/1999/xlink" width="172px" height="48px" xmlns="http://www.w3.org/2000/svg">
  <defs>
    <mask fill="white" id="clip12">
      <path d="M 172 48  L 0 48  C 0 21.8181818181818  37.84 1.24675324675325  86 1.24675324675325  C 107.155101382556 1.24675324675325  132.050580110017 -2.7792781950885  146.890510948905 3.89138134592681  C 165.833971466873 12.406608068742  172 33.3189919929328  172 48  Z " fill-rule="evenodd" />
    </mask>
  </defs>
  <g transform="matrix(1 0 0 1 -292 -1163 )">
    <path d="M 172 48  L 0 48  C 0 21.8181818181818  37.84 1.24675324675325  86 1.24675324675325  C 107.155101382556 1.24675324675325  132.050580110017 -2.7792781950885  146.890510948905 3.89138134592681  C 165.833971466873 12.406608068742  172 33.3189919929328  172 48  Z " fill-rule="nonzero" fill="#ffffff" stroke="none" transform="matrix(1 0 0 1 292 1163 )" />
    <path d="M 172 48  L 0 48  C 0 21.8181818181818  37.84 1.24675324675325  86 1.24675324675325  C 107.155101382556 1.24675324675325  132.050580110017 -2.7792781950885  146.890510948905 3.89138134592681  C 165.833971466873 12.406608068742  172 33.3189919929328  172 48  Z " stroke-width="6" stroke="#797979" fill="none" transform="matrix(1 0 0 1 292 1163 )" mask="url(#clip12)" />
  </g>
</svg>