<?xml version="1.0" encoding="utf-8"?>
<svg version="1.1" xmlns:xlink="http://www.w3.org/1999/xlink" width="25px" height="25px" xmlns="http://www.w3.org/2000/svg">
  <g transform="matrix(1 0 0 1 -587 -1304 )">
    <path d="M 599.5 1305  C 605.94 1305  611 1310.06  611 1316.5  C 611 1322.94  605.94 1328  599.5 1328  C 593.06 1328  588 1322.94  588 1316.5  C 588 1310.06  593.06 1305  599.5 1305  Z " fill-rule="nonzero" fill="#ffffff" stroke="none" />
    <path d="M 599.5 1305  C 605.94 1305  611 1310.06  611 1316.5  C 611 1322.94  605.94 1328  599.5 1328  C 593.06 1328  588 1322.94  588 1316.5  C 588 1310.06  593.06 1305  599.5 1305  Z " stroke-width="2" stroke="#797979" fill="none" />
  </g>
</svg>