<?xml version="1.0" encoding="utf-8"?>
<svg version="1.1" xmlns:xlink="http://www.w3.org/1999/xlink" width="25px" height="25px" xmlns="http://www.w3.org/2000/svg">
  <g transform="matrix(1 0 0 1 -587 -1203 )">
    <path d="M 599.5 1204  C 605.94 1204  611 1209.06  611 1215.5  C 611 1221.94  605.94 1227  599.5 1227  C 593.06 1227  588 1221.94  588 1215.5  C 588 1209.06  593.06 1204  599.5 1204  Z " fill-rule="nonzero" fill="#ffffff" stroke="none" />
    <path d="M 599.5 1204  C 605.94 1204  611 1209.06  611 1215.5  C 611 1221.94  605.94 1227  599.5 1227  C 593.06 1227  588 1221.94  588 1215.5  C 588 1209.06  593.06 1204  599.5 1204  Z " stroke-width="2" stroke="#797979" fill="none" />
  </g>
</svg>