<?xml version="1.0" encoding="utf-8"?>
<svg version="1.1" xmlns:xlink="http://www.w3.org/1999/xlink" width="21px" height="21px" xmlns="http://www.w3.org/2000/svg">
  <g transform="matrix(1 0 0 1 -589 -1204 )">
    <path d="M 599.5 1205  C 604.82 1205  609 1209.18  609 1214.5  C 609 1219.82  604.82 1224  599.5 1224  C 594.18 1224  590 1219.82  590 1214.5  C 590 1209.18  594.18 1205  599.5 1205  Z " fill-rule="nonzero" fill="#ffffff" stroke="none" />
    <path d="M 599.5 1205  C 604.82 1205  609 1209.18  609 1214.5  C 609 1219.82  604.82 1224  599.5 1224  C 594.18 1224  590 1219.82  590 1214.5  C 590 1209.18  594.18 1205  599.5 1205  Z " stroke-width="2" stroke="#797979" fill="none" />
  </g>
</svg>