<?xml version="1.0" encoding="utf-8"?>
<svg version="1.1" xmlns:xlink="http://www.w3.org/1999/xlink" width="21px" height="21px" xmlns="http://www.w3.org/2000/svg">
  <g transform="matrix(1 0 0 1 -589 -1305 )">
    <path d="M 599.5 1306  C 604.82 1306  609 1310.18  609 1315.5  C 609 1320.82  604.82 1325  599.5 1325  C 594.18 1325  590 1320.82  590 1315.5  C 590 1310.18  594.18 1306  599.5 1306  Z " fill-rule="nonzero" fill="#ffffff" stroke="none" />
    <path d="M 599.5 1306  C 604.82 1306  609 1310.18  609 1315.5  C 609 1320.82  604.82 1325  599.5 1325  C 594.18 1325  590 1320.82  590 1315.5  C 590 1310.18  594.18 1306  599.5 1306  Z " stroke-width="2" stroke="#797979" fill="none" />
  </g>
</svg>