<?xml version="1.0" encoding="utf-8"?>
<svg version="1.1" xmlns:xlink="http://www.w3.org/1999/xlink" width="4px" height="4px" xmlns="http://www.w3.org/2000/svg">
  <g transform="matrix(1 0 0 1 -604 -1317 )">
    <path d="M 606 1318  C 606.56 1318  607 1318.44  607 1319  C 607 1319.56  606.56 1320  606 1320  C 605.44 1320  605 1319.56  605 1319  C 605 1318.44  605.44 1318  606 1318  Z " fill-rule="nonzero" fill="#ffffff" stroke="none" />
    <path d="M 606 1318  C 606.56 1318  607 1318.44  607 1319  C 607 1319.56  606.56 1320  606 1320  C 605.44 1320  605 1319.56  605 1319  C 605 1318.44  605.44 1318  606 1318  Z " stroke-width="2" stroke="#797979" fill="none" />
  </g>
</svg>