<?xml version="1.0" encoding="utf-8"?>
<svg version="1.1" xmlns:xlink="http://www.w3.org/1999/xlink" width="4px" height="4px" xmlns="http://www.w3.org/2000/svg">
  <g transform="matrix(1 0 0 1 -604 -1216 )">
    <path d="M 606 1217  C 606.56 1217  607 1217.44  607 1218  C 607 1218.56  606.56 1219  606 1219  C 605.44 1219  605 1218.56  605 1218  C 605 1217.44  605.44 1217  606 1217  Z " fill-rule="nonzero" fill="#ffffff" stroke="none" />
    <path d="M 606 1217  C 606.56 1217  607 1217.44  607 1218  C 607 1218.56  606.56 1219  606 1219  C 605.44 1219  605 1218.56  605 1218  C 605 1217.44  605.44 1217  606 1217  Z " stroke-width="2" stroke="#797979" fill="none" />
  </g>
</svg>