<?xml version="1.0" encoding="utf-8"?>
<svg version="1.1" xmlns:xlink="http://www.w3.org/1999/xlink" width="13px" height="13px" xmlns="http://www.w3.org/2000/svg">
  <g transform="matrix(1 0 0 1 -207 -1348 )">
    <path d="M 213.5 1348  C 217.14 1348  220 1350.86  220 1354.5  C 220 1358.14  217.14 1361  213.5 1361  C 209.86 1361  207 1358.14  207 1354.5  C 207 1350.86  209.86 1348  213.5 1348  Z " fill-rule="nonzero" fill="#ffffff" stroke="none" />
    <path d="M 213.5 1348.5  C 216.86 1348.5  219.5 1351.14  219.5 1354.5  C 219.5 1357.86  216.86 1360.5  213.5 1360.5  C 210.14 1360.5  207.5 1357.86  207.5 1354.5  C 207.5 1351.14  210.14 1348.5  213.5 1348.5  Z " stroke-width="1" stroke="#797979" fill="none" />
  </g>
</svg>