<?xml version="1.0" encoding="utf-8"?>
<svg version="1.1" xmlns:xlink="http://www.w3.org/1999/xlink" width="13px" height="13px" xmlns="http://www.w3.org/2000/svg">
  <g transform="matrix(1 0 0 1 -207 -1247 )">
    <path d="M 213.5 1247  C 217.14 1247  220 1249.86  220 1253.5  C 220 1257.14  217.14 1260  213.5 1260  C 209.86 1260  207 1257.14  207 1253.5  C 207 1249.86  209.86 1247  213.5 1247  Z " fill-rule="nonzero" fill="#ffffff" stroke="none" />
    <path d="M 213.5 1247.5  C 216.86 1247.5  219.5 1250.14  219.5 1253.5  C 219.5 1256.86  216.86 1259.5  213.5 1259.5  C 210.14 1259.5  207.5 1256.86  207.5 1253.5  C 207.5 1250.14  210.14 1247.5  213.5 1247.5  Z " stroke-width="1" stroke="#797979" fill="none" />
  </g>
</svg>