<?xml version="1.0" encoding="utf-8"?>
<svg version="1.1" xmlns:xlink="http://www.w3.org/1999/xlink" width="40px" height="40px" xmlns="http://www.w3.org/2000/svg">
  <g transform="matrix(1 0 0 1 -555 -1334 )">
    <path d="M 571.599534026212 1349.3196601125  L 575 1338.85410196625  L 578.400465973788 1349.3196601125  L 589.40460502014 1349.3196601125  L 580.502069523176 1355.78773075812  L 583.902535496964 1366.25328890437  L 575 1359.78521825875  L 566.097464503036 1366.25328890437  L 569.497930476824 1355.78773075812  L 560.59539497986 1349.3196601125  L 571.599534026212 1349.3196601125  Z " fill-rule="nonzero" fill="#ffffff" stroke="none" />
    <path d="M 570.509720234204 1347.8196601125  L 575 1334  L 579.490279765796 1347.8196601125  L 594.021130325903 1347.8196601125  L 582.265425280054 1356.360679775  L 586.755705045849 1370.1803398875  L 575 1361.639320225  L 563.244294954151 1370.1803398875  L 567.734574719946 1356.360679775  L 555.978869674097 1347.8196601125  L 570.509720234204 1347.8196601125  Z M 575 1340.472135955  L 571.962805290215 1349.8196601125  L 562.134236748447 1349.8196601125  L 570.085715729116 1355.5967477525  L 567.048521019331 1364.94427191  L 575 1359.16718427  L 582.951478980669 1364.94427191  L 579.914284270884 1355.5967477525  L 587.865763251553 1349.8196601125  L 578.037194709785 1349.8196601125  L 575 1340.472135955  Z " fill-rule="nonzero" fill="#555555" stroke="none" />
  </g>
</svg>