<?xml version="1.0" encoding="utf-8"?>
<svg version="1.1" xmlns:xlink="http://www.w3.org/1999/xlink" width="40px" height="40px" xmlns="http://www.w3.org/2000/svg">
  <g transform="matrix(1 0 0 1 -555 -1233 )">
    <path d="M 571.599534026212 1248.3196601125  L 575 1237.85410196625  L 578.400465973788 1248.3196601125  L 589.40460502014 1248.3196601125  L 580.502069523176 1254.78773075812  L 583.902535496964 1265.25328890437  L 575 1258.78521825875  L 566.097464503036 1265.25328890437  L 569.497930476824 1254.78773075812  L 560.59539497986 1248.3196601125  L 571.599534026212 1248.3196601125  Z " fill-rule="nonzero" fill="#ffffff" stroke="none" />
    <path d="M 570.509720234204 1246.8196601125  L 575 1233  L 579.490279765796 1246.8196601125  L 594.021130325903 1246.8196601125  L 582.265425280054 1255.360679775  L 586.755705045849 1269.1803398875  L 575 1260.639320225  L 563.244294954151 1269.1803398875  L 567.734574719946 1255.360679775  L 555.978869674097 1246.8196601125  L 570.509720234204 1246.8196601125  Z M 575 1239.472135955  L 571.962805290215 1248.8196601125  L 562.134236748447 1248.8196601125  L 570.085715729116 1254.5967477525  L 567.048521019331 1263.94427191  L 575 1258.16718427  L 582.951478980669 1263.94427191  L 579.914284270884 1254.5967477525  L 587.865763251553 1248.8196601125  L 578.037194709785 1248.8196601125  L 575 1239.472135955  Z " fill-rule="nonzero" fill="#555555" stroke="none" />
  </g>
</svg>