<?xml version="1.0" encoding="utf-8"?>
<svg version="1.1" xmlns:xlink="http://www.w3.org/1999/xlink" width="25px" height="25px" xmlns="http://www.w3.org/2000/svg">
  <g transform="matrix(1 0 0 1 -564 -1341 )">
    <path d="M 576.5 1341  C 583.5 1341  589 1346.5  589 1353.5  C 589 1360.5  583.5 1366  576.5 1366  C 569.5 1366  564 1360.5  564 1353.5  C 564 1346.5  569.5 1341  576.5 1341  Z " fill-rule="nonzero" fill="#ffffff" stroke="none" />
    <path d="M 576.5 1341.5  C 583.22 1341.5  588.5 1346.78  588.5 1353.5  C 588.5 1360.22  583.22 1365.5  576.5 1365.5  C 569.78 1365.5  564.5 1360.22  564.5 1353.5  C 564.5 1346.78  569.78 1341.5  576.5 1341.5  Z " stroke-width="1" stroke="#555555" fill="none" />
  </g>
</svg>