<?xml version="1.0" encoding="utf-8"?>
<svg version="1.1" xmlns:xlink="http://www.w3.org/1999/xlink" width="25px" height="25px" xmlns="http://www.w3.org/2000/svg">
  <g transform="matrix(1 0 0 1 -564 -1240 )">
    <path d="M 576.5 1240  C 583.5 1240  589 1245.5  589 1252.5  C 589 1259.5  583.5 1265  576.5 1265  C 569.5 1265  564 1259.5  564 1252.5  C 564 1245.5  569.5 1240  576.5 1240  Z " fill-rule="nonzero" fill="#ffffff" stroke="none" />
    <path d="M 576.5 1240.5  C 583.22 1240.5  588.5 1245.78  588.5 1252.5  C 588.5 1259.22  583.22 1264.5  576.5 1264.5  C 569.78 1264.5  564.5 1259.22  564.5 1252.5  C 564.5 1245.78  569.78 1240.5  576.5 1240.5  Z " stroke-width="1" stroke="#555555" fill="none" />
  </g>
</svg>