<?xml version="1.0" encoding="utf-8"?>
<svg version="1.1" xmlns:xlink="http://www.w3.org/1999/xlink" width="11px" height="11px" xmlns="http://www.w3.org/2000/svg">
  <g transform="matrix(1 0 0 1 -568 -1246 )">
    <path d="M 573.5 1247  C 576.02 1247  578 1248.98  578 1251.5  C 578 1254.02  576.02 1256  573.5 1256  C 570.98 1256  569 1254.02  569 1251.5  C 569 1248.98  570.98 1247  573.5 1247  Z " fill-rule="nonzero" fill="#ffffff" stroke="none" />
    <path d="M 573.5 1247  C 576.02 1247  578 1248.98  578 1251.5  C 578 1254.02  576.02 1256  573.5 1256  C 570.98 1256  569 1254.02  569 1251.5  C 569 1248.98  570.98 1247  573.5 1247  Z " stroke-width="2" stroke="#797979" fill="none" />
  </g>
</svg>