<?xml version="1.0" encoding="utf-8"?>
<svg version="1.1" xmlns:xlink="http://www.w3.org/1999/xlink" width="11px" height="11px" xmlns="http://www.w3.org/2000/svg">
  <g transform="matrix(1 0 0 1 -568 -1347 )">
    <path d="M 573.5 1348  C 576.02 1348  578 1349.98  578 1352.5  C 578 1355.02  576.02 1357  573.5 1357  C 570.98 1357  569 1355.02  569 1352.5  C 569 1349.98  570.98 1348  573.5 1348  Z " fill-rule="nonzero" fill="#ffffff" stroke="none" />
    <path d="M 573.5 1348  C 576.02 1348  578 1349.98  578 1352.5  C 578 1355.02  576.02 1357  573.5 1357  C 570.98 1357  569 1355.02  569 1352.5  C 569 1349.98  570.98 1348  573.5 1348  Z " stroke-width="2" stroke="#797979" fill="none" />
  </g>
</svg>