<?xml version="1.0" encoding="utf-8"?>
<svg version="1.1" xmlns:xlink="http://www.w3.org/1999/xlink" width="70px" height="20px" xmlns="http://www.w3.org/2000/svg">
  <defs>
    <mask fill="white" id="clip1">
      <path d="M 0 14.4444444444444  L 0 5.55555555555556  C 0 2.44444444444449  1.42592592592596 0  3.24074074074074 0  L 66.7592592592593 0  C 68.574074074074 0  70 2.44444444444449  70 5.55555555555556  L 70 14.4444444444444  C 70 17.5555555555555  68.574074074074 20  66.7592592592593 20  L 47.3148148148148 20  L 3.24074074074074 20  C 1.42592592592596 20  0 17.5555555555555  0 14.4444444444444  Z " fill-rule="evenodd" />
    </mask>
  </defs>
  <g transform="matrix(1 0 0 1 -1061 -739 )">
    <path d="M 0 14.4444444444444  L 0 5.55555555555556  C 0 2.44444444444449  1.42592592592596 0  3.24074074074074 0  L 66.7592592592593 0  C 68.574074074074 0  70 2.44444444444449  70 5.55555555555556  L 70 14.4444444444444  C 70 17.5555555555555  68.574074074074 20  66.7592592592593 20  L 47.3148148148148 20  L 3.24074074074074 20  C 1.42592592592596 20  0 17.5555555555555  0 14.4444444444444  Z " fill-rule="nonzero" fill="#ffffff" stroke="none" transform="matrix(1 0 0 1 1061 739 )" />
    <path d="M 0 14.4444444444444  L 0 5.55555555555556  C 0 2.44444444444449  1.42592592592596 0  3.24074074074074 0  L 66.7592592592593 0  C 68.574074074074 0  70 2.44444444444449  70 5.55555555555556  L 70 14.4444444444444  C 70 17.5555555555555  68.574074074074 20  66.7592592592593 20  L 47.3148148148148 20  L 3.24074074074074 20  C 1.42592592592596 20  0 17.5555555555555  0 14.4444444444444  Z " stroke-width="2" stroke="#797979" fill="none" transform="matrix(1 0 0 1 1061 739 )" mask="url(#clip1)" />
  </g>
</svg>