<?xml version="1.0" encoding="utf-8"?>
<svg version="1.1" xmlns:xlink="http://www.w3.org/1999/xlink" width="60px" height="60px" xmlns="http://www.w3.org/2000/svg">
  <g transform="matrix(1 0 0 1 -53 -1080 )">
    <path d="M 83 1080  C 99.8 1080  113 1093.2  113 1110  C 113 1126.8  99.8 1140  83 1140  C 66.2 1140  53 1126.8  53 1110  C 53 1093.2  66.2 1080  83 1080  Z " fill-rule="nonzero" fill="#ffffff" stroke="none" />
    <path d="M 83 1080.5  C 99.52 1080.5  112.5 1093.48  112.5 1110  C 112.5 1126.52  99.52 1139.5  83 1139.5  C 66.48 1139.5  53.5 1126.52  53.5 1110  C 53.5 1093.48  66.48 1080.5  83 1080.5  Z " stroke-width="1" stroke="#797979" fill="none" />
  </g>
</svg>