<?xml version="1.0" encoding="utf-8"?>
<svg version="1.1" xmlns:xlink="http://www.w3.org/1999/xlink" width="51px" height="51px" xmlns="http://www.w3.org/2000/svg">
  <g transform="matrix(1 0 0 1 -212 -952 )">
    <path d="M 237.5 952  C 251.78 952  263 963.22  263 977.5  C 263 991.78  251.78 1003  237.5 1003  C 223.22 1003  212 991.78  212 977.5  C 212 963.22  223.22 952  237.5 952  Z " fill-rule="nonzero" fill="#70b603" stroke="none" />
    <path d="M 237.5 952.5  C 251.5 952.5  262.5 963.5  262.5 977.5  C 262.5 991.5  251.5 1002.5  237.5 1002.5  C 223.5 1002.5  212.5 991.5  212.5 977.5  C 212.5 963.5  223.5 952.5  237.5 952.5  Z " stroke-width="1" stroke="#797979" fill="none" />
  </g>
</svg>