<?xml version="1.0" encoding="utf-8"?>
<svg version="1.1" xmlns:xlink="http://www.w3.org/1999/xlink" width="51px" height="51px" xmlns="http://www.w3.org/2000/svg">
  <g transform="matrix(1 0 0 1 -467 -952 )">
    <path d="M 492.5 952  C 506.78 952  518 963.22  518 977.5  C 518 991.78  506.78 1003  492.5 1003  C 478.22 1003  467 991.78  467 977.5  C 467 963.22  478.22 952  492.5 952  Z " fill-rule="nonzero" fill="#f59a23" stroke="none" />
    <path d="M 492.5 952.5  C 506.5 952.5  517.5 963.5  517.5 977.5  C 517.5 991.5  506.5 1002.5  492.5 1002.5  C 478.5 1002.5  467.5 991.5  467.5 977.5  C 467.5 963.5  478.5 952.5  492.5 952.5  Z " stroke-width="1" stroke="#797979" fill="none" />
  </g>
</svg>