<?xml version="1.0" encoding="utf-8"?>
<svg version="1.1" xmlns:xlink="http://www.w3.org/1999/xlink" width="205px" height="205px" xmlns="http://www.w3.org/2000/svg">
  <g transform="matrix(1 0 0 1 -243 -1715 )">
    <path d="M 345.5 1715  C 402.9 1715  448 1760.1  448 1817.5  C 448 1874.9  402.9 1920  345.5 1920  C 288.1 1920  243 1874.9  243 1817.5  C 243 1760.1  288.1 1715  345.5 1715  Z " fill-rule="nonzero" fill="#ffffff" stroke="none" />
    <path d="M 345.5 1715.5  C 402.62 1715.5  447.5 1760.38  447.5 1817.5  C 447.5 1874.62  402.62 1919.5  345.5 1919.5  C 288.38 1919.5  243.5 1874.62  243.5 1817.5  C 243.5 1760.38  288.38 1715.5  345.5 1715.5  Z " stroke-width="1" stroke="#797979" fill="none" />
  </g>
</svg>