<?xml version="1.0" encoding="utf-8"?>
<svg version="1.1" xmlns:xlink="http://www.w3.org/1999/xlink" width="269px" height="269px" xmlns="http://www.w3.org/2000/svg">
  <g transform="matrix(1 0 0 1 -212 -1684 )">
    <path d="M 316.666139839026 1777.43721425657  L 346.5 1685.61803398875  L 376.333860160974 1777.43721425657  L 472.878259673111 1777.43721425657  L 394.772199756068 1834.18458848124  L 424.606059917043 1926.00376874906  L 346.5 1869.25639452439  L 268.393940082958 1926.00376874906  L 298.227800243932 1834.18458848124  L 220.121740326889 1777.43721425657  L 316.666139839026 1777.43721425657  Z " fill-rule="nonzero" fill="#ffffff" stroke="none" />
    <path d="M 316.302868575023 1776.93721425657  L 346.5 1684  L 376.697131424977 1776.93721425657  L 474.417101441698 1776.93721425657  L 395.359985008361 1834.37557148686  L 425.557116433338 1927.31278574343  L 346.5 1869.87442851314  L 267.442883566662 1927.31278574343  L 297.640014991639 1834.37557148686  L 218.582898558302 1776.93721425657  L 316.302868575023 1776.93721425657  Z M 346.5 1687.2360679775  L 317.029411103028 1777.93721425657  L 221.660582095477 1777.93721425657  L 298.815585496224 1833.99360547561  L 269.344996599253 1924.69475175468  L 346.5 1868.63836053564  L 423.655003400747 1924.69475175468  L 394.184414503776 1833.99360547561  L 471.339417904523 1777.93721425657  L 375.970588896972 1777.93721425657  L 346.5 1687.2360679775  Z " fill-rule="nonzero" fill="#797979" stroke="none" />
  </g>
</svg>