<?xml version="1.0" encoding="utf-8"?>
<svg version="1.1" xmlns:xlink="http://www.w3.org/1999/xlink" width="140px" height="140px" xmlns="http://www.w3.org/2000/svg">
  <g transform="matrix(1 0 0 1 -276 -1748 )">
    <path d="M 346 1748  C 385.2 1748  416 1778.8  416 1818  C 416 1857.2  385.2 1888  346 1888  C 306.8 1888  276 1857.2  276 1818  C 276 1778.8  306.8 1748  346 1748  Z " fill-rule="nonzero" fill="#ffffff" stroke="none" />
    <path d="M 346 1748.5  C 384.92 1748.5  415.5 1779.08  415.5 1818  C 415.5 1856.92  384.92 1887.5  346 1887.5  C 307.08 1887.5  276.5 1856.92  276.5 1818  C 276.5 1779.08  307.08 1748.5  346 1748.5  Z " stroke-width="1" stroke="#797979" fill="none" />
  </g>
</svg>