<?xml version="1.0" encoding="utf-8"?>
<svg version="1.1" xmlns:xlink="http://www.w3.org/1999/xlink" width="83px" height="83px" xmlns="http://www.w3.org/2000/svg">
  <g transform="matrix(1 0 0 1 -305 -1777 )">
    <path d="M 346.5 1777  C 369.74 1777  388 1795.26  388 1818.5  C 388 1841.74  369.74 1860  346.5 1860  C 323.26 1860  305 1841.74  305 1818.5  C 305 1795.26  323.26 1777  346.5 1777  Z " fill-rule="nonzero" fill="#ffffff" stroke="none" />
    <path d="M 346.5 1777.5  C 369.46 1777.5  387.5 1795.54  387.5 1818.5  C 387.5 1841.46  369.46 1859.5  346.5 1859.5  C 323.54 1859.5  305.5 1841.46  305.5 1818.5  C 305.5 1795.54  323.54 1777.5  346.5 1777.5  Z " stroke-width="1" stroke="#797979" fill="none" />
  </g>
</svg>