<?xml version="1.0" encoding="utf-8"?>
<svg version="1.1" xmlns:xlink="http://www.w3.org/1999/xlink" width="50px" height="50px" xmlns="http://www.w3.org/2000/svg">
  <g transform="matrix(1 0 0 1 -183 -2026 )">
    <path d="M 208 2026  C 222 2026  233 2037  233 2051  C 233 2065  222 2076  208 2076  C 194 2076  183 2065  183 2051  C 183 2037  194 2026  208 2026  Z " fill-rule="nonzero" fill="#ffffff" stroke="none" />
    <path d="M 208 2026.5  C 221.72 2026.5  232.5 2037.28  232.5 2051  C 232.5 2064.72  221.72 2075.5  208 2075.5  C 194.28 2075.5  183.5 2064.72  183.5 2051  C 183.5 2037.28  194.28 2026.5  208 2026.5  Z " stroke-width="1" stroke="#797979" fill="none" />
  </g>
</svg>