<?xml version="1.0" encoding="utf-8"?>
<svg version="1.1" xmlns:xlink="http://www.w3.org/1999/xlink" width="22px" height="72px" xmlns="http://www.w3.org/2000/svg">
  <defs>
    <linearGradient gradientUnits="userSpaceOnUse" x1="787" y1="752" x2="776.11" y2="752" id="LinearGradient163">
      <stop id="Stop164" stop-color="#f2f2f2" offset="0" />
      <stop id="Stop165" stop-color="#ffffff" offset="1" />
    </linearGradient>
  </defs>
  <g transform="matrix(1 0 0 1 -776 -716 )">
    <path d="M 797.5 720.4  C 797.5 720.4  797.5 783.6  797.5 783.6  C 797.5 785.952  792.46 787.5  787 787.5  C 781.54 787.5  776.5 785.952  776.5 783.6  C 776.5 783.6  776.5 720.4  776.5 720.4  C 776.5 718.048  781.54 716.5  787 716.5  C 792.46 716.5  797.5 718.048  797.5 720.4  Z " fill-rule="nonzero" fill="url(#LinearGradient163)" stroke="none" />
    <path d="M 776.5 720.838888888889  C 776.5 718.409111111111  781.12 716.5  787 716.5  C 792.88 716.5  797.5 718.409111111111  797.5 720.838888888889  C 797.5 720.838888888889  797.5 783.161111111111  797.5 783.161111111111  C 797.5 785.590888888889  792.88 787.5  787 787.5  C 781.12 787.5  776.5 785.590888888889  776.5 783.161111111111  C 776.5 783.161111111111  776.5 720.838888888889  776.5 720.838888888889  Z " stroke-width="1" stroke="#797979" fill="none" />
    <path d="M 797.5 720.4  C 797.5 722.584  792.88 724.3  787 724.3  C 781.12 724.3  776.5 722.584  776.5 720.4  " stroke-width="1" stroke="#797979" fill="none" />
  </g>
</svg>