<?xml version="1.0" encoding="utf-8"?>
<svg version="1.1" xmlns:xlink="http://www.w3.org/1999/xlink" width="78px" height="56px" xmlns="http://www.w3.org/2000/svg">
  <defs>
    <filter x="1056px" y="695px" width="78px" height="56px" filterUnits="userSpaceOnUse" id="filter172">
      <feOffset dx="1" dy="1" in="SourceAlpha" result="shadowOffsetInner" />
      <feGaussianBlur stdDeviation="2.5" in="shadowOffsetInner" result="shadowGaussian" />
      <feComposite in2="shadowGaussian" operator="atop" in="SourceAlpha" result="shadowComposite" />
      <feColorMatrix type="matrix" values="0 0 0 0 0  0 0 0 0 0  0 0 0 0 0  0 0 0 0.698039215686274 0  " in="shadowComposite" />
    </filter>
    <g id="widget173">
      <path d="M 1094 699  C 1113.04 699  1128 709.12  1128 722  C 1128 734.88  1113.04 745  1094 745  C 1074.96 745  1060 734.88  1060 722  C 1060 709.12  1074.96 699  1094 699  Z " fill-rule="nonzero" fill="#f8d438" stroke="none" />
      <path d="M 1094 699.5  C 1112.76 699.5  1127.5 709.4  1127.5 722  C 1127.5 734.6  1112.76 744.5  1094 744.5  C 1075.24 744.5  1060.5 734.6  1060.5 722  C 1060.5 709.4  1075.24 699.5  1094 699.5  Z " stroke-width="1" stroke="#ffffff" fill="none" />
    </g>
  </defs>
  <g transform="matrix(1 0 0 1 -1056 -695 )">
    <use xlink:href="#widget173" filter="url(#filter172)" />
    <use xlink:href="#widget173" />
  </g>
</svg>