<?xml version="1.0" encoding="utf-8"?>
<svg version="1.1" xmlns:xlink="http://www.w3.org/1999/xlink" width="78px" height="56px" xmlns="http://www.w3.org/2000/svg">
  <defs>
    <filter x="866px" y="666px" width="78px" height="56px" filterUnits="userSpaceOnUse" id="filter178">
      <feOffset dx="1" dy="1" in="SourceAlpha" result="shadowOffsetInner" />
      <feGaussianBlur stdDeviation="2.5" in="shadowOffsetInner" result="shadowGaussian" />
      <feComposite in2="shadowGaussian" operator="atop" in="SourceAlpha" result="shadowComposite" />
      <feColorMatrix type="matrix" values="0 0 0 0 0  0 0 0 0 0  0 0 0 0 0  0 0 0 0.698039215686274 0  " in="shadowComposite" />
    </filter>
    <g id="widget179">
      <path d="M 904 670  C 923.04 670  938 680.12  938 693  C 938 705.88  923.04 716  904 716  C 884.96 716  870 705.88  870 693  C 870 680.12  884.96 670  904 670  Z " fill-rule="nonzero" fill="#f59a23" stroke="none" />
      <path d="M 904 670.5  C 922.76 670.5  937.5 680.4  937.5 693  C 937.5 705.6  922.76 715.5  904 715.5  C 885.24 715.5  870.5 705.6  870.5 693  C 870.5 680.4  885.24 670.5  904 670.5  Z " stroke-width="1" stroke="#ffffff" fill="none" />
    </g>
  </defs>
  <g transform="matrix(1 0 0 1 -866 -666 )">
    <use xlink:href="#widget179" filter="url(#filter178)" />
    <use xlink:href="#widget179" />
  </g>
</svg>