<?xml version="1.0" encoding="utf-8"?>
<svg version="1.1" xmlns:xlink="http://www.w3.org/1999/xlink" width="60px" height="60px" xmlns="http://www.w3.org/2000/svg">
  <g transform="matrix(1 0 0 1 0 -300 )">
    <path d="M 30 300  C 46.8 300  60 313.2  60 330  C 60 346.8  46.8 360  30 360  C 13.2 360  0 346.8  0 330  C 0 313.2  13.2 300  30 300  Z " fill-rule="nonzero" fill="#ffffff" stroke="none" />
    <path d="M 30 300.5  C 46.52 300.5  59.5 313.48  59.5 330  C 59.5 346.52  46.52 359.5  30 359.5  C 13.48 359.5  0.5 346.52  0.5 330  C 0.5 313.48  13.48 300.5  30 300.5  Z " stroke-width="1" stroke="#797979" fill="none" />
  </g>
</svg>