<?xml version="1.0" encoding="utf-8"?>
<svg version="1.1" xmlns:xlink="http://www.w3.org/1999/xlink" width="30px" height="85px" xmlns="http://www.w3.org/2000/svg">
  <g transform="matrix(1 0 0 1 -835 -262 )">
    <path d="M 838.77639320225 268.113880262167  C 838.77639320225 268.113880262167  864.460713017191 304.5  864.460713017191 304.5  C 864.460713017191 304.5  838.77639320225 340.886119737833  838.77639320225 340.886119737833  C 838.77639320225 340.886119737833  835.5 345.527676774354  835.5 345.527676774354  C 835.5 345.527676774354  835.5 263.472323225646  835.5 263.472323225646  C 835.5 263.472323225646  838.77639320225 268.113880262167  838.77639320225 268.113880262167  Z " fill-rule="nonzero" fill="#f2f2f2" stroke="none" />
    <path d="M 838.77639320225 268.113880262167  C 838.77639320225 268.113880262167  864.460713017191 304.5  864.460713017191 304.5  C 864.460713017191 304.5  838.77639320225 340.886119737833  838.77639320225 340.886119737833  C 838.77639320225 340.886119737833  835.5 345.527676774354  835.5 345.527676774354  C 835.5 345.527676774354  835.5 263.472323225646  835.5 263.472323225646  C 835.5 263.472323225646  838.77639320225 268.113880262167  838.77639320225 268.113880262167  Z " stroke-width="1" stroke="#797979" fill="none" />
  </g>
</svg>