<?xml version="1.0" encoding="utf-8"?>
<svg version="1.1" xmlns:xlink="http://www.w3.org/1999/xlink" width="62px" height="63px" xmlns="http://www.w3.org/2000/svg">
  <defs>
    <pattern id="BGPattern" patternUnits="userSpaceOnUse" alignment="0 0" imageRepeat="None" />
    <mask fill="white" id="Clip305">
      <path d="M 0 31.5  C 0 13.859999999999998  13.639999999999999 0  31 0  C 48.36 0  62 13.859999999999998  62 31.5  C 62 49.14  48.36 63  31 63  C 13.639999999999999 63  0 49.14  0 31.5  Z " fill-rule="evenodd" />
    </mask>
  </defs>
  <g transform="matrix(1 0 0 1 -302 -1650 )">
    <path d="M 0 31.5  C 0 13.859999999999998  13.639999999999999 0  31 0  C 48.36 0  62 13.859999999999998  62 31.5  C 62 49.14  48.36 63  31 63  C 13.639999999999999 63  0 49.14  0 31.5  Z " fill-rule="nonzero" fill="rgba(255, 255, 255, 1)" stroke="none" transform="matrix(1 0 0 1 302 1650 )" class="fill" />
    <path d="M 0 31.5  C 0 13.859999999999998  13.639999999999999 0  31 0  C 48.36 0  62 13.859999999999998  62 31.5  C 62 49.14  48.36 63  31 63  C 13.639999999999999 63  0 49.14  0 31.5  Z " stroke-width="2" stroke-dasharray="0" stroke="rgba(121, 121, 121, 1)" fill="none" transform="matrix(1 0 0 1 302 1650 )" class="stroke" mask="url(#Clip305)" />
  </g>
</svg>