<?xml version="1.0" encoding="utf-8"?>
<svg version="1.1" xmlns:xlink="http://www.w3.org/1999/xlink" width="95px" height="95px" xmlns="http://www.w3.org/2000/svg">
  <g transform="matrix(1 0 0 1 -452 -1376 )">
    <path d="M 499.5 1376  C 526.1 1376  547 1396.9  547 1423.5  C 547 1450.1  526.1 1471  499.5 1471  C 472.9 1471  452 1450.1  452 1423.5  C 452 1396.9  472.9 1376  499.5 1376  Z " fill-rule="nonzero" fill="#ffffff" stroke="none" />
    <path d="M 499.5 1376.5  C 525.82 1376.5  546.5 1397.18  546.5 1423.5  C 546.5 1449.82  525.82 1470.5  499.5 1470.5  C 473.18 1470.5  452.5 1449.82  452.5 1423.5  C 452.5 1397.18  473.18 1376.5  499.5 1376.5  Z " stroke-width="1" stroke="#797979" fill="none" />
  </g>
</svg>