<?xml version="1.0" encoding="utf-8"?>
<svg version="1.1" xmlns:xlink="http://www.w3.org/1999/xlink" width="31px" height="31px" xmlns="http://www.w3.org/2000/svg">
  <g transform="matrix(1 0 0 1 -651 -1060 )">
    <path d="M 666.5 1060  C 675.18 1060  682 1066.82  682 1075.5  C 682 1084.18  675.18 1091  666.5 1091  C 657.82 1091  651 1084.18  651 1075.5  C 651 1066.82  657.82 1060  666.5 1060  Z " fill-rule="nonzero" fill="#ffffff" stroke="none" />
    <path d="M 666.5 1060.5  C 674.9 1060.5  681.5 1067.1  681.5 1075.5  C 681.5 1083.9  674.9 1090.5  666.5 1090.5  C 658.1 1090.5  651.5 1083.9  651.5 1075.5  C 651.5 1067.1  658.1 1060.5  666.5 1060.5  Z " stroke-width="1" stroke="#797979" fill="none" />
  </g>
</svg>