<?xml version="1.0" encoding="utf-8"?>
<svg version="1.1" xmlns:xlink="http://www.w3.org/1999/xlink" width="95px" height="95px" xmlns="http://www.w3.org/2000/svg">
  <g transform="matrix(1 0 0 1 -452 -1404 )">
    <path d="M 499.5 1404  C 526.1 1404  547 1424.9  547 1451.5  C 547 1478.1  526.1 1499  499.5 1499  C 472.9 1499  452 1478.1  452 1451.5  C 452 1424.9  472.9 1404  499.5 1404  Z " fill-rule="nonzero" fill="#ffffff" stroke="none" />
    <path d="M 499.5 1404.5  C 525.82 1404.5  546.5 1425.18  546.5 1451.5  C 546.5 1477.82  525.82 1498.5  499.5 1498.5  C 473.18 1498.5  452.5 1477.82  452.5 1451.5  C 452.5 1425.18  473.18 1404.5  499.5 1404.5  Z " stroke-width="1" stroke="#797979" fill="none" />
  </g>
</svg>