<?xml version="1.0" encoding="utf-8"?>
<svg version="1.1" xmlns:xlink="http://www.w3.org/1999/xlink" width="51px" height="51px" xmlns="http://www.w3.org/2000/svg">
  <g transform="matrix(1 0 0 1 -755 -3210 )">
    <path d="M 780.5 3210  C 794.78 3210  806 3221.22  806 3235.5  C 806 3249.78  794.78 3261  780.5 3261  C 766.22 3261  755 3249.78  755 3235.5  C 755 3221.22  766.22 3210  780.5 3210  Z " fill-rule="nonzero" fill="#ffffff" stroke="none" />
    <path d="M 780.5 3210.5  C 794.5 3210.5  805.5 3221.5  805.5 3235.5  C 805.5 3249.5  794.5 3260.5  780.5 3260.5  C 766.5 3260.5  755.5 3249.5  755.5 3235.5  C 755.5 3221.5  766.5 3210.5  780.5 3210.5  Z " stroke-width="1" stroke="#797979" fill="none" />
  </g>
</svg>