<?xml version="1.0" encoding="utf-8"?>
<svg version="1.1" xmlns:xlink="http://www.w3.org/1999/xlink" width="51px" height="51px" xmlns="http://www.w3.org/2000/svg">
  <g transform="matrix(1 0 0 1 -755 -3076 )">
    <path d="M 780.5 3076  C 794.78 3076  806 3087.22  806 3101.5  C 806 3115.78  794.78 3127  780.5 3127  C 766.22 3127  755 3115.78  755 3101.5  C 755 3087.22  766.22 3076  780.5 3076  Z " fill-rule="nonzero" fill="#ffffff" stroke="none" />
    <path d="M 780.5 3076.5  C 794.5 3076.5  805.5 3087.5  805.5 3101.5  C 805.5 3115.5  794.5 3126.5  780.5 3126.5  C 766.5 3126.5  755.5 3115.5  755.5 3101.5  C 755.5 3087.5  766.5 3076.5  780.5 3076.5  Z " stroke-width="1" stroke="#797979" fill="none" />
  </g>
</svg>