<?xml version="1.0" encoding="utf-8"?>
<svg version="1.1" xmlns:xlink="http://www.w3.org/1999/xlink" width="103px" height="103px" xmlns="http://www.w3.org/2000/svg">
  <g transform="matrix(1 0 0 1 -369 -1459 )">
    <path d="M 420.5 1459  C 449.34 1459  472 1481.66  472 1510.5  C 472 1539.34  449.34 1562  420.5 1562  C 391.66 1562  369 1539.34  369 1510.5  C 369 1481.66  391.66 1459  420.5 1459  Z " fill-rule="nonzero" fill="#ffffff" stroke="none" />
    <path d="M 420.5 1459.5  C 449.06 1459.5  471.5 1481.94  471.5 1510.5  C 471.5 1539.06  449.06 1561.5  420.5 1561.5  C 391.94 1561.5  369.5 1539.06  369.5 1510.5  C 369.5 1481.94  391.94 1459.5  420.5 1459.5  Z " stroke-width="1" stroke="#797979" fill="none" />
  </g>
</svg>