<?xml version="1.0" encoding="utf-8"?>
<svg version="1.1" xmlns:xlink="http://www.w3.org/1999/xlink" width="43px" height="32px" xmlns="http://www.w3.org/2000/svg">
  <g transform="matrix(1 0 0 1 -1159 -19 )">
    <path d="M 1180.5 19  C 1192.54 19  1202 26.04  1202 35  C 1202 43.96  1192.54 51  1180.5 51  C 1168.46 51  1159 43.96  1159 35  C 1159 26.04  1168.46 19  1180.5 19  Z " fill-rule="nonzero" fill="#ffffff" stroke="none" />
    <path d="M 1180.5 19.5  C 1192.26 19.5  1201.5 26.32  1201.5 35  C 1201.5 43.68  1192.26 50.5  1180.5 50.5  C 1168.74 50.5  1159.5 43.68  1159.5 35  C 1159.5 26.32  1168.74 19.5  1180.5 19.5  Z " stroke-width="1" stroke="#797979" fill="none" />
  </g>
</svg>