<?xml version="1.0" encoding="utf-8"?>
<svg version="1.1" xmlns:xlink="http://www.w3.org/1999/xlink" width="51px" height="51px" xmlns="http://www.w3.org/2000/svg">
  <g transform="matrix(1 0 0 1 -755 -3039 )">
    <path d="M 780.5 3039  C 794.78 3039  806 3050.22  806 3064.5  C 806 3078.78  794.78 3090  780.5 3090  C 766.22 3090  755 3078.78  755 3064.5  C 755 3050.22  766.22 3039  780.5 3039  Z " fill-rule="nonzero" fill="#ffffff" stroke="none" />
    <path d="M 780.5 3039.5  C 794.5 3039.5  805.5 3050.5  805.5 3064.5  C 805.5 3078.5  794.5 3089.5  780.5 3089.5  C 766.5 3089.5  755.5 3078.5  755.5 3064.5  C 755.5 3050.5  766.5 3039.5  780.5 3039.5  Z " stroke-width="1" stroke="#797979" fill="none" />
  </g>
</svg>