<?xml version="1.0" encoding="utf-8"?>
<svg version="1.1" xmlns:xlink="http://www.w3.org/1999/xlink" width="103px" height="103px" xmlns="http://www.w3.org/2000/svg">
  <g transform="matrix(1 0 0 1 -369 -1325 )">
    <path d="M 420.5 1325  C 449.34 1325  472 1347.66  472 1376.5  C 472 1405.34  449.34 1428  420.5 1428  C 391.66 1428  369 1405.34  369 1376.5  C 369 1347.66  391.66 1325  420.5 1325  Z " fill-rule="nonzero" fill="#ffffff" stroke="none" />
    <path d="M 420.5 1325.5  C 449.06 1325.5  471.5 1347.94  471.5 1376.5  C 471.5 1405.06  449.06 1427.5  420.5 1427.5  C 391.94 1427.5  369.5 1405.06  369.5 1376.5  C 369.5 1347.94  391.94 1325.5  420.5 1325.5  Z " stroke-width="1" stroke="#797979" fill="none" />
  </g>
</svg>