<?xml version="1.0" encoding="utf-8"?>
<svg version="1.1" xmlns:xlink="http://www.w3.org/1999/xlink" width="25px" height="25px" xmlns="http://www.w3.org/2000/svg">
  <g transform="matrix(1 0 0 1 -672 -1063 )">
    <path d="M 684.5 1063  C 691.5 1063  697 1068.5  697 1075.5  C 697 1082.5  691.5 1088  684.5 1088  C 677.5 1088  672 1082.5  672 1075.5  C 672 1068.5  677.5 1063  684.5 1063  Z " fill-rule="nonzero" fill="#ffffff" stroke="none" />
    <path d="M 684.5 1063.5  C 691.22 1063.5  696.5 1068.78  696.5 1075.5  C 696.5 1082.22  691.22 1087.5  684.5 1087.5  C 677.78 1087.5  672.5 1082.22  672.5 1075.5  C 672.5 1068.78  677.78 1063.5  684.5 1063.5  Z " stroke-width="1" stroke="#797979" fill="none" />
  </g>
</svg>