<?xml version="1.0" encoding="utf-8"?>
<svg version="1.1" xmlns:xlink="http://www.w3.org/1999/xlink" width="25px" height="25px" xmlns="http://www.w3.org/2000/svg">
  <g transform="matrix(1 0 0 1 -777 -1075 )">
    <path d="M 789.5 1075  C 796.5 1075  802 1080.5  802 1087.5  C 802 1094.5  796.5 1100  789.5 1100  C 782.5 1100  777 1094.5  777 1087.5  C 777 1080.5  782.5 1075  789.5 1075  Z " fill-rule="nonzero" fill="#ffffff" stroke="none" />
    <path d="M 789.5 1075.5  C 796.22 1075.5  801.5 1080.78  801.5 1087.5  C 801.5 1094.22  796.22 1099.5  789.5 1099.5  C 782.78 1099.5  777.5 1094.22  777.5 1087.5  C 777.5 1080.78  782.78 1075.5  789.5 1075.5  Z " stroke-width="1" stroke="#797979" fill="none" />
  </g>
</svg>