<?xml version="1.0" encoding="utf-8"?>
<svg version="1.1" xmlns:xlink="http://www.w3.org/1999/xlink" width="31px" height="31px" xmlns="http://www.w3.org/2000/svg">
  <g transform="matrix(1 0 0 1 -756 -1072 )">
    <path d="M 771.5 1072  C 780.18 1072  787 1078.82  787 1087.5  C 787 1096.18  780.18 1103  771.5 1103  C 762.82 1103  756 1096.18  756 1087.5  C 756 1078.82  762.82 1072  771.5 1072  Z " fill-rule="nonzero" fill="#ffffff" stroke="none" />
    <path d="M 771.5 1072.5  C 779.9 1072.5  786.5 1079.1  786.5 1087.5  C 786.5 1095.9  779.9 1102.5  771.5 1102.5  C 763.1 1102.5  756.5 1095.9  756.5 1087.5  C 756.5 1079.1  763.1 1072.5  771.5 1072.5  Z " stroke-width="1" stroke="#797979" fill="none" />
  </g>
</svg>