<?xml version="1.0" encoding="utf-8"?>
<svg version="1.1" xmlns:xlink="http://www.w3.org/1999/xlink" width="20px" height="20px" xmlns="http://www.w3.org/2000/svg">
  <g transform="matrix(1 0 0 1 -736 -1071 )">
    <path d="M 746 1071  C 751.6 1071  756 1075.4  756 1081  C 756 1086.6  751.6 1091  746 1091  C 740.4 1091  736 1086.6  736 1081  C 736 1075.4  740.4 1071  746 1071  Z " fill-rule="nonzero" fill="#ffffff" stroke="none" />
    <path d="M 746 1071.5  C 751.32 1071.5  755.5 1075.68  755.5 1081  C 755.5 1086.32  751.32 1090.5  746 1090.5  C 740.68 1090.5  736.5 1086.32  736.5 1081  C 736.5 1075.68  740.68 1071.5  746 1071.5  Z " stroke-width="1" stroke="#797979" fill="none" />
  </g>
</svg>