<?xml version="1.0" encoding="utf-8"?>
<svg version="1.1" xmlns:xlink="http://www.w3.org/1999/xlink" width="20px" height="20px" xmlns="http://www.w3.org/2000/svg">
  <g transform="matrix(1 0 0 1 -841 -1083 )">
    <path d="M 851 1083  C 856.6 1083  861 1087.4  861 1093  C 861 1098.6  856.6 1103  851 1103  C 845.4 1103  841 1098.6  841 1093  C 841 1087.4  845.4 1083  851 1083  Z " fill-rule="nonzero" fill="#ffffff" stroke="none" />
    <path d="M 851 1083.5  C 856.32 1083.5  860.5 1087.68  860.5 1093  C 860.5 1098.32  856.32 1102.5  851 1102.5  C 845.68 1102.5  841.5 1098.32  841.5 1093  C 841.5 1087.68  845.68 1083.5  851 1083.5  Z " stroke-width="1" stroke="#797979" fill="none" />
  </g>
</svg>