<?xml version="1.0" encoding="utf-8"?>
<svg version="1.1" xmlns:xlink="http://www.w3.org/1999/xlink" width="15px" height="29px" xmlns="http://www.w3.org/2000/svg">
  <g transform="matrix(1 0 0 1 -814 -1109 )">
    <path d="M 14.2316258351893 7.37199519230769  C 14.4432071269488 7.37199519230769  14.6325167037862 7.45913461538462  14.7995545657016 7.63341346153846  C 15 7.86578525641026  15.0389755011136 8.12139423076923  14.9164810690423 8.40024038461539  L 5.89643652561247 28.5643028846154  C 5.75167037861915 28.8547676282051  5.51781737193764 29  5.19487750556793 29  C 5.15033407572383 29  5.07238307349666 28.9883814102564  4.96102449888641 28.9651442307692  C 4.771714922049 28.9070512820513  4.62973273942094 28.7966746794872  4.53507795100223 28.6340144230769  C 4.44042316258352 28.4713541666667  4.41536748329621 28.2970753205128  4.45991091314031 28.1111778846154  L 7.75055679287305 14.0294471153846  L 0.968819599109132 15.7896634615385  C 0.924276169265033 15.801282051282  0.857461024498887 15.8070913461538  0.76837416481069 15.8070913461538  C 0.567928730512249 15.8070913461538  0.39532293986637 15.7431891025641  0.250556792873051 15.6153846153846  C 0.0501113585746102 15.4411057692308  -0.022271714922049 15.2145432692308  0.0334075723830735 14.9356971153846  L 3.39086859688196 0.557692307692309  C 3.43541202672606 0.39503205128205  3.52449888641425 0.261418269230771  3.65812917594655 0.156850961538462  C 3.79175946547884 0.0522836538461529  3.94766146993318 0  4.12583518930958 0  L 9.60467706013363 0  C 9.8162583518931 0  9.99443207126949 0.072616185897432  10.1391982182628 0.217848557692309  C 10.2839643652561 0.363080929487179  10.3563474387528 0.534455128205126  10.3563474387528 0.731971153846153  C 10.3563474387528 0.82491987179487  10.3285077951002 0.929487179487179  10.2728285077951 1.04567307692308  L 7.41648106904232 9.11478365384615  L 14.0311804008909 7.40685096153846  C 14.1202672605791 7.38361378205128  14.1870824053452 7.37199519230769  14.2316258351893 7.37199519230769  Z " fill-rule="nonzero" fill="#d7db09" stroke="none" transform="matrix(1 0 0 1 814 1109 )" />
  </g>
</svg>