<?xml version="1.0" encoding="utf-8"?>
<svg version="1.1" xmlns:xlink="http://www.w3.org/1999/xlink" width="67px" height="67px" xmlns="http://www.w3.org/2000/svg">
  <g transform="matrix(1 0 0 1 -724 -1376 )">
    <path d="M 757.5 1376  C 776.26 1376  791 1390.74  791 1409.5  C 791 1428.26  776.26 1443  757.5 1443  C 738.74 1443  724 1428.26  724 1409.5  C 724 1390.74  738.74 1376  757.5 1376  Z " fill-rule="nonzero" fill="#ffffff" stroke="none" />
    <path d="M 757.5 1376.5  C 775.98 1376.5  790.5 1391.02  790.5 1409.5  C 790.5 1427.98  775.98 1442.5  757.5 1442.5  C 739.02 1442.5  724.5 1427.98  724.5 1409.5  C 724.5 1391.02  739.02 1376.5  757.5 1376.5  Z " stroke-width="1" stroke="#797979" fill="none" />
  </g>
</svg>