<?xml version="1.0" encoding="utf-8"?>
<svg version="1.1" xmlns:xlink="http://www.w3.org/1999/xlink" width="67px" height="67px" xmlns="http://www.w3.org/2000/svg">
  <g transform="matrix(1 0 0 1 -724 -1404 )">
    <path d="M 757.5 1404  C 776.26 1404  791 1418.74  791 1437.5  C 791 1456.26  776.26 1471  757.5 1471  C 738.74 1471  724 1456.26  724 1437.5  C 724 1418.74  738.74 1404  757.5 1404  Z " fill-rule="nonzero" fill="#ffffff" stroke="none" />
    <path d="M 757.5 1404.5  C 775.98 1404.5  790.5 1419.02  790.5 1437.5  C 790.5 1455.98  775.98 1470.5  757.5 1470.5  C 739.02 1470.5  724.5 1455.98  724.5 1437.5  C 724.5 1419.02  739.02 1404.5  757.5 1404.5  Z " stroke-width="1" stroke="#797979" fill="none" />
  </g>
</svg>