<?xml version="1.0" encoding="utf-8"?>
<svg version="1.1" xmlns:xlink="http://www.w3.org/1999/xlink" width="67px" height="67px" xmlns="http://www.w3.org/2000/svg">
  <g transform="matrix(1 0 0 1 -413 -1233 )">
    <path d="M 446.5 1233  C 465.26 1233  480 1247.74  480 1266.5  C 480 1285.26  465.26 1300  446.5 1300  C 427.74 1300  413 1285.26  413 1266.5  C 413 1247.74  427.74 1233  446.5 1233  Z " fill-rule="nonzero" fill="#ffffff" stroke="none" />
    <path d="M 446.5 1233.5  C 464.98 1233.5  479.5 1248.02  479.5 1266.5  C 479.5 1284.98  464.98 1299.5  446.5 1299.5  C 428.02 1299.5  413.5 1284.98  413.5 1266.5  C 413.5 1248.02  428.02 1233.5  446.5 1233.5  Z " stroke-width="1" stroke="#797979" fill="none" />
  </g>
</svg>