<?xml version="1.0" encoding="utf-8"?>
<svg version="1.1" xmlns:xlink="http://www.w3.org/1999/xlink" width="67px" height="67px" xmlns="http://www.w3.org/2000/svg">
  <g transform="matrix(1 0 0 1 -823 -1270 )">
    <path d="M 856.5 1270  C 875.26 1270  890 1284.74  890 1303.5  C 890 1322.26  875.26 1337  856.5 1337  C 837.74 1337  823 1322.26  823 1303.5  C 823 1284.74  837.74 1270  856.5 1270  Z " fill-rule="nonzero" fill="#ffffff" stroke="none" />
    <path d="M 856.5 1270.5  C 874.98 1270.5  889.5 1285.02  889.5 1303.5  C 889.5 1321.98  874.98 1336.5  856.5 1336.5  C 838.02 1336.5  823.5 1321.98  823.5 1303.5  C 823.5 1285.02  838.02 1270.5  856.5 1270.5  Z " stroke-width="1" stroke="#797979" fill="none" />
  </g>
</svg>