<?xml version="1.0" encoding="utf-8"?>
<svg version="1.1" xmlns:xlink="http://www.w3.org/1999/xlink" width="67px" height="67px" xmlns="http://www.w3.org/2000/svg">
  <g transform="matrix(1 0 0 1 -823 -1404 )">
    <path d="M 856.5 1404  C 875.26 1404  890 1418.74  890 1437.5  C 890 1456.26  875.26 1471  856.5 1471  C 837.74 1471  823 1456.26  823 1437.5  C 823 1418.74  837.74 1404  856.5 1404  Z " fill-rule="nonzero" fill="#ffffff" stroke="none" />
    <path d="M 856.5 1404.5  C 874.98 1404.5  889.5 1419.02  889.5 1437.5  C 889.5 1455.98  874.98 1470.5  856.5 1470.5  C 838.02 1470.5  823.5 1455.98  823.5 1437.5  C 823.5 1419.02  838.02 1404.5  856.5 1404.5  Z " stroke-width="1" stroke="#797979" fill="none" />
  </g>
</svg>