<?xml version="1.0" encoding="utf-8"?>
<svg version="1.1" xmlns:xlink="http://www.w3.org/1999/xlink" width="60px" height="25px" xmlns="http://www.w3.org/2000/svg">
  <defs>
    <pattern id="BGPattern" patternUnits="userSpaceOnUse" alignment="0 0" imageRepeat="None" />
    <mask fill="white" id="Clip296">
      <path d="M 0 20  L 0 5  C 0 2.199999999999818  0.9428571428571623 0  2.142857142857143 0  L 57.85714285714286 0  C 59.057142857142836 0  60 2.199999999999818  60 5  L 60 20  C 60 22.800000000000182  59.057142857142836 25  57.85714285714286 25  L 42.42857142857143 25  L 2.142857142857143 25  C 0.9428571428571623 25  0 22.800000000000182  0 20  Z " fill-rule="evenodd" />
    </mask>
  </defs>
  <g transform="matrix(1 0 0 1 -335 -57 )">
    <path d="M 0 20  L 0 5  C 0 2.199999999999818  0.9428571428571623 0  2.142857142857143 0  L 57.85714285714286 0  C 59.057142857142836 0  60 2.199999999999818  60 5  L 60 20  C 60 22.800000000000182  59.057142857142836 25  57.85714285714286 25  L 42.42857142857143 25  L 2.142857142857143 25  C 0.9428571428571623 25  0 22.800000000000182  0 20  Z " fill-rule="nonzero" fill="rgba(255, 255, 255, 1)" stroke="none" transform="matrix(1 0 0 1 335 57 )" class="fill" />
    <path d="M 0 20  L 0 5  C 0 2.199999999999818  0.9428571428571623 0  2.142857142857143 0  L 57.85714285714286 0  C 59.057142857142836 0  60 2.199999999999818  60 5  L 60 20  C 60 22.800000000000182  59.057142857142836 25  57.85714285714286 25  L 42.42857142857143 25  L 2.142857142857143 25  C 0.9428571428571623 25  0 22.800000000000182  0 20  Z " stroke-width="2" stroke-dasharray="0" stroke="rgba(121, 121, 121, 1)" fill="none" transform="matrix(1 0 0 1 335 57 )" class="stroke" mask="url(#Clip296)" />
  </g>
</svg>