<?xml version="1.0" encoding="utf-8"?>
<svg version="1.1" xmlns:xlink="http://www.w3.org/1999/xlink" width="30px" height="30px" xmlns="http://www.w3.org/2000/svg">
  <defs>
    <pattern id="BGPattern" patternUnits="userSpaceOnUse" alignment="0 0" imageRepeat="None" />
    <mask fill="white" id="Clip298">
      <path d="M 0 30  L 0 0  L 30 0  L 30 30  L 0 30  Z " fill-rule="evenodd" />
    </mask>
  </defs>
  <g transform="matrix(1 0 0 1 -410 0 )">
    <path d="M 0 30  L 0 0  L 30 0  L 30 30  L 0 30  Z " fill-rule="nonzero" fill="rgba(242, 242, 242, 1)" stroke="none" transform="matrix(1 0 0 1 410 0 )" class="fill" />
    <path d="M 0 30  L 0 0  L 30 0  L 30 30  L 0 30  Z " stroke-width="2" stroke-dasharray="0" stroke="rgba(121, 121, 121, 1)" fill="none" transform="matrix(1 0 0 1 410 0 )" class="stroke" mask="url(#Clip298)" />
    <path d="M 29.646446609406727 0.35355339059327373  L 0.35355339059327373 29.646446609406727  M 0.35355339059327373 0.35355339059327373  L 29.646446609406727 29.646446609406727  " stroke-width="1" stroke-dasharray="0" stroke="rgba(121, 121, 121, 1)" fill="none" transform="matrix(1 0 0 1 410 0 )" class="stroke" />
  </g>
</svg>