<?xml version="1.0" encoding="utf-8"?>
<svg version="1.1" xmlns:xlink="http://www.w3.org/1999/xlink" width="84px" height="20px" xmlns="http://www.w3.org/2000/svg">
  <defs>
    <pattern id="BGPattern" patternUnits="userSpaceOnUse" alignment="0 0" imageRepeat="None" />
    <mask fill="white" id="Clip307">
      <path d="M 0 10  C 0 4.3999999999999995  18.479999999999997 0  42 0  C 65.52 0  84 4.3999999999999995  84 10  C 84 15.600000000000001  65.52 20  42 20  C 18.479999999999997 20  0 15.600000000000001  0 10  Z " fill-rule="evenodd" />
    </mask>
  </defs>
  <g transform="matrix(1 0 0 1 -291 -1650 )">
    <path d="M 0 10  C 0 4.3999999999999995  18.479999999999997 0  42 0  C 65.52 0  84 4.3999999999999995  84 10  C 84 15.600000000000001  65.52 20  42 20  C 18.479999999999997 20  0 15.600000000000001  0 10  Z " fill-rule="nonzero" fill="rgba(255, 255, 255, 1)" stroke="none" transform="matrix(1 0 0 1 291 1650 )" class="fill" />
    <path d="M 0 10  C 0 4.3999999999999995  18.479999999999997 0  42 0  C 65.52 0  84 4.3999999999999995  84 10  C 84 15.600000000000001  65.52 20  42 20  C 18.479999999999997 20  0 15.600000000000001  0 10  Z " stroke-width="2" stroke-dasharray="0" stroke="rgba(121, 121, 121, 1)" fill="none" transform="matrix(1 0 0 1 291 1650 )" class="stroke" mask="url(#Clip307)" />
  </g>
</svg>