<?xml version="1.0" encoding="utf-8"?>
<svg version="1.1" xmlns:xlink="http://www.w3.org/1999/xlink" width="110px" height="110px" xmlns="http://www.w3.org/2000/svg">
  <g transform="matrix(1 0 0 1 -596 -1202 )">
    <path d="M 651 1202  C 681.8 1202  706 1226.2  706 1257  C 706 1287.8  681.8 1312  651 1312  C 620.2 1312  596 1287.8  596 1257  C 596 1226.2  620.2 1202  651 1202  Z " fill-rule="nonzero" fill="#ffff00" stroke="none" />
    <path d="M 651 1202.5  C 681.52 1202.5  705.5 1226.48  705.5 1257  C 705.5 1287.52  681.52 1311.5  651 1311.5  C 620.48 1311.5  596.5 1287.52  596.5 1257  C 596.5 1226.48  620.48 1202.5  651 1202.5  Z " stroke-width="1" stroke="#797979" fill="none" />
  </g>
</svg>