<?xml version="1.0" encoding="utf-8"?>
<svg version="1.1" xmlns:xlink="http://www.w3.org/1999/xlink" width="279px" height="341px" xmlns="http://www.w3.org/2000/svg">
  <g transform="matrix(1 0 0 1 -511 -963 )">
    <path d="M 652.913854775341 965.5  C 652.913854775341 965.5  655.927895228803 967.341913610449  655.927895228803 967.341913610449  C 655.927895228803 967.341913610449  786.833003157259 1133.5  786.833003157259 1133.5  C 786.833003157259 1133.5  655.927895228803 1299.65808638955  655.927895228803 1299.65808638955  C 655.927895228803 1299.65808638955  652.913854775341 1301.5  652.913854775341 1301.5  C 652.913854775341 1301.5  516 1301.5  516 1301.5  C 514.6 1301.5  513.5 1300.4  513.5 1299  C 513.5 1299  513.5 968  513.5 968  C 513.5 966.6  514.6 965.5  516 965.5  C 516 965.5  652.913854775341 965.5  652.913854775341 965.5  Z " fill-rule="nonzero" fill="#d9001b" stroke="none" />
    <path d="M 653.188312865205 964.5  C 653.188312865205 964.5  656.596737137282 966.582925944047  656.596737137282 966.582925944047  C 656.596737137282 966.582925944047  788.099801894355 1133.5  788.099801894355 1133.5  C 788.099801894355 1133.5  656.596737137282 1300.41707405595  656.596737137282 1300.41707405595  C 656.596737137282 1300.41707405595  653.188312865205 1302.5  653.188312865205 1302.5  C 653.188312865205 1302.5  516 1302.5  516 1302.5  C 514.04 1302.5  512.5 1300.96  512.5 1299  C 512.5 1299  512.5 968  512.5 968  C 512.5 966.04  514.04 964.5  516 964.5  C 516 964.5  653.188312865205 964.5  653.188312865205 964.5  Z " stroke-width="3" stroke="#ffff00" fill="none" />
  </g>
</svg>