<?xml version="1.0" encoding="utf-8"?>
<svg version="1.1" xmlns:xlink="http://www.w3.org/1999/xlink" width="50px" height="16px" xmlns="http://www.w3.org/2000/svg">
  <g transform="matrix(1 0 0 1 -921 -1085 )">
    <path d="M 970.5 1088.2  C 970.5 1088.2  970.5 1097.8  970.5 1097.8  C 970.5 1099.55616  957.8125 1100.5  946 1100.5  C 934.1875 1100.5  921.5 1099.55616  921.5 1097.8  C 921.5 1097.8  921.5 1088.2  921.5 1088.2  C 921.5 1086.44384  934.1875 1085.5  946 1085.5  C 957.8125 1085.5  970.5 1086.44384  970.5 1088.2  Z " fill-rule="nonzero" fill="#ffffff" stroke="none" />
    <path d="M 921.5 1088.5  C 921.5 1086.82  932.28 1085.5  946 1085.5  C 959.72 1085.5  970.5 1086.82  970.5 1088.5  C 970.5 1088.5  970.5 1097.5  970.5 1097.5  C 970.5 1099.18  959.72 1100.5  946 1100.5  C 932.28 1100.5  921.5 1099.18  921.5 1097.5  C 921.5 1097.5  921.5 1088.5  921.5 1088.5  Z " stroke-width="1" stroke="#797979" fill="none" />
    <path d="M 970.5 1088.2  C 970.5 1089.712  959.72 1090.9  946 1090.9  C 932.28 1090.9  921.5 1089.712  921.5 1088.2  " stroke-width="1" stroke="#797979" fill="none" />
  </g>
</svg>