<?xml version="1.0" encoding="utf-8"?>
<svg version="1.1" xmlns:xlink="http://www.w3.org/1999/xlink" width="70px" height="70px" xmlns="http://www.w3.org/2000/svg">
  <g transform="matrix(1 0 0 1 -208 -1200 )">
    <path d="M 243 1200  C 262.6 1200  278 1215.4  278 1235  C 278 1254.6  262.6 1270  243 1270  C 223.4 1270  208 1254.6  208 1235  C 208 1215.4  223.4 1200  243 1200  Z " fill-rule="nonzero" fill="#f2f2f2" stroke="none" />
    <path d="M 243 1200.5  C 262.32 1200.5  277.5 1215.68  277.5 1235  C 277.5 1254.32  262.32 1269.5  243 1269.5  C 223.68 1269.5  208.5 1254.32  208.5 1235  C 208.5 1215.68  223.68 1200.5  243 1200.5  Z " stroke-width="1" stroke="#797979" fill="none" />
  </g>
</svg>