<?xml version="1.0" encoding="utf-8"?>
<svg version="1.1" xmlns:xlink="http://www.w3.org/1999/xlink" width="112px" height="112px" xmlns="http://www.w3.org/2000/svg">
  <g transform="matrix(1 0 0 1 -73 -1010 )">
    <path d="M 129 1010  C 160.36 1010  185 1034.64  185 1066  C 185 1097.36  160.36 1122  129 1122  C 97.64 1122  73 1097.36  73 1066  C 73 1034.64  97.64 1010  129 1010  Z " fill-rule="nonzero" fill="#ffffff" stroke="none" />
    <path d="M 129 1010.5  C 160.08 1010.5  184.5 1034.92  184.5 1066  C 184.5 1097.08  160.08 1121.5  129 1121.5  C 97.92 1121.5  73.5 1097.08  73.5 1066  C 73.5 1034.92  97.92 1010.5  129 1010.5  Z " stroke-width="1" stroke="#797979" fill="none" />
  </g>
</svg>