<?xml version="1.0" encoding="utf-8"?>
<svg version="1.1" xmlns:xlink="http://www.w3.org/1999/xlink" width="108px" height="23px" xmlns="http://www.w3.org/2000/svg">
  <g transform="matrix(1 0 0 1 -1098 -902 )">
    <path d="M 1197.61637917701 903.5  C 1197.61637917701 903.5  1198.30817575458 903.573663524463  1198.30817575458 903.573663524463  C 1198.30817575458 903.573663524463  1204.39357408584 913.5  1204.39357408584 913.5  C 1204.39357408584 913.5  1198.30817575458 923.426336475537  1198.30817575458 923.426336475537  C 1198.30817575458 923.426336475537  1197.61637917701 923.5  1197.61637917701 923.5  C 1197.61637917701 923.5  1103 923.5  1103 923.5  C 1101.04 923.5  1099.5 921.96  1099.5 920  C 1099.5 920  1099.5 907  1099.5 907  C 1099.5 905.04  1101.04 903.5  1103 903.5  C 1103 903.5  1197.61637917701 903.5  1197.61637917701 903.5  Z " fill-rule="nonzero" fill="#ffffff" stroke="none" />
    <path d="M 1197.34425278467 903  C 1197.34425278467 903  1198.57211716972 903.130744818778  1198.57211716972 903.130744818778  C 1198.57211716972 903.130744818778  1204.92904939056 913.5  1204.92904939056 913.5  C 1204.92904939056 913.5  1198.57211716972 923.869255181222  1198.57211716972 923.869255181222  C 1198.57211716972 923.869255181222  1197.34425278467 924  1197.34425278467 924  C 1197.34425278467 924  1103 924  1103 924  C 1100.76 924  1099 922.24  1099 920  C 1099 920  1099 907  1099 907  C 1099 904.76  1100.76 903  1103 903  C 1103 903  1197.34425278467 903  1197.34425278467 903  Z " stroke-width="2" stroke="#797979" fill="none" />
  </g>
</svg>