<?xml version="1.0" encoding="utf-8"?>
<svg version="1.1" xmlns:xlink="http://www.w3.org/1999/xlink" width="108px" height="23px" xmlns="http://www.w3.org/2000/svg">
  <g transform="matrix(1 0 0 1 -1033 -902 )">
    <path d="M 1132.61637917701 903.5  C 1132.61637917701 903.5  1133.30817575458 903.573663524463  1133.30817575458 903.573663524463  C 1133.30817575458 903.573663524463  1139.39357408584 913.5  1139.39357408584 913.5  C 1139.39357408584 913.5  1133.30817575458 923.426336475537  1133.30817575458 923.426336475537  C 1133.30817575458 923.426336475537  1132.61637917701 923.5  1132.61637917701 923.5  C 1132.61637917701 923.5  1038 923.5  1038 923.5  C 1036.04 923.5  1034.5 921.96  1034.5 920  C 1034.5 920  1034.5 907  1034.5 907  C 1034.5 905.04  1036.04 903.5  1038 903.5  C 1038 903.5  1132.61637917701 903.5  1132.61637917701 903.5  Z " fill-rule="nonzero" fill="#ffffff" stroke="none" />
    <path d="M 1132.34425278467 903  C 1132.34425278467 903  1133.57211716972 903.130744818778  1133.57211716972 903.130744818778  C 1133.57211716972 903.130744818778  1139.92904939056 913.5  1139.92904939056 913.5  C 1139.92904939056 913.5  1133.57211716972 923.869255181222  1133.57211716972 923.869255181222  C 1133.57211716972 923.869255181222  1132.34425278467 924  1132.34425278467 924  C 1132.34425278467 924  1038 924  1038 924  C 1035.76 924  1034 922.24  1034 920  C 1034 920  1034 907  1034 907  C 1034 904.76  1035.76 903  1038 903  C 1038 903  1132.34425278467 903  1132.34425278467 903  Z " stroke-width="2" stroke="#797979" fill="none" />
  </g>
</svg>