<?xml version="1.0" encoding="utf-8"?>
<svg version="1.1" xmlns:xlink="http://www.w3.org/1999/xlink" width="131px" height="133px" xmlns="http://www.w3.org/2000/svg">
  <defs>
    <mask fill="white" id="clip23">
      <path d="M 131 86.45  C 131 53.2  91.7 33.25  65.5 0  C 39.3 33.25  0 53.2  0 86.45  C 0 103.74  13.1 133  65.5 133  C 117.9 133  131 103.74  131 86.45  Z " fill-rule="evenodd" />
    </mask>
  </defs>
  <g transform="matrix(1 0 0 1 -77 -827 )">
    <path d="M 131 86.45  C 131 53.2  91.7 33.25  65.5 0  C 39.3 33.25  0 53.2  0 86.45  C 0 103.74  13.1 133  65.5 133  C 117.9 133  131 103.74  131 86.45  Z " fill-rule="nonzero" fill="#ffffff" stroke="none" transform="matrix(1 0 0 1 77 827 )" />
    <path d="M 131 86.45  C 131 53.2  91.7 33.25  65.5 0  C 39.3 33.25  0 53.2  0 86.45  C 0 103.74  13.1 133  65.5 133  C 117.9 133  131 103.74  131 86.45  Z " stroke-width="2" stroke="#797979" fill="none" transform="matrix(1 0 0 1 77 827 )" mask="url(#clip23)" />
  </g>
</svg>