<?xml version="1.0" encoding="utf-8"?>
<svg version="1.1" xmlns:xlink="http://www.w3.org/1999/xlink" width="170px" height="170px" xmlns="http://www.w3.org/2000/svg">
  <g transform="matrix(1 0 0 1 -58 -695 )">
    <path d="M 143 695  C 190.6 695  228 732.4  228 780  C 228 827.6  190.6 865  143 865  C 95.4 865  58 827.6  58 780  C 58 732.4  95.4 695  143 695  Z " fill-rule="nonzero" fill="#ffffff" stroke="none" />
    <path d="M 143 695.5  C 190.32 695.5  227.5 732.68  227.5 780  C 227.5 827.32  190.32 864.5  143 864.5  C 95.68 864.5  58.5 827.32  58.5 780  C 58.5 732.68  95.68 695.5  143 695.5  Z " stroke-width="1" stroke="#797979" fill="none" />
  </g>
</svg>