<?xml version="1.0" encoding="utf-8"?>
<svg version="1.1" xmlns:xlink="http://www.w3.org/1999/xlink" width="16px" height="16px" xmlns="http://www.w3.org/2000/svg">
  <g transform="matrix(1 0 0 1 -49 -288 )">
    <path d="M 57 288  C 61.48 288  65 291.52  65 296  C 65 300.48  61.48 304  57 304  C 52.52 304  49 300.48  49 296  C 49 291.52  52.52 288  57 288  Z " fill-rule="nonzero" fill="#80ffff" stroke="none" fill-opacity="0.682352941176471" />
    <path d="M 57 288.5  C 61.2 288.5  64.5 291.8  64.5 296  C 64.5 300.2  61.2 303.5  57 303.5  C 52.8 303.5  49.5 300.2  49.5 296  C 49.5 291.8  52.8 288.5  57 288.5  Z " stroke-width="1" stroke="#797979" fill="none" />
  </g>
</svg>