<?xml version="1.0" encoding="utf-8"?>
<svg version="1.1" xmlns:xlink="http://www.w3.org/1999/xlink" width="220px" height="95px" xmlns="http://www.w3.org/2000/svg">
  <g transform="matrix(1 0 0 1 -187 -1097 )">
    <path d="M 369.02087760204 1097.5  C 369.02087760204 1097.5  372.732789686876 1098.30143556377  372.732789686876 1098.30143556377  C 372.732789686876 1098.30143556377  406.413614441553 1144.5  406.413614441553 1144.5  C 406.413614441553 1144.5  372.732789686876 1190.69856443623  372.732789686876 1190.69856443623  C 372.732789686876 1190.69856443623  369.02087760204 1191.5  369.02087760204 1191.5  C 369.02087760204 1191.5  187.5 1191.5  187.5 1191.5  C 187.5 1191.5  187.5 1097.5  187.5 1097.5  C 187.5 1097.5  369.02087760204 1097.5  369.02087760204 1097.5  Z " fill-rule="nonzero" fill="#ffffff" stroke="none" />
    <path d="M 369.02087760204 1097.5  C 369.02087760204 1097.5  372.732789686876 1098.30143556377  372.732789686876 1098.30143556377  C 372.732789686876 1098.30143556377  406.413614441553 1144.5  406.413614441553 1144.5  C 406.413614441553 1144.5  372.732789686876 1190.69856443623  372.732789686876 1190.69856443623  C 372.732789686876 1190.69856443623  369.02087760204 1191.5  369.02087760204 1191.5  C 369.02087760204 1191.5  187.5 1191.5  187.5 1191.5  C 187.5 1191.5  187.5 1097.5  187.5 1097.5  C 187.5 1097.5  369.02087760204 1097.5  369.02087760204 1097.5  Z " stroke-width="1" stroke="#797979" fill="none" />
  </g>
</svg>