<?xml version="1.0" encoding="utf-8"?>
<svg version="1.1" xmlns:xlink="http://www.w3.org/1999/xlink" width="178px" height="40px" xmlns="http://www.w3.org/2000/svg">
  <g transform="matrix(1 0 0 1 -295 -1143 )">
    <path d="M 458.230961011502 1145.5  C 458.230961011502 1145.5  459.671765997565 1145.66188820068  459.671765997565 1145.66188820068  C 459.671765997565 1145.66188820068  470.313779446802 1163  470.313779446802 1163  C 470.313779446802 1163  459.671765997565 1180.33811179932  459.671765997565 1180.33811179932  C 459.671765997565 1180.33811179932  458.230961011502 1180.5  458.230961011502 1180.5  C 458.230961011502 1180.5  300 1180.5  300 1180.5  C 298.6 1180.5  297.5 1179.4  297.5 1178  C 297.5 1178  297.5 1148  297.5 1148  C 297.5 1146.6  298.6 1145.5  300 1145.5  C 300 1145.5  458.230961011502 1145.5  458.230961011502 1145.5  Z " fill-rule="nonzero" fill="#ffffff" stroke="none" />
    <path d="M 457.738576606901 1144.5  C 457.738576606901 1144.5  460.203059598539 1144.77690820131  460.203059598539 1144.77690820131  C 460.203059598539 1144.77690820131  471.388267668081 1163  471.388267668081 1163  C 471.388267668081 1163  460.203059598539 1181.22309179869  460.203059598539 1181.22309179869  C 460.203059598539 1181.22309179869  457.738576606901 1181.5  457.738576606901 1181.5  C 457.738576606901 1181.5  300 1181.5  300 1181.5  C 298.04 1181.5  296.5 1179.96  296.5 1178  C 296.5 1178  296.5 1148  296.5 1148  C 296.5 1146.04  298.04 1144.5  300 1144.5  C 300 1144.5  457.738576606901 1144.5  457.738576606901 1144.5  Z " stroke-width="3" stroke="#797979" fill="none" />
  </g>
</svg>