<?xml version="1.0" encoding="utf-8"?>
<svg version="1.1" xmlns:xlink="http://www.w3.org/1999/xlink" width="93px" height="101px" xmlns="http://www.w3.org/2000/svg">
  <g transform="matrix(1 0 0 1 -1054 -2070 )">
    <path d="M 73.3269230769231 53.0362723214286  C 73.3269230769231 53.5247395833333  73.1592548076923 53.9568452380952  72.8239182692308 54.3325892857143  L 44.2085336538462 83.1897321428571  C 43.8359375 83.5279017857143  43.4074519230769 83.6969866071429  42.9230769230769 83.6969866071429  C 42.4387019230769 83.6969866071429  42.0102163461538 83.5279017857143  41.6376201923077 83.1897321428571  L 25.5414663461538 66.9575892857143  C 25.2061298076923 66.5818452380952  25.0384615384615 66.1497395833333  25.0384615384615 65.6612723214286  C 25.0384615384615 65.1728050595238  25.2061298076923 64.7594866071429  25.5414663461538 64.4213169642857  L 28.1123798076923 61.8286830357143  C 28.4477163461538 61.4905133928571  28.8575721153846 61.3214285714286  29.3419471153846 61.3214285714286  C 29.8263221153846 61.3214285714286  30.2548076923077 61.4905133928571  30.6274038461538 61.8286830357143  L 42.9230769230769 74.2282366071429  L 67.7379807692308 49.2036830357143  C 68.1105769230769 48.8655133928571  68.5390625 48.6964285714286  69.0234375 48.6964285714286  C 69.5078125 48.6964285714286  69.9176682692308 48.8655133928571  70.2530048076923 49.2036830357143  L 72.8239182692308 51.7963169642857  C 73.1592548076923 52.1344866071429  73.3269230769231 52.5478050595238  73.3269230769231 53.0362723214286  Z M 8 36  L 8 93  L 85 93  L 85 36  L 8 36  Z M 28.1123798076923 26.5463169642857  C 28.4477163461538 26.2081473214286  28.6153846153846 25.7760416666667  29 25.25  L 29 9.01785714285714  C 28.6153846153846 8.49181547619046  28.4477163461538 8.05970982142857  28.1123798076923 7.72154017857143  C 27.7770432692308 7.38337053571429  27.3485576923077 7.21428571428571  26.8269230769231 7.21428571428571  L 23.25 7.21428571428571  C 22.7283653846154 7.21428571428571  22.2998798076923 7.38337053571429  21.9645432692308 7.72154017857143  C 21.6292067307692 8.05970982142857  21.4615384615385 8.49181547619046  22 9.01785714285714  L 22 25.25  C 21.4615384615385 25.7760416666667  21.6292067307692 26.2081473214286  21.9645432692308 26.5463169642857  C 22.2998798076923 26.8844866071429  22.7283653846154 27.0535714285714  23.25 27.0535714285714  L 26.8269230769231 27.0535714285714  C 27.3485576923077 27.0535714285714  27.7770432692308 26.8844866071429  28.1123798076923 26.5463169642857  Z M 71.0354567307692 26.5463169642857  C 71.3707932692308 26.2081473214286  71.5384615384615 25.7760416666667  71 25.25  L 71 9.01785714285714  C 71.5384615384615 8.49181547619046  71.3707932692308 8.05970982142857  71.0354567307692 7.72154017857143  C 70.7001201923077 7.38337053571429  70.2716346153846 7.21428571428571  69.75 7.21428571428571  L 66.1730769230769 7.21428571428571  C 65.6514423076923 7.21428571428571  65.2229567307692 7.38337053571429  64.8876201923077 7.72154017857143  C 64.5522836538461 8.05970982142857  64.3846153846154 8.49181547619046  64 9.01785714285714  L 64 25.25  C 64.3846153846154 25.7760416666667  64.5522836538461 26.2081473214286  64.8876201923077 26.5463169642857  C 65.2229567307692 26.8844866071429  65.6514423076923 27.0535714285714  66.1730769230769 27.0535714285714  L 69.75 27.0535714285714  C 70.2716346153846 27.0535714285714  70.7001201923077 26.8844866071429  71.0354567307692 26.5463169642857  Z M 90.8762019230769 16.5703125  C 92.2920673076923 17.9981398809524  93 19.6889880952381  93 21.6428571428571  L 93 93.7857142857143  C 93 95.7395833333333  92.2920673076923 97.4304315476191  90.8762019230769 98.8582589285714  C 89.4603365384615 100.286086309524  87.7836538461539 101  85.8461538461539 101  L 7.15384615384615 101  C 5.21634615384616 101  3.53966346153846 100.286086309524  2.12379807692308 98.8582589285714  C 0.707932692307692 97.4304315476191  0 95.7395833333333  0 93.7857142857143  L 0 21.6428571428571  C 0 19.6889880952381  0.707932692307692 17.9981398809524  2.12379807692308 16.5703125  C 3.53966346153846 15.1424851190476  5.21634615384616 14.4285714285714  7.15384615384615 14.4285714285714  L 14.3076923076923 14.4285714285714  L 14.3076923076923 9.01785714285714  C 14.3076923076923 6.53794642857143  15.1832932692308 4.4149925595238  16.9344951923077 2.64899553571429  C 18.6856971153846 0.882998511904763  20.7908653846154 0  23.25 0  L 26.8269230769231 0  C 29.2860576923077 0  31.3912259615385 0.882998511904763  33.1424278846154 2.64899553571429  C 34.8936298076923 4.4149925595238  35.7692307692308 6.53794642857143  35.7692307692308 9.01785714285714  L 35.7692307692308 15  L 57.2307692307692 15  L 57.2307692307692 9.01785714285714  C 57.2307692307692 6.53794642857143  58.1063701923077 4.4149925595238  59.8575721153846 2.64899553571429  C 61.6087740384615 0.882998511904763  63.7139423076923 0  66.1730769230769 0  L 69.75 0  C 72.2091346153846 0  74.3143028846154 0.882998511904763  76.0655048076923 2.64899553571429  C 77.8167067307692 4.4149925595238  78.6923076923077 6.53794642857143  78.6923076923077 9.01785714285714  L 78.6923076923077 14.4285714285714  L 85.8461538461539 14.4285714285714  C 87.7836538461539 14.4285714285714  89.4603365384615 15.1424851190476  90.8762019230769 16.5703125  Z " fill-rule="nonzero" fill="#000000" stroke="none" transform="matrix(1 0 0 1 1054 2070 )" />
  </g>
</svg>