<?xml version="1.0" encoding="utf-8"?>
<svg version="1.1" xmlns:xlink="http://www.w3.org/1999/xlink" width="200px" height="55px" xmlns="http://www.w3.org/2000/svg">
  <g transform="matrix(1 0 0 1 -734 -1788 )">
    <path d="M 735 1793  A 4 4 0 0 1 739 1789 L 929 1789  A 4 4 0 0 1 933 1793 L 933 1838  A 4 4 0 0 1 929 1842 L 739 1842  A 4 4 0 0 1 735 1838 L 735 1793  Z " fill-rule="nonzero" fill="#ffffff" stroke="none" />
    <path d="M 734.5 1793  A 4.5 4.5 0 0 1 739 1788.5 L 929 1788.5  A 4.5 4.5 0 0 1 933.5 1793 L 933.5 1838  A 4.5 4.5 0 0 1 929 1842.5 L 739 1842.5  A 4.5 4.5 0 0 1 734.5 1838 L 734.5 1793  Z " stroke-width="1" stroke-dasharray="9,4" stroke="#797979" fill="none" stroke-dashoffset="0.5" />
  </g>
</svg>