<?xml version="1.0" encoding="utf-8"?>
<svg version="1.1" xmlns:xlink="http://www.w3.org/1999/xlink" width="30px" height="45px" xmlns="http://www.w3.org/2000/svg">
  <g transform="matrix(1 0 0 1 -38 -2033 )">
    <path d="M 53 2076.95558796737  C 47.2 2066.107284903  38.5 2059.59830306437  38.5 2048.75  C 38.5 2043.08571428571  41.4 2033.5  53 2033.5  C 64.6 2033.5  67.5 2043.08571428571  67.5 2048.75  C 67.5 2059.59830306437  58.8 2066.107284903  53 2076.95558796737  Z " fill-rule="nonzero" fill="#ffffff" stroke="none" />
    <path d="M 53 2078  C 47 2066.75  38 2060  38 2048.75  C 38 2042.9  41 2033  53 2033  C 65 2033  68 2042.9  68 2048.75  C 68 2060  59 2066.75  53 2078  Z M 53 2075.91117593474  C 58.6 2065.46456980599  67 2059.19660612875  67 2048.75  C 67 2043.27142857143  64.2 2034  53 2034  C 41.8 2034  39 2043.27142857143  39 2048.75  C 39 2059.19660612875  47.4 2065.46456980599  53 2075.91117593474  Z " fill-rule="nonzero" fill="#797979" stroke="none" />
  </g>
</svg>