<?xml version="1.0" encoding="utf-8"?>
<svg version="1.1" xmlns:xlink="http://www.w3.org/1999/xlink" width="20px" height="20px" xmlns="http://www.w3.org/2000/svg">
  <g transform="matrix(1 0 0 1 -43 -2039 )">
    <path d="M 53 2039  C 58.6 2039  63 2043.4  63 2049  C 63 2054.6  58.6 2059  53 2059  C 47.4 2059  43 2054.6  43 2049  C 43 2043.4  47.4 2039  53 2039  Z " fill-rule="nonzero" fill="#aaaaaa" stroke="none" />
    <path d="M 53 2039.5  C 58.32 2039.5  62.5 2043.68  62.5 2049  C 62.5 2054.32  58.32 2058.5  53 2058.5  C 47.68 2058.5  43.5 2054.32  43.5 2049  C 43.5 2043.68  47.68 2039.5  53 2039.5  Z " stroke-width="1" stroke="#797979" fill="none" />
  </g>
</svg>