<?xml version="1.0" encoding="utf-8"?>
<svg version="1.1" xmlns:xlink="http://www.w3.org/1999/xlink" width="40px" height="40px" xmlns="http://www.w3.org/2000/svg">
  <g transform="matrix(1 0 0 1 -331 -2036 )">
    <path d="M 351 2036  C 362.2 2036  371 2044.8  371 2056  C 371 2067.2  362.2 2076  351 2076  C 339.8 2076  331 2067.2  331 2056  C 331 2044.8  339.8 2036  351 2036  Z " fill-rule="nonzero" fill="#ffffff" stroke="none" />
    <path d="M 351 2036.5  C 361.92 2036.5  370.5 2045.08  370.5 2056  C 370.5 2066.92  361.92 2075.5  351 2075.5  C 340.08 2075.5  331.5 2066.92  331.5 2056  C 331.5 2045.08  340.08 2036.5  351 2036.5  Z " stroke-width="1" stroke="#797979" fill="none" />
  </g>
</svg>