<?xml version="1.0" encoding="utf-8"?>
<svg version="1.1" xmlns:xlink="http://www.w3.org/1999/xlink" width="47px" height="47px" xmlns="http://www.w3.org/2000/svg">
  <g transform="matrix(1 0 0 1 -331 -2499 )">
    <path d="M 354.5 2499  C 367.66 2499  378 2509.34  378 2522.5  C 378 2535.66  367.66 2546  354.5 2546  C 341.34 2546  331 2535.66  331 2522.5  C 331 2509.34  341.34 2499  354.5 2499  Z " fill-rule="nonzero" fill="#ffffff" stroke="none" />
    <path d="M 354.5 2499.5  C 367.38 2499.5  377.5 2509.62  377.5 2522.5  C 377.5 2535.38  367.38 2545.5  354.5 2545.5  C 341.62 2545.5  331.5 2535.38  331.5 2522.5  C 331.5 2509.62  341.62 2499.5  354.5 2499.5  Z " stroke-width="1" stroke="#797979" fill="none" />
  </g>
</svg>