<?xml version="1.0" encoding="utf-8"?>
<svg version="1.1" xmlns:xlink="http://www.w3.org/1999/xlink" width="114px" height="114px" xmlns="http://www.w3.org/2000/svg">
  <g transform="matrix(1 0 0 1 -76 -2375 )">
    <path d="M 133 2375  C 164.92 2375  190 2400.08  190 2432  C 190 2463.92  164.92 2489  133 2489  C 101.08 2489  76 2463.92  76 2432  C 76 2400.08  101.08 2375  133 2375  Z " fill-rule="nonzero" fill="#ffffff" stroke="none" />
    <path d="M 133 2375.5  C 164.64 2375.5  189.5 2400.36  189.5 2432  C 189.5 2463.64  164.64 2488.5  133 2488.5  C 101.36 2488.5  76.5 2463.64  76.5 2432  C 76.5 2400.36  101.36 2375.5  133 2375.5  Z " stroke-width="1" stroke="#797979" fill="none" />
  </g>
</svg>