<?xml version="1.0" encoding="utf-8"?>
<svg version="1.1" xmlns:xlink="http://www.w3.org/1999/xlink" width="30px" height="45px" xmlns="http://www.w3.org/2000/svg">
  <g transform="matrix(1 0 0 1 -38 -2009 )">
    <path d="M 53 2052.95558796737  C 47.2 2042.107284903  38.5 2035.59830306437  38.5 2024.75  C 38.5 2019.08571428571  41.4 2009.5  53 2009.5  C 64.6 2009.5  67.5 2019.08571428571  67.5 2024.75  C 67.5 2035.59830306437  58.8 2042.107284903  53 2052.95558796737  Z " fill-rule="nonzero" fill="#ffffff" stroke="none" />
    <path d="M 53 2054  C 47 2042.75  38 2036  38 2024.75  C 38 2018.9  41 2009  53 2009  C 65 2009  68 2018.9  68 2024.75  C 68 2036  59 2042.75  53 2054  Z M 53 2051.91117593474  C 58.6 2041.46456980599  67 2035.19660612875  67 2024.75  C 67 2019.27142857143  64.2 2010  53 2010  C 41.8 2010  39 2019.27142857143  39 2024.75  C 39 2035.19660612875  47.4 2041.46456980599  53 2051.91117593474  Z " fill-rule="nonzero" fill="#797979" stroke="none" />
  </g>
</svg>