<?xml version="1.0" encoding="utf-8"?>
<svg version="1.1" xmlns:xlink="http://www.w3.org/1999/xlink" width="20px" height="20px" xmlns="http://www.w3.org/2000/svg">
  <g transform="matrix(1 0 0 1 -43 -2015 )">
    <path d="M 53 2015  C 58.6 2015  63 2019.4  63 2025  C 63 2030.6  58.6 2035  53 2035  C 47.4 2035  43 2030.6  43 2025  C 43 2019.4  47.4 2015  53 2015  Z " fill-rule="nonzero" fill="#aaaaaa" stroke="none" />
    <path d="M 53 2015.5  C 58.32 2015.5  62.5 2019.68  62.5 2025  C 62.5 2030.32  58.32 2034.5  53 2034.5  C 47.68 2034.5  43.5 2030.32  43.5 2025  C 43.5 2019.68  47.68 2015.5  53 2015.5  Z " stroke-width="1" stroke="#797979" fill="none" />
  </g>
</svg>