<?xml version="1.0" encoding="utf-8"?>
<svg version="1.1" xmlns:xlink="http://www.w3.org/1999/xlink" width="40px" height="40px" xmlns="http://www.w3.org/2000/svg">
  <g transform="matrix(1 0 0 1 -331 -2012 )">
    <path d="M 351 2012  C 362.2 2012  371 2020.8  371 2032  C 371 2043.2  362.2 2052  351 2052  C 339.8 2052  331 2043.2  331 2032  C 331 2020.8  339.8 2012  351 2012  Z " fill-rule="nonzero" fill="#ffffff" stroke="none" />
    <path d="M 351 2012.5  C 361.92 2012.5  370.5 2021.08  370.5 2032  C 370.5 2042.92  361.92 2051.5  351 2051.5  C 340.08 2051.5  331.5 2042.92  331.5 2032  C 331.5 2021.08  340.08 2012.5  351 2012.5  Z " stroke-width="1" stroke="#797979" fill="none" />
  </g>
</svg>