<?xml version="1.0" encoding="utf-8"?>
<svg version="1.1" xmlns:xlink="http://www.w3.org/1999/xlink" width="30px" height="30px" xmlns="http://www.w3.org/2000/svg">
  <g transform="matrix(1 0 0 1 -10 -40 )">
    <path d="M 25 40  C 33.4 40  40 46.6  40 55  C 40 63.4  33.4 70  25 70  C 16.6 70  10 63.4  10 55  C 10 46.6  16.6 40  25 40  Z " fill-rule="nonzero" fill="#ffffff" stroke="none" />
    <path d="M 25 40.5  C 33.12 40.5  39.5 46.88  39.5 55  C 39.5 63.12  33.12 69.5  25 69.5  C 16.88 69.5  10.5 63.12  10.5 55  C 10.5 46.88  16.88 40.5  25 40.5  Z " stroke-width="1" stroke="#797979" fill="none" />
  </g>
</svg>