<?xml version="1.0" encoding="utf-8"?>
<svg version="1.1" xmlns:xlink="http://www.w3.org/1999/xlink" width="33px" height="33px" xmlns="http://www.w3.org/2000/svg">
  <g transform="matrix(1 0 0 1 -9 -223 )">
    <path d="M 25.5 223  C 34.74 223  42 230.26  42 239.5  C 42 248.74  34.74 256  25.5 256  C 16.26 256  9 248.74  9 239.5  C 9 230.26  16.26 223  25.5 223  Z " fill-rule="nonzero" fill="#ffffff" stroke="none" />
    <path d="M 25.5 223.5  C 34.46 223.5  41.5 230.54  41.5 239.5  C 41.5 248.46  34.46 255.5  25.5 255.5  C 16.54 255.5  9.5 248.46  9.5 239.5  C 9.5 230.54  16.54 223.5  25.5 223.5  Z " stroke-width="1" stroke="#797979" fill="none" />
  </g>
</svg>