<?xml version="1.0" encoding="utf-8"?>
<svg version="1.1" xmlns:xlink="http://www.w3.org/1999/xlink" width="32px" height="37px" xmlns="http://www.w3.org/2000/svg">
  <defs>
    <pattern id="BGPattern" patternUnits="userSpaceOnUse" alignment="0 0" imageRepeat="None" />
    <mask fill="white" id="Clip28">
      <path d="M 22 37  L 32 18.5  L 22.4 0  L 22.4 10  L 0 10  L 0 27  L 22 27  L 22 37  Z " fill-rule="evenodd" />
    </mask>
  </defs>
  <g transform="matrix(1 0 0 1 -135 -2489 )">
    <path d="M 22 37  L 32 18.5  L 22.4 0  L 22.4 10  L 0 10  L 0 27  L 22 27  L 22 37  Z " fill-rule="nonzero" fill="rgba(255, 255, 255, 1)" stroke="none" transform="matrix(1 0 0 1 135 2489 )" class="fill" />
    <path d="M 22 37  L 32 18.5  L 22.4 0  L 22.4 10  L 0 10  L 0 27  L 22 27  L 22 37  Z " stroke-width="2" stroke-dasharray="0" stroke="rgba(121, 121, 121, 1)" fill="none" transform="matrix(1 0 0 1 135 2489 )" class="stroke" mask="url(#Clip28)" />
  </g>
</svg>