<?xml version="1.0" encoding="utf-8"?>
<svg version="1.1" xmlns:xlink="http://www.w3.org/1999/xlink" width="34px" height="37px" xmlns="http://www.w3.org/2000/svg">
  <defs>
    <pattern id="BGPattern" patternUnits="userSpaceOnUse" alignment="0 0" imageRepeat="None" />
    <mask fill="white" id="Clip337">
      <path d="M 23.799999999999997 37  L 34 18.5  L 23.799999999999997 0  L 23.799999999999997 10  L 0 10  L 0 27  L 23.799999999999997 27  L 23.799999999999997 37  Z " fill-rule="evenodd" />
    </mask>
  </defs>
  <g transform="matrix(1 0 0 1 -297 -2489 )">
    <path d="M 23.799999999999997 37  L 34 18.5  L 23.799999999999997 0  L 23.799999999999997 10  L 0 10  L 0 27  L 23.799999999999997 27  L 23.799999999999997 37  Z " fill-rule="nonzero" fill="rgba(255, 255, 255, 1)" stroke="none" transform="matrix(1 0 0 1 297 2489 )" class="fill" />
    <path d="M 23.799999999999997 37  L 34 18.5  L 23.799999999999997 0  L 23.799999999999997 10  L 0 10  L 0 27  L 23.799999999999997 27  L 23.799999999999997 37  Z " stroke-width="2" stroke-dasharray="0" stroke="rgba(121, 121, 121, 1)" fill="none" transform="matrix(1 0 0 1 297 2489 )" class="stroke" mask="url(#Clip337)" />
  </g>
</svg>